<?xml version="1.0" encoding="UTF-8" standalone="no"?>
<svg
   width="742.60944"
   height="363.85623"
   viewBox="0 0 742.60944 363.85623"
   fill="none"
   version="1.1"
   id="svg4"
   sodipodi:docname="Union.svg"
   inkscape:version="1.1.1 (3bf5ae0d25, 2021-09-20)"
   xmlns:inkscape="http://www.inkscape.org/namespaces/inkscape"
   xmlns:sodipodi="http://sodipodi.sourceforge.net/DTD/sodipodi-0.dtd"
   xmlns="http://www.w3.org/2000/svg"
   xmlns:svg="http://www.w3.org/2000/svg">
  <defs
     id="defs8">
    <clipPath
       clipPathUnits="userSpaceOnUse"
       id="clipPath874">
      <rect
         style="fill:#0000ff;fill-rule:evenodd"
         id="rect876"
         width="742.60944"
         height="363.85623"
         x="692.48297"
         y="240.605"
         ry="0"
         rx="0" />
    </clipPath>
  </defs>
  <sodipodi:namedview
     id="namedview6"
     pagecolor="#ffffff"
     bordercolor="#666666"
     borderopacity="1.0"
     inkscape:pageshadow="2"
     inkscape:pageopacity="0.0"
     inkscape:pagecheckerboard="0"
     showgrid="false"
     fit-margin-top="0"
     fit-margin-left="0"
     fit-margin-right="0"
     fit-margin-bottom="0"
     inkscape:zoom="0.71323529"
     inkscape:cx="644.24742"
     inkscape:cy="-116.37113"
     inkscape:window-width="1920"
     inkscape:window-height="1011"
     inkscape:window-x="0"
     inkscape:window-y="0"
     inkscape:window-maximized="1"
     inkscape:current-layer="svg4" />
  <path
     fill-rule="evenodd"
     clip-rule="evenodd"
     d="m 721.346,518.262 21.647,7.817 167.842,72.688 c 0.221,0.096 0.479,0.021 0.614,-0.179 l 108.221,-160.85 125.35,123.978 c -0.55,1.024 -0.76,2.245 -0.48,3.472 0.6,2.695 3.27,4.392 5.97,3.791 2.69,-0.601 4.39,-3.274 3.79,-5.969 -0.08,-0.348 -0.19,-0.68 -0.33,-0.992 l 132.06,-129.561 25.27,14.31 c -0.19,0.74 -0.22,1.535 -0.04,2.333 0.6,2.695 3.27,4.392 5.97,3.791 2.69,-0.601 4.39,-3.274 3.79,-5.969 -0.57,-2.568 -3.03,-4.23 -5.59,-3.861 l -7.22,-32.366 89.36,-87.665 c 1.03,0.568 2.27,0.777 3.5,0.501 2.7,-0.602 4.4,-3.274 3.79,-5.969 -0.29,-1.34 -1.1,-2.433 -2.18,-3.12 L 1503.21,75.1779 c 0.41,0.0125 0.82,-0.0255 1.24,-0.1188 2.7,-0.6012 4.39,-3.2735 3.79,-5.9687 -0.6,-2.6952 -3.27,-4.3926 -5.97,-3.7913 -2.39,0.5344 -4,2.705 -3.9,5.0736 l -214.18,-2.5646 c 0.12,-0.6441 0.11,-1.3225 -0.04,-2.0024 -0.6,-2.6951 -3.27,-4.3926 -5.97,-3.7913 -2.69,0.6013 -4.39,3.2736 -3.79,5.9687 0.11,0.4992 0.29,0.9641 0.53,1.3865 L 1123.13,118.62 c -0.07,0.021 -0.13,0.056 -0.18,0.102 L 1060.07,174.637 878.212,11.6144 c 1.639,-2.50033 1.682,-5.84998 -0.147,-8.44005 -2.389,-3.383559 -7.069,-4.18951 -10.453,-1.80018 -3.383,2.38934 -4.189,7.06917 -1.8,10.45273 2.148,3.0415 6.147,4.0002 9.391,2.4274 l 101.71,117.6177 c 0.542,0.627 1.489,0.695 2.116,0.153 0.626,-0.541 0.695,-1.489 0.153,-2.115 L 887.811,24.2478 1057.82,176.643 l -48.21,42.866 -152.186,9.451 c -0.699,0.044 -1.274,0.564 -1.387,1.255 l -6.241,38.097 -59.194,-58.546 c 1.017,-1.159 1.486,-2.77 1.125,-4.39 -0.601,-2.695 -3.274,-4.393 -5.969,-3.792 -2.695,0.602 -4.393,3.274 -3.791,5.969 0.08,0.36 0.197,0.703 0.347,1.024 l -87.454,30.151 -40.138,-68.71 c 2.834,-2.5 3.387,-6.786 1.157,-9.944 -2.389,-3.384 -7.069,-4.19 -10.452,-1.8 -3.384,2.389 -4.19,7.069 -1.801,10.452 1.955,2.768 5.441,3.811 8.498,2.792 l 39.844,68.207 -101.184,34.883 -6.704,-47.536 c 2.348,-0.833 3.759,-3.306 3.202,-5.799 -0.601,-2.695 -3.273,-4.393 -5.968,-3.791 -2.695,0.601 -4.393,3.273 -3.792,5.968 0.455,2.037 2.091,3.503 4.026,3.84 l -16.282,56.116 -114.168,39.36 c -0.01,-0.073 -0.022,-0.145 -0.035,-0.217 -0.005,-0.025 -0.01,-0.05 -0.014,-0.074 -0.008,-0.036 -0.015,-0.072 -0.023,-0.108 -0.601,-2.695 -3.274,-4.392 -5.969,-3.791 -2.695,0.601 -4.393,3.274 -3.791,5.969 0.601,2.695 3.273,4.393 5.968,3.791 1.443,-0.322 2.599,-1.237 3.271,-2.431 l 99.143,11.326 -30.531,105.221 -1.31,0.835 -58.775,0.485 34.988,-33.758 c 0.984,0.483 2.133,0.646 3.286,0.389 2.695,-0.601 4.392,-3.274 3.791,-5.969 -0.601,-2.695 -3.274,-4.392 -5.969,-3.791 -2.695,0.601 -4.392,3.273 -3.791,5.969 0.073,0.328 0.177,0.642 0.308,0.938 l -107.549,23.994 c -0.008,-0.324 -0.047,-0.652 -0.12,-0.981 -0.601,-2.695 -3.274,-4.392 -5.969,-3.791 -2.695,0.601 -4.392,3.274 -3.791,5.969 0.121,0.545 0.328,1.049 0.602,1.502 L 9.86386,563.127 c -0.63367,-2.652 -3.28125,-4.312 -5.95142,-3.717 -2.69531,0.602 -4.392699,3.274 -3.791381,5.969 0.601319,2.695 3.273561,4.393 5.968751,3.791 1.89111,-0.421 3.29102,-1.863 3.75024,-3.617 l 326.59595,-8.65 c 0.616,1.412 1.843,2.438 3.286,2.827 l -89.451,213.136 c -0.944,-0.418 -2.026,-0.549 -3.111,-0.307 -2.696,0.602 -4.393,3.274 -3.792,5.969 0.101,0.45 0.259,0.873 0.465,1.261 L 27.6357,891.226 c -0.9436,-2.138 -3.2938,-3.384 -5.6617,-2.856 -2.6952,0.601 -4.3926,3.273 -3.7913,5.969 0.6012,2.695 3.2736,4.392 5.9688,3.791 2.6857,-0.599 4.3807,-3.255 3.7974,-5.941 L 244.393,780.625 c 0.226,0.273 0.479,0.52 0.754,0.737 L 107.686,946.977 c -1.143,-0.91 -2.671,-1.314 -4.207,-0.971 -2.695,0.601 -4.3929,3.274 -3.7915,5.969 0.6015,2.695 3.2735,4.392 5.9685,3.791 0.365,-0.081 0.712,-0.201 1.037,-0.353 l 115.448,124.177 c -0.833,1.13 -1.191,2.6 -0.863,4.07 0.602,2.69 3.274,4.39 5.969,3.79 2.695,-0.6 4.393,-3.27 3.791,-5.97 -0.597,-2.68 -3.239,-4.37 -5.917,-3.8 L 183.502,962.972 c 2.463,-0.762 3.967,-3.303 3.396,-5.864 -0.602,-2.695 -3.274,-4.392 -5.969,-3.791 -2.383,0.532 -3.986,2.682 -3.91,5.036 l -67.57,-6.379 c 0.155,-0.695 0.164,-1.435 -0.001,-2.177 -0.181,-0.807 -0.547,-1.526 -1.044,-2.119 L 245.997,781.904 c 0.996,0.503 2.166,0.677 3.34,0.415 2.157,-0.481 3.675,-2.288 3.887,-4.372 L 422.615,763.56 c 1.048,1.887 3.246,2.943 5.459,2.45 2.696,-0.602 4.393,-3.274 3.792,-5.969 -0.359,-1.607 -1.454,-2.859 -2.85,-3.481 l 81.64,-281.361 38.757,16.9 -8.079,65.337 c -0.316,0.008 -0.635,0.047 -0.954,0.119 -2.695,0.601 -4.392,3.273 -3.791,5.968 0.536,2.402 2.716,4.011 5.092,3.908 l 51.003,178.337 c -2.165,0.931 -3.432,3.297 -2.9,5.681 0.601,2.695 3.274,4.392 5.969,3.791 2.695,-0.601 4.392,-3.273 3.791,-5.969 -0.463,-2.078 -2.159,-3.563 -4.147,-3.858 l 10,-228.903 68.551,29.891 c -0.206,1.77 0.215,3.619 1.324,5.189 2.389,3.384 7.069,4.19 10.452,1.8 2.94,-2.075 3.934,-5.879 2.578,-9.06 z M 1275.08,235.258 c 0.03,-2.317 1.14,-4.588 3.17,-6.027 3.39,-2.389 8.07,-1.583 10.46,1.8 2.39,3.384 1.58,8.064 -1.8,10.453 -3.29,2.321 -7.8,1.627 -10.25,-1.516 l -5.79,3.331 2.27,10.169 38.27,-27.241 c -0.29,-0.314 -0.54,-0.666 -0.75,-1.052 l -43.24,2.663 1.95,8.73 z m -5.06,4.238 2.4,-0.551 -2.24,1.287 z m -0.75,1.258 -0.23,-1.035 -29.75,6.819 -3.05,13.203 z m 0.69,3.067 2.29,10.276 -41.54,29.566 4.61,-19.931 z m -35.82,20.591 -4.65,20.125 -85.97,61.187 c -1.05,-1.888 -3.24,-2.945 -5.46,-2.451 -2.69,0.601 -4.39,3.274 -3.79,5.969 0.04,0.159 0.08,0.314 0.13,0.466 l -29.38,6.554 -11.88,-10.805 z m -141.92,81.569 11.61,10.547 -48.96,10.921 z m -47.18,23.663 44.85,-25.783 -28.28,-25.711 -114.182,46.727 27.568,27.266 15.583,-8.934 c -0.352,-0.512 -0.613,-1.098 -0.757,-1.742 -0.601,-2.695 1.096,-5.367 3.792,-5.968 2.695,-0.602 5.367,1.096 5.968,3.791 0.036,0.159 0.063,0.318 0.083,0.476 z m 6.92,-0.52 52.77,-11.773 9.8,8.901 -86.98,61.522 c -1.08,-1.791 -3.22,-2.777 -5.37,-2.297 -2.69,0.602 -4.39,3.274 -3.79,5.969 0.3,1.349 1.12,2.448 2.2,3.134 l -1.07,1.597 -30.955,-30.614 z m -65.608,34.251 55.768,-32.056 -42.433,9.467 c -0.173,2.126 -1.705,3.984 -3.896,4.473 -1.697,0.378 -3.386,-0.155 -4.553,-1.275 l -15.504,8.889 z m 1.313,2.705 31.285,30.942 -108.099,160.663 -166.559,-72.134 143.589,-82.315 22.889,-0.189 c 0.077,2.357 0.822,4.718 2.284,6.788 3.982,5.64 11.782,6.983 17.421,3.001 5.205,-3.676 6.75,-10.603 3.826,-16.082 z m -101.824,37.173 -142.711,81.812 -20.859,-7.532 93.426,-73.702 z m -280.303,70.045 69.349,30.24 c 0.527,-0.923 1.26,-1.747 2.185,-2.401 2.987,-2.109 6.984,-1.728 9.524,0.718 l 31.427,-24.793 -75.864,-27.393 c -0.226,-0.082 -0.362,-0.313 -0.323,-0.551 l 7.161,-43.912 -40.499,0.334 z m -1.123,2.784 -10.017,229.285 c -0.056,0.003 -0.112,0.007 -0.168,0.012 -0.038,0.003 -0.077,0.007 -0.116,0.011 -0.122,0.014 -0.244,0.032 -0.367,0.055 -0.036,0.007 -0.073,0.014 -0.109,0.022 L 542.679,567.286 c 2.625,-0.653 4.262,-3.286 3.67,-5.94 -0.454,-2.033 -2.086,-3.498 -4.017,-3.838 l 8.037,-64.992 z m -53.662,-26.672 53.802,23.46 2.941,-67.322 -51.371,0.423 z m -0.956,-0.417 -38.298,-16.699 7.549,-26.017 36.068,-0.297 z m 5.69,-46.016 -35.567,0.293 0.052,-0.178 38.543,-24.599 z m -37.483,3.309 -7.43,25.605 -21.224,-9.255 25.578,-16.325 z m -4.959,0.041 -24.8,15.828 -33.243,-14.496 0.893,-0.861 z m -58.602,0.483 -0.433,0.417 -0.348,-0.152 c 0.023,-0.086 0.045,-0.173 0.066,-0.259 z m -1.777,3.104 32.533,14.185 -139.503,89.033 -0.003,-0.008 z m 33.637,14.666 23.429,10.216 -81.667,281.45 c -0.693,-0.153 -1.43,-0.161 -2.168,0.004 -2.695,0.601 -4.393,3.273 -3.791,5.968 0.028,0.127 0.061,0.251 0.098,0.374 l -168.98,14.351 c -0.02,-0.197 -0.052,-0.394 -0.096,-0.592 -0.28,-1.256 -1.01,-2.295 -1.982,-2.986 l 89.592,-213.472 c 0.449,0.025 0.909,-0.01 1.369,-0.113 2.583,-0.576 4.25,-3.054 3.855,-5.632 z m -37.43,-12.397 c -3.073,1.061 -6.601,0.024 -8.571,-2.766 -2.389,-3.383 -1.583,-8.063 1.8,-10.453 3.384,-2.389 8.064,-1.583 10.453,1.801 0.665,0.942 1.083,1.984 1.266,3.05 l 3.758,-0.031 35.566,-34.316 c -0.369,-0.287 -0.699,-0.626 -0.977,-1.01 l -108.159,24.13 c -0.363,1.899 -1.817,3.496 -3.824,3.944 -1.786,0.398 -3.561,-0.212 -4.731,-1.453 L 9.99972,564.139 c 0.00248,0.076 0.00308,0.151 0.00198,0.226 -9e-4,0.061 -0.00296,0.123 -0.00601,0.184 L 336.122,555.911 c -0.552,-2.668 1.139,-5.295 3.808,-5.891 2.101,-0.469 4.189,0.46 5.292,2.169 z m 107.623,-9.215 3.113,-25.173 46.198,-29.485 2.375,16.837 c -0.118,0.018 -0.236,0.04 -0.355,0.066 -2.695,0.601 -4.392,3.274 -3.791,5.969 0.513,2.3 2.534,3.873 4.791,3.912 l -1.2,27.453 z m 52.133,-0.43 1.202,-27.529 0.025,-0.005 0.044,-0.009 0.055,-0.011 0.05,-0.011 c 2.695,-0.601 4.392,-3.273 3.791,-5.969 -0.499,-2.238 -2.428,-3.789 -4.611,-3.905 l -2.451,-17.38 54.664,-34.888 c 0.654,0.698 1.5,1.198 2.431,1.433 l -14.342,87.937 z m 41.873,-0.345 14.316,-87.782 c 0.433,0.019 0.877,-0.017 1.321,-0.116 2.539,-0.567 4.193,-2.973 3.872,-5.504 l 71.774,-23.79 11.553,19.778 c -4.739,4.165 -5.669,11.321 -1.947,16.591 3.982,5.64 11.782,6.983 17.421,3.001 3.735,-2.638 5.585,-6.95 5.252,-11.2 l 64.242,-14.725 -5.426,33.118 c -2.649,0.636 -4.307,3.282 -3.712,5.951 0.601,2.695 3.274,4.393 5.969,3.791 0.438,-0.098 0.85,-0.25 1.231,-0.449 l 25.149,18.099 -103.483,42.35 z m 102.745,2.153 -109.527,44.824 75.228,27.163 91.854,-72.462 z m 7.481,-3.062 101.746,-41.64 2.297,1.653 -50.126,39.543 z m 104.063,-43.668 -26.288,-18.919 c 0.51,-1 0.689,-2.178 0.425,-3.359 -0.375,-1.68 -1.554,-2.973 -3.042,-3.562 l 5.578,-34.054 62.584,-14.344 26.398,26.109 -56.001,44.178 z m 6.808,-1.706 -5.85,2.394 1.472,1.06 z m 12.911,-6.364 48.085,-37.933 13.055,12.911 z m 46.727,-40.683 -26.034,-25.75 82.704,-18.956 z m -29.715,-27.984 -59.534,13.645 7.404,-45.19 15.157,-5.024 z m -55.345,-30.48 -7.347,44.849 -65.359,14.981 c -0.379,-1.141 -0.93,-2.247 -1.659,-3.28 -3.656,-5.176 -10.529,-6.733 -15.994,-3.872 l -11.122,-19.041 z m -101.997,32.755 102.18,-33.868 3.237,-19.764 -59.727,-59.074 c -0.556,0.423 -1.209,0.735 -1.935,0.897 -1.057,0.236 -2.112,0.117 -3.039,-0.276 l -63.192,73.61 z m -2.911,0.965 -71.482,23.693 c -0.203,-0.601 -0.512,-1.142 -0.902,-1.607 l 50.751,-59.118 z m -22.166,-37.945 -50.935,59.332 c -1.142,-0.91 -2.671,-1.314 -4.207,-0.971 -2.133,0.476 -3.642,2.25 -3.879,4.305 l -59.794,-6.83 -9.362,-66.393 101.557,-35.012 z m -23.728,-46.566 87.463,-30.153 c 0.326,0.437 0.72,0.815 1.163,1.121 l -62.831,73.189 z m 156.838,32.502 -2.639,16.11 14.177,-4.699 z m 0.199,-1.211 6.392,-39.018 66.767,-4.147 c -1.947,2.537 -2.116,6.143 -0.174,8.892 2.389,3.384 7.069,4.19 10.453,1.8 3.383,-2.389 4.189,-7.069 1.8,-10.453 -0.24,-0.339 -0.503,-0.653 -0.786,-0.94 l 69.116,-4.292 -20.367,18.11 c -1.152,-1.465 -3.081,-2.224 -5.021,-1.791 -2.695,0.601 -4.393,3.274 -3.791,5.969 0.072,0.322 0.173,0.63 0.3,0.921 l -112.285,37.218 z m 158.818,-51.49 47.34,-42.094 34.2,30.66 c -1.72,1.858 -2.79,4.157 -3.16,6.566 z m 49.59,-44.1 62.72,-55.77 152,-49.3169 c 0.79,0.8898 1.89,1.4768 3.09,1.6322 l -23.41,101.3077 -2.54,-11.396 c 1.9,-1.041 2.97,-3.251 2.48,-5.476 -0.6,-2.695 -3.28,-4.393 -5.97,-3.791 -2.7,0.601 -4.39,3.273 -3.79,5.968 0.23,1.059 0.79,1.963 1.54,2.635 l -74.52,71.583 -96.61,5.949 17.14,-13.522 c 4.21,4.388 11.1,5.16 16.22,1.546 5.64,-3.982 6.98,-11.782 3,-17.421 -3.9,-5.531 -11.48,-6.929 -17.09,-3.222 z m 9.74,63.648 20.59,-16.243 c -0.95,-1.622 -1.49,-3.384 -1.64,-5.161 l -81.91,5.087 -21.444,19.067 c 0.177,0.356 0.314,0.739 0.405,1.144 0.095,0.427 0.133,0.853 0.118,1.271 z m 3.87,0.764 96.88,-5.965 -34.58,33.212 -103.78,23.787 -10.78,-9.803 z m -54.51,39.185 49.26,-38.862 -82.642,5.089 c -0.213,0.862 -0.652,1.651 -1.265,2.286 z m -0.8,0.628 -34.618,-31.464 c -0.51,0.348 -1.093,0.607 -1.733,0.75 -2.023,0.452 -4.034,-0.393 -5.165,-1.983 l -111.99,37.12 37.062,36.657 90.731,-20.795 z m 2.25,2.046 10.39,9.447 -31.53,7.227 z m 13.1,11.905 -39.735,9.107 -61.349,48.396 13.27,13.125 114.134,-46.708 z m 1.19,-0.272 96.86,-22.203 -26.93,25.868 c -1.16,-1.355 -3.01,-2.041 -4.88,-1.624 -2.69,0.601 -4.39,3.273 -3.79,5.968 0.1,0.433 0.25,0.839 0.44,1.215 l -35.55,14.548 z m 98.76,-22.637 -28.25,27.133 c 0.23,0.409 0.4,0.857 0.51,1.336 0.6,2.695 -1.1,5.367 -3.79,5.969 -1.91,0.426 -3.81,-0.304 -4.97,-1.725 l -35.29,14.441 28.17,25.608 144.26,-82.916 3.15,-13.635 z m 4.21,-4.043 34.22,-32.872 69.38,-4.272 -3.27,14.148 z m 101.41,-23.245 3.23,-13.963 23.14,-1.425 1.98,8.891 z m -358.376,148.503 -11.91,9.396 39.669,28.547 64.673,-37.075 -27.674,-27.37 z m 24.9,39.582 -39.26,-28.253 -47.764,37.679 71.611,-0.59 z m 0.892,0.641 -14.265,8.178 17.842,-0.147 c 0.313,-1.485 0.895,-2.914 1.732,-4.21 z m 2.858,-1.639 4.378,3.151 c 0.421,-0.397 0.876,-0.768 1.362,-1.112 5.241,-3.701 12.348,-2.802 16.522,1.871 l 52.877,-30.393 -10.62,-10.503 z m -159.762,13.993 -100.54,0.829 -7.046,43.201 z M 224.168,1077.98 c -0.504,0.22 -0.958,0.52 -1.352,0.87 L 107.569,954.887 c 0.676,-0.508 1.209,-1.178 1.554,-1.939 l 68.034,6.422 c 0.59,2.449 2.899,4.05 5.354,3.803 z M 1148.33,559.219 c -1.11,0.248 -2.05,0.848 -2.74,1.657 l -125.35,-123.983 1.25,-1.861 c 0.89,0.337 1.88,0.427 2.87,0.205 2.69,-0.601 4.39,-3.273 3.79,-5.968 -0.04,-0.198 -0.1,-0.39 -0.17,-0.577 l 87.31,-61.751 73.92,67.195 c -0.5,0.999 -0.68,2.173 -0.42,3.351 0.61,2.695 3.28,4.393 5.97,3.791 2.7,-0.601 4.4,-3.273 3.79,-5.968 -0.29,-1.332 -1.1,-2.42 -2.16,-3.107 l 10.32,-44.669 78.41,44.41 -131.68,129.186 c -1.14,-1.543 -3.12,-2.356 -5.11,-1.911 z m 163.32,-113.402 -24.88,-14.089 20.6,-20.208 7.09,31.781 c -1.26,0.448 -2.25,1.371 -2.81,2.516 z m 85.08,-123.367 -88.77,87.096 -34.59,-155.019 38.81,-27.621 c 1.11,0.797 2.55,1.134 3.99,0.812 2.7,-0.601 4.4,-3.274 3.8,-5.969 -0.61,-2.695 -3.28,-4.393 -5.97,-3.791 -2.7,0.601 -4.4,3.273 -3.79,5.968 0.02,0.092 0.04,0.182 0.06,0.271 l -43.07,2.652 -11.48,-51.427 23.93,-103.5412 c 0.23,-0.0181 0.47,-0.0533 0.71,-0.1063 0.22,-0.0492 0.43,-0.1123 0.64,-0.1881 l 115.64,243.3476 c -1.3,1.168 -1.94,2.981 -1.54,4.805 0.25,1.099 0.84,2.032 1.63,2.711 z m 0.73,-8.117 L 1281.9,71.1491 c 0.9,-0.5568 1.59,-1.3837 1.99,-2.3445 l 214.62,2.5699 c 0.46,1.8656 1.91,3.2351 3.67,3.6639 L 1401.79,313.988 c -0.89,-0.347 -1.89,-0.441 -2.89,-0.217 -0.52,0.115 -1,0.308 -1.44,0.562 z m -946.541,10.613 c 0.115,-0.365 0.188,-0.746 0.215,-1.135 l 113.791,-39.23 -14.995,51.676 z m 209.87,27.088 -54.209,34.597 -6.148,-43.598 59.636,6.812 c 0.019,0.219 0.053,0.439 0.102,0.658 0.124,0.557 0.336,1.071 0.619,1.531 z M 1251.37,162.259 c 0.12,-0.029 0.25,-0.062 0.37,-0.099 l 2.96,13.258 -12.24,52.954 -68.5,4.218 73.8,-70.89 c 1.05,0.611 2.33,0.844 3.61,0.559 z m -661.407,113.69 9.299,65.943 -29.846,-3.409 7.163,-57.92 z m 9.443,66.966 6.248,44.307 -45.886,29.285 9.526,-77.032 z m -79.012,98.721 38.28,-24.431 9.626,-77.843 -17.645,-2.016 z m 30.544,-105.264 17.485,1.997 7.103,-57.443 -9.444,3.256 z m 15.485,-53.365 9.24,-3.186 6.176,-49.943 z m 23.397,-8.067 -6.684,-47.404 -6.421,51.922 z m 599.94,158.343 -73.64,-66.934 20.05,-14.181 c 1.13,0.835 2.59,1.194 4.07,0.865 1.09,-0.244 2.02,-0.829 2.7,-1.619 l 62.87,35.606 -10.33,44.714 c -0.89,-0.345 -1.89,-0.439 -2.89,-0.216 -1.17,0.259 -2.14,0.902 -2.83,1.765 z m -74.4,-67.623 20.05,-14.183 c -0.22,-0.255 -0.43,-0.535 -0.6,-0.837 l -28.88,6.444 z m 113.79,-79.654 -85.23,60.659 c 0.04,0.131 0.08,0.264 0.11,0.399 0.28,1.248 0.06,2.492 -0.51,3.527 l 62.52,35.413 z m -22.2,100.512 78.92,44.697 21.25,-20.845 -34.63,-155.213 -42.11,29.975 z m 59.24,-159.606 -10.99,-49.234 -11.7,50.63 z"
     fill="#0a7e71"
     id="path2"
     clip-path="url(#clipPath874)"
     transform="translate(-692.48297,-240.605)" />
</svg>
