<svg width="80" height="80" viewBox="0 0 80 80" fill="none" xmlns="http://www.w3.org/2000/svg">
<path d="M57.625 2.5L43.5 23.625H50.5L66.25 2.5H57.625Z" fill="#428BC1"/>
<path d="M50.5 2.5L36.5 23.625H43.5L57.625 2.5H50.5Z" fill="#E8E8E8"/>
<path d="M43.5 2.5L29.5 23.625H36.5L50.5 2.5H43.5Z" fill="#ED4C5C"/>
<path d="M40 77.5C54.2213 77.5 65.75 65.9713 65.75 51.75C65.75 37.5287 54.2213 26 40 26C25.7787 26 14.25 37.5287 14.25 51.75C14.25 65.9713 25.7787 77.5 40 77.5Z" fill="#D3976E"/>
<path d="M27.125 18.875C26.5 18.875 26 19.375 26 20V30.5C26 31.125 26.5 31.625 27.125 31.625H52.875C53.5 31.625 54 31.125 54 30.5V20C54 19.375 53.5 18.875 52.875 18.875H27.125ZM51.75 27.125C51.75 27.75 51.25 28.25 50.625 28.25H29.5C28.875 28.25 28.375 27.75 28.375 27.125V22.375C28.375 21.75 28.875 21.25 29.5 21.25H50.625C51.25 21.25 51.75 21.75 51.75 22.375V27.125Z" fill="#D3976E"/>
<path opacity="0.5" d="M17.875 54.75C17.875 40.75 28.625 29.375 42.375 28.375C41.75 28.375 41 28.25 40.375 28.25C27.25 28.25 16.625 38.875 16.625 52.125C16.625 56 17.625 59.75 19.25 63C18.375 60.375 17.875 57.625 17.875 54.75Z" fill="#3E4347"/>
<path opacity="0.33" d="M49.875 71.625C61.5 63.875 65 48.75 58.25 37L59.375 38.5C66.625 49.25 63.625 63.875 52.75 71.25C49.5 73.5 45.875 74.75 42.25 75.125C45 74.375 47.5 73.25 49.875 71.625Z" fill="white"/>
<path d="M29.5 23.625H36.5L22.375 2.5H13.75L29.5 23.625Z" fill="#ED4C5C"/>
<path d="M36.5 23.625H43.5L29.5 2.5H22.375L36.5 23.625Z" fill="#E8E8E8"/>
<path opacity="0.5" d="M41.125 6L37.625 11.25L45.875 23.625H50.5L51.75 21.875L41.125 6Z" fill="#3E4347"/>
<path d="M43.5 23.625H50.5L36.5 2.5H29.5L43.5 23.625Z" fill="#428BC1"/>
<path opacity="0.5" d="M39.375 39.375C36.75 39.375 34.625 41.5 34.625 44H31.25C31.25 44.375 31.125 44.75 31.125 45.125H35.875C35.875 42.5 38 40.375 40.625 40.375C41.625 40.375 42.5 40.75 43.25 41.25C42.375 40.25 41 39.375 39.375 39.375Z" fill="#3E4347"/>
<path opacity="0.5" d="M46.75 52.25C48.75 50.5 50 48 50 45.25C50 42.375 48.75 39.75 46.625 38C48 39.625 48.875 41.75 48.875 44C48.875 46.75 47.625 49.375 45.625 51C47.625 52.75 48.875 55.25 48.875 58C48.875 63.125 44.625 67.375 39.5 67.375C37.25 67.375 35.125 66.5 33.5 65.125C35.25 67.125 37.75 68.5 40.75 68.5C45.875 68.5 50.125 64.25 50.125 59.125C50 56.5 48.75 54 46.75 52.25Z" fill="#3E4347"/>
<path opacity="0.33" d="M40.625 35.875C42.875 35.875 45 36.75 46.625 38.125C44.875 36.125 42.375 34.75 39.375 34.75C34.25 34.75 30 39 30 44.125H31.25C31.875 39.5 35.75 35.875 40.625 35.875Z" fill="white"/>
<path opacity="0.33" d="M45.25 45.25C45.25 43.625 44.5 42.25 43.25 41.375C43.75 42.125 44.125 43 44.125 44C44.125 46.625 42 48.75 39.375 48.75V53.5C39.75 53.5 40.125 53.625 40.5 53.625V50C43.125 50 45.25 47.875 45.25 45.25Z" fill="white"/>
<path opacity="0.33" d="M40.625 64C43.25 64 45.375 61.875 45.375 59.25C45.375 57.625 44.625 56.25 43.375 55.375C43.875 56.125 44.25 57 44.25 58C44.25 60.625 42.125 62.75 39.5 62.75C38.5 62.75 37.625 62.375 36.875 61.875C37.625 63.25 39 64 40.625 64Z" fill="white"/>
<path opacity="0.33" d="M34.875 59.375C34.75 59 34.75 58.625 34.75 58.25H30C30 61.125 31.25 63.75 33.375 65.5C32 63.875 31.125 61.75 31.125 59.5L34.875 59.375Z" fill="white"/>
</svg>
