<svg width="128" height="160" viewBox="0 0 128 160" fill="none" xmlns="http://www.w3.org/2000/svg">
<path d="M55.1501 151.643L53.1877 150.51L49.263 148.244L47.3006 147.111L45.3383 145.978L43.3759 144.845L39.4512 142.579L37.4888 141.446L35.5265 140.313L31.6018 138.047L29.6394 136.914L29.2066 136.665V125.321L29.6304 125.568L31.5927 126.701L33.0452 127.54L35.0076 128.673L36.9699 129.806L40.8946 132.072L42.857 133.205L44.8194 134.338L48.7441 136.604L50.7064 137.737L54.6311 140.003L55.1501 140.302V151.643ZM65.9294 158.862L67.894 157.729L69.8564 156.596L71.8188 155.463L73.7811 154.33L75.7435 153.197L77.7058 152.064L79.6682 150.931L81.6305 149.798L85.5552 147.532L87.5176 146.399L89.48 145.266L91.4423 144.133L93.4047 143L95.367 141.867L97.3294 140.734L99.2917 139.601L103.216 137.335L105.179 136.202L107.533 134.843V116.4L105.571 115.267L101.646 113.001L99.6838 111.868L97.7214 110.735L93.7967 108.469L91.8343 107.336L89.872 106.203L87.9096 105.07L83.9849 102.804L82.0226 101.671L80.0602 100.538L76.1355 98.2719L74.1731 97.1389L73.2418 96.6019L72.562 96.8534L72.281 96.9599L71.9524 97.0732L71.0279 97.3904L70.0377 97.7145L69.1607 97.9637L68.8254 98.0566H59.102L58.7666 97.9637L57.8897 97.7145L56.8994 97.3972L55.9703 97.0777L55.6418 96.9644L55.3608 96.8579L54.6923 96.6064L50.7676 98.8724L48.8053 100.005L46.8406 101.138L44.8783 102.271L40.9536 104.537L38.9912 105.67L35.0665 107.936L33.1041 109.069L31.1418 110.202L29.1794 111.335L27.2171 112.468L23.2924 114.734L21.33 115.867L20.3987 116.404V134.847L22.361 135.98L24.3257 137.113L26.288 138.246L28.2504 139.379L32.1751 141.645L34.1374 142.778L36.0998 143.911L40.0245 146.177L41.9869 147.31L45.9116 149.576L47.8739 150.709L49.8363 151.842L51.7986 152.975L53.761 154.108L57.6857 156.374L59.6481 157.507L61.6104 158.64L63.9648 160L65.9294 158.862Z" fill="#6D6E71"/>
<path d="M127.474 77.683C127.37 76.496 126.99 75.3498 126.363 74.3361C126.309 74.2523 126.255 74.1707 126.196 74.0891C126.096 73.9509 125.992 73.8149 125.881 73.6835C125.829 73.6201 125.777 73.5589 125.722 73.5C125.668 73.441 125.62 73.3867 125.566 73.33C125.276 73.0243 124.967 72.7382 124.639 72.4735C124.548 72.3987 124.455 72.3239 124.36 72.2469C124.265 72.1698 124.113 72.0588 123.986 71.9659C123.608 71.6894 123.22 71.4288 122.833 71.1728C117.759 67.8146 112.409 64.9254 107.134 61.8822L106.62 61.5944L107.3 59.836L108.022 57.6878L108.068 57.5541L108.698 55.3788L108.736 55.2451L109.3 53.0493L109.393 52.6868L109.939 50.4865L109.982 50.3143L110.436 48.0981L110.472 47.9236L110.859 45.6893L110.891 45.5081L111.206 43.2647L111.233 43.0744L111.483 40.822L111.505 40.6203L111.698 38.3543L111.736 37.9011L111.924 35.6351L111.945 35.4085L112.079 33.1425L112.094 32.9023L112.183 30.6363V30.3848L112.248 28.1188V27.8605L112.056 25.5945L112.015 25.1186L111.476 22.9636L111.344 22.4515L110.438 20.3713L110.189 19.7958L108.995 17.8697L108.591 17.2171L107.17 15.4654L106.579 14.7449L104.947 13.1722L104.143 12.395L102.355 11.0037L101.317 10.197L99.4071 8.98015L98.1336 8.16892L96.1259 7.1175L94.6213 6.33119L92.5388 5.43839L90.8121 4.69967L88.6708 3.95869L86.7469 3.29249L84.5603 2.69653L82.4597 2.12323L80.2413 1.67003L77.9957 1.21683L75.7546 0.892794L73.5113 0.568757L73.398 0.550629L71.132 0.358018L68.866 0.16541L68.6915 0.149546L66.4255 0.0860982L64.1595 0.0203857H63.9533L61.6873 0.0838335L59.4213 0.149546H59.2173L56.9513 0.342157L54.6853 0.537033L54.5108 0.550629L52.2675 0.874665L50.0264 1.20097L49.9109 1.21683L47.6925 1.67003L45.4468 2.13456L43.2624 2.73052L41.1618 3.30382L39.0454 4.038L37.1193 4.70421L35.0369 5.59701L33.3124 6.33573L31.3048 7.38488L29.8001 8.17345L27.8876 9.39029L26.6164 10.2015L24.8263 11.5928L23.7816 12.395L22.8752 13.2606L22.447 13.673L21.3366 14.7449L19.9294 16.501L19.338 17.2216L18.1438 19.15L17.7405 19.8003L17.6702 19.9634L17.0607 21.3661L16.8341 21.8782L16.7616 22.0436L16.5848 22.456L16.0206 24.6495L15.8892 25.1639L15.6965 27.4299L15.6558 27.9058V27.9171L15.7192 30.1718V30.4301V30.6975L15.8076 32.9454L15.9435 35.2114L15.9571 35.4516L16.05 36.5596L16.1475 37.7108L16.1656 37.9374L16.3582 40.2034L16.3967 40.6566L16.5576 42.1136L16.646 42.909L16.6687 43.1106L16.9836 45.354L17.0108 45.5443L17.3983 47.7786L17.43 47.9599L17.8832 50.176L17.9195 50.3505L18.1846 51.4178L18.4656 52.5508L18.5087 52.723L18.9211 54.3296L19.1658 55.2813L19.7957 57.4567L19.8343 57.5904L20.5571 59.7385L20.6024 59.8722L21.4182 61.9864L21.4726 62.1246L22.379 64.2026L22.5104 64.5039L23.4168 66.5796L23.4599 66.6725L24.4728 68.6983L24.5249 68.8025L25.6375 70.7762L25.7032 70.8918L26.8951 72.8179L27.022 73.0241L27.3053 73.4773L28.2321 74.9457L28.2592 74.991L29.5622 76.8468L29.5826 76.8763L30.9762 78.6687L32.4128 80.4226L32.474 80.4974L33.8608 82.1107L35.2997 83.6267L36.938 85.2129L38.3475 86.5544L39.8068 87.8075L41.5017 89.1286L42.9067 90.2162L44.3614 91.2269L46.0315 92.2896L47.4047 93.1439L48.8255 93.9302L50.3799 94.7437L51.6965 95.3872L53.0561 95.9719L54.4157 96.552L54.6763 96.6494L55.3447 96.9009L53.3824 98.0339L51.42 99.1669L47.4953 101.433L45.533 102.566L43.5706 103.699L41.6082 104.832L37.6835 107.098L35.7212 108.231L33.7588 109.364L29.8341 111.63L27.8718 112.763L27.3234 113.08L29.2857 114.213L33.2105 116.479L35.1728 117.612L39.0975 119.878L41.0599 121.011L42.6982 121.956L46.6229 124.222L48.5853 125.355L52.51 127.621L54.4723 128.754L56.4347 129.887L57.4385 130.467L59.4009 131.6L61.3632 132.733L63.3256 133.866L63.9487 134.226L64.5742 133.866L68.4989 131.6L70.4612 130.467L71.465 129.887L73.4274 128.754L75.3898 127.621L77.3521 126.488L79.3145 125.355L81.2768 124.222L85.2015 121.956L86.8399 121.009L88.8022 119.876L90.7646 118.743L94.7074 116.432L96.6698 115.299L98.6321 114.166L100.594 113.033L98.6321 111.9L96.6698 110.767L94.7074 109.634L90.7827 107.368L88.8158 106.235L86.8535 105.102L82.9242 102.836L80.9619 101.703L77.0326 99.4366L75.0703 98.3036L73.1079 97.1706L72.5595 96.8533L73.2393 96.6018L73.4999 96.5044L74.8595 95.9243L76.2191 95.3397L77.5357 94.6961L78.7321 94.0684C85.2355 97.0414 91.7865 100.078 98.6729 102.031C104.25 103.617 110.513 104.374 115.623 101.635C118.31 100.196 120.454 97.8844 122.069 95.3034C123.685 92.7224 124.807 89.865 125.806 86.9827C126.663 84.515 127.447 81.9793 127.533 79.3689C127.554 78.8062 127.534 78.2428 127.474 77.683ZM89.5545 86.5068L90.964 85.1653L92.6023 83.5791L94.0412 82.0632L95.428 80.4498L96.8624 78.6959L96.9236 78.6211L98.3194 76.8287L99.6201 74.9729L99.6428 74.9434L100.851 73.0264L100.878 72.9833L102.029 71.1275L103.842 72.2129L105.765 73.4116L106.219 73.6994L108.118 74.9366L108.485 75.1904L110.343 76.482L110.628 76.6814L112.421 78.0682L112.788 78.3515L114.084 79.5456L114.814 80.3501L115.267 81.0299L115.493 81.6961L115.523 82.2512L115.498 82.4778L115.48 82.6365L115.253 83.663L114.911 84.9342L114.474 86.4796L113.921 88.2222L113.216 90.0553L112.536 91.4149L111.596 92.8697L110.835 93.6923L110.191 94.1455L109.343 94.4514L108.063 94.5262L105.811 94.2089H105.752L103.563 93.6243L103.216 93.5314L101.084 92.7632L100.053 92.3916L97.9682 91.5033L96.7106 90.9686L94.6576 90.0055L93.2322 89.3257L91.1928 88.3173L89.6542 87.5514L88.8203 87.1254L89.5545 86.5068Z" fill="#6E3A00"/>
<path d="M100.588 113.033V116.4L99.8603 116.821L97.8979 117.954L93.9732 120.22L92.0109 121.353L88.0862 123.619L87.5106 123.95L85.5483 125.083L81.6235 127.349L79.6612 128.482L75.7365 130.748L73.7741 131.881L71.8118 133.014L69.8494 134.147L67.8871 135.28L65.9224 136.413L63.9601 137.546L63.3845 137.215L59.4598 134.949L57.4974 133.816L55.5351 132.683L53.5727 131.55L49.648 129.284L47.6857 128.151L45.7233 127.018L41.7986 124.752L39.8362 123.619L39.1089 123.198L35.1841 120.932L33.2218 119.799L29.2971 117.533L27.3347 116.4V113.033L27.8831 112.715L29.8454 111.582L33.7702 109.316L35.7325 108.183L37.6949 107.05L41.6196 104.784L43.5819 103.651L45.5443 102.518L47.5066 101.385L51.4314 99.1194L53.3937 97.9864L55.3561 96.8534L55.6371 96.9599L55.9656 97.0732L55.9702 97.0755L56.8992 97.395L57.8895 97.719L58.7664 97.9683L59.1018 98.0612H68.8206L69.156 97.9683L70.0329 97.719L71.0232 97.395L71.9477 97.0777L71.9568 97.0732L72.2854 96.9599L72.5663 96.8534L73.1147 97.1706L75.0771 98.3036L77.0394 99.4366L80.9641 101.703L82.9265 102.836L86.8512 105.102L88.8136 106.235L90.7759 107.368L94.7006 109.634L96.663 110.767L98.6253 111.9L100.588 113.033Z" fill="#854D00"/>
<path d="M55.1498 140.302V151.151L53.1807 150.014L51.2183 148.881L47.2936 146.615L45.3312 145.482L41.4065 143.216L39.4419 142.083L37.4796 140.95L35.5172 139.817L33.5548 138.684L31.5925 137.551L29.6301 136.418V125.568L31.5925 126.701L33.045 127.54L35.0073 128.673L36.9697 129.806L40.8944 132.072L42.8568 133.205L44.8191 134.338L48.7438 136.604L50.7062 137.737L54.6309 140.003L55.1498 140.302Z" fill="white"/>
<path d="M112.081 25.6352L112.04 25.1594L111.476 22.9636L111.344 22.4515L110.438 20.3713L110.189 19.7958L108.995 17.8697L108.591 17.2171L107.17 15.4654L106.579 14.7449L104.947 13.1722L104.143 12.395L102.355 11.0037L101.317 10.197L99.4071 8.98015L98.1336 8.16892L96.1259 7.11749L94.6213 6.33119L92.5389 5.43839L90.8122 4.69967L88.6708 3.95869L86.747 3.29249L84.5603 2.69653L82.4597 2.12323L80.2413 1.67003L77.9957 1.21683L75.7546 0.892794L73.5113 0.568757L73.398 0.550629L71.132 0.358017L68.866 0.16541L68.6915 0.149546L66.4255 0.0860982L64.1595 0.0203857H63.9533L61.6873 0.0838335L59.4213 0.149546H59.2173L56.9513 0.342157L54.6853 0.537033L54.5109 0.550629L52.2675 0.874665L50.0264 1.20097L49.9109 1.21683L47.6925 1.67003L45.4469 2.13456L43.2624 2.73052L41.1619 3.30382L39.0454 4.038L37.1193 4.70421L35.0369 5.59701L33.3124 6.33573L31.3048 7.38488L29.8001 8.17345L27.8876 9.39029L26.6164 10.2015L24.8263 11.5928L23.7816 12.395L22.8752 13.2606L22.447 13.673L21.3366 14.7449L19.9294 16.501L19.338 17.2216L18.1438 19.15L17.7405 19.8003L17.6702 19.9634L17.0607 21.3661L16.8341 21.8782L16.7616 22.0436L16.5848 22.456L16.0206 24.6495L15.8892 25.1639L15.6965 27.4299L15.6558 27.9058V27.9171L15.7192 30.1718V30.4301V30.6975L15.8076 32.9454L15.9435 35.2114L15.9571 35.4516L16.05 36.5596L16.1475 37.7108L16.1656 37.9374L16.3582 40.2034L16.3967 40.6566L16.5576 42.1136L16.646 42.909L16.6687 43.1106L16.9836 45.354L17.0108 45.5443L17.3983 47.7786L17.43 47.9599L17.8832 50.176L17.9195 50.3505L18.1846 51.4178L18.4656 52.5508L18.5087 52.723L18.9211 54.3296L19.1658 55.2813L19.7957 57.4567L19.8343 57.5904L20.5571 59.7385L20.6024 59.8722L21.4182 61.9864L21.4726 62.1246L22.379 64.2026L22.5104 64.5039L23.4168 66.5796L23.4599 66.6725L24.4728 68.6983L24.5249 68.8025L25.6375 70.7762L25.7032 70.8918L26.8951 72.8179L27.022 73.0241L27.3053 73.4773C30.4346 76.2871 34.067 78.0342 37.8603 78.3764C44.6583 78.9882 50.1533 74.9253 52.2992 73.3368C59.734 67.8372 62.3761 59.9991 63.3233 55.8048H63.4185L63.9397 55.8184H64.1459L66.4119 55.7526L68.6779 55.6892L68.8524 55.6733L71.1184 55.4807L73.3844 55.2881L73.4977 55.2723L75.741 54.9459L77.9821 54.6219L80.2277 54.1687L82.4461 53.7155L84.5467 53.1422L86.7334 52.5463L88.6572 51.8801L90.7986 51.1391L92.5253 50.4004L94.6077 49.5076L96.1124 48.7212L98.12 47.6698L99.3935 46.8586L101.304 45.6418L102.342 44.8351L104.129 43.4437L104.809 42.7934L104.938 42.6665L106.57 41.0962L107.161 40.3733L108.598 38.6217L109.001 37.9691L110.196 36.043L110.445 35.4674L111.351 33.3872L111.476 32.8162L112.04 30.6227L112.081 30.1446L112.273 27.8786L112.081 25.6352Z" fill="#915400"/>
<path d="M22.8935 13.2606L22.4653 13.673L21.3549 14.7449L19.9296 16.501L19.3382 17.2216L18.144 19.15L17.7407 19.8003L17.6704 19.9635L17.0609 21.3661L16.8343 21.8782L16.7617 22.0436L16.3085 21.8034L15.9414 21.6176L13.9156 20.5798L12.9775 20.1402L13.1203 20.82L13.5735 22.9002L13.6256 23.1132L14.1445 25.3203L14.1966 25.5197L14.7858 27.7086L15.0124 28.4406L15.7035 30.5978L15.7284 30.6658L15.8168 32.9136L15.9528 35.1796L15.9664 35.4198L16.0593 36.5279L16.1567 37.679L16.1748 37.9056L16.3675 40.1716L16.406 40.6248L16.5669 42.0819L16.6552 42.8772L16.6779 43.0789L16.9929 45.3223L17.0201 45.5126L17.4076 47.7469L17.4393 47.9282L17.8925 50.1443L17.9287 50.3188L18.1939 51.3861L18.4748 52.5191L18.5179 52.6913L18.9303 54.2979L18.2777 53.6294C14.4957 49.324 11.1058 45.1659 8.54749 39.9677C5.98918 34.7695 4.14012 29.1747 2.6355 23.5528C1.69511 20.0428 0.868018 16.4851 0.546246 12.8641C0.519054 12.5604 0.494133 12.2568 0.480537 11.9577C0.480537 11.8172 0.464671 11.6767 0.462405 11.5339C0.460139 11.3912 0.462405 11.2847 0.462405 11.16C0.435537 10.1637 0.567094 9.16935 0.852157 8.21425C1.32802 6.72095 2.40437 5.34323 3.89766 4.86057C4.6369 4.63735 5.41953 4.59845 6.17726 4.74727C7.04492 4.91335 7.891 5.17713 8.69932 5.53357C13.6958 7.57977 18.2369 10.5732 22.8935 13.2606Z" fill="#854D00"/>
<path d="M18.9416 54.2979L18.289 53.6294C14.507 49.324 11.1171 45.1659 8.55875 39.9677C6.00044 34.7695 4.15138 29.1747 2.64676 23.5528C1.70637 20.0428 0.879276 16.4851 0.557504 12.8641C0.530312 12.5604 0.505384 12.2568 0.491788 11.9577C0.491788 11.8172 0.475929 11.6767 0.473663 11.5339C0.471397 11.3912 0.473663 11.2847 0.473663 11.16C0.741226 12.0142 1.05902 12.8518 1.42538 13.6685C6.48762 13.1043 15.4746 18.5744 17.6658 19.9634L17.0563 21.3661C15.5002 20.4758 13.8862 19.6908 12.2251 19.0163C9.69628 17.9898 6.48082 16.9882 6.21797 17.5139C6.09334 17.7632 6.8094 18.1121 7.76338 19.5533C8.30034 20.3009 8.78782 21.0828 9.22269 21.8941C10.6503 24.466 10.9154 27.9035 11.7402 30.1536C12.3566 31.8463 13.553 34.1395 16.0637 36.5483L16.1612 37.6994L16.1793 37.926L16.3719 40.192L16.4104 40.6452L16.5713 42.1023C14.8788 40.7248 13.3038 39.2089 11.8626 37.5703C8.89638 34.1939 7.65235 31.5926 7.25353 31.7874C6.69156 32.0616 8.37067 37.679 11.4207 42.8636C13.2776 46.0076 15.5607 48.8795 18.2051 51.3974L18.4861 52.5304L18.5292 52.7026L18.9416 54.2979Z" fill="#854D00"/>
<path d="M63.9601 134.179V137.546L63.3845 137.215L59.4598 134.949L57.4974 133.816L55.5351 132.683L53.5727 131.55L51.6104 130.417L49.648 129.284L47.6857 128.151L45.7233 127.018L41.7986 124.752L39.8362 123.619L39.1089 123.198L35.1841 120.932L33.2218 119.799L31.2594 118.666L29.2971 117.533L27.3347 116.4V113.033L29.2971 114.166L31.2594 115.299L33.2218 116.432L35.1841 117.565L39.1089 119.831L41.0712 120.964L42.7095 121.909L44.6719 123.042L46.6342 124.175L48.5966 125.308L52.5213 127.574L54.4837 128.707L56.446 129.84L57.4499 130.42L59.4122 131.553L61.3746 132.686L63.3369 133.819L63.9601 134.179Z" fill="#854D00"/>
<path d="M112.274 27.8922L112.081 30.1491L112.04 30.6273L111.476 32.8207L111.345 33.3329L110.443 35.413L110.194 35.9886L108.999 37.9147L108.596 38.5673L107.159 40.3189L106.568 41.0418L104.936 42.6121L104.807 42.739L104.132 43.3894L102.344 44.7807L101.306 45.5874L99.396 46.8042L98.1225 47.6155L96.1149 48.6669L94.6102 49.4532L92.5278 50.346L90.8011 51.0847L88.6597 51.8257L86.7359 52.4919L84.5492 53.0878L82.4486 53.6611L80.2302 54.1211L77.9846 54.5834L75.7435 54.9074L73.5002 55.2337L73.3869 55.2496L71.1299 55.4422L68.8707 55.6348L68.6963 55.6507L66.4325 55.7141L64.1665 55.7799L63.9603 55.7844L63.4391 55.7708L63.344 55.7663L61.6966 55.7209L59.4306 55.6575L59.2266 55.6507L56.9674 55.4581L54.7105 55.2632L54.536 55.2496L52.2927 54.9256L50.0516 54.5993L49.936 54.5834L47.7176 54.1257L46.4645 53.8673L45.472 53.6611L43.2876 53.0652L41.187 52.4919L39.0456 51.7509L37.1195 51.0847L35.0371 50.1919L33.3126 49.4532L31.305 48.404L29.8003 47.6155L27.8878 46.3986L26.6166 45.5874L24.8265 44.1961L23.7909 43.3894L23.1156 42.7368L21.4841 41.1664L21.355 41.0418L19.9183 39.2879L19.3269 38.5673L18.7649 37.6609L17.7294 35.9886L16.8275 33.9107L16.5782 33.3329L16.2406 32.0254L15.8826 30.6273L15.69 28.3681L15.6492 27.8922L15.69 27.4163L15.8826 25.1594L16.014 24.645L16.5782 22.4515L16.755 22.0391L16.8275 21.8737L17.0496 21.3616L17.6591 19.9589L17.7294 19.7958L18.1327 19.1454L19.3269 17.2171L19.9183 16.4965L21.355 14.7449L22.4653 13.673L22.8936 13.2606L23.7909 12.395L24.8265 11.5883L26.6166 10.197L27.8878 9.38577L29.8003 8.16893L31.305 7.38036L33.3126 6.3312L35.0371 5.59249L37.1195 4.69968L39.0456 4.03348L41.187 3.2925L43.2876 2.7192L45.472 2.12324L47.7176 1.65871L49.936 1.20098L50.0516 1.18512L52.2927 0.858816L54.536 0.534776L54.7105 0.521181L56.9674 0.326305L59.2266 0.133697L59.4306 0.129164L61.6966 0.0634512L63.9603 0L64.1665 0.00453297L66.4325 0.0702489L68.6963 0.133697L68.8707 0.149557L71.1299 0.342168L73.3869 0.534776L73.5002 0.552904L75.7435 0.876944L77.9846 1.20098L80.2302 1.66325L82.4486 2.12324L84.5492 2.69654L86.7359 3.2925L88.6597 3.9587L90.8011 4.69968L92.5278 5.4384L94.6102 6.3312L96.1149 7.11751L98.1225 8.16893L99.396 8.98016L101.306 10.197L102.344 11.0037L104.132 12.395L104.936 13.1723L106.568 14.7449L107.159 15.4654L108.596 17.2171L108.999 17.8697L110.194 19.7958L110.443 20.3713L111.345 22.4515L111.476 22.9636L112.04 25.1594L112.081 25.6353L112.274 27.8922Z" fill="#915400"/>
<path d="M105.854 27.7699L105.843 27.8832L105.65 30.1492L105.612 30.3032L105.047 32.499L104.95 32.7256L104.044 34.8058L103.853 35.114L102.659 37.0401L102.337 37.4321L100.903 39.186L100.42 39.6392L98.7864 41.2004L98.1247 41.7148L96.3368 43.1061L95.4871 43.6477L93.5746 44.8736L92.5345 45.4152L90.5268 46.4666L89.31 46.9878L87.2252 47.8806L85.8407 48.3587L83.6993 49.0997L82.1698 49.5189L79.9831 50.1149L78.3312 50.457L76.1128 50.9102L74.368 51.1618L72.1246 51.4881L70.3118 51.6422L68.0458 51.8348L66.2058 51.8869L64.0237 51.9503C66.1673 40.5932 70.62 34.3798 74.9458 30.727C79.36 26.9994 86.8287 23.2492 91.2089 14.0016C91.7887 12.7723 92.2882 11.5068 92.7044 10.2129L93.5633 10.6661L94.413 11.2077L96.3232 12.4245L96.9849 12.9389L98.7728 14.3302L99.2532 14.7834L100.887 16.356L101.209 16.748L102.643 18.5019L102.836 18.8101L104.028 20.7362L104.125 20.9628L105.031 23.0407L105.072 23.1948L105.634 25.3883L105.646 25.5016L105.854 27.7699Z" fill="#6E3A06"/>
<path d="M91.5759 9.61693L90.5359 9.07536L88.4534 8.18255L87.2298 7.66364L85.0884 6.92266L83.7039 6.44227L81.524 5.85084L79.9922 5.43163L77.7737 4.97843L76.1264 4.6272L73.883 4.3009L72.1382 4.04937L69.8722 3.85676L68.0594 3.7004L65.7934 3.63696L63.9511 3.58484L62.0658 3.63696L61.6874 3.64829L59.8452 3.7004L57.5792 3.89528L55.7664 4.04937L53.523 4.37341L51.7782 4.6272L49.5598 5.0804L47.9079 5.4203L45.7212 6.01852L44.1916 6.43547L42.0503 7.17645L40.6884 7.66364L38.6037 8.55418L37.3778 9.07536L35.3701 10.1245L34.3323 10.6684L32.422 11.8852L31.5791 12.4222L29.7912 13.8136L29.1295 14.3279L27.4889 15.9141L27.0153 16.3673L25.581 18.119L25.2592 18.5133L24.065 20.4394L23.8747 20.7475L22.9683 22.8255L22.8731 23.052L22.3451 25.0914L22.2681 25.3906L22.0777 27.6566L22.0664 27.7676L22.259 30.0336V30.1446L22.8232 32.3404L22.864 32.4945L23.7704 34.5724L23.8679 34.799L25.0598 36.7251L25.2524 37.0333L26.6868 38.7849L27.0086 39.1792L28.6423 40.7495L29.1227 41.2027L30.9106 42.594L31.5723 43.1084L33.4825 44.3275L34.3323 44.8691L36.3399 45.9183L37.3778 46.4621L39.4625 47.3549L40.6816 47.8761L42.823 48.6171L44.2075 49.0952L46.3919 49.6934L46.6026 49.7501L47.9237 50.1104L50.1421 50.5636L51.7941 50.9035L54.0374 51.2275L55.7822 51.4813L58.0482 51.6739L59.861 51.828L62.127 51.8937L63.967 51.9458H64.0509C66.1945 40.5886 70.6472 34.3753 74.973 30.7225C79.3871 26.9949 86.8559 23.2447 91.236 13.9971C91.8159 12.7678 92.3154 11.5022 92.7316 10.2084L91.5759 9.61693Z" fill="#854D00"/>
<path d="M125.722 73.5045C124.623 80.0192 122.289 88.0069 117.338 95.1493C114.947 98.5914 112.976 100.361 110.49 101.349C106.688 102.858 102.944 102.013 99.2055 101.22C96.126 100.565 94.0186 99.6337 90.0191 97.8867C87.1277 96.62 83.6041 94.9409 79.7791 92.8312C80.3252 92.5072 80.8985 92.1514 81.4899 91.7821C83.9122 90.2616 86.6201 88.4442 88.8476 87.1254L89.6815 87.5514L91.2201 88.3173L93.2595 89.3257L94.6848 90.0055L96.7378 90.9686L97.9954 91.5033L100.08 92.3916L101.111 92.7632L103.243 93.5314L103.59 93.6243L105.779 94.2089H105.838L108.084 94.5171L109.364 94.4423L110.2 94.1546L110.844 93.7014L111.605 92.8788L112.545 91.424L113.225 90.0644L113.93 88.2312L114.483 86.4887L114.92 84.9433L115.262 83.672L115.489 82.6455L115.507 82.4869L115.532 82.2603L115.503 81.7052L115.276 81.0389L114.823 80.3591L114.093 79.5547L112.792 78.3628L112.425 78.0796L110.633 76.6928L110.343 76.482L108.485 75.1904L108.113 74.9479L106.214 73.7107L105.761 73.4229L103.837 72.2242L102.024 71.1388L101.345 70.7264L100.74 70.3683L98.7863 69.215L98.4532 69.0201L96.4953 67.8871L96.1781 67.7035L95.4983 67.316L93.7512 66.3077C93.6957 65.3834 93.7398 64.4558 93.8826 63.5409C94.0594 62.46 94.4265 61.3293 95.1357 60.4433C96.3707 58.9024 97.7167 58.0141 99.0129 57.8963C99.6995 57.8308 100.389 57.9899 100.977 58.3495L101.417 58.6033L102.063 58.9772L104.025 60.1102L104.626 60.4569L106.588 61.5899H106.604L107.118 61.8867C112.382 64.9254 117.744 67.8146 122.817 71.1773C123.205 71.4334 123.592 71.694 123.971 71.9704C124.097 72.0633 124.222 72.1562 124.344 72.2514C124.467 72.3466 124.533 72.3987 124.623 72.478C124.951 72.7427 125.26 73.0288 125.55 73.3345C125.62 73.3912 125.67 73.4478 125.722 73.5045Z" fill="#854D00"/>
<path d="M61.6058 140.193L59.6434 139.06L57.6811 137.927L53.7564 135.661L51.794 134.528L49.8316 133.395L47.8693 132.262L45.9069 131.129L41.9822 128.863L40.0199 127.73L36.0952 125.464L34.1328 124.331L32.1704 123.198L28.2457 120.932L26.2834 119.799L24.321 118.666L22.3564 117.533L20.394 116.4V134.843L22.3564 135.976L24.321 137.109L26.2834 138.242L28.2457 139.375L32.1704 141.641L34.1328 142.774L36.0952 143.907L40.0199 146.173L41.9822 147.306L45.9069 149.572L47.8693 150.705L49.8316 151.838L51.794 152.971L53.7564 154.104L57.6811 156.37L59.6434 157.503L61.6058 158.636L63.9602 159.995V141.552L61.6058 140.193ZM55.15 151.643L53.1876 150.51L49.2629 148.244L47.3005 147.111L45.3382 145.978L43.3758 144.845L39.4511 142.579L37.4887 141.446L35.5264 140.313L31.6017 138.047L29.6393 136.914L29.2065 136.665V125.321L29.6303 125.568L31.5926 126.701L33.0451 127.54L35.0075 128.673L36.9698 129.806L40.8945 132.072L42.8569 133.205L44.8193 134.338L48.744 136.604L50.7063 137.737L54.631 140.003L55.15 140.302V151.643Z" fill="#58595B"/>
<path d="M55.15 151.151V151.643L53.1876 150.51L49.2629 148.244L47.3006 147.111L45.3382 145.978L43.3758 144.845L39.4511 142.579L37.4888 141.446L35.5264 140.313L31.6017 138.047L29.6393 136.914L29.2065 136.665L29.6303 136.418L31.5926 137.551L33.555 138.684L35.5174 139.817L37.4797 140.95L39.4421 142.083L41.4067 143.216L45.3314 145.482L47.2938 146.615L51.2185 148.881L53.1808 150.014L55.15 151.151Z" fill="#6D6E71"/>
<path d="M29.6303 125.568V136.418L29.2065 136.665V125.321L29.6303 125.568Z" fill="#414042"/>
<path d="M107.526 116.4V134.843L105.172 136.202L103.21 137.335L99.2849 139.601L97.3225 140.734L95.3602 141.867L93.3978 143L91.4354 144.133L89.4731 145.266L87.5107 146.399L85.5484 147.532L81.6237 149.798L79.6613 150.931L77.699 152.064L75.7366 153.197L73.7742 154.33L71.8119 155.463L69.8495 156.596L67.8872 157.729L65.9226 158.862L63.9602 159.995V141.552L65.9226 140.419L67.8872 139.286L69.8495 138.153L71.8119 137.02L73.7742 135.887L75.7366 134.754L77.699 133.621L79.6613 132.488L81.6237 131.355L85.5484 129.089L87.5107 127.956L89.4731 126.823L91.4354 125.69L93.3978 124.557L95.3602 123.424L97.3225 122.291L99.2849 121.158L103.21 118.892L105.172 117.759L107.526 116.4Z" fill="#414042"/>
<path d="M116.445 88.4397C113.624 94.6621 111.734 98.8293 107.447 100.338C106.115 100.805 104.082 101.184 98.5032 99.6428C94.3995 98.5098 88.3221 96.3231 81.4788 91.7821C83.9011 90.2616 86.609 88.4442 88.8365 87.1254L89.6703 87.5514L91.209 88.3173L93.2484 89.3257L94.6737 90.0055L96.7267 90.9686L97.9843 91.5033L100.069 92.3916L101.1 92.7632L103.232 93.5314L103.579 93.6243L105.768 94.2089H105.827L108.073 94.5171L109.353 94.4423L110.189 94.1546L110.832 93.7014L111.594 92.8788L112.534 91.424L113.214 90.0644L113.919 88.2312L114.472 86.4887L114.909 84.9433L115.251 83.6721L115.478 82.6456L115.496 82.4869C116.23 83.1334 116.751 83.9864 116.991 84.9342C117.331 86.389 116.808 87.6534 116.445 88.4397Z" fill="#915400"/>
<path d="M17.0496 21.3616L16.823 21.8737L16.7505 22.0391L16.2973 21.799L15.9302 21.6131L13.9157 20.5798L12.9776 20.1402L13.1203 20.82L13.5735 22.9002L13.6257 23.1132L14.1446 25.3203L14.1967 25.5197L14.7858 27.7087L15.0124 28.4406L15.7036 30.5978L15.7285 30.6658L15.8169 32.9137L15.9528 35.1797L15.9664 35.4199L16.0593 36.5279C13.5396 34.1192 12.3522 31.826 11.7358 30.1333C10.911 27.8832 10.6459 24.4456 9.21829 21.8737C8.78343 21.0625 8.29595 20.2806 7.75899 19.533C6.805 18.0986 6.08895 17.7496 6.21358 17.4936C6.47643 16.9678 9.69189 17.9694 12.2207 18.9959C13.8814 19.6757 15.4947 20.466 17.0496 21.3616Z" fill="#6E3A06"/>
<path d="M22.8933 13.2606L22.465 13.673L21.3547 14.7449L19.9294 16.501L19.3379 17.2216L18.1438 19.15L17.7404 19.8003L17.6702 19.9635C15.4812 18.5744 6.49199 13.1043 1.42975 13.6685C1.06338 12.8518 0.745593 12.0142 0.47803 11.16C0.451162 10.1637 0.582719 9.16935 0.867782 8.21425C1.34364 6.72095 2.41999 5.34323 3.91329 4.86057C4.65252 4.63735 5.43516 4.59845 6.19288 4.74727C7.06055 4.91335 7.90662 5.17713 8.71494 5.53357C13.6956 7.57977 18.2367 10.5732 22.8933 13.2606Z" fill="#854D00"/>
<path d="M43.1017 135.582V142.463L43.0292 142.423L41.0668 141.29L39.1044 140.157L37.1421 139.024L38.8461 138.04L39.4375 138.382L41.3999 139.515V138.532L39.6959 137.548L41.1393 136.715L43.1017 135.582Z" fill="#58595B"/>
<path d="M40.5479 136.073L38.8461 137.057L37.1421 136.073V135.09L37.9941 134.598L38.5855 134.94L40.5479 136.073Z" fill="#58595B"/>
<path d="M37.9942 137.549L36.2902 138.532L35.4404 138.04V137.057L36.2902 136.565L37.9942 137.549Z" fill="#58595B"/>
<path d="M43.1018 134.598L41.4 135.582L40.2149 134.899L38.2525 133.766L36.2902 132.633L35.4404 131.158V130.175L37.2147 131.199L41.1394 133.465L43.1018 134.598Z" fill="#58595B"/>
<path d="M49.7411 138.432V139.416L48.0371 140.399L46.3353 139.416V141.383L44.6312 142.364L43.7815 141.872V139.907L44.6312 140.399V138.432L43.7815 137.94V135.974L44.6312 136.465V135.484L46.3353 136.465V137.449L48.0371 138.432V137.449L49.7411 138.432Z" fill="#58595B"/>
<path d="M49.7409 141.383V143.347L50.5907 143.839V145.806L49.7409 145.314V146.298L48.0369 145.314V144.331L46.3351 143.347V144.331L44.6311 143.347L45.2225 143.005L47.1849 141.872L48.0369 142.364V141.383L48.6283 141.04L50.5907 139.907V141.872L49.7409 141.383Z" fill="#58595B"/>
<path d="M18.2051 51.3974C15.5591 48.8762 13.2752 46.0005 11.4184 42.8524C8.36841 37.6677 6.6893 32.0503 7.25127 31.7761C7.65008 31.5813 8.89412 34.1826 11.8603 37.559C13.3015 39.1976 14.8765 40.7135 16.5691 42.091L16.6574 42.8863L16.6801 43.088L16.9951 45.3314L17.0223 45.5217L17.4098 47.756L17.4415 47.9373L17.8947 50.1534L17.9309 50.3279L18.2051 51.3974Z" fill="#915400"/>
<path d="M100.599 113.033V116.4L99.8717 116.821L97.9094 117.954L93.9846 120.22L92.0223 121.353L88.0976 123.619L87.522 123.95L85.5597 125.083L81.6349 127.349L79.6726 128.482L75.7479 130.748L73.7855 131.881L71.8232 133.014L69.8608 134.147L67.8984 135.28L65.9338 136.413L63.9715 137.546V134.179L64.5969 133.819L68.5216 131.553L70.484 130.42L71.4878 129.84L73.4502 128.707L75.4125 127.574L77.3749 126.441L79.3372 125.308L80.7693 124.483C76.4348 124.069 72.2688 122.594 68.6394 120.189C56.5956 112.285 56.471 102.348 58.9863 98.2855C59.0248 98.2221 59.0905 98.0906 59.1132 98.0589H68.832L72.5777 96.8511L73.1261 97.1684L75.0885 98.3014L77.0508 99.4344L80.9755 101.7L82.9379 102.833L86.8626 105.099L88.825 106.232L90.7873 107.365L94.7075 109.634L96.6699 110.767L98.6322 111.9L100.599 113.033Z" fill="#6E3A06"/>
<path d="M21.2666 13.3944L7.21736 6.21567C5.84416 5.84858 4.45284 6.04572 3.85688 6.82523C3.02979 7.90838 3.53964 10.3738 5.90761 11.8104C7.04967 12.5491 8.2499 13.2826 9.50829 14.0107C12.6804 15.8358 15.9729 17.4431 19.3631 18.8214C19.9073 18.8646 20.4543 18.7873 20.9652 18.5948C22.216 18.1144 23.4419 16.8273 23.2538 15.6626C23.1674 15.2866 22.9891 14.9378 22.7349 14.6475C22.3489 14.1219 21.8463 13.693 21.2666 13.3944Z" fill="#915400"/>
<path d="M52.6371 104.155C54.153 104.995 50.8719 110.019 52.7776 114.594C54.5586 118.872 59.8543 120.297 59.3897 121.483C59.2062 121.947 58.2703 122.045 56.6705 121.97C56.6705 121.97 46.8656 121.517 39.5486 113.966C39.3112 113.75 39.1627 113.452 39.1317 113.132C39.1181 112.647 39.4965 112.271 39.6891 112.088C42.7414 109.199 50.0674 105.129 50.0674 105.129C51.6853 104.227 52.1884 103.905 52.6371 104.155Z" fill="#915400"/>
<path d="M100.588 113.033V116.4L99.8604 116.821L97.8981 117.954L93.9734 120.22L92.011 121.353L90.0487 122.486L88.0863 123.619L87.5107 123.95L85.5484 125.083L81.6237 127.349L79.6613 128.482L77.699 129.615L75.7366 130.748L73.7742 131.881L71.8119 133.014L69.8495 134.147L67.8872 135.28L65.9226 136.413L63.9602 137.546V134.179L64.5856 133.819L68.5103 131.553L70.4727 130.42L71.4765 129.84L73.4389 128.707L75.4012 127.574L77.3636 126.441L79.3259 125.308L81.2883 124.177L83.2507 123.044L85.213 121.911L86.8513 120.964L88.8137 119.831L90.7761 118.698L92.7384 117.565L94.7008 116.432L96.6631 115.299L98.6255 114.166L100.588 113.033Z" fill="#6E3A06"/>
<path d="M103.488 62.9223C104.578 63.3755 109.817 66.5117 116.837 71.0323C116.91 71.2949 116.944 71.5666 116.939 71.839C116.939 71.9274 116.883 73.5068 115.63 74.2568C115.258 74.4794 114.835 74.6013 114.402 74.6104C113.968 74.6196 113.54 74.5157 113.16 74.309L100.717 66.4482L100.592 66.3689C100.34 66.2236 100.075 66.1001 99.8016 65.9995C99.5478 65.8817 99.4254 65.6823 99.1785 65.2858C98.8839 64.8144 98.6142 64.3793 98.6595 63.8786C98.7321 63.0515 99.6249 62.3966 100.4 62.247C100.815 62.1677 101.202 62.2606 101.986 62.4442C102.497 62.571 102.998 62.7307 103.488 62.9223Z" fill="#915400"/>
</svg>
