<svg width="128" height="160" viewBox="0 0 128 160" fill="none" xmlns="http://www.w3.org/2000/svg">
<path d="M55.1496 151.643L53.1872 150.51L49.2625 148.244L47.3002 147.111L45.3378 145.978L43.3754 144.845L39.4507 142.579L37.4884 141.446L35.526 140.313L31.6013 138.047L29.6389 136.914L29.2061 136.665V125.321L29.6299 125.568L31.5922 126.701L33.0447 127.54L35.0071 128.673L36.9695 129.806L40.8942 132.072L42.8565 133.205L44.8189 134.338L48.7436 136.604L50.706 137.737L54.6307 140.003L55.1496 140.302V151.643ZM65.9289 158.862L67.8936 157.729L69.8559 156.596L71.8183 155.463L73.7806 154.33L75.743 153.197L77.7053 152.064L79.6677 150.931L81.6301 149.798L85.5548 147.532L87.5171 146.399L89.4795 145.266L91.4418 144.133L93.4042 143L95.3666 141.867L97.3289 140.734L99.2913 139.601L103.216 137.335L105.178 136.202L107.533 134.843V116.4L105.57 115.267L101.646 113.001L99.6833 111.868L97.7209 110.735L93.7962 108.469L91.8339 107.336L89.8715 106.203L87.9091 105.07L83.9844 102.804L82.0221 101.671L80.0597 100.538L76.135 98.2718L74.1727 97.1388L73.2413 96.6018L72.5615 96.8533L72.2805 96.9598L71.952 97.0731L71.0274 97.3904L70.0372 97.7144L69.1603 97.9637L68.8249 98.0566H59.1015L58.7661 97.9637L57.8892 97.7144L56.8989 97.3972L55.9699 97.0777L55.6413 96.9644L55.3603 96.8579L54.6918 96.6063L50.7671 98.8723L48.8048 100.005L46.8402 101.138L44.8778 102.271L40.9531 104.537L38.9907 105.67L35.066 107.936L33.1037 109.069L31.1413 110.202L29.1789 111.335L27.2166 112.468L23.2919 114.734L21.3295 115.867L20.3982 116.404V134.847L22.3606 135.98L24.3252 137.113L26.2875 138.246L28.2499 139.379L32.1746 141.645L34.137 142.778L36.0993 143.911L40.024 146.177L41.9864 147.31L45.9111 149.576L47.8735 150.709L49.8358 151.842L51.7982 152.975L53.7605 154.108L57.6852 156.374L59.6476 157.507L61.6099 158.64L63.9643 160L65.9289 158.862Z" fill="#6D6E71"/>
<path d="M127.474 77.683C127.37 76.496 126.99 75.3498 126.363 74.3361C126.309 74.2523 126.255 74.1707 126.196 74.0892C126.096 73.9509 125.992 73.815 125.881 73.6835C125.829 73.6201 125.776 73.5589 125.722 73.5C125.668 73.4411 125.62 73.3867 125.566 73.33C125.276 73.0243 124.966 72.7382 124.639 72.4735C124.548 72.3987 124.455 72.3239 124.36 72.2469C124.265 72.1698 124.113 72.0588 123.986 71.9659C123.608 71.6895 123.22 71.4289 122.833 71.1728C117.759 67.8146 112.409 64.9254 107.134 61.8822L106.62 61.5944L107.299 59.836L108.022 57.6878L108.068 57.5541L108.698 55.3788L108.736 55.2451L109.3 53.0493L109.393 52.6868L109.939 50.4865L109.982 50.3143L110.436 48.0981L110.472 47.9236L110.859 45.6894L110.891 45.5081L111.206 43.2647L111.233 43.0744L111.482 40.822L111.505 40.6203L111.698 38.3543L111.736 37.9011L111.924 35.6351L111.945 35.4085L112.078 33.1425L112.094 32.9023L112.183 30.6363V30.3848L112.248 28.1188V27.8605L112.056 30.1265L112.015 30.6046L111.476 32.8162L111.344 33.3283L110.438 35.4085L110.189 35.9841L108.994 37.9102L108.591 38.5628L107.17 40.3189L106.579 41.0418L104.947 42.6121L104.818 42.739L104.138 43.3894L102.351 44.7807L101.313 45.5874L99.4024 46.8042L98.1289 47.6155L96.1145 48.6782L94.6099 49.4645L92.5274 50.3573L90.8007 51.096L88.6593 51.837L86.7355 52.5032L84.5488 53.0992L82.4482 53.6634L80.2298 54.1166L77.9842 54.5698L75.7431 54.8939L73.4998 55.2202L73.3865 55.236L71.1205 55.4286L68.8545 55.6212L68.68 55.6371L66.414 55.7006L64.148 55.7663H63.9418L63.4206 55.7527H63.3255C62.3783 59.947 59.7361 67.7851 52.3014 73.2847C50.1555 74.8709 44.6627 78.9361 37.8624 78.3243C34.0691 77.9821 30.4367 76.2351 27.3074 73.4252L28.2342 74.8936L28.2614 74.9389L29.5643 76.7948L29.5847 76.8242L30.9783 78.6166L32.4149 80.3705L32.4761 80.4453L33.8629 82.0587L35.3018 83.5746L36.9401 85.1608L38.3496 86.5023L39.8089 87.7554L41.5039 89.0765L42.9088 90.1642L44.3636 91.1748L46.0336 92.2375L47.4068 93.0918L48.8276 93.8781L50.3821 94.6916L51.6986 95.3352L53.0582 95.9198L54.4178 96.4999L54.6784 96.5973L55.3469 96.8489L53.3845 97.9819L51.4222 99.1149L47.4974 101.381L45.5351 102.514L43.5727 103.647L41.6104 104.78L37.6857 107.046L35.7233 108.179L33.7609 109.312L29.8362 111.578L27.8739 112.711L27.3255 113.028L29.2879 114.161L33.2126 116.427L35.1749 117.56L39.0996 119.826L41.062 120.959L42.7003 121.904L46.625 124.17L48.5874 125.303L52.5121 127.569L54.4745 128.702L56.4368 129.835L57.4407 130.415L59.403 131.548L61.3654 132.681L63.3277 133.814L63.9509 134.174L64.5763 133.814L68.501 131.548L70.4634 130.415L71.4672 129.835L73.4295 128.702L75.3919 127.569L77.3543 126.436L79.3166 125.303L81.279 124.17L85.2037 121.904L86.842 120.957L88.8044 119.824L90.7667 118.691L94.7073 116.432L96.6696 115.299L98.632 114.166L100.594 113.033L98.632 111.9L96.6696 110.767L94.7073 109.634L90.7826 107.368L88.8157 106.235L86.8533 105.102L82.9241 102.836L80.9617 101.703L77.0325 99.4366L75.0701 98.3036L73.1078 97.1706L72.5594 96.8534L73.2392 96.6019L73.4998 96.5044L74.8594 95.9243L76.219 95.3397L77.5355 94.6962L78.732 94.0685C85.2354 97.0415 91.7864 100.078 98.6728 102.031C104.249 103.617 110.513 104.374 115.622 101.635C118.31 100.196 120.454 97.8844 122.069 95.3035C123.685 92.7225 124.807 89.865 125.806 86.9827C126.662 84.515 127.446 81.9794 127.533 79.3689C127.554 78.8063 127.534 78.2428 127.474 77.683ZM115.482 82.4847L115.464 82.6433L115.237 83.6698L114.895 84.941L114.458 86.4864L113.905 88.229L113.2 90.0622L112.52 91.4218L111.58 92.8766L110.819 93.6991L110.175 94.1523L109.343 94.4514L108.063 94.5262L105.811 94.209H105.752L103.563 93.6243L103.216 93.5314L101.084 92.7633L100.053 92.3916L97.9681 91.5034L96.7104 90.9686L94.6574 90.0055L93.2321 89.3257L91.1927 88.3174L89.6541 87.5515L88.8202 87.1254L89.5385 86.5068L90.948 85.1654L92.5863 83.5792L94.0252 82.0632L95.412 80.4498L96.8464 78.6959L96.9076 78.6212L98.3034 76.8287L99.6041 74.9729L99.6268 74.9434L100.835 73.0264L100.862 72.9833L102.013 71.1275L103.826 72.2129L105.75 73.4116L106.203 73.6994L108.102 74.9366L108.485 75.1904L110.343 76.482L110.628 76.6814L112.421 78.0682L112.788 78.3515L114.084 79.5457L114.814 80.3501L115.267 81.0299L115.493 81.6961L115.523 82.2513L115.482 82.4847Z" fill="#EDB74C"/>
<path d="M127.474 77.683C127.37 76.496 126.989 75.3498 126.363 74.3361C126.309 74.2522 126.254 74.1707 126.196 74.0891C126.096 73.9509 125.992 73.8149 125.881 73.6835C125.828 73.62 125.776 73.5588 125.722 73.4999C125.668 73.441 125.62 73.3866 125.566 73.33C125.276 73.0243 124.966 72.7381 124.639 72.4734C124.548 72.3986 124.455 72.3239 124.36 72.2468C124.265 72.1698 124.113 72.0587 123.986 71.9658C123.608 71.6894 123.22 71.4288 122.833 71.1727C117.759 67.8145 112.409 64.9254 107.134 61.8821L106.62 61.5944L107.299 59.8359L108.022 57.6878L108.068 57.5541L108.698 55.3787L108.736 55.245L109.3 53.0493L109.393 52.6867L109.939 50.4864L109.982 50.3142L110.436 48.0981L110.472 47.9236L110.859 45.6893L110.891 45.508L111.206 43.2647L111.233 43.0743L111.482 40.8219L111.505 40.6203L111.698 38.3543L111.736 37.9011L111.924 35.6351L111.945 35.4085L112.078 33.1425L112.094 32.9023L112.183 30.6363V30.3847L112.248 28.1187V27.8604L112.056 25.5944L112.015 25.1185L111.476 22.9636L111.344 22.4515L110.438 20.3713L110.189 19.7957L108.994 17.8696L108.591 17.217L107.17 15.4654L106.579 14.7448L104.947 13.1722L104.143 12.395L102.355 11.0036L101.317 10.1969L99.4069 8.98009L98.1334 8.16886L96.1257 7.11744L94.6211 6.33113L92.5387 5.43833L90.812 4.69961L88.6706 3.95863L86.7468 3.29243L84.5601 2.69647L82.4595 2.12317L80.2411 1.66997L77.9955 1.21677L75.7544 0.892733L73.5111 0.568696L73.3978 0.550568L71.1318 0.357957L68.8657 0.165349L68.6913 0.149485L66.4253 0.0860372L64.1593 0.0203247H63.9531L61.6871 0.0837724L59.4211 0.149485H59.2171L56.9511 0.342096L54.6851 0.536973L54.5106 0.550568L52.2673 0.874604L50.0262 1.20091L49.9106 1.21677L47.6922 1.66997L45.4466 2.1345L43.2622 2.73046L41.1616 3.30376L39.0452 4.03794L37.1191 4.70415L35.0366 5.59695L33.3122 6.33567L31.3045 7.38483L29.7999 8.17339L27.8874 9.39023L26.6162 10.2015L24.826 11.5928L23.7814 12.395L22.875 13.2606L22.4467 13.673L21.3364 14.7448L19.9292 16.5009L19.3378 17.2215L18.1436 19.1499L17.7402 19.8002L17.67 19.9634L17.0604 21.366L16.8338 21.8782L16.7613 22.0436L16.5846 22.456L16.0203 24.6495L15.8889 25.1639L15.6963 27.4299L15.6555 27.9057V27.9171L15.719 30.1717V30.43V30.6974L15.8073 32.9453L15.9433 35.2113L15.9569 35.4515L16.0498 36.5596L16.1472 37.7107L16.1654 37.9373L16.358 40.2033L16.3965 40.6565L16.5574 42.1135L16.6458 42.9089L16.6684 43.1106L16.9834 45.3539L17.0106 45.5443L17.3981 47.7785L17.4298 47.9598L17.883 50.176L17.9193 50.3505L18.1844 51.4177L18.4654 52.5507L18.5084 52.723L18.9208 54.3296L19.1656 55.2813L19.7955 57.4566L19.834 57.5903L20.5569 59.7385L20.6022 59.8722L21.418 61.9864L21.4723 62.1246L22.3787 64.2025L22.5102 64.5039L23.4166 66.5796L23.4596 66.6725L24.4725 68.6983L24.5246 68.8025L25.6372 70.7762L25.703 70.8918L26.8949 72.8179L27.0218 73.0241L27.305 73.4773C30.4344 76.2871 34.0668 78.0342 37.8601 78.3764C38.4839 78.4314 39.1104 78.4496 39.7363 78.4307C39.1104 78.4496 38.4839 78.4315 37.8601 78.3764C34.0668 78.0342 30.4344 76.2871 27.305 73.4773L28.2318 74.9456L28.259 74.9909L29.562 76.8468L29.5824 76.8763L30.9759 78.6687L32.4126 80.4226L32.4738 80.4973L33.8606 82.1107L35.2995 83.6267L36.9378 85.2129L38.3472 86.5544L39.8066 87.8074L41.5015 89.1285L42.9064 90.2162L44.3612 91.2268L46.0313 92.2896L47.4045 93.1439L48.8252 93.9302L50.3797 94.7437L51.6963 95.3872L53.0559 95.9718L54.4155 96.5519L54.676 96.6494L55.3445 96.9009L53.3822 98.0339L51.4198 99.1669L47.4951 101.433L45.5327 102.566L43.5704 103.699L41.608 104.832L37.6833 107.098L35.721 108.231L33.7586 109.364L29.8339 111.63L27.8715 112.763L27.3232 113.08L29.2855 114.213L33.2102 116.479L35.1726 117.612L39.0973 119.878L41.0596 121.011L42.698 121.956L46.6227 124.222L48.585 125.355L52.5098 127.621L54.4721 128.754L56.4345 129.887L57.4383 130.467L59.4007 131.6L61.363 132.733L63.3254 133.866L63.9485 134.226L64.5739 133.866L68.4987 131.6L70.461 130.467L71.4648 129.887L73.4272 128.754L75.3896 127.621L77.3519 126.488L79.3143 125.355L81.2766 124.222L85.2013 121.956L86.8397 121.009L88.802 119.876L90.7644 118.743L94.7072 116.432L96.6696 115.299L98.6319 114.166L100.594 113.033L98.6319 111.9L96.6696 110.767L94.7072 109.634L90.7825 107.368L88.8156 106.235L86.8533 105.102L82.924 102.836L80.9617 101.703L77.0324 99.4366L75.0701 98.3036L73.1077 97.1706L72.5593 96.8533L73.2391 96.6018L73.4997 96.5044L74.8593 95.9243L76.2189 95.3396L77.5355 94.6961L78.7319 94.0684C85.2353 97.0414 91.7863 100.078 98.6727 102.031C104.249 103.617 110.513 104.374 115.622 101.635C118.31 100.196 120.454 97.8844 122.069 95.3034C123.685 92.7224 124.807 89.865 125.806 86.9826C126.662 84.5149 127.446 81.9793 127.533 79.3689C127.554 78.8062 127.534 78.2427 127.474 77.683ZM94.041 82.0722L95.4278 80.4588L96.8622 78.7049L96.9234 78.6301L98.3192 76.8377L99.6199 74.9819L99.6426 74.9524L100.85 73.0354L100.878 72.9923L102.029 71.1365L103.841 72.2219L105.765 73.4206L106.218 73.7084L108.117 74.9456L108.484 75.1904L110.343 76.482L110.628 76.6814L112.421 78.0682L112.788 78.3514L114.084 79.5456L114.813 80.35L115.267 81.0298L115.493 81.696L115.523 82.2512L115.498 82.4778L115.48 82.6364L115.253 83.6629L114.911 84.9342L114.474 86.4796L113.921 88.2221L113.216 90.0553L112.536 91.4149L111.596 92.8697L110.834 93.6923L110.191 94.1455L109.343 94.4514L108.063 94.5261L105.811 94.2089H105.752L103.563 93.6243L103.216 93.5314L101.084 92.7632L100.053 92.3916L97.968 91.5033L96.7104 90.9685L94.6574 90.0055L93.232 89.3257L91.1926 88.3173L89.654 87.5514L88.8202 87.1254L89.5385 86.5068L90.9479 85.1653L92.5862 83.5791L94.041 82.0722Z" fill="#EDB74C"/>
<path d="M100.588 113.033V116.4L99.8603 116.821L97.898 117.954L93.9733 120.22L92.0109 121.353L88.0862 123.619L87.5106 123.95L85.5483 125.083L81.6236 127.349L79.6612 128.482L75.7365 130.748L73.7741 131.881L71.8118 133.014L69.8494 134.147L67.8871 135.28L65.9224 136.413L63.9601 137.546L63.3845 137.215L59.4598 134.949L57.4975 133.816L55.5351 132.683L53.5727 131.55L49.648 129.284L47.6857 128.151L45.7233 127.018L41.7986 124.752L39.8362 123.619L39.1089 123.198L35.1841 120.932L33.2218 119.799L29.2971 117.533L27.3347 116.4V113.033L27.8831 112.715L29.8454 111.582L33.7702 109.316L35.7325 108.183L37.6949 107.05L41.6196 104.784L43.5819 103.651L45.5443 102.518L47.5067 101.385L51.4314 99.1194L53.3937 97.9864L55.3561 96.8534L55.6371 96.9599L55.9656 97.0732L55.9702 97.0755L56.8992 97.395L57.8895 97.719L58.7664 97.9683L59.1018 98.0612H68.8207L69.156 97.9683L70.033 97.719L71.0232 97.395L71.9477 97.0777L71.9568 97.0732L72.2854 96.9599L72.5664 96.8534L73.1147 97.1706L75.0771 98.3036L77.0394 99.4366L80.9641 101.703L82.9265 102.836L86.8512 105.102L88.8136 106.235L90.7759 107.368L94.7006 109.634L96.663 110.767L98.6254 111.9L100.588 113.033Z" fill="#FFD166"/>
<path d="M112.081 25.6352L112.04 25.1593L111.476 22.9636L111.344 22.4515L110.438 20.3713L110.189 19.7957L108.994 17.8696L108.591 17.217L107.17 15.4654L106.579 14.7448L104.947 13.1722L104.143 12.395L102.355 11.0036L101.317 10.1969L99.4069 8.98009L98.1334 8.16886L96.1257 7.11744L94.6211 6.33113L92.5387 5.43833L90.812 4.69961L88.6706 3.95863L86.7468 3.29243L84.5601 2.69647L82.4595 2.12317L80.2411 1.66997L77.9955 1.21677L75.7544 0.892733L73.5111 0.568696L73.3978 0.550568L71.1318 0.357957L68.8657 0.165349L68.6913 0.149485L66.4253 0.0860372L64.1593 0.0203247H63.9531L61.6871 0.0837724L59.4211 0.149485H59.2171L56.9511 0.342096L54.6851 0.536973L54.5106 0.550568L52.2673 0.874604L50.0262 1.20091L49.9106 1.21677L47.6922 1.66997L45.4466 2.1345L43.2622 2.73046L41.1616 3.30376L39.0452 4.03794L37.1191 4.70415L35.0366 5.59695L33.3122 6.33567L31.3045 7.38483L29.7999 8.17339L27.8874 9.39023L26.6162 10.2015L24.826 11.5928L23.7814 12.395L22.875 13.2606L22.4467 13.673L21.3364 14.7448L19.9292 16.5009L19.3378 17.2215L18.1436 19.1499L17.7402 19.8002L17.67 19.9634L17.0604 21.366L16.8338 21.8782L16.7613 22.0436L16.5846 22.456L16.0203 24.6495L15.8889 25.1639L15.6963 27.4299L15.6555 27.9057V27.9171L15.719 30.1717V30.43V30.6974L15.8073 32.9453L15.9433 35.2113L15.9569 35.4515L16.0498 36.5596L16.1472 37.7107L16.1654 37.9373L16.358 40.2033L16.3965 40.6565L16.5574 42.1135L16.6458 42.9089L16.6684 43.1106L16.9834 45.3539L17.0106 45.5443L17.3981 47.7785L17.4298 47.9598L17.883 50.176L17.9193 50.3505L18.1844 51.4177L18.4654 52.5507L18.5084 52.723L18.9208 54.3296L19.1656 55.2813L19.7955 57.4566L19.834 57.5903L20.5569 59.7385L20.6022 59.8722L21.418 61.9864L21.4723 62.1246L22.3787 64.2025L22.5102 64.5039L23.4166 66.5796L23.4596 66.6725L24.4725 68.6983L24.5246 68.8025L25.6372 70.7762L25.703 70.8918L26.8949 72.8179L27.0218 73.0241L27.305 73.4773C30.4344 76.2871 34.0668 78.0342 37.8601 78.3764C44.6581 78.9882 50.1531 74.9252 52.299 73.3368C59.7338 67.8372 62.3759 59.9991 63.3231 55.8047H63.4183L63.9395 55.8183H64.1457L66.4117 55.7526L68.6777 55.6892L68.8522 55.6733L71.1182 55.4807L73.3842 55.2881L73.4975 55.2722L75.7408 54.9459L77.9819 54.6219L80.2275 54.1687L82.4459 53.7155L84.5465 53.1422L86.7332 52.5462L88.657 51.88L90.7984 51.139L92.5251 50.4003L94.6075 49.5075L96.1121 48.7212L98.1198 47.6698L99.3933 46.8586L101.304 45.6417L102.341 44.835L104.129 43.4437L104.809 42.7934L104.938 42.6665L106.57 41.0961L107.161 40.3733L108.598 38.6216L109.001 37.969L110.195 36.0429L110.445 35.4674L111.351 33.3872L111.476 32.8162L112.04 30.6227L112.081 30.1445L112.273 27.8785L112.081 25.6352Z" fill="#F9CD87"/>
<path d="M22.8933 13.2606L22.465 13.673L21.3547 14.7449L19.9294 16.501L19.338 17.2216L18.1438 19.15L17.7404 19.8003L17.6702 19.9635L17.0606 21.3661L16.834 21.8782L16.7615 22.0436L16.3083 21.8035L15.9412 21.6176L13.9154 20.5798L12.9773 20.1402L13.12 20.82L13.5732 22.9002L13.6254 23.1132L14.1443 25.3203L14.1964 25.5197L14.7856 27.7087L15.0121 28.4406L15.7033 30.5978L15.7282 30.6658L15.8166 32.9137L15.9525 35.1797L15.9661 35.4199L16.059 36.5279L16.1565 37.6791L16.1746 37.9057L16.3672 40.1717L16.4057 40.6249L16.5666 42.0819L16.655 42.8773L16.6777 43.0789L16.9926 45.3223L17.0198 45.5126L17.4073 47.7469L17.439 47.9282L17.8922 50.1443L17.9285 50.3188L18.1936 51.3861L18.4746 52.5191L18.5177 52.6913L18.9301 54.2979L18.2775 53.6294C14.4955 49.324 11.1056 45.1659 8.54725 39.9677C5.98893 34.7695 4.13988 29.1748 2.63525 23.5528C1.69486 20.0428 0.867774 16.4852 0.546002 12.8641C0.51881 12.5604 0.493888 12.2568 0.480292 11.9577C0.480292 11.8172 0.464427 11.6767 0.462161 11.5339C0.459895 11.3912 0.462161 11.2847 0.462161 11.16C0.435293 10.1637 0.56685 9.16935 0.851913 8.21425C1.32777 6.72095 2.40412 5.34323 3.89742 4.86057C4.63665 4.63735 5.41929 4.59845 6.17701 4.74727C7.04468 4.91335 7.89076 5.17713 8.69907 5.53357C13.6956 7.57977 18.2367 10.5732 22.8933 13.2606Z" fill="#FFD166"/>
<path d="M18.9413 54.298L18.2887 53.6295C14.5068 49.3241 11.1168 45.166 8.55851 39.9678C6.00019 34.7696 4.15114 29.1748 2.64651 23.5529C1.70612 20.0428 0.879032 16.4852 0.55726 12.8641C0.530068 12.5605 0.50514 12.2568 0.491544 11.9577C0.491544 11.8172 0.475685 11.6767 0.473419 11.534C0.471153 11.3912 0.473419 11.2847 0.473419 11.1601C0.740982 12.0143 1.05877 12.8519 1.42514 13.6686C6.48738 13.1043 15.4743 18.5745 17.6656 19.9635L17.056 21.3662C15.4999 20.4759 13.8859 19.6908 12.2249 19.0163C9.69604 17.9898 6.48058 16.9883 6.21772 17.514C6.09309 17.7632 6.80915 18.1122 7.76314 19.5534C8.3001 20.301 8.78758 21.0829 9.22244 21.8941C10.65 24.4661 10.9151 27.9036 11.74 30.1537C12.3563 31.8464 13.5528 34.1396 16.0635 36.5484L16.1609 37.6995L16.1791 37.9261L16.3717 40.1921L16.4102 40.6453L16.5711 42.1023C14.8785 40.7249 13.3035 39.209 11.8623 37.5703C8.89614 34.194 7.6521 31.5926 7.25329 31.7875C6.69132 32.0617 8.37043 37.6791 11.4205 42.8637C13.2774 46.0077 15.5605 48.8795 18.2049 51.3975L18.4859 52.5305L18.5289 52.7027L18.9413 54.298Z" fill="#FFD166"/>
<path d="M63.9601 134.179V137.546L63.3845 137.215L59.4598 134.949L57.4975 133.816L55.5351 132.683L53.5727 131.55L51.6104 130.417L49.648 129.284L47.6857 128.151L45.7233 127.018L41.7986 124.752L39.8362 123.619L39.1089 123.198L35.1841 120.932L33.2218 119.799L31.2594 118.666L29.2971 117.533L27.3347 116.4V113.033L29.2971 114.166L31.2594 115.299L33.2218 116.432L35.1841 117.565L39.1089 119.831L41.0712 120.964L42.7095 121.909L44.6719 123.042L46.6342 124.175L48.5966 125.308L52.5213 127.574L54.4837 128.707L56.446 129.84L57.4499 130.42L59.4122 131.553L61.3746 132.686L63.3369 133.819L63.9601 134.179Z" fill="#FFD166"/>
<path d="M112.273 27.8922L112.081 30.1491L112.04 30.6273L111.476 32.8208L111.344 33.3329L110.443 35.4131L110.193 35.9886L108.999 37.9147L108.596 38.5673L107.159 40.3189L106.568 41.0418L104.936 42.6121L104.807 42.739L104.132 43.3894L102.344 44.7807L101.306 45.5874L99.3958 46.8042L98.1223 47.6155L96.1146 48.6669L94.61 49.4532L92.5275 50.346L90.8008 51.0847L88.6595 51.8257L86.7356 52.4919L84.5489 53.0879L82.4484 53.6612L80.2299 54.1212L77.9843 54.5834L75.7433 54.9075L73.4999 55.2338L73.3866 55.2496L71.1297 55.4422L68.8705 55.6348L68.696 55.6507L66.4323 55.7142L64.1663 55.7799L63.9601 55.7844L63.4389 55.7708L63.3437 55.7663L61.6963 55.721L59.4303 55.6575L59.2264 55.6507L56.9672 55.4581L54.7102 55.2632L54.5358 55.2496L52.2924 54.9256L50.0514 54.5993L49.9358 54.5834L47.7174 54.1257L46.4643 53.8674L45.4718 53.6612L43.2873 53.0652L41.1868 52.4919L39.0454 51.7509L37.1193 51.0847L35.0368 50.1919L33.3124 49.4532L31.3047 48.404L29.8001 47.6155L27.8876 46.3986L26.6164 45.5874L24.8262 44.1961L23.7907 43.3894L23.1154 42.7368L21.4839 41.1664L21.3547 41.0418L19.9181 39.2879L19.3266 38.5673L18.7647 37.6609L17.7291 35.9886L16.8272 33.9107L16.578 33.3329L16.2404 32.0254L15.8823 30.6273L15.6897 28.3681L15.6489 27.8922L15.6897 27.4163L15.8823 25.1594L16.0138 24.645L16.578 22.4515L16.7547 22.0391L16.8272 21.8737L17.0493 21.3616L17.6589 19.9589L17.7291 19.7958L18.1325 19.1454L19.3266 17.2171L19.9181 16.4965L21.3547 14.7449L22.4651 13.673L22.8933 13.2606L23.7907 12.395L24.8262 11.5883L26.6164 10.197L27.8876 9.38578L29.8001 8.16893L31.3047 7.38037L33.3124 6.33121L35.0368 5.59249L37.1193 4.69969L39.0454 4.03348L41.1868 3.2925L43.2873 2.7192L45.4718 2.12324L47.7174 1.65871L49.9358 1.20098L50.0514 1.18512L52.2924 0.858816L54.5358 0.534776L54.7102 0.521181L56.9672 0.326305L59.2264 0.133697L59.4303 0.129164L61.6963 0.0634512L63.9601 0L64.1663 0.00453297L66.4323 0.0702489L68.696 0.133697L68.8705 0.149557L71.1297 0.342168L73.3866 0.534776L73.4999 0.552905L75.7433 0.876945L77.9843 1.20098L80.2299 1.66325L82.4484 2.12324L84.5489 2.69654L86.7356 3.2925L88.6595 3.9587L90.8008 4.69969L92.5275 5.4384L94.61 6.33121L96.1146 7.11751L98.1223 8.16893L99.3958 8.98016L101.306 10.197L102.344 11.0037L104.132 12.395L104.936 13.1723L106.568 14.7449L107.159 15.4655L108.596 17.2171L108.999 17.8697L110.193 19.7958L110.443 20.3713L111.344 22.4515L111.476 22.9636L112.04 25.1594L112.081 25.6353L112.273 27.8922Z" fill="#F9CD87"/>
<path d="M105.854 27.7699L105.842 27.8832L105.65 30.1492L105.611 30.3033L105.047 32.499L104.949 32.7256L104.043 34.8058L103.853 35.114L102.659 37.0401L102.337 37.4321L100.902 39.186L100.42 39.6392L98.7859 41.2004L98.1242 41.7148L96.3364 43.1062L95.4866 43.6477L93.5741 44.8736L92.534 45.4152L90.5263 46.4666L89.3095 46.9878L87.2248 47.8806L85.8402 48.3587L83.6989 49.0997L82.1693 49.5189L79.9826 50.1149L78.3307 50.4571L76.1123 50.9103L74.3675 51.1618L72.1241 51.4881L70.3113 51.6422L68.0453 51.8348L66.2053 51.8869L64.0232 51.9504C66.1668 40.5932 70.6195 34.3798 74.9453 30.727C79.3595 26.9994 86.8282 23.2492 91.2084 14.0016C91.7882 12.7723 92.2878 11.5068 92.7039 10.2129L93.5628 10.6661L94.4125 11.2077L96.3228 12.4245L96.9844 12.9389L98.7723 14.3302L99.2527 14.7834L100.886 16.356L101.208 16.748L102.643 18.5019L102.835 18.8101L104.027 20.7362L104.125 20.9628L105.031 23.0407L105.072 23.1948L105.634 25.3883L105.645 25.5016L105.854 27.7699Z" fill="#EDB74C"/>
<path d="M91.576 9.61687L90.5359 9.0753L88.4534 8.18249L87.2298 7.66358L85.0884 6.9226L83.7039 6.4422L81.524 5.85078L79.9922 5.43157L77.7738 4.97837L76.1264 4.62714L73.883 4.30083L72.1382 4.04931L69.8722 3.8567L68.0594 3.70034L65.7934 3.63689L63.9512 3.58478L62.0658 3.63689L61.6874 3.64823L59.8452 3.70034L57.5792 3.89522L55.7664 4.04931L53.523 4.37335L51.7782 4.62714L49.5598 5.08034L47.9079 5.42024L45.7212 6.01846L44.1916 6.43541L42.0503 7.17639L40.6884 7.66358L38.6037 8.55412L37.3778 9.0753L35.3701 10.1245L34.3323 10.6683L32.422 11.8851L31.5791 12.4222L29.7912 13.8135L29.1295 14.3279L27.4889 15.9141L27.0154 16.3673L25.581 18.1189L25.2592 18.5132L24.065 20.4393L23.8747 20.7475L22.9683 22.8254L22.8731 23.052L22.3451 25.0914L22.2681 25.3905L22.0777 27.6565L22.0664 27.7675L22.259 30.0335V30.1446L22.8232 32.3403L22.864 32.4944L23.7704 34.5723L23.8679 34.7989L25.0598 36.725L25.2524 37.0332L26.6868 38.7848L27.0086 39.1791L28.6423 40.7495L29.1227 41.2027L30.9106 42.594L31.5723 43.1084L33.4825 44.3275L34.3323 44.869L36.3399 45.9182L37.3778 46.462L39.4625 47.3548L40.6816 47.876L42.823 48.617L44.2075 49.0951L46.3919 49.6934L46.6027 49.75L47.9237 50.1103L50.1421 50.5635L51.7941 50.9034L54.0374 51.2274L55.7822 51.4812L58.0482 51.6738L59.861 51.8279L62.127 51.8936L63.967 51.9458H64.0509C66.1945 40.5886 70.6472 34.3752 74.973 30.7224C79.3871 26.9948 86.8559 23.2446 91.2361 13.997C91.8159 12.7678 92.3155 11.5022 92.7316 10.2083L91.576 9.61687Z" fill="#FFD166"/>
<path d="M125.722 73.5045C124.623 80.0193 122.289 88.0069 117.338 95.1494C114.947 98.5914 112.976 100.361 110.49 101.349C106.688 102.858 102.944 102.013 99.2052 101.22C96.1257 100.565 94.0184 99.6338 90.0189 97.8867C87.1274 96.62 83.6038 94.9409 79.7788 92.8312C80.3249 92.5072 80.8982 92.1514 81.4896 91.7821C83.912 90.2616 86.6199 88.4443 88.8473 87.1255L89.6812 87.5515L91.2198 88.3174L93.2592 89.3258L94.6846 90.0056L96.7376 90.9686L97.9952 91.5034L100.08 92.3916L101.111 92.7633L103.243 93.5314L103.59 93.6243L105.779 94.209H105.838L108.083 94.5172L109.364 94.4424L110.2 94.1546L110.843 93.7014L111.605 92.8788L112.545 91.4241L113.225 90.0645L113.93 88.2313L114.483 86.4887L114.92 84.9433L115.262 83.6721L115.489 82.6456L115.507 82.487L115.532 82.2604L115.502 81.7052L115.276 81.039L114.823 80.3592L114.093 79.5548L112.792 78.3628L112.425 78.0796L110.633 76.6928L110.343 76.4821L108.485 75.1904L108.113 74.948L106.214 73.7108L105.761 73.423L103.837 72.2243L102.024 71.1388L101.344 70.7264L100.739 70.3684L98.786 69.215L98.4529 69.0201L96.4951 67.8871L96.1779 67.7036L95.4981 67.3161L93.751 66.3077C93.6955 65.3834 93.7395 64.4558 93.8824 63.5409C94.0591 62.4601 94.4262 61.3293 95.1355 60.4433C96.3705 58.9024 97.7165 58.0142 99.0126 57.8963C99.6993 57.8309 100.389 57.9899 100.977 58.3495L101.417 58.6033L102.063 58.9772L104.025 60.1102L104.626 60.4569L106.588 61.5899H106.604L107.118 61.8868C112.382 64.9255 117.743 67.8146 122.817 71.1774C123.204 71.4334 123.592 71.694 123.97 71.9705C124.097 72.0634 124.222 72.1563 124.344 72.2514C124.467 72.3466 124.532 72.3987 124.623 72.478C124.951 72.7427 125.26 73.0289 125.55 73.3346C125.62 73.3912 125.67 73.4479 125.722 73.5045Z" fill="#FFD166"/>
<path d="M61.6055 140.193L59.6432 139.06L57.6808 137.927L53.7561 135.661L51.7938 134.528L49.8314 133.395L47.8691 132.262L45.9067 131.129L41.982 128.863L40.0196 127.73L36.0949 125.464L34.1326 124.331L32.1702 123.198L28.2455 120.932L26.2831 119.799L24.3208 118.666L22.3562 117.533L20.3938 116.4V134.843L22.3562 135.976L24.3208 137.109L26.2831 138.242L28.2455 139.375L32.1702 141.641L34.1326 142.774L36.0949 143.907L40.0196 146.173L41.982 147.306L45.9067 149.572L47.8691 150.705L49.8314 151.838L51.7938 152.971L53.7561 154.104L57.6808 156.37L59.6432 157.503L61.6055 158.636L63.9599 159.995V141.553L61.6055 140.193ZM55.1497 151.643L53.1874 150.51L49.2627 148.244L47.3003 147.111L45.3379 145.978L43.3756 144.845L39.4509 142.579L37.4885 141.446L35.5261 140.313L31.6014 138.047L29.6391 136.914L29.2063 136.665V125.321L29.63 125.568L31.5924 126.701L33.0449 127.54L35.0072 128.673L36.9696 129.806L40.8943 132.072L42.8567 133.205L44.819 134.338L48.7437 136.604L50.7061 137.737L54.6308 140.003L55.1497 140.302V151.643Z" fill="#58595B"/>
<path d="M55.1498 140.302V151.151L53.1807 150.014L51.2183 148.881L47.2936 146.615L45.3312 145.482L41.4065 143.216L39.4419 142.083L37.4796 140.95L35.5172 139.817L33.5548 138.684L31.5925 137.551L29.6301 136.418V125.568L31.5925 126.701L33.045 127.54L35.0073 128.673L36.9697 129.806L40.8944 132.072L42.8568 133.205L44.8191 134.338L48.7438 136.604L50.7062 137.737L54.6309 140.003L55.1498 140.302Z" fill="white"/>
<path d="M55.1497 151.151V151.643L53.1874 150.51L49.2627 148.244L47.3003 147.111L45.338 145.978L43.3756 144.845L39.4509 142.579L37.4885 141.446L35.5262 140.313L31.6015 138.047L29.6391 136.914L29.2063 136.665L29.63 136.418L31.5924 137.551L33.5548 138.684L35.5171 139.817L37.4795 140.95L39.4418 142.083L41.4064 143.216L45.3312 145.482L47.2935 146.615L51.2182 148.881L53.1806 150.014L55.1497 151.151Z" fill="#6D6E71"/>
<path d="M29.63 125.568V136.418L29.2063 136.665V125.321L29.63 125.568Z" fill="#414042"/>
<path d="M107.526 116.4V134.843L105.171 136.202L103.209 137.335L99.2844 139.601L97.322 140.734L95.3597 141.867L93.3973 143L91.435 144.133L89.4726 145.266L87.5103 146.399L85.5479 147.532L81.6232 149.798L79.6608 150.931L77.6985 152.064L75.7361 153.197L73.7738 154.33L71.8114 155.463L69.8491 156.596L67.8867 157.729L65.9221 158.862L63.9597 159.995V141.553L65.9221 140.42L67.8867 139.287L69.8491 138.154L71.8114 137.021L73.7738 135.888L75.7361 134.755L77.6985 133.622L79.6608 132.489L81.6232 131.356L85.5479 129.09L87.5103 127.957L89.4726 126.824L91.435 125.691L93.3973 124.558L95.3597 123.425L97.322 122.292L99.2844 121.159L103.209 118.893L105.171 117.76L107.526 116.4Z" fill="#414042"/>
<path d="M116.445 88.4398C113.624 94.6622 111.734 98.8294 107.447 100.339C106.114 100.805 104.082 101.184 98.503 99.6429C94.3993 98.5099 88.3218 96.3232 81.4785 91.7821C83.9009 90.2616 86.6088 88.4443 88.8362 87.1255L89.6701 87.5515L91.2087 88.3174L93.2481 89.3258L94.6734 90.0056L96.7264 90.9686L97.9841 91.5034L100.069 92.3917L101.1 92.7633L103.232 93.5315L103.579 93.6244L105.768 94.209H105.827L108.072 94.5172L109.353 94.4424L110.189 94.1546L110.832 93.7014L111.594 92.8789L112.534 91.4241L113.214 90.0645L113.919 88.2313L114.472 86.4887L114.909 84.9433L115.251 83.6721L115.478 82.6456L115.496 82.487C116.229 83.1335 116.751 83.9865 116.991 84.9343C117.331 86.389 116.808 87.6535 116.445 88.4398Z" fill="#F9CD87"/>
<path d="M17.0493 21.3616L16.8227 21.8737L16.7502 22.0391L16.297 21.7989L15.9299 21.6131L13.9155 20.5798L12.9773 20.1402L13.1201 20.82L13.5733 22.9002L13.6254 23.1132L14.1443 25.3203L14.1965 25.5197L14.7856 27.7086L15.0122 28.4405L15.7033 30.5978L15.7283 30.6658L15.8166 32.9136L15.9526 35.1796L15.9662 35.4198L16.0591 36.5279C13.5393 34.1191 12.3519 31.8259 11.7356 30.1332C10.9107 27.8831 10.6456 24.4456 9.21805 21.8737C8.78319 21.0624 8.29571 20.2805 7.75875 19.5329C6.80476 18.0985 6.0887 17.7496 6.21333 17.4935C6.47619 16.9678 9.69165 17.9694 12.2205 18.9959C13.8812 19.6756 15.4944 20.4659 17.0493 21.3616Z" fill="#EDB74C"/>
<path d="M22.8933 13.2606L22.465 13.673L21.3547 14.7449L19.9294 16.501L19.338 17.2216L18.1438 19.15L17.7404 19.8003L17.6702 19.9635C15.4812 18.5744 6.49199 13.1043 1.42975 13.6685C1.06338 12.8518 0.745593 12.0142 0.47803 11.16C0.451162 10.1637 0.582719 9.16935 0.867782 8.21425C1.34364 6.72095 2.41999 5.34323 3.91329 4.86057C4.65252 4.63735 5.43516 4.59845 6.19288 4.74727C7.06055 4.91335 7.90663 5.17713 8.71494 5.53357C13.6956 7.57977 18.2367 10.5732 22.8933 13.2606Z" fill="#FFD166"/>
<path d="M47.5179 137.111V138.095L45.8139 139.078L44.1121 138.095V140.062L42.4081 141.043L41.5583 140.551V138.586L42.4081 139.078V137.111L41.5583 136.619V134.653L42.4081 135.144V134.163L44.1121 135.144V136.128L45.8139 137.111V136.128L47.5179 137.111Z" fill="#58595B"/>
<path d="M47.5178 140.061V142.026L48.3675 142.518V144.485L47.5178 143.993V144.976L45.8138 143.993V143.01L44.112 142.026V143.01L42.408 142.026L42.9994 141.684L44.9617 140.551L45.8138 141.043V140.061L46.4052 139.719L48.3675 138.586V140.551L47.5178 140.061Z" fill="#58595B"/>
<path d="M40.8785 133.279L39.1767 134.263L37.4727 133.279V132.296L38.3247 131.804L38.9161 132.146L40.8785 133.279Z" fill="#58595B"/>
<path d="M40.8788 134.263V141.142L39.177 140.161V135.244L40.8788 134.263Z" fill="#58595B"/>
<path d="M18.2049 51.3974C15.5589 48.8762 13.2749 46.0005 11.4182 42.8524C8.36817 37.6677 6.68906 32.0503 7.25102 31.7761C7.64984 31.5813 8.89388 34.1826 11.8601 37.559C13.3013 39.1976 14.8763 40.7135 16.5688 42.091L16.6572 42.8863L16.6799 43.088L16.9948 45.3314L17.022 45.5217L17.4095 47.756L17.4412 47.9373L17.8944 50.1534L17.9307 50.3279L18.2049 51.3974Z" fill="#F9CD87"/>
<path d="M100.599 113.033V116.4L99.8715 116.821L97.9091 117.954L93.9844 120.22L92.0221 121.353L88.0974 123.619L87.5218 123.95L85.5594 125.083L81.6347 127.349L79.6724 128.482L75.7476 130.748L73.7853 131.881L71.8229 133.014L69.8606 134.147L67.8982 135.28L65.9336 136.413L63.9712 137.546V134.179L64.5966 133.819L68.5214 131.553L70.4837 130.42L71.4876 129.84L73.4499 128.707L75.4123 127.574L77.3746 126.441L79.337 125.308L80.7691 124.483C76.4345 124.069 72.2685 122.594 68.6392 120.189C56.5954 112.287 56.4708 102.348 58.986 98.2854C59.0245 98.222 59.0903 98.0906 59.1129 98.0588H68.8318L72.5775 96.8511L73.1259 97.1683L75.0882 98.3013L77.0506 99.4343L80.9753 101.7L82.9377 102.833L86.8624 105.099L88.8247 106.232L90.7871 107.365L94.7073 109.634L96.6696 110.767L98.632 111.9L100.599 113.033Z" fill="#EDB74C"/>
<path d="M103.488 62.9223C104.578 63.3755 109.817 66.5116 116.837 71.0323C116.91 71.2949 116.944 71.5666 116.939 71.839C116.939 71.9273 116.882 73.5068 115.629 74.2568C115.258 74.4794 114.834 74.6012 114.401 74.6104C113.968 74.6195 113.54 74.5156 113.159 74.3089L100.717 66.4482L100.592 66.3688C100.34 66.2236 100.075 66.1 99.8014 65.9995C99.5476 65.8817 99.4252 65.6822 99.1782 65.2857C98.8836 64.8144 98.614 64.3793 98.6593 63.8785C98.7318 63.0514 99.6246 62.3965 100.4 62.247C100.814 62.1677 101.202 62.2606 101.986 62.4441C102.496 62.571 102.998 62.7307 103.488 62.9223Z" fill="#F9CD87"/>
<path d="M21.2663 13.3943L7.21711 6.21561C5.84392 5.84852 4.4526 6.04566 3.85664 6.82517C3.02955 7.90832 3.5394 10.3737 5.90737 11.8104C7.04943 12.5491 8.24966 13.2825 9.50804 14.0107C12.6801 15.8358 15.9727 17.4431 19.3629 18.8214C19.9071 18.8646 20.4541 18.7872 20.9649 18.5948C22.2158 18.1144 23.4417 16.8273 23.2536 15.6626C23.1671 15.2865 22.9888 14.9377 22.7347 14.6474C22.3486 14.1218 21.846 13.6929 21.2663 13.3943Z" fill="#F9CD87"/>
<path d="M52.6366 104.155C54.1525 104.995 50.8714 110.019 52.7771 114.594C54.5582 118.872 59.8538 120.298 59.3893 121.483C59.2057 121.947 58.2699 122.045 56.6701 121.97C56.6701 121.97 46.8651 121.517 39.5482 113.966C39.3107 113.75 39.1622 113.452 39.1312 113.132C39.1176 112.647 39.496 112.271 39.6887 112.088C42.741 109.199 50.0669 105.129 50.0669 105.129C51.6849 104.227 52.1879 103.905 52.6366 104.155Z" fill="#F9CD87"/>
<path d="M100.587 113.033V116.4L99.86 116.821L97.8976 117.954L93.9729 120.22L92.0105 121.353L90.0482 122.486L88.0858 123.619L87.5103 123.95L85.5479 125.083L81.6232 127.349L79.6608 128.482L77.6985 129.615L75.7361 130.748L73.7738 131.881L71.8114 133.014L69.8491 134.147L67.8867 135.28L65.9221 136.413L63.9597 137.546V134.179L64.5851 133.819L68.5099 131.553L70.4722 130.42L71.476 129.84L73.4384 128.707L75.4008 127.574L77.3631 126.441L79.3255 125.308L81.2878 124.177L83.2502 123.044L85.2125 121.911L86.8509 120.964L88.8132 119.831L90.7756 118.698L92.7379 117.565L94.7003 116.432L96.6626 115.299L98.625 114.166L100.587 113.033Z" fill="#EDB74C"/>
</svg>
