<svg width="80" height="80" viewBox="0 0 80 80" fill="none" xmlns="http://www.w3.org/2000/svg">
<path d="M57.5147 2.5L43.478 23.625H50.4343L66.0858 2.5H57.5147Z" fill="#428BC1"/>
<path d="M50.4345 2.5L36.522 23.625H43.4782L57.5149 2.5H50.4345Z" fill="#E8E8E8"/>
<path d="M43.4782 2.5L29.5657 23.625H36.5219L50.4344 2.5H43.4782Z" fill="#ED4C5C"/>
<path d="M40 77.5C54.1324 77.5 65.589 65.9713 65.589 51.75C65.589 37.5287 54.1324 26 40 26C25.8675 26 14.4109 37.5287 14.4109 51.75C14.4109 65.9713 25.8675 77.5 40 77.5Z" fill="#FFCE31"/>
<path d="M27.2054 18.875C26.5843 18.875 26.0874 19.375 26.0874 20V30.5C26.0874 31.125 26.5843 31.625 27.2054 31.625H52.7944C53.4155 31.625 53.9124 31.125 53.9124 30.5V20C53.9124 19.375 53.4155 18.875 52.7944 18.875H27.2054ZM51.6765 27.125C51.6765 27.75 51.1796 28.25 50.5585 28.25H29.5655C28.9444 28.25 28.4476 27.75 28.4476 27.125V22.375C28.4476 21.75 28.9444 21.25 29.5655 21.25H50.5585C51.1796 21.25 51.6765 21.75 51.6765 22.375V27.125Z" fill="#FFCE31"/>
<path opacity="0.5" d="M18.0132 54.75C18.0132 40.75 28.696 29.375 42.3601 28.375C41.739 28.375 40.9937 28.25 40.3726 28.25C27.3296 28.25 16.771 38.875 16.771 52.125C16.771 56 17.7647 59.75 19.3796 63C18.5101 60.375 18.0132 57.625 18.0132 54.75Z" fill="#89664C"/>
<path opacity="0.33" d="M49.8132 71.625C61.3655 63.875 64.8437 48.75 58.1358 37L59.2538 38.5C66.4585 49.25 63.4772 63.875 52.6702 71.25C49.4405 73.5 45.8382 74.75 42.2358 75.125C44.9687 74.375 47.453 73.25 49.8132 71.625Z" fill="white"/>
<path d="M29.5656 23.625H36.5219L22.4852 2.5H13.9141L29.5656 23.625Z" fill="#ED4C5C"/>
<path d="M36.5218 23.625H43.4781L29.5656 2.5H22.4851L36.5218 23.625Z" fill="#E8E8E8"/>
<path opacity="0.5" d="M41.118 6L37.6399 11.25L45.8383 23.625H50.4344L51.6766 21.875L41.118 6Z" fill="#3E4347"/>
<path d="M43.4782 23.625H50.4344L36.5219 2.5H29.5657L43.4782 23.625Z" fill="#428BC1"/>
<path opacity="0.5" d="M33.5405 44V45.25C34.7827 45.25 35.9007 45 37.0187 44.5V42.75C36.0249 43.5 34.9069 43.875 33.5405 44Z" fill="#89664C"/>
<path opacity="0.5" d="M41.739 35.875H42.857V62.875H41.739V35.875Z" fill="#89664C"/>
<path opacity="0.5" d="M46.4593 64V67.5H33.5405V68.75H47.5772V64H46.4593Z" fill="#89664C"/>
<path opacity="0.33" d="M42.8569 62.875H46.3351V64H42.8569V62.875Z" fill="white"/>
<path opacity="0.33" d="M38.2608 35.875H41.739V34.75H37.0187C37.0187 37.375 34.9069 39.5 32.2983 39.5V44.125C32.671 44.125 33.0437 44.125 33.4163 44V40.5C36.1491 40.625 38.2608 38.5 38.2608 35.875Z" fill="white"/>
<path opacity="0.33" d="M38.2609 64V44C37.8882 44.25 37.5156 44.375 37.1429 44.625V62.875H32.4226V67.5H33.5406V64H38.2609Z" fill="white"/>
</svg>
