<svg width="36" height="36" viewBox="0 0 36 36" fill="none" xmlns="http://www.w3.org/2000/svg">
<circle cx="18" cy="18" r="18" fill="#04BFAD"/>
<path d="M17.9986 9C23.5224 9 28 12.6011 28 17.0444C28 18.596 27.453 20.0447 26.507 21.2731C26.4508 21.3551 26.3889 21.4328 26.3215 21.5058L26.3158 21.5123C25.9858 21.906 25.6219 22.2698 25.2283 22.5994C22.4631 25.1678 17.9105 28.2246 17.3094 27.7565C16.787 27.347 18.1696 25.3417 16.5748 25.0083C16.463 24.9953 16.3526 24.9815 16.2422 24.9656C11.5575 24.2974 8 21.0064 8 17.0466C7.99784 12.6011 12.4754 9 17.9986 9Z" fill="#FCFCFC"/>
<path d="M12.2182 19.6428H14.2386C14.3771 19.6424 14.5098 19.5865 14.6078 19.4871C14.7057 19.3878 14.7609 19.2532 14.7613 19.1128V19.0688C14.7609 18.9283 14.7057 18.7937 14.6078 18.6944C14.5098 18.5951 14.3771 18.5391 14.2386 18.5387H12.7842V15.1824C12.7838 15.0419 12.7286 14.9073 12.6307 14.808C12.5328 14.7087 12.4001 14.6527 12.2616 14.6523H12.2182C12.0798 14.6529 11.9472 14.709 11.8493 14.8082C11.7514 14.9075 11.6961 15.042 11.6956 15.1824V19.1128C11.6959 19.2532 11.7511 19.3878 11.8491 19.4871C11.947 19.5865 12.0797 19.6424 12.2182 19.6428ZM24.739 17.1817V17.1377C24.7387 16.9972 24.6835 16.8626 24.5855 16.7633C24.4876 16.664 24.3549 16.608 24.2164 16.6076H22.762V15.766H24.2164C24.3549 15.7656 24.4876 15.7096 24.5855 15.6103C24.6835 15.511 24.7387 15.3764 24.739 15.2359V15.1919C24.7385 15.0515 24.6832 14.917 24.5853 14.8178C24.4874 14.7185 24.3548 14.6625 24.2164 14.6619H22.196C22.0575 14.6623 21.9248 14.7182 21.8268 14.8176C21.7289 14.9169 21.6737 15.0515 21.6733 15.1919V19.1223C21.6737 19.2628 21.7289 19.3974 21.8268 19.4967C21.9248 19.596 22.0575 19.652 22.196 19.6524H24.2164C24.3549 19.652 24.4876 19.596 24.5855 19.4967C24.6835 19.3974 24.7387 19.2628 24.739 19.1223V19.0783C24.7387 18.9378 24.6835 18.8032 24.5855 18.7039C24.4876 18.6046 24.3549 18.5486 24.2164 18.5482H22.762V17.7095H24.2164C24.3548 17.709 24.4874 17.6529 24.5853 17.5536C24.6832 17.4544 24.7385 17.3199 24.739 17.1795V17.1817ZM20.8529 19.4874C20.9497 19.3886 21.004 19.255 21.004 19.1157V15.1824C21.0036 15.042 20.9484 14.9075 20.8504 14.8083C20.7525 14.7091 20.6198 14.6533 20.4813 14.6531H20.438C20.2996 14.6535 20.167 14.7093 20.0691 14.8085C19.9712 14.9077 19.9159 15.0421 19.9153 15.1824V17.4896L18.0272 14.9236C17.9815 14.8424 17.9154 14.7749 17.8357 14.7279C17.756 14.6809 17.6654 14.6561 17.5732 14.656H17.5298C17.3914 14.6562 17.2587 14.712 17.1608 14.8112C17.0628 14.9104 17.0076 15.0449 17.0072 15.1853V19.1157C17.0076 19.2562 17.0628 19.3908 17.1607 19.4901C17.2586 19.5894 17.3914 19.6454 17.5298 19.6458H17.5732C17.7117 19.6454 17.8444 19.5894 17.9424 19.4901C18.0403 19.3908 18.0955 19.2562 18.0959 19.1157V16.7696L19.9977 19.4046C20.01 19.4229 20.0223 19.4405 20.036 19.4573C20.0878 19.5273 20.1587 19.5804 20.2399 19.6098C20.3027 19.6361 20.37 19.6495 20.438 19.6494H20.4813C20.5665 19.6497 20.6505 19.6285 20.7257 19.5878C20.7743 19.5653 20.8176 19.5326 20.8529 19.4918V19.4874ZM15.7082 19.6428H15.7523C15.8907 19.6424 16.0234 19.5864 16.1212 19.4871C16.219 19.3878 16.274 19.2532 16.2742 19.1128V15.1824C16.2738 15.0421 16.2187 14.9077 16.1209 14.8085C16.0231 14.7094 15.8906 14.6535 15.7523 14.6531H15.7082C15.5698 14.6535 15.4372 14.7093 15.3393 14.8085C15.2414 14.9077 15.1861 15.0421 15.1856 15.1824V19.1128C15.186 19.2532 15.2411 19.3878 15.3391 19.4871C15.437 19.5865 15.5697 19.6424 15.7082 19.6428Z" fill="#04BFAD"/>
</svg>
