<svg width="128" height="160" viewBox="0 0 128 160" fill="none" xmlns="http://www.w3.org/2000/svg">
<path d="M127.432 77.683C127.328 76.496 126.948 75.3498 126.323 74.3361C126.268 74.2523 126.214 74.1707 126.155 74.0891C126.055 73.9509 125.951 73.8149 125.84 73.6835C125.788 73.6201 125.736 73.5589 125.682 73.5C125.627 73.4411 125.58 73.3867 125.526 73.33C125.236 73.0243 124.927 72.7382 124.599 72.4735C124.509 72.3987 124.416 72.3239 124.321 72.2469C124.226 72.1698 124.074 72.0588 123.947 71.9659C123.569 71.6894 123.182 71.4288 122.795 71.1728C117.724 67.8146 112.378 64.9254 107.106 61.8822L106.592 61.5944L107.271 59.836L107.994 57.6878L108.039 57.5541L108.668 55.3788L108.707 55.2451L109.271 53.0493L109.364 52.6868L109.909 50.4865L109.952 50.3143L110.405 48.0981L110.442 47.9236L110.829 45.6894L110.86 45.5081L111.175 43.2647L111.202 43.0744L111.452 40.822L111.474 40.6203L111.667 38.3543L111.705 37.9011L111.893 35.6351L111.913 35.4085L112.047 33.1425L112.063 32.9023L112.151 30.6363V30.3848L112.217 28.1188V27.8605L112.024 30.1265L111.984 30.6046L111.445 32.8162L111.313 33.3283L110.408 35.4085L110.158 35.9841L108.965 37.9102L108.562 38.5628L107.142 40.3189L106.551 41.0418L104.921 42.6121L104.792 42.739L104.112 43.3894L102.325 44.7807L101.288 45.5874L99.3793 46.8042L98.1066 47.6155L96.0935 48.6782L94.5898 49.4645L92.5087 50.3573L90.7831 51.096L88.6432 51.837L86.7206 52.5032L84.5353 53.0992L82.4361 53.6634L80.2191 54.1166L77.975 54.5698L75.7354 54.8938L73.4935 55.2202L73.3802 55.236L71.1157 55.4286L68.8512 55.6212L68.6768 55.6371L66.4123 55.7005L64.1478 55.7663H63.9417L63.4208 55.7527H63.3257C62.3792 59.947 59.7387 67.7851 52.3088 73.2847C50.1643 74.8709 44.6751 78.9361 37.8792 78.3243C34.0884 77.9821 30.4584 76.235 27.3311 73.4252L28.2572 74.8936L28.2844 74.9389L29.5865 76.7947L29.6069 76.8242L30.9996 78.6166L32.4353 80.3705L32.4964 80.4453L33.8823 82.0587L35.3203 83.5746L36.9576 85.1608L38.3661 86.5023L39.8245 87.7554L41.5183 89.0765L42.9223 90.1641L44.3762 91.1748L46.0451 92.2375L47.4174 93.0918L48.8373 93.8781L50.3908 94.6916L51.7064 95.3352L53.0652 95.9198L54.4239 96.4999L54.6843 96.5973L55.3523 96.8488L53.3913 97.9818L51.4302 99.1148L47.508 101.381L45.5469 102.514L43.5858 103.647L41.6248 104.78L37.7026 107.046L35.7415 108.179L33.7804 109.312L29.8583 111.578L27.8972 112.711L27.3492 113.028L29.3103 114.161L33.2324 116.427L35.1935 117.56L39.1157 119.826L41.0767 120.959L42.714 121.904L46.6362 124.17L48.5972 125.303L52.5194 127.569L54.4805 128.702L56.4416 129.835L57.4448 130.415L59.4058 131.548L61.3669 132.681L63.328 133.814L63.9508 134.174L64.5758 133.814L68.4979 131.548L70.459 130.415L71.4622 129.835L73.4233 128.702L75.3844 127.569L77.3454 126.436L79.3065 125.303L81.2676 124.17L85.1898 121.904L86.827 120.957L88.7881 119.824L90.7492 118.691L94.6872 116.432L96.6483 115.299L98.6094 114.166L100.57 113.033L98.6094 111.9L96.6483 110.767L94.6872 109.634L90.765 107.368L88.7994 106.235L86.8383 105.102L82.9116 102.836L80.9506 101.703L77.0239 99.4366L75.0628 98.3036L73.1017 97.1706L72.5537 96.8534L73.2331 96.6018L73.4935 96.5044L74.8522 95.9243L76.2109 95.3397L77.5266 94.6961L78.7223 94.0685C85.2215 97.0414 91.7682 100.078 98.6501 102.031C104.223 103.617 110.482 104.374 115.589 101.635C118.275 100.196 120.417 97.8844 122.031 95.3034C123.646 92.7225 124.767 89.865 125.766 86.9827C126.622 84.515 127.405 81.9793 127.491 79.3689C127.512 78.8063 127.493 78.2428 127.432 77.683ZM115.448 82.4847L115.43 82.6433L115.204 83.6698L114.862 84.941L114.425 86.4864L113.872 88.229L113.168 90.0622L112.489 91.4218L111.549 92.8765L110.788 93.6991L110.145 94.1523L109.314 94.4514L108.034 94.5262L105.783 94.2089H105.725L103.537 93.6243L103.19 93.5314L101.06 92.7632L100.029 92.3916L97.9459 91.5033L96.689 90.9686L94.6374 90.0055L93.213 89.3257L91.1749 88.3173L89.6373 87.5514L88.804 87.1254L89.5218 86.5068L90.9303 85.1653L92.5676 83.5791L94.0056 82.0632L95.3915 80.4498L96.8249 78.6959L96.8861 78.6211L98.281 76.8287L99.5808 74.9729L99.6035 74.9434L100.81 73.0264L100.838 72.9833L101.988 71.1275L103.8 72.2129L105.722 73.4116L106.175 73.6994L108.073 74.9366L108.456 75.1904L110.312 76.482L110.598 76.6814L112.389 78.0682L112.756 78.3515L114.051 79.5457L114.78 80.3501L115.233 81.0299L115.46 81.6961L115.489 82.2513L115.448 82.4847Z" fill="#C5C5C5"/>
<path d="M55.1556 151.643L53.1945 150.51L49.2723 148.244L47.3112 147.111L45.3502 145.978L43.3891 144.845L39.4669 142.579L37.5058 141.446L35.5447 140.313L31.6226 138.047L29.6615 136.914L29.229 136.665V125.321L29.6524 125.568L31.6135 126.701L33.0651 127.54L35.0262 128.673L36.9873 129.806L40.9094 132.072L42.8705 133.205L44.8316 134.338L48.7537 136.604L50.7148 137.737L54.637 140.003L55.1556 140.302V151.643ZM65.9279 158.862L67.8913 157.729L69.8523 156.596L71.8134 155.463L73.7745 154.33L75.7356 153.197L77.6967 152.064L79.6577 150.931L81.6188 149.798L85.541 147.532L87.5021 146.399L89.4632 145.266L91.4242 144.133L93.3853 143L95.3464 141.867L97.3075 140.734L99.2686 139.601L103.191 137.335L105.152 136.202L107.505 134.843V116.4L105.544 115.267L101.621 113.001L99.6603 111.868L97.6992 110.735L93.7771 108.469L91.816 107.336L89.8549 106.203L87.8938 105.07L83.9717 102.804L82.0106 101.671L80.0495 100.538L76.1273 98.2719L74.1663 97.1389L73.2356 96.6019L72.5562 96.8534L72.2754 96.9599L71.947 97.0732L71.0231 97.3904L70.0335 97.7145L69.1571 97.9637L68.822 98.0566H59.1049L58.7697 97.9637L57.8934 97.7145L56.9038 97.3972L55.9753 97.0777L55.647 96.9644L55.3662 96.8579L54.6981 96.6064L50.776 98.8724L48.8149 100.005L46.8515 101.138L44.8905 102.271L40.9683 104.537L39.0072 105.67L35.085 107.936L33.124 109.069L31.1629 110.202L29.2018 111.335L27.2407 112.468L23.3186 114.734L21.3575 115.867L20.4268 116.404V134.847L22.3878 135.98L24.3512 137.113L26.3123 138.246L28.2733 139.379L32.1955 141.645L34.1566 142.778L36.1177 143.911L40.0398 146.177L42.0009 147.31L45.9231 149.576L47.8842 150.709L49.8452 151.842L51.8063 152.975L53.7674 154.108L57.6896 156.374L59.6507 157.507L61.6117 158.64L63.9646 160L65.9279 158.862Z" fill="#6D6E71"/>
<path d="M94.0216 82.0722L95.4075 80.4588L96.8409 78.705L96.9021 78.6302L98.297 76.8378L99.5968 74.9819L99.6195 74.9525L100.826 73.0354L100.854 72.9924L102.004 71.1365L103.816 72.2219L105.738 73.4206L106.191 73.7084L108.089 74.9457L108.456 75.1904L110.313 76.482L110.598 76.6814L112.389 78.0682L112.756 78.3515L114.051 79.5456L114.781 80.3501L115.233 81.0299L115.46 81.6961L115.489 82.2512L115.464 82.4778L115.446 82.6365L115.22 83.663L114.878 84.9342L114.441 86.4796L113.888 88.2222L113.184 90.0553L112.505 91.4149L111.565 92.8697L110.804 93.6923L110.161 94.1455L109.314 94.4514L108.034 94.5262L105.784 94.2089H105.725L103.537 93.6243L103.191 93.5314L101.06 92.7632L100.029 92.3916L97.946 91.5033L96.6892 90.9686L94.6375 90.0055L93.2131 89.3257L91.1751 88.3173L89.6375 87.5514L88.8041 87.1254L89.522 86.5068L90.9305 85.1653L92.5678 83.5791L94.0216 82.0722ZM28.2755 74.9071L28.3027 74.9525L29.6048 76.8083L29.6252 76.8378L31.0179 78.6302L32.4536 80.3841L32.5147 80.4588L33.9006 82.0722L35.3386 83.5882L36.9758 85.1744L38.3844 86.5159L39.8427 87.769L41.5366 89.09L42.9406 90.1777L44.3944 91.1883L46.0634 92.2511L47.4357 93.1054L48.8556 93.8917L50.409 94.7052L51.7247 95.3487L53.0834 95.9333L54.4422 96.5134L54.7026 96.6109L55.3706 96.8624L53.4095 97.9954L51.4484 99.1284L47.5263 101.394L45.5652 102.527L43.6041 103.66L41.643 104.793L37.7209 107.059L35.7598 108.192L33.7987 109.325L29.8765 111.591L27.9155 112.724L27.3674 113.042L29.3285 114.175L33.2507 116.441L35.2118 117.574L39.1339 119.84L41.095 120.973L42.7323 121.918L46.6544 124.184L48.6155 125.317L52.5377 127.583L54.4988 128.716L56.4598 129.849L57.463 130.429L59.4241 131.562L61.3852 132.695L63.3463 133.828L63.969 134.188L64.594 133.828L68.5162 131.562L70.4773 130.429L71.4805 129.849L73.4415 128.716L75.4026 127.583L77.3637 126.45L79.3248 125.317L81.2859 124.184L85.208 121.918L86.8453 120.97L88.8064 119.837L90.7675 118.704L94.6874 116.432L96.6484 115.299L98.6095 114.166L100.571 113.033L98.6095 111.9L96.6484 110.767L94.6874 109.634L90.7652 107.368L88.7996 106.235L86.8385 105.102L82.9118 102.836L80.9507 101.703L77.024 99.4366L75.063 98.3036L73.1019 97.1706L72.5539 96.8533L73.2332 96.6018L73.4936 96.5044L74.8523 95.9243L76.2111 95.3397L77.5267 94.6961L78.7224 94.0684C85.2216 97.0414 91.7684 100.078 98.6503 102.031C104.223 103.617 110.482 104.374 115.589 101.635C118.275 100.196 120.417 97.8844 122.032 95.3034C123.646 92.7224 124.767 89.865 125.766 86.9827C126.622 84.515 127.405 81.9793 127.491 79.3689C127.513 78.8078 127.494 78.2459 127.435 77.6875C127.331 76.5005 126.951 75.3543 126.325 74.3406C126.271 74.2568 126.216 74.1752 126.158 74.0937C126.058 73.9554 125.954 73.8195 125.843 73.688C125.791 73.6246 125.739 73.5634 125.684 73.5045C125.63 73.4456 125.582 73.3912 125.528 73.3345C125.239 73.0288 124.929 72.7427 124.602 72.478C124.511 72.4032 124.418 72.3284 124.323 72.2514C124.228 72.1744 124.076 72.0633 123.95 71.9704C123.571 71.694 123.184 71.4334 122.797 71.1773C117.727 67.8191 112.38 64.93 107.108 61.8867L106.592 61.5944L107.271 59.836L107.994 57.6878L108.039 57.5541L108.669 55.3788L108.707 55.2451L109.271 53.0493L109.364 52.6868L109.91 50.4865L109.953 50.3143L110.405 48.0981L110.442 47.9236L110.829 45.6893L110.861 45.5081L111.175 43.2647L111.203 43.0744L111.452 40.822L111.474 40.6203L111.667 38.3543L111.705 37.9011L111.893 35.6351L111.914 35.4085L112.047 33.1425L112.063 32.9023L112.151 30.6363V30.3848L112.217 28.1188V27.8605L112.025 25.5945L111.984 25.1186L111.445 22.9636L111.314 22.4515L110.408 20.3713L110.159 19.7958L108.965 17.8697L108.562 17.2171L107.142 15.4654L106.551 14.7449L104.921 13.1722L104.117 12.395L102.33 11.0037L101.293 10.197L99.384 8.98015L98.1113 8.16892L96.1049 7.1175L94.6013 6.33119L92.5202 5.43839L90.7946 4.69967L88.6546 3.95869L86.7321 3.29249L84.5468 2.69653L82.4476 2.12323L80.2306 1.67003L77.9865 1.21683L75.7468 0.892794L73.505 0.568757L73.3917 0.550629L71.1272 0.358018L68.8627 0.16541L68.6883 0.149546L66.4238 0.0860982L64.1592 0.0203857H63.9532L61.6886 0.0838335L59.4241 0.149546H59.2203L56.9558 0.342157L54.6912 0.537033L54.5169 0.550629L52.275 0.874665L50.0354 1.20097L49.9199 1.21683L47.7029 1.67003L45.4588 2.13456L43.2758 2.73052L41.1765 3.30382L39.0615 4.038L37.1366 4.70421L35.0555 5.59701L33.3322 6.33573L31.3258 7.38488L29.8222 8.17345L27.9109 9.39029L26.6405 10.2015L24.8516 11.5928L23.8076 12.395L22.9018 13.2606L22.4738 13.673L21.3642 14.7449L19.9579 16.501L19.3669 17.2216L18.1735 19.15L17.7704 19.8003L17.7002 19.9634L17.091 21.3661L16.8646 21.8782L16.7921 22.0436L16.6155 22.456L16.0516 24.6495L15.9203 25.1639L15.7278 27.4299L15.687 27.9058V27.9171L15.7504 30.1718V30.4301V30.6975L15.8387 32.9454L15.9746 35.2114L15.9882 35.4516L16.081 36.5596L16.1784 37.7108L16.1965 37.9374L16.389 40.2034L16.4275 40.6566L16.5883 42.1136L16.6766 42.909L16.6992 43.1106L17.014 45.354L17.0412 45.5443L17.4284 47.7786L17.4601 47.9599L17.913 50.176L17.9493 50.3505L18.2142 51.4178L18.495 52.5508L18.5381 52.723L18.9502 54.3296L19.1948 55.2813L19.8243 57.4567L19.8628 57.5904L20.5852 59.7385L20.6305 59.8722L21.4457 61.9864L21.5001 62.1246L22.4059 64.2026L22.5372 64.5039L23.443 66.5796L23.486 66.6725L24.4983 68.6983L24.5504 68.8025L25.6623 70.7762L25.7279 70.8918L26.9191 72.8179L27.0459 73.0241L27.3289 73.4773L28.2755 74.9071Z" fill="#C5C5C5"/>
<path d="M100.564 113.033V116.4L99.8369 116.821L97.8758 117.954L93.9536 120.22L91.9926 121.353L88.0704 123.619L87.4952 123.95L85.5341 125.083L81.612 127.349L79.6509 128.482L75.7287 130.748L73.7676 131.881L71.8066 133.014L69.8455 134.147L67.8844 135.28L65.921 136.413L63.96 137.546L63.3848 137.215L59.4626 134.949L57.5015 133.816L55.5405 132.683L53.5794 131.55L49.6572 129.284L47.6961 128.151L45.735 127.018L41.8129 124.752L39.8518 123.619L39.1249 123.198L35.2027 120.932L33.2416 119.799L29.3195 117.533L27.3584 116.4V113.033L27.9064 112.715L29.8675 111.582L33.7897 109.316L35.7507 108.183L37.7118 107.05L41.634 104.784L43.5951 103.651L45.5561 102.518L47.5172 101.385L51.4394 99.1194L53.4005 97.9864L55.3616 96.8534L55.6424 96.9599L55.9707 97.0732L55.9752 97.0755L56.9037 97.395L57.8933 97.719L58.7697 97.9683L59.1048 98.0612H68.8174L69.1525 97.9683L70.0289 97.719L71.0185 97.395L71.9424 97.0777L71.9515 97.0732L72.2798 96.9599L72.5606 96.8534L73.1087 97.1706L75.0697 98.3036L77.0308 99.4366L80.953 101.703L82.9141 102.836L86.8362 105.102L88.7973 106.235L90.7584 107.368L94.6805 109.634L96.6416 110.767L98.6027 111.9L100.564 113.033Z" fill="#D4D4D4"/>
<path d="M55.1555 140.302V151.151L53.1876 150.014L51.2265 148.881L47.3043 146.615L45.3433 145.482L41.4211 143.216L39.4577 142.083L37.4967 140.95L35.5356 139.817L33.5745 138.684L31.6134 137.551L29.6523 136.418V125.568L31.6134 126.701L33.065 127.54L35.0261 128.673L36.9872 129.806L40.9093 132.072L42.8704 133.205L44.8315 134.338L48.7536 136.604L50.7147 137.737L54.6369 140.003L55.1555 140.302Z" fill="white"/>
<path d="M112.049 25.6352L112.009 25.1594L111.445 22.9636L111.313 22.4515L110.408 20.3713L110.159 19.7958L108.965 17.8697L108.562 17.2171L107.142 15.4654L106.551 14.7449L104.921 13.1722L104.117 12.395L102.33 11.0037L101.293 10.197L99.384 8.98015L98.1113 8.16892L96.1049 7.11749L94.6013 6.33119L92.5202 5.43839L90.7946 4.69967L88.6546 3.95869L86.732 3.29249L84.5468 2.69653L82.4476 2.12323L80.2306 1.67003L77.9864 1.21683L75.7468 0.892794L73.5049 0.568757L73.3917 0.550629L71.1272 0.358017L68.8627 0.16541L68.6883 0.149546L66.4238 0.0860982L64.1592 0.0203857H63.9532L61.6886 0.0838335L59.4241 0.149546H59.2203L56.9558 0.342157L54.6912 0.537033L54.5169 0.550629L52.275 0.874665L50.0354 1.20097L49.9199 1.21683L47.7029 1.67003L45.4588 2.13456L43.2758 2.73052L41.1765 3.30382L39.0615 4.038L37.1366 4.70421L35.0555 5.59701L33.3322 6.33573L31.3258 7.38488L29.8222 8.17345L27.9109 9.39029L26.6405 10.2015L24.8516 11.5928L23.8076 12.395L22.9018 13.2606L22.4738 13.673L21.3642 14.7449L19.9579 16.501L19.3669 17.2216L18.1735 19.15L17.7704 19.8003L17.7002 19.9634L17.091 21.3661L16.8646 21.8782L16.7921 22.0436L16.6155 22.456L16.0516 24.6495L15.9203 25.1639L15.7278 27.4299L15.687 27.9058V27.9171L15.7504 30.1718V30.4301V30.6975L15.8387 32.9454L15.9746 35.2114L15.9882 35.4516L16.081 36.5596L16.1784 37.7108L16.1965 37.9374L16.389 40.2034L16.4275 40.6566L16.5883 42.1136L16.6766 42.909L16.6992 43.1106L17.014 45.354L17.0412 45.5443L17.4284 47.7786L17.4601 47.9599L17.913 50.176L17.9493 50.3505L18.2142 51.4178L18.495 52.5508L18.5381 52.723L18.9502 54.3296L19.1948 55.2813L19.8243 57.4567L19.8628 57.5904L20.5852 59.7385L20.6305 59.8722L21.4457 61.9864L21.5001 62.1246L22.4059 64.2026L22.5372 64.5039L23.443 66.5796L23.486 66.6725L24.4983 68.6983L24.5504 68.8025L25.6623 70.7762L25.7279 70.8918L26.9191 72.8179L27.0459 73.0241L27.3289 73.4773C30.4563 76.2871 34.0863 78.0342 37.8771 78.3764C44.6707 78.9882 50.1622 74.9253 52.3067 73.3368C59.7366 67.8372 62.377 59.9991 63.3236 55.8048H63.4187L63.9396 55.8184H64.1456L66.4102 55.7526L68.6747 55.6892L68.8491 55.6733L71.1136 55.4807L73.3781 55.2881L73.4914 55.2723L75.7332 54.9459L77.9729 54.6219L80.217 54.1687L82.434 53.7155L84.5332 53.1422L86.7185 52.5463L88.641 51.8801L90.781 51.1391L92.5066 50.4004L94.5877 49.5076L96.0913 48.7212L98.0977 47.6698L99.3704 46.8586L101.279 45.6418L102.317 44.8351L104.103 43.4437L104.783 42.7934L104.912 42.6665L106.542 41.0962L107.133 40.3733L108.569 38.6217L108.972 37.9691L110.165 36.043L110.414 35.4674L111.32 33.3872L111.445 32.8162L112.009 30.6227L112.049 30.1446L112.242 27.8786L112.049 25.6352Z" fill="#E5E5E5"/>
<path d="M22.92 13.2606L22.492 13.673L21.3824 14.7449L19.958 16.501L19.3669 17.2216L18.1735 19.15L17.7704 19.8003L17.7002 19.9635L17.0911 21.3661L16.8646 21.8782L16.7922 22.0436L16.3393 21.8034L15.9724 21.6176L13.9479 20.5798L13.0104 20.1402L13.1531 20.82L13.606 22.9002L13.6581 23.1132L14.1766 25.3203L14.2287 25.5197L14.8175 27.7086L15.044 28.4406L15.7346 30.5978L15.7595 30.6658L15.8479 32.9136L15.9837 35.1796L15.9973 35.4198L16.0902 36.5279L16.1875 37.679L16.2057 37.9056L16.3981 40.1716L16.4366 40.6248L16.5974 42.0819L16.6857 42.8772L16.7084 43.0789L17.0232 45.3223L17.0503 45.5126L17.4376 47.7469L17.4693 47.9282L17.9222 50.1443L17.9584 50.3188L18.2234 51.3861L18.5041 52.5191L18.5472 52.6913L18.9593 54.2979L18.3071 53.6294C14.5276 49.324 11.1399 45.1659 8.58325 39.9677C6.0266 34.7695 4.17875 29.1747 2.6751 23.5528C1.73532 20.0428 0.908768 16.4851 0.587205 12.8641C0.56003 12.5604 0.535125 12.2568 0.521538 11.9577C0.521538 11.8172 0.505683 11.6767 0.503418 11.5339C0.501154 11.3912 0.503418 11.2847 0.503418 11.16C0.476568 10.1637 0.608039 9.16935 0.892917 8.21425C1.36847 6.72095 2.44412 5.34323 3.93644 4.86057C4.6752 4.63735 5.45732 4.59845 6.21456 4.74727C7.08166 4.91335 7.92719 5.17713 8.73498 5.53357C13.7283 7.57977 18.2664 10.5732 22.92 13.2606Z" fill="#D4D4D4"/>
<path d="M18.9706 54.2979L18.3184 53.6294C14.5389 49.324 11.1512 45.1659 8.59451 39.9677C6.03786 34.7695 4.19001 29.1747 2.68636 23.5528C1.74658 20.0428 0.920028 16.4851 0.598465 12.8641C0.57129 12.5604 0.546379 12.2568 0.532792 11.9577C0.532792 11.8172 0.516943 11.6767 0.514678 11.5339C0.512414 11.3912 0.514678 11.2847 0.514678 11.16C0.782068 12.0142 1.09965 12.8518 1.46578 13.6685C6.52473 13.1043 15.5059 18.5744 17.6957 19.9634L17.0865 21.3661C15.5314 20.4758 13.9185 19.6908 12.2585 19.0163C9.7313 17.9898 6.51794 16.9882 6.25525 17.5139C6.1307 17.7632 6.84629 18.1121 7.79966 19.5533C8.33628 20.3009 8.82343 21.0828 9.25802 21.8941C10.6847 24.466 10.9496 27.9035 11.7739 30.1536C12.3899 31.8463 13.5855 34.1395 16.0946 36.5483L16.192 37.6994L16.2101 37.926L16.4026 40.192L16.4411 40.6452L16.6019 42.1023C14.9104 40.7248 13.3365 39.2089 11.8962 37.5703C8.93192 34.1939 7.6887 31.5926 7.29014 31.7874C6.72854 32.0616 8.40656 37.679 11.4546 42.8636C13.3103 46.0076 15.5919 48.8795 18.2346 51.3974L18.5154 52.5304L18.5584 52.7026L18.9706 54.2979Z" fill="#D4D4D4"/>
<path d="M63.96 134.179V137.546L63.3848 137.215L59.4626 134.949L57.5015 133.816L55.5405 132.683L53.5794 131.55L51.6183 130.417L49.6572 129.284L47.6961 128.151L45.735 127.018L41.8129 124.752L39.8518 123.619L39.1249 123.198L35.2027 120.932L33.2416 119.799L31.2806 118.666L29.3195 117.533L27.3584 116.4V113.033L29.3195 114.166L31.2806 115.299L33.2416 116.432L35.2027 117.565L39.1249 119.831L41.086 120.964L42.7232 121.909L44.6843 123.042L46.6454 124.175L48.6065 125.308L52.5286 127.574L54.4897 128.707L56.4508 129.84L57.454 130.42L59.4151 131.553L61.3761 132.686L63.3372 133.819L63.96 134.179Z" fill="#D4D4D4"/>
<path d="M112.242 27.8922L112.05 30.1491L112.009 30.6273L111.445 32.8207L111.314 33.3329L110.412 35.413L110.163 35.9886L108.97 37.9147L108.567 38.5673L107.131 40.3189L106.54 41.0418L104.91 42.6121L104.781 42.739L104.106 43.3894L102.319 44.7807L101.282 45.5874L99.3729 46.8042L98.1002 47.6155L96.0938 48.6669L94.5902 49.4532L92.5091 50.346L90.7835 51.0847L88.6435 51.8257L86.7209 52.4919L84.5357 53.0878L82.4365 53.6611L80.2195 54.1211L77.9753 54.5834L75.7357 54.9074L73.4938 55.2337L73.3806 55.2496L71.1251 55.4422L68.8674 55.6348L68.693 55.6507L66.4308 55.7141L64.1662 55.7799L63.9602 55.7844L63.4393 55.7708L63.3442 55.7663L61.6979 55.7209L59.4334 55.6575L59.2296 55.6507L56.9718 55.4581L54.7164 55.2632L54.542 55.2496L52.3001 54.9256L50.0605 54.5993L49.945 54.5834L47.728 54.1257L46.4757 53.8673L45.4839 53.6611L43.3009 53.0652L41.2017 52.4919L39.0617 51.7509L37.1368 51.0847L35.0557 50.1919L33.3324 49.4532L31.3261 48.404L29.8224 47.6155L27.9111 46.3986L26.6407 45.5874L24.8518 44.1961L23.8169 43.3894L23.142 42.7368L21.5116 41.1664L21.3825 41.0418L19.9468 39.2879L19.3558 38.5673L18.7941 37.6609L17.7593 35.9886L16.858 33.9107L16.6089 33.3329L16.2715 32.0254L15.9137 30.6273L15.7212 28.3681L15.6804 27.8922L15.7212 27.4163L15.9137 25.1594L16.045 24.645L16.6089 22.4515L16.7855 22.0391L16.858 21.8737L17.0799 21.3616L17.6891 19.9589L17.7593 19.7958L18.1623 19.1454L19.3558 17.2171L19.9468 16.4965L21.3825 14.7449L22.4921 13.673L22.9201 13.2606L23.8169 12.395L24.8518 11.5883L26.6407 10.197L27.9111 9.38577L29.8224 8.16893L31.3261 7.38036L33.3324 6.3312L35.0557 5.59249L37.1368 4.69968L39.0617 4.03348L41.2017 3.2925L43.3009 2.7192L45.4839 2.12324L47.728 1.65871L49.945 1.20098L50.0605 1.18512L52.3001 0.858816L54.542 0.534776L54.7164 0.521181L56.9718 0.326305L59.2296 0.133697L59.4334 0.129164L61.6979 0.0634512L63.9602 0L64.1662 0.00453297L66.4308 0.0702489L68.693 0.133697L68.8674 0.149557L71.1251 0.342168L73.3806 0.534776L73.4938 0.552904L75.7357 0.876944L77.9753 1.20098L80.2195 1.66325L82.4365 2.12324L84.5357 2.69654L86.7209 3.2925L88.6435 3.9587L90.7835 4.69968L92.5091 5.4384L94.5902 6.3312L96.0938 7.11751L98.1002 8.16893L99.3729 8.98016L101.282 10.197L102.319 11.0037L104.106 12.395L104.91 13.1723L106.54 14.7449L107.131 15.4654L108.567 17.2171L108.97 17.8697L110.163 19.7958L110.412 20.3713L111.314 22.4515L111.445 22.9636L112.009 25.1594L112.05 25.6353L112.242 27.8922Z" fill="#E5E5E5"/>
<path d="M105.827 27.7699L105.815 27.8832L105.623 30.1492L105.584 30.3032L105.02 32.499L104.923 32.7256L104.017 34.8058L103.827 35.114L102.634 37.0401L102.312 37.4321L100.879 39.186L100.396 39.6392L98.7636 41.2004L98.1023 41.7148L96.3156 43.1061L95.4664 43.6477L93.5552 44.8736L92.5157 45.4152L90.5094 46.4666L89.2933 46.9878L87.2099 47.8806L85.8263 48.3587L83.6863 49.0997L82.1578 49.5189L79.9725 50.1149L78.3217 50.457L76.1047 50.9102L74.361 51.1618L72.1191 51.4881L70.3075 51.6422L68.043 51.8348L66.2042 51.8869L64.0234 51.9503C66.1657 40.5932 70.6155 34.3798 74.9385 30.727C79.3498 26.9994 86.8137 23.2492 91.191 14.0016C91.7704 12.7723 92.2697 11.5068 92.6856 10.2129L93.5438 10.6661L94.393 11.2077L96.302 12.4245L96.9633 12.9389L98.75 14.3302L99.2301 14.7834L100.863 16.356L101.184 16.748L102.618 18.5019L102.81 18.8101L104.001 20.7362L104.099 20.9628L105.005 23.0407L105.045 23.1948L105.607 25.3883L105.618 25.5016L105.827 27.7699Z" fill="#C5C5C5"/>
<path d="M91.5577 9.61693L90.5183 9.07536L88.4372 8.18255L87.2143 7.66364L85.0743 6.92266L83.6907 6.44227L81.5122 5.85084L79.9814 5.43163L77.7644 4.97843L76.1181 4.6272L73.8762 4.3009L72.1326 4.04937L69.868 3.85676L68.0564 3.7004L65.7919 3.63696L63.9508 3.58484L62.0667 3.63696L61.6886 3.64829L59.8475 3.7004L57.583 3.89528L55.7713 4.04937L53.5295 4.37341L51.7858 4.6272L49.5688 5.0804L47.918 5.4203L45.7327 6.01852L44.2041 6.43547L42.0641 7.17645L40.7032 7.66364L38.6198 8.55418L37.3947 9.07536L35.3883 10.1245L34.3512 10.6684L32.4422 11.8852L31.5998 12.4222L29.813 13.8136L29.1518 14.3279L27.5123 15.9141L27.039 16.3673L25.6055 18.119L25.284 18.5133L24.0906 20.4394L23.9004 20.7475L22.9945 22.8255L22.8994 23.052L22.3718 25.0914L22.2948 25.3906L22.1046 27.6566L22.0933 27.7676L22.2857 30.0336V30.1446L22.8496 32.3404L22.8904 32.4945L23.7962 34.5724L23.8936 34.799L25.0847 36.7251L25.2772 37.0333L26.7106 38.7849L27.0322 39.1792L28.6649 40.7495L29.145 41.2027L30.9317 42.594L31.593 43.1084L33.502 44.3275L34.3512 44.8691L36.3575 45.9183L37.3947 46.4621L39.4781 47.3549L40.6964 47.8761L42.8363 48.6171L44.22 49.0952L46.403 49.6934L46.6136 49.7501L47.9338 50.1104L50.1508 50.5636L51.8016 50.9035L54.0435 51.2275L55.7872 51.4813L58.0517 51.6739L59.8633 51.828L62.1279 51.8937L63.9667 51.9458H64.0505C66.1927 40.5886 70.6425 34.3753 74.9655 30.7225C79.3768 26.9949 86.8407 23.2447 91.218 13.9971C91.7974 12.7678 92.2967 11.5022 92.7126 10.2084L91.5577 9.61693Z" fill="#D4D4D4"/>
<path d="M125.526 73.3346C125.236 73.0289 124.927 72.7427 124.599 72.478C124.509 72.4033 124.416 72.3285 124.321 72.2514C124.226 72.1744 124.074 72.0634 123.947 71.9704C123.569 71.694 123.182 71.4334 122.795 71.1773C117.724 67.8191 112.378 64.93 107.106 61.8867L106.592 61.5944H106.576L104.615 60.4614L104.015 60.1147L102.054 58.9817L101.408 58.6078L100.969 58.3541C100.381 57.9944 99.692 57.8354 99.0058 57.9009C97.7105 58.0187 96.3654 58.907 95.1312 60.4478C94.4224 61.3338 94.0555 62.4646 93.8789 63.5455C93.7361 64.4603 93.6921 65.3879 93.7476 66.3122L95.4935 67.3206L96.1729 67.7081L96.4899 67.8916L98.4465 69.0246L98.7793 69.2195L100.729 70.3707L101.334 70.7287L102.013 71.1411L103.825 72.2265L105.747 73.4252L106.2 73.713L108.098 74.9502L108.456 75.1904L110.313 76.4821L110.598 76.6815L112.389 78.0683L112.756 78.3515L114.051 79.5457L114.78 80.3501L115.233 81.0299L115.46 81.6961L115.489 82.2513L115.464 82.4779L115.446 82.6365L115.22 83.663L114.878 84.9342L114.441 86.4797L113.888 88.2222L113.184 90.0554L112.505 91.415L111.565 92.8698L110.804 93.6923L110.161 94.1455L109.314 94.4514L108.034 94.5262L105.784 94.209H105.725L103.537 93.6243L103.191 93.5314L101.06 92.7633L100.029 92.3916L97.946 91.5034L96.6892 90.9686L94.6375 90.0055L93.2131 89.3257L91.1751 88.3174L89.6374 87.5515L88.8041 87.1255C86.5781 88.4443 83.872 90.2616 81.4512 91.7821C80.8601 92.1537 80.2872 92.5072 79.7415 92.8312C83.564 94.9477 87.0853 96.62 89.9749 97.8867C93.9718 99.636 96.0891 100.565 99.1553 101.22C102.892 102.013 106.628 102.858 110.433 101.349C112.924 100.361 114.887 98.5914 117.276 95.1494C122.235 88.0001 124.568 80.0193 125.655 73.5045C125.63 73.4479 125.58 73.3912 125.526 73.3346Z" fill="#D4D4D4"/>
<path d="M61.6071 140.193L59.646 139.06L57.6849 137.927L53.7628 135.661L51.8017 134.528L49.8406 133.395L47.8795 132.262L45.9185 131.129L41.9963 128.863L40.0352 127.73L36.113 125.464L34.152 124.331L32.1909 123.198L28.2687 120.932L26.3076 119.799L24.3466 118.666L22.3832 117.533L20.4221 116.4V134.843L22.3832 135.976L24.3466 137.109L26.3076 138.242L28.2687 139.375L32.1909 141.641L34.152 142.774L36.113 143.907L40.0352 146.173L41.9963 147.306L45.9185 149.572L47.8795 150.705L49.8406 151.838L51.8017 152.971L53.7628 154.104L57.6849 156.37L59.646 157.503L61.6071 158.636L63.9599 159.995V141.552L61.6071 140.193ZM55.1555 151.643L53.1944 150.51L49.2722 148.244L47.3111 147.111L45.3501 145.978L43.389 144.845L39.4668 142.579L37.5057 141.446L35.5446 140.313L31.6225 138.047L29.6614 136.914L29.2289 136.665V125.321L29.6523 125.568L31.6134 126.701L33.065 127.54L35.0261 128.673L36.9872 129.806L40.9093 132.072L42.8704 133.205L44.8315 134.338L48.7536 136.604L50.7147 137.737L54.6369 140.003L55.1555 140.302V151.643Z" fill="#58595B"/>
<path d="M55.1556 151.151V151.643L53.1945 150.51L49.2723 148.244L47.3113 147.111L45.3502 145.978L43.3891 144.845L39.4669 142.579L37.5058 141.446L35.5448 140.313L31.6226 138.047L29.6615 136.914L29.229 136.665L29.6525 136.418L31.6136 137.551L33.5746 138.684L35.5357 139.817L37.4968 140.95L39.4579 142.083L41.4212 143.216L45.3434 145.482L47.3045 146.615L51.2266 148.881L53.1877 150.014L55.1556 151.151Z" fill="#6D6E71"/>
<path d="M29.6525 125.568V136.418L29.229 136.665V125.321L29.6525 125.568Z" fill="#414042"/>
<path d="M107.498 116.4V134.843L105.145 136.202L103.184 137.335L99.2617 139.601L97.3006 140.734L95.3395 141.867L93.3784 143L91.4174 144.133L89.4563 145.266L87.4952 146.399L85.5341 147.532L81.612 149.798L79.6509 150.931L77.6898 152.064L75.7287 153.197L73.7676 154.33L71.8066 155.463L69.8455 156.596L67.8844 157.729L65.921 158.862L63.96 159.995V141.552L65.921 140.419L67.8844 139.286L69.8455 138.153L71.8066 137.02L73.7676 135.887L75.7287 134.754L77.6898 133.621L79.6509 132.488L81.612 131.355L85.5341 129.089L87.4952 127.956L89.4563 126.823L91.4174 125.69L93.3784 124.557L95.3395 123.424L97.3006 122.291L99.2617 121.158L103.184 118.892L105.145 117.759L107.498 116.4Z" fill="#414042"/>
<path d="M116.411 88.4397C113.592 94.6621 111.703 98.8293 107.419 100.338C106.087 100.805 104.056 101.184 98.4804 99.6428C94.3794 98.5098 88.3059 96.3231 81.467 91.7821C83.8878 90.2616 86.5939 88.4442 88.82 87.1254L89.6533 87.5514L91.1909 88.3173L93.229 89.3257L94.6534 90.0055L96.705 90.9686L97.9619 91.5033L100.045 92.3916L101.076 92.7632L103.207 93.5314L103.553 93.6243L105.741 94.2089H105.799L108.044 94.5171L109.323 94.4423L110.159 94.1546L110.802 93.7014L111.563 92.8788L112.502 91.424L113.182 90.0644L113.886 88.2312L114.439 86.4887L114.876 84.9433L115.218 83.6721L115.444 82.6456L115.462 82.4869C116.195 83.1334 116.716 83.9864 116.957 84.9342C117.296 86.389 116.773 87.6534 116.411 88.4397Z" fill="#E5E5E5"/>
<path d="M17.0799 21.3616L16.8534 21.8737L16.781 22.0391L16.3281 21.799L15.9612 21.6131L13.9481 20.5798L13.0105 20.1402L13.1532 20.82L13.6061 22.9002L13.6582 23.1132L14.1768 25.3203L14.2289 25.5197L14.8176 27.7087L15.0441 28.4406L15.7348 30.5978L15.7597 30.6658L15.848 32.9137L15.9839 35.1797L15.9975 35.4199L16.0903 36.5279C13.5721 34.1192 12.3855 31.826 11.7696 30.1333C10.9453 27.8832 10.6803 24.4456 9.25369 21.8737C8.8191 21.0625 8.33194 20.2806 7.79533 19.533C6.84196 18.0986 6.12637 17.7496 6.25092 17.4936C6.51361 16.9678 9.72697 17.9694 12.2542 18.9959C13.9138 19.6757 15.526 20.466 17.0799 21.3616Z" fill="#C5C5C5"/>
<path d="M22.9198 13.2606L22.4918 13.673L21.3821 14.7449L19.9578 16.501L19.3667 17.2216L18.1733 19.15L17.7702 19.8003L17.7 19.9635C15.5125 18.5744 6.5291 13.1043 1.47014 13.6685C1.10402 12.8518 0.786432 12.0142 0.519043 11.16C0.492193 10.1637 0.623664 9.16935 0.908542 8.21425C1.38409 6.72095 2.45974 5.34323 3.95207 4.86057C4.69082 4.63735 5.47295 4.59845 6.23018 4.74727C7.09729 4.91335 7.94281 5.17713 8.7506 5.53357C13.728 7.57977 18.2661 10.5732 22.9198 13.2606Z" fill="#D4D4D4"/>
<path d="M43.2735 135.532V138.48L42.422 138.972L42.0914 138.781L40.1281 137.648L38.167 136.515L39.8699 135.532L41.5706 136.515V135.532L40.7214 135.04L42.422 134.057L43.2735 135.532Z" fill="#58595B"/>
<path d="M39.0183 135.04L37.5758 135.872L35.6147 137.005V134.057L36.4662 133.565L37.0572 133.907L39.0183 135.04Z" fill="#58595B"/>
<path d="M43.2734 140.447V142.411L41.498 141.387L37.5758 139.121L35.6147 137.988L37.3177 137.005L37.3901 137.048L39.3512 138.181L41.3123 139.314L43.2734 140.447Z" fill="#58595B"/>
<path d="M41.5704 133.565L39.8698 134.548L39.5369 134.356L37.5758 133.223L35.6147 132.09V131.106L36.4662 130.615L37.6483 131.299L39.6094 132.432L41.5704 133.565Z" fill="#58595B"/>
<path d="M49.9018 138.378V139.361L48.1988 140.345L46.4982 139.361V141.328L44.7952 142.309L43.946 141.818V139.853L44.7952 140.345V138.378L43.946 137.886V135.919L44.7952 136.411V135.43L46.4982 136.411V137.394L48.1988 138.378V137.394L49.9018 138.378Z" fill="#58595B"/>
<path d="M49.9017 141.328V143.293L50.7509 143.784V145.751L49.9017 145.26V146.243L48.1988 145.26V144.276L46.4981 143.293V144.276L44.7952 143.293L45.3862 142.951L47.3473 141.818L48.1988 142.309V141.328L48.7898 140.986L50.7509 139.853V141.818L49.9017 141.328Z" fill="#58595B"/>
<path d="M18.2348 51.3974C15.5905 48.8762 13.3081 46.0005 11.4525 42.8524C8.40448 37.6677 6.72646 32.0503 7.28806 31.7761C7.68662 31.5813 8.92985 34.1826 11.8941 37.559C13.3344 39.1976 14.9084 40.7135 16.5998 42.091L16.6881 42.8863L16.7108 43.088L17.0255 45.3314L17.0527 45.5217L17.44 47.756L17.4717 47.9373L17.9246 50.1534L17.9608 50.3279L18.2348 51.3974Z" fill="#E5E5E5"/>
<path d="M100.575 113.033V116.4L99.8482 116.821L97.8871 117.954L93.9649 120.22L92.0039 121.353L88.0817 123.619L87.5065 123.95L85.5454 125.083L81.6233 127.349L79.6622 128.482L75.74 130.748L73.7789 131.881L71.8179 133.014L69.8568 134.147L67.8957 135.28L65.9324 136.413L63.9713 137.546V134.179L64.5963 133.819L68.5185 131.553L70.4795 130.42L71.4827 129.84L73.4438 128.707L75.4049 127.574L77.366 126.441L79.327 125.308L80.7582 124.483C76.4265 124.069 72.2632 122.594 68.6362 120.189C56.6003 112.287 56.4757 102.348 58.9893 98.2855C59.0278 98.2221 59.0935 98.0906 59.1161 98.0589H68.8287L72.572 96.8511L73.12 97.1684L75.0811 98.3014L77.0421 99.4344L80.9643 101.7L82.9254 102.833L86.8475 105.099L88.8086 106.232L90.7697 107.365L94.6873 109.634L96.6484 110.767L98.6095 111.9L100.575 113.033Z" fill="#C5C5C5"/>
<path d="M103.462 62.9223C104.552 63.3755 109.787 66.5117 116.803 71.0323C116.875 71.2949 116.91 71.5666 116.905 71.839C116.905 71.9274 116.848 73.5068 115.596 74.2568C115.224 74.4794 114.801 74.6013 114.368 74.6104C113.936 74.6196 113.508 74.5157 113.127 74.309L100.693 66.4482L100.568 66.3689C100.316 66.2236 100.051 66.1001 99.7779 65.9995C99.5243 65.8817 99.402 65.6823 99.1552 65.2858C98.8608 64.8144 98.5913 64.3793 98.6366 63.8786C98.7091 63.0515 99.6013 62.3966 100.376 62.247C100.79 62.1677 101.177 62.2606 101.961 62.4442C102.471 62.571 102.973 62.7307 103.462 62.9223Z" fill="#E5E5E5"/>
<path d="M21.2941 13.3944L7.254 6.21567C5.88169 5.84858 4.49128 6.04572 3.89571 6.82523C3.06915 7.90838 3.57867 10.3738 5.9451 11.8104C7.08642 12.5491 8.28587 13.2826 9.54344 14.0107C12.7135 15.8358 16.0039 17.4431 19.3919 18.8214C19.9357 18.8646 20.4824 18.7873 20.9929 18.5948C22.2429 18.1144 23.468 16.8273 23.2801 15.6626C23.1936 15.2866 23.0155 14.9378 22.7615 14.6475C22.3757 14.1219 21.8734 13.693 21.2941 13.3944Z" fill="#E5E5E5"/>
<path d="M52.6442 104.155C54.1591 104.995 50.8801 110.019 52.7846 114.594C54.5645 118.872 59.8567 120.297 59.3925 121.483C59.209 121.947 58.2738 122.045 56.675 121.97C56.675 121.97 46.8764 121.517 39.5642 113.966C39.327 113.75 39.1785 113.452 39.1476 113.132C39.134 112.647 39.5122 112.271 39.7047 112.088C42.755 109.199 50.0762 105.129 50.0762 105.129C51.6931 104.227 52.1958 103.905 52.6442 104.155Z" fill="#E5E5E5"/>
<path d="M100.564 113.033V116.4L99.8369 116.821L97.8758 117.954L93.9536 120.22L91.9925 121.353L90.0315 122.486L88.0704 123.619L87.4952 123.95L85.5341 125.083L81.612 127.349L79.6509 128.482L77.6898 129.615L75.7287 130.748L73.7676 131.881L71.8066 133.014L69.8455 134.147L67.8844 135.28L65.921 136.413L63.96 137.546V134.179L64.585 133.819L68.5071 131.553L70.4682 130.42L71.4714 129.84L73.4325 128.707L75.3936 127.574L77.3546 126.441L79.3157 125.308L81.2768 124.177L83.2379 123.044L85.199 121.911L86.8362 120.964L88.7973 119.831L90.7584 118.698L92.7195 117.565L94.6805 116.432L96.6416 115.299L98.6027 114.166L100.564 113.033Z" fill="#C5C5C5"/>
</svg>
