<svg width="80" height="80" viewBox="0 0 80 80" fill="none" xmlns="http://www.w3.org/2000/svg">
<path d="M57.625 2.5L43.5 23.625H50.5L66.25 2.5H57.625Z" fill="#428BC1"/>
<path d="M50.5 2.5L36.5 23.625H43.5L57.625 2.5H50.5Z" fill="#E8E8E8"/>
<path d="M43.5 2.5L29.5 23.625H36.5L50.5 2.5H43.5Z" fill="#ED4C5C"/>
<path d="M40 77.5C54.2213 77.5 65.75 65.9713 65.75 51.75C65.75 37.5287 54.2213 26 40 26C25.7787 26 14.25 37.5287 14.25 51.75C14.25 65.9713 25.7787 77.5 40 77.5Z" fill="#B2C1C0"/>
<path d="M27.125 18.875C26.5 18.875 26 19.375 26 20V30.5C26 31.125 26.5 31.625 27.125 31.625H52.875C53.5 31.625 54 31.125 54 30.5V20C54 19.375 53.5 18.875 52.875 18.875H27.125ZM51.75 27.125C51.75 27.75 51.25 28.25 50.625 28.25H29.5C28.875 28.25 28.375 27.75 28.375 27.125V22.375C28.375 21.75 28.875 21.25 29.5 21.25H50.625C51.25 21.25 51.75 21.75 51.75 22.375V27.125Z" fill="#B2C1C0"/>
<path opacity="0.5" d="M17.875 54.75C17.875 40.75 28.625 29.375 42.375 28.375C41.75 28.375 41 28.25 40.375 28.25C27.25 28.25 16.625 38.875 16.625 52.125C16.625 56 17.625 59.75 19.25 63C18.375 60.375 17.875 57.625 17.875 54.75Z" fill="#3E4347"/>
<path opacity="0.33" d="M49.875 71.625C61.5 63.875 65 48.75 58.25 37C58.625 37.5 59 38 59.375 38.625C66.625 49.375 63.625 64 52.75 71.375C49.5 73.625 45.875 74.875 42.25 75.25C45 74.375 47.5 73.25 49.875 71.625Z" fill="white"/>
<path d="M29.5 23.625H36.5L22.375 2.5H13.75L29.5 23.625Z" fill="#ED4C5C"/>
<path d="M36.5 23.625H43.5L29.5 2.5H22.375L36.5 23.625Z" fill="#E8E8E8"/>
<path opacity="0.5" d="M41.125 6L37.625 11.25L45.875 23.625H50.5L51.75 21.875L41.125 6Z" fill="#3E4347"/>
<path d="M43.5 23.625H50.5L36.5 2.5H29.5L43.5 23.625Z" fill="#428BC1"/>
<path opacity="0.5" d="M39.375 39.375C36.75 39.375 34.625 41.5 34.625 44H31.25C31.25 44.375 31.125 44.75 31.125 45.125H35.875C35.875 42.5 38 40.375 40.625 40.375C41.625 40.375 42.5 40.75 43.25 41.25C42.375 40.25 41 39.375 39.375 39.375Z" fill="#3E4347"/>
<path opacity="0.5" d="M48.75 67.5H31.25V68.75H50V64H48.75V67.5Z" fill="#3E4347"/>
<path opacity="0.5" d="M39.375 53.5C36.75 53.5 34.625 55.625 34.625 58.25V63H35.75V59.5C35.75 56.875 37.875 54.75 40.5 54.75C45.625 54.75 49.875 50.5 49.875 45.375C49.875 42.5 48.625 39.875 46.5 38.125C47.875 39.75 48.75 41.875 48.75 44.125C48.75 49.25 44.625 53.5 39.375 53.5Z" fill="#3E4347"/>
<path opacity="0.33" d="M35.875 62.875H48.75V64H35.875V62.875Z" fill="white"/>
<path opacity="0.33" d="M40.625 50C43.25 50 45.375 47.875 45.375 45.25C45.375 43.625 44.625 42.25 43.375 41.375C43.875 42.125 44.25 43 44.25 44C44.25 46.625 42.125 48.75 39.5 48.75C34.375 48.75 30.125 53 30.125 58.125V67.5H31.25V59.25C31.25 54.125 35.375 50 40.625 50Z" fill="white"/>
<path opacity="0.33" d="M40.625 35.875C42.875 35.875 45 36.75 46.625 38.125C44.875 36.125 42.375 34.75 39.375 34.75C34.25 34.75 30 39 30 44.125H31.25C31.875 39.5 35.75 35.875 40.625 35.875Z" fill="white"/>
</svg>
