<svg width="36" height="36" viewBox="0 0 36 36" fill="none" xmlns="http://www.w3.org/2000/svg">
<circle cx="18" cy="18" r="18" fill="#EF476F"/>
<path d="M26.5043 12.6417C23.5125 7.99985 17.4044 6.61984 12.6674 9.50531C8.05511 12.3908 6.55924 18.6636 9.55099 23.3054L9.80031 23.6818L8.80305 27.4455L12.5427 26.4418L12.9167 26.6927C14.5373 27.5709 16.2824 28.0727 18.0276 28.0727C19.8975 28.0727 21.7673 27.5709 23.3879 26.5673C28.0002 23.5563 29.3714 17.409 26.5043 12.6417ZM23.8865 22.3018C23.3879 23.0545 22.7646 23.5563 21.892 23.6818C21.3934 23.6818 20.7701 23.9327 18.2769 22.9291C16.1578 21.9254 14.4126 20.2945 13.166 18.4127C12.4181 17.5345 12.0441 16.4054 11.9195 15.2763C11.9195 14.2726 12.2934 13.3944 12.9167 12.7672C13.166 12.5162 13.4153 12.3908 13.6647 12.3908H14.2879C14.5373 12.3908 14.7866 12.3908 14.9112 12.8926C15.1605 13.5199 15.7838 15.0254 15.7838 15.1508C15.9085 15.2763 15.9085 15.5272 15.7838 15.6526C15.9085 15.9035 15.7838 16.1545 15.6592 16.2799C15.5345 16.4054 15.4098 16.6563 15.2852 16.7817C15.0359 16.9072 14.9112 17.1581 15.0359 17.409C15.5345 18.1617 16.1578 18.9145 16.7811 19.5418C17.529 20.169 18.2769 20.6709 19.1495 21.0472C19.3989 21.1727 19.6482 21.1727 19.7728 20.9218C19.8975 20.6709 20.5208 20.0436 20.7701 19.7927C21.0194 19.5418 21.144 19.5418 21.3934 19.6672L23.3879 20.6709C23.6372 20.7963 23.8865 20.9218 24.0111 21.0472C24.1358 21.4236 24.1358 21.9254 23.8865 22.3018Z" fill="#FCFCFC"/>
</svg>
