<svg id="bc595c0e-6522-423a-b0bd-735d42baf5cf" data-name="Layer 1" xmlns="http://www.w3.org/2000/svg" xmlns:xlink="http://www.w3.org/1999/xlink" viewBox="0 0 869.7 779.12"><defs><style>.b6626c12-d63a-4b1b-857b-ae8c414b1381{fill:url(#e259c8ec-c431-4545-b574-2e62aa29d86c);}.b17bb477-0a59-44e2-9989-1f20f33744a1,.bc6eb600-d518-4308-875d-362c5b152b9c{fill:none;}.b31a89f7-6758-4a1a-a021-cf31a61e22ec{clip-path:url(#bd8ecd73-ac07-4a1b-b8c6-837e1e9fba9a);}.e07c4f2b-d83a-4c32-a42d-18c8a77ab835{fill:#f9cd87;}.a44b6844-29b2-424f-87ae-e4d9bd8559d9{fill:#ffd166;}.e9902aa6-4872-4eb1-b3c3-c1de4e37dfef{fill:#1ad3bd;}.add484c6-e38d-47d6-9ac7-994dce089858{fill:#edb74c;}.a36246fe-d057-4be5-9e5b-76f53007c443{fill:#006d58;}.be76e07d-cf05-4df5-85c4-fbfbe4585fc5{fill:#059b89;}.b366635f-90a3-41a0-8392-e79c75edf384{fill:#04bfad;}.ed8d736a-c5e9-4c7b-a74b-5c94ff397e8d{fill:#ff6c96;}.b17bb477-0a59-44e2-9989-1f20f33744a1{stroke:#ef476f;stroke-linecap:round;stroke-linejoin:round;stroke-width:2.34px;}.a6a6f3f1-a92d-4d0a-966b-6a821213bc1c{clip-path:url(#a4a5c84a-8634-4a48-8d4e-9705af3719cb);}.adb0814b-e31c-41b1-92ab-d94d9ace5292{mask:url(#f9b8e948-8be7-4a55-83c1-01ab37db9e68);}.ec8d989e-f0c5-4f39-8ce9-f4b377d5f970{fill:url(#e08b65a4-a069-4179-a442-6c427e6c1262);}</style><linearGradient id="e259c8ec-c431-4545-b574-2e62aa29d86c" y1="1080" x2="1" y2="1080" gradientTransform="matrix(0, 430.47, 430.47, 0, -464358.6, 169.87)" gradientUnits="userSpaceOnUse"><stop offset="0" stop-color="#333"/><stop offset="0.92" stop-color="#333"/><stop offset="1" stop-color="#333"/></linearGradient><clipPath id="bd8ecd73-ac07-4a1b-b8c6-837e1e9fba9a" transform="translate(-105.9 -115.61)"><rect class="bc6eb600-d518-4308-875d-362c5b152b9c" width="1080" height="1080"/></clipPath><clipPath id="a4a5c84a-8634-4a48-8d4e-9705af3719cb" transform="translate(-105.9 -115.61)"><path class="bc6eb600-d518-4308-875d-362c5b152b9c" d="M388.61,262.17l44.22,306.46,34.64,21.27c47.82,29.74,90.18,30.46,140,0l37.15-25.27,66.14-302.46Z"/></clipPath><mask id="f9b8e948-8be7-4a55-83c1-01ab37db9e68" x="282.71" y="146.57" width="322.17" height="358.19" maskUnits="userSpaceOnUse"><g transform="translate(-105.9 -115.61)"><rect class="b6626c12-d63a-4b1b-857b-ae8c414b1381" x="388.61" y="262.17" width="322.17" height="358.19"/></g></mask><linearGradient id="e08b65a4-a069-4179-a442-6c427e6c1262" y1="1080" x2="1" y2="1080" gradientTransform="matrix(0, 430.47, 430.47, 0, -464464.5, 54.26)" gradientUnits="userSpaceOnUse"><stop offset="0" stop-color="#fcfcfc"/><stop offset="0.92" stop-color="#fcfcfc"/><stop offset="1" stop-color="#fcfcfc"/></linearGradient></defs><title>IOT</title><g class="b31a89f7-6758-4a1a-a021-cf31a61e22ec"><g class="b31a89f7-6758-4a1a-a021-cf31a61e22ec"><path class="e07c4f2b-d83a-4c32-a42d-18c8a77ab835" d="M338.58,466.43,225.51,531.48,169,564l-14.13,8.17c-4.74,2.69-9.5,5.31-14.18,8s-9.32,5.52-13.74,8.59a60.89,60.89,0,0,0-6.28,4.93c-.51.42-.94.92-1.4,1.38s-.91,1-1.35,1.46-.91,1-1.34,1.49l-1.21,1.56a18.05,18.05,0,0,0-1.13,1.62c-.35.56-.74,1.09-1.06,1.67a35.16,35.16,0,0,0-1.8,3.51,37.22,37.22,0,0,0-1.44,3.67c-.2.63-.36,1.27-.54,1.9l-.26.95-.19,1a37.11,37.11,0,0,0,.19,15.7,48.72,48.72,0,0,0,6.35,14.54,74.74,74.74,0,0,0,10,12.53A121.51,121.51,0,0,0,151.29,676l28.22,16.35,112.87,65.4L405.27,823.1q28.19,16.41,56.41,32.73Q475.81,864,490,872a138.82,138.82,0,0,0,14.68,7c5,2.11,10.11,3.94,15.26,5.63a203.3,203.3,0,0,0,64.13,9.54,147.32,147.32,0,0,0,32.29-3.64,120.66,120.66,0,0,0,15.54-4.77,129.09,129.09,0,0,0,14.77-6.83c1.2-.63,2.39-1.29,3.56-2s2.36-1.33,3.51-2.07l3.46-2.14,3.54-2,14.13-8.13,28.27-16.27,56.54-32.53-56.44,32.7L675,862.78,660.93,871l-3.53,2-3.47,2.15c-1.14.73-2.33,1.39-3.5,2.08s-2.36,1.36-3.57,2a129,129,0,0,1-14.79,6.9A119.6,119.6,0,0,1,616.48,891a147.12,147.12,0,0,1-32.39,3.75,203.33,203.33,0,0,1-64.37-9.38c-5.19-1.68-10.32-3.5-15.35-5.6a142.28,142.28,0,0,1-14.78-7q-14.25-8-28.39-16.06-28.32-16.17-56.52-32.56L291.6,759.06,178.53,694l-28.27-16.27a123.39,123.39,0,0,1-26.33-19.55A76.48,76.48,0,0,1,113.6,645.3c-.75-1.16-1.41-2.38-2.11-3.57s-1.28-2.44-1.84-3.72a43.93,43.93,0,0,1-2.73-7.9,39.53,39.53,0,0,1-.25-16.67l.2-1,.27-1c.2-.67.36-1.36.57-2a41.26,41.26,0,0,1,1.52-3.92,39.85,39.85,0,0,1,1.91-3.74c.34-.62.75-1.19,1.12-1.78a18.86,18.86,0,0,1,1.2-1.72l1.28-1.67c.45-.53.92-1,1.38-1.55s.93-1,1.42-1.53A19,19,0,0,1,119,592a63.4,63.4,0,0,1,6.51-5.15c4.51-3.15,9.18-6,13.89-8.74s9.47-5.39,14.17-8.08l14.08-8.19,56.45-32.7L337,463.73a1.56,1.56,0,0,1,1.57,2.7Z" transform="translate(-105.9 -115.61)"/><path class="e07c4f2b-d83a-4c32-a42d-18c8a77ab835" d="M385.61,437.56c7.31-4.34,14.53-8.87,22.2-12.56A112.46,112.46,0,0,1,432,417.15c16.67-3.49,33.87-4,50.81-2.56a195.75,195.75,0,0,1,49.75,10.89,212.91,212.91,0,0,1,23.48,10l5.66,2.95,5.57,3.13c3.68,2.14,7.25,4.47,11,6.53L755.19,549.8l88.46,50.85,22.12,12.71c3.69,2.12,7.37,4.24,11,6.39s7.38,4.19,11.08,6.3,7.4,4.22,11,6.45,7.24,4.55,10.72,7.07a90.61,90.61,0,0,1,18.77,17.61c5.3,6.77,9.62,14.6,11.28,23.24a37.59,37.59,0,0,1,.69,6.54,47.21,47.21,0,0,1-.49,6.57,35.06,35.06,0,0,1-4.34,12.38,45.12,45.12,0,0,1-8.13,10.25,81.34,81.34,0,0,1-10.21,8c-7.16,4.82-14.79,8.59-22.07,13l-88.25,51.18a1.56,1.56,0,0,1-1.57-2.7h0l88.47-50.85c7.3-4.36,15-8.12,22-12.78a78,78,0,0,0,9.89-7.67,43,43,0,0,0,7.71-9.63,32.61,32.61,0,0,0,4.08-11.52,45,45,0,0,0,.49-6.13,36,36,0,0,0-.63-6.12c-1.52-8.14-5.61-15.68-10.73-22.26a88,88,0,0,0-18.24-17.23c-3.4-2.49-7-4.8-10.55-7s-7.26-4.36-10.95-6.47-7.39-4.19-11.07-6.34-7.34-4.31-11-6.44l-22.07-12.8-88.25-51.18L577.87,448.78c-3.71-2.07-7.27-4.4-10.93-6.55l-5.53-3.15-5.64-3A208.87,208.87,0,0,0,532.4,426,195.15,195.15,0,0,0,482.81,415c-16.9-1.5-34.07-1.06-50.73,2.36a112.55,112.55,0,0,0-24.23,7.75c-7.68,3.66-14.91,8.16-22.24,12.47" transform="translate(-105.9 -115.61)"/><path class="a44b6844-29b2-424f-87ae-e4d9bd8559d9" d="M970.39,441.62a5.77,5.77,0,0,1,4.83,7.74c-10.86,28.29-88.67,70.57-111.12,86.13-13.94,8.75-31.18,18.93-45.26,27.43-10.53-10.74-27.81-19.15-40.59-26.78C810,519.32,932.18,437.6,970.39,441.62" transform="translate(-105.9 -115.61)"/><path class="a44b6844-29b2-424f-87ae-e4d9bd8559d9" d="M621.62,445.7,545.5,401.75c-6.47-11.38-15.19-26.65-21.64-38.06-22.83-40.82-42.1-75.26-64.66-118.11-121-236.92-8.18-99.35,55.49,15.47,36.78,61.17,71.77,122.81,106.93,184.65" transform="translate(-105.9 -115.61)"/><path class="a44b6844-29b2-424f-87ae-e4d9bd8559d9" d="M824.11,559.73c-1.8,1.09-3.55,2.16-5.27,3.19-10.53-10.75-27.81-19.16-40.59-26.78q1.88-1,4.16-2.28c9.05,5.2,18,10.4,26.64,15.37a.6.6,0,0,1,.11.06l1.76,1a88.6,88.6,0,0,1,13.19,9.42" transform="translate(-105.9 -115.61)"/><path class="a44b6844-29b2-424f-87ae-e4d9bd8559d9" d="M621.62,445.7,545.5,401.75l-3.5-6.16c1,.41,1.89.83,2.81,1.29q36.3,20.64,72.79,41.76c1.34,2.35,2.67,4.7,4,7.06" transform="translate(-105.9 -115.61)"/><path class="e9902aa6-4872-4eb1-b3c3-c1de4e37dfef" d="M861.26,669.48v6.83L851,682.22,824,697.84l-13.53,7.81-13.53,7.81-13.53,7.81-13.53,7.82L742.8,744.71l-13.53,7.81-27,15.62L688.69,776l-13.53,7.81-13.53,7.81-13.53,7.81-26,15-1,.59-13.53,7.81-27.06,15.63c-.11-14,6.25-82.91-46.23-117.55C519.69,711.31,292,579.79,261.41,562.12c-12-7-27.8-11.33-40.57-4L228,554l13.53-7.81L255,538.37l13.53-7.81,13.53-7.81,13.53-7.81,27.06-15.62,13.53-7.82Q390.33,460.23,444.45,429L458,421.2l10-5.78q17.64-10.17,35.26-20.29c11-5.36,24-2.66,34.48,2.48,67.13,38.18,134.91,77.87,201.9,116.36,19.93,11.51,42.26,24.39,62.34,36a.27.27,0,0,1,.1.06l1.77,1a92.91,92.91,0,0,1,15.58,11.52c1.47,1.31,2.9,2.67,4.28,4,10.7,11,20,22.22,26.68,37.7a107.32,107.32,0,0,1,3.81,10.28l.07.16c4.26,13.58,6.78,30.28,7,52.06,0,.89,0,1.78,0,2.68" transform="translate(-105.9 -115.61)"/><path class="add484c6-e38d-47d6-9ac7-994dce089858" d="M621.62,445.7,545.5,401.75l-3.5-6.16c1,.41,1.89.83,2.81,1.29q36.3,20.64,72.79,41.76c1.34,2.35,2.67,4.7,4,7.06" transform="translate(-105.9 -115.61)"/><path class="add484c6-e38d-47d6-9ac7-994dce089858" d="M824.11,559.73c-1.8,1.09-3.55,2.16-5.27,3.19-10.53-10.75-27.81-19.16-40.59-26.78q1.88-1,4.16-2.28c9.05,5.2,18,10.4,26.64,15.37a.6.6,0,0,1,.11.06l1.76,1a88.6,88.6,0,0,1,13.19,9.42" transform="translate(-105.9 -115.61)"/><path class="a36246fe-d057-4be5-9e5b-76f53007c443" d="M313.78,549.22c0,2.46,2.14,4.64,5.4,5.92-5-.92-8.64-3.64-8.64-6.85,0-4,5.6-7.2,12.52-7.2a19.06,19.06,0,0,1,7.14,1.3,19.65,19.65,0,0,0-3.91-.38c-6.92,0-12.51,3.22-12.51,7.21" transform="translate(-105.9 -115.61)"/><path class="be76e07d-cf05-4df5-85c4-fbfbe4585fc5" d="M335.57,548.29c0,4-5.61,7.21-12.51,7.21a21,21,0,0,1-3.88-.36c-3.26-1.28-5.4-3.46-5.4-5.92,0-4,5.59-7.21,12.51-7.21a19.65,19.65,0,0,1,3.91.38c3.25,1.3,5.37,3.45,5.37,5.9" transform="translate(-105.9 -115.61)"/><path class="a36246fe-d057-4be5-9e5b-76f53007c443" d="M348.93,528.92c0,2.45,2.12,4.61,5.37,5.92-5-.93-8.6-3.64-8.6-6.84,0-4,5.6-7.2,12.51-7.2a19.16,19.16,0,0,1,7.09,1.28,20,20,0,0,0-3.86-.36c-6.9,0-12.51,3.22-12.51,7.2" transform="translate(-105.9 -115.61)"/><path class="be76e07d-cf05-4df5-85c4-fbfbe4585fc5" d="M370.72,528c0,4-5.6,7.2-12.51,7.2a20.6,20.6,0,0,1-3.91-.36c-3.25-1.31-5.37-3.46-5.37-5.92,0-4,5.61-7.2,12.51-7.2a20.82,20.82,0,0,1,3.86.36c3.28,1.28,5.42,3.45,5.42,5.92" transform="translate(-105.9 -115.61)"/><path class="a36246fe-d057-4be5-9e5b-76f53007c443" d="M384.13,508.61c0,2.45,2.12,4.61,5.37,5.91-5-.92-8.61-3.63-8.61-6.83,0-4,5.61-7.2,12.53-7.2a19.25,19.25,0,0,1,7.1,1.28,20.07,20.07,0,0,0-3.86-.36c-6.92,0-12.53,3.22-12.53,7.2" transform="translate(-105.9 -115.61)"/><path class="be76e07d-cf05-4df5-85c4-fbfbe4585fc5" d="M405.94,507.69c0,4-5.61,7.2-12.52,7.2a19.83,19.83,0,0,1-3.92-.37c-3.25-1.3-5.37-3.46-5.37-5.91,0-4,5.61-7.2,12.53-7.2a20.07,20.07,0,0,1,3.86.36c3.28,1.28,5.42,3.45,5.42,5.92" transform="translate(-105.9 -115.61)"/><path class="a36246fe-d057-4be5-9e5b-76f53007c443" d="M419.3,488.32c0,2.47,2.14,4.64,5.4,5.92-5-.92-8.64-3.64-8.64-6.84,0-4,5.59-7.21,12.52-7.21a19.1,19.1,0,0,1,7.14,1.3,19.65,19.65,0,0,0-3.91-.38c-6.92,0-12.51,3.22-12.51,7.21" transform="translate(-105.9 -115.61)"/><path class="be76e07d-cf05-4df5-85c4-fbfbe4585fc5" d="M441.09,487.4c0,4-5.61,7.2-12.51,7.2a21,21,0,0,1-3.88-.36c-3.26-1.28-5.4-3.45-5.4-5.92,0-4,5.59-7.21,12.51-7.21a19.65,19.65,0,0,1,3.91.38c3.25,1.3,5.37,3.45,5.37,5.91" transform="translate(-105.9 -115.61)"/><path class="a36246fe-d057-4be5-9e5b-76f53007c443" d="M454.43,468c0,2.46,2.13,4.61,5.38,5.91-5-.92-8.61-3.63-8.61-6.83,0-4,5.61-7.2,12.53-7.2a19.16,19.16,0,0,1,7.09,1.28,20,20,0,0,0-3.86-.36c-6.92,0-12.53,3.22-12.53,7.2" transform="translate(-105.9 -115.61)"/><path class="be76e07d-cf05-4df5-85c4-fbfbe4585fc5" d="M476.24,467.1c0,4-5.61,7.2-12.51,7.2a19.69,19.69,0,0,1-3.92-.37c-3.25-1.3-5.38-3.45-5.38-5.91,0-4,5.61-7.2,12.53-7.2a20.82,20.82,0,0,1,3.86.36c3.28,1.28,5.42,3.45,5.42,5.92" transform="translate(-105.9 -115.61)"/><path class="a36246fe-d057-4be5-9e5b-76f53007c443" d="M489.6,447.73c0,2.47,2.14,4.64,5.41,5.92-5-.92-8.64-3.64-8.64-6.84,0-4,5.59-7.21,12.51-7.21a19,19,0,0,1,7.14,1.3,19.66,19.66,0,0,0-3.91-.37c-6.92,0-12.51,3.21-12.51,7.2" transform="translate(-105.9 -115.61)"/><path class="be76e07d-cf05-4df5-85c4-fbfbe4585fc5" d="M511.39,446.81c0,4-5.6,7.2-12.51,7.2a20.76,20.76,0,0,1-3.87-.36c-3.27-1.28-5.41-3.45-5.41-5.92,0-4,5.59-7.2,12.51-7.2a19.66,19.66,0,0,1,3.91.37c3.25,1.3,5.37,3.45,5.37,5.91" transform="translate(-105.9 -115.61)"/><path class="a36246fe-d057-4be5-9e5b-76f53007c443" d="M350.5,570.43c0,2.47,2.14,4.64,5.4,5.92-5-.92-8.64-3.64-8.64-6.84,0-4,5.6-7.2,12.52-7.2a19.06,19.06,0,0,1,7.14,1.29,19.66,19.66,0,0,0-3.91-.37c-6.92,0-12.51,3.22-12.51,7.2" transform="translate(-105.9 -115.61)"/><path class="be76e07d-cf05-4df5-85c4-fbfbe4585fc5" d="M372.29,569.51c0,4-5.61,7.2-12.51,7.2a20.13,20.13,0,0,1-3.88-.36c-3.26-1.28-5.4-3.45-5.4-5.92,0-4,5.59-7.2,12.51-7.2a19.66,19.66,0,0,1,3.91.37c3.25,1.3,5.37,3.46,5.37,5.91" transform="translate(-105.9 -115.61)"/><path class="a36246fe-d057-4be5-9e5b-76f53007c443" d="M385.65,550.14c0,2.45,2.12,4.6,5.37,5.92-5-.94-8.61-3.64-8.61-6.85,0-4,5.61-7.2,12.52-7.2a19.16,19.16,0,0,1,7.09,1.28,20.82,20.82,0,0,0-3.86-.36c-6.9,0-12.51,3.22-12.51,7.21" transform="translate(-105.9 -115.61)"/><path class="be76e07d-cf05-4df5-85c4-fbfbe4585fc5" d="M407.44,549.21c0,4-5.61,7.21-12.51,7.21a21.45,21.45,0,0,1-3.91-.36c-3.25-1.32-5.37-3.47-5.37-5.92,0-4,5.61-7.21,12.51-7.21a20.82,20.82,0,0,1,3.86.36c3.28,1.28,5.42,3.45,5.42,5.92" transform="translate(-105.9 -115.61)"/><path class="a36246fe-d057-4be5-9e5b-76f53007c443" d="M420.85,529.83c0,2.45,2.12,4.6,5.37,5.9-5-.92-8.61-3.62-8.61-6.83,0-4,5.61-7.2,12.53-7.2a19.25,19.25,0,0,1,7.1,1.28,20.9,20.9,0,0,0-3.86-.36c-6.92,0-12.53,3.22-12.53,7.21" transform="translate(-105.9 -115.61)"/><path class="be76e07d-cf05-4df5-85c4-fbfbe4585fc5" d="M442.66,528.9c0,4-5.61,7.21-12.52,7.21a19.82,19.82,0,0,1-3.92-.38c-3.25-1.3-5.37-3.45-5.37-5.9,0-4,5.61-7.21,12.53-7.21a20.9,20.9,0,0,1,3.86.36c3.28,1.28,5.42,3.45,5.42,5.92" transform="translate(-105.9 -115.61)"/><path class="a36246fe-d057-4be5-9e5b-76f53007c443" d="M456,509.53c0,2.47,2.14,4.64,5.4,5.92-5-.92-8.64-3.64-8.64-6.84,0-4,5.59-7.2,12.52-7.2a19.3,19.3,0,0,1,7.14,1.29,19.66,19.66,0,0,0-3.91-.37c-6.92,0-12.51,3.22-12.51,7.2" transform="translate(-105.9 -115.61)"/><path class="be76e07d-cf05-4df5-85c4-fbfbe4585fc5" d="M477.81,508.61c0,4-5.61,7.2-12.51,7.2a20.13,20.13,0,0,1-3.88-.36c-3.26-1.28-5.4-3.45-5.4-5.92,0-4,5.59-7.2,12.51-7.2a19.49,19.49,0,0,1,3.9.37c3.25,1.3,5.38,3.46,5.38,5.91" transform="translate(-105.9 -115.61)"/><path class="a36246fe-d057-4be5-9e5b-76f53007c443" d="M491.15,489.24c0,2.45,2.13,4.61,5.38,5.9-5-.92-8.61-3.62-8.61-6.82,0-4,5.61-7.21,12.53-7.21a19.2,19.2,0,0,1,7.09,1.28,20.9,20.9,0,0,0-3.86-.36c-6.92,0-12.53,3.22-12.53,7.21" transform="translate(-105.9 -115.61)"/><path class="be76e07d-cf05-4df5-85c4-fbfbe4585fc5" d="M513,488.31c0,4-5.61,7.21-12.51,7.21a19.67,19.67,0,0,1-3.92-.38c-3.25-1.3-5.38-3.45-5.38-5.9,0-4,5.61-7.21,12.53-7.21a20.9,20.9,0,0,1,3.86.36c3.28,1.28,5.42,3.46,5.42,5.92" transform="translate(-105.9 -115.61)"/><path class="a36246fe-d057-4be5-9e5b-76f53007c443" d="M526.32,468.94c0,2.47,2.14,4.64,5.41,5.92-5-.92-8.64-3.64-8.64-6.84,0-4,5.59-7.2,12.51-7.2a19.22,19.22,0,0,1,7.14,1.29,19.66,19.66,0,0,0-3.91-.37c-6.92,0-12.51,3.22-12.51,7.2" transform="translate(-105.9 -115.61)"/><path class="be76e07d-cf05-4df5-85c4-fbfbe4585fc5" d="M548.11,468c0,4-5.6,7.2-12.51,7.2a20,20,0,0,1-3.87-.36c-3.27-1.28-5.41-3.45-5.41-5.92,0-4,5.59-7.2,12.51-7.2a19.66,19.66,0,0,1,3.91.37c3.25,1.3,5.37,3.46,5.37,5.91" transform="translate(-105.9 -115.61)"/><path class="b366635f-90a3-41a0-8392-e79c75edf384" d="M580.45,838.45,575,835.32v-2.89c0-68.77-26.79-98-45.91-109.09C281.34,579.93,259.39,567.25,259.39,567.25l-2-1-1.66-.77-.37-.17-2-.84-2-.75-2-.64-2-.55-2-.45-1.92-.35-1.91-.23-1.87-.14-1.83,0-1.81.08-1.77.17-1.72.28-1.67.39-1.62.47-1.58.59-1.53.69-1.47.78-1.42.88-1.36,1-1.3,1.08-1.23,1.17-1.18,1.26-1.09,1.35-1,1.44-1,1.53-.89,1.61-.81,1.68-.75,1.77-.67,1.84-.6,1.91-.51,2-.44,2.06-.36,2.11-.28,2.17-.2,2.24-.11,2.3,0,2.35v25.77l-5.39-3.1V595.27l.05-2.54.14-2.53.22-2.47.29-2.39.41-2.35.48-2.26.57-2.19.65-2.11.74-2,.82-1.95.91-1.86,1-1.78,1.07-1.69,1.14-1.58,1.22-1.5,1.28-1.39,1.36-1.29,1.43-1.18,1.5-1.09,1.57-1c12.78-7.33,28.59-3,40.57,4C292,579.79,519.69,711.31,534.22,720.9c52.48,34.64,46.12,103.58,46.23,117.55" transform="translate(-105.9 -115.61)"/><path class="b366635f-90a3-41a0-8392-e79c75edf384" d="M537.8,729.35a64.62,64.62,0,0,0-6-3.92C284.05,582,262.1,569.34,262.1,569.34l-2.05-1.05-1.66-.76-.37-.18-2-.84-2-.75-2-.64-2-.55-2-.45-1.92-.34-1.91-.24-1.87-.14-1.83,0-1.81.08-1.77.17-1.72.28-1.67.39-1.62.47-1.58.59-1.53.69-1.47.78-1.42.88-1.36,1-1.3,1.08L222,570.93l-1.17,1.27-1.1,1.34-1,1.44-1,1.53-.89,1.61-.81,1.69-.75,1.76-.67,1.84-.6,1.91-.51,2-.44,2.06-.36,2.11-.28,2.17-.2,2.23-.11,2.3-.05,2.36v22.37l-.2-.12-2.5,1.43V598.44l0-2.35.1-2.3.21-2.24.28-2.17.36-2.11.44-2.06.51-2,.6-1.91.67-1.84.75-1.77.81-1.68.89-1.61,1-1.53,1-1.44,1.09-1.35,1.18-1.26,1.23-1.17,1.3-1.08,1.36-1,1.42-.88,1.47-.78,1.53-.69,1.57-.59,1.63-.47,1.67-.39,1.72-.28,1.77-.17,1.81-.08,1.83,0,1.87.14,1.91.23,1.92.35,2,.45,2,.55,2,.64,2,.75,2,.84.37.17,1.66.77,2,1s21.95,12.68,269.74,156.09a65.32,65.32,0,0,1,8.67,6" transform="translate(-105.9 -115.61)"/><path class="be76e07d-cf05-4df5-85c4-fbfbe4585fc5" d="M575,832.43l-4.42-2.54L211.9,622.79l-2.5,1.43V598.44l0-2.35.11-2.3.2-2.24.28-2.17.36-2.11.44-2.06.51-2,.6-1.91.67-1.84.75-1.77.81-1.68.89-1.61,1-1.53,1-1.44,1.09-1.35,1.18-1.26,1.23-1.17,1.3-1.08,1.36-1,1.42-.88,1.47-.78,1.53-.69,1.58-.59,1.62-.47,1.67-.39,1.72-.28,1.77-.17,1.81-.08,1.83,0,1.87.14,1.91.23,1.92.35,2,.45,2,.55,2,.64,2,.75,2,.84.37.17,1.66.77,2,1s21.95,12.68,269.74,156.09C548.25,734.4,575,763.66,575,832.43" transform="translate(-105.9 -115.61)"/><path class="a36246fe-d057-4be5-9e5b-76f53007c443" d="M537.8,729.35a64.62,64.62,0,0,0-6-3.92C284.05,582,262.1,569.34,262.1,569.34l-2.05-1.05-1.66-.76-.37-.18-2-.84-2-.75-2-.64-2-.55-2-.45-1.92-.34-1.91-.24-1.87-.14-1.83,0-1.81.08-1.77.17-1.72.28-1.67.39-1.62.47-1.58.59-1.53.69-1.47.78-1.42.88-1.36,1-1.3,1.08L222,570.93l-1.17,1.27-1.1,1.34-1,1.44-1,1.53-.89,1.61-.81,1.69-.75,1.76-.67,1.84-.6,1.91-.51,2-.44,2.06-.36,2.11-.28,2.17-.2,2.23-.11,2.3-.05,2.36v22.37l-.2-.12-2.5,1.43V598.44l0-2.35.1-2.3.21-2.24.28-2.17.36-2.11.44-2.06.51-2,.6-1.91.67-1.84.75-1.77.81-1.68.89-1.61,1-1.53,1-1.44,1.09-1.35,1.18-1.26,1.23-1.17,1.3-1.08,1.36-1,1.42-.88,1.47-.78,1.53-.69,1.57-.59,1.63-.47,1.67-.39,1.72-.28,1.77-.17,1.81-.08,1.83,0,1.87.14,1.91.23,1.92.35,2,.45,2,.55,2,.64,2,.75,2,.84.37.17,1.66.77,2,1s21.95,12.68,269.74,156.09a65.32,65.32,0,0,1,8.67,6" transform="translate(-105.9 -115.61)"/><polygon class="a36246fe-d057-4be5-9e5b-76f53007c443" points="352.88 579.03 352.88 610.92 349.24 613.01 339.74 618.48 339.74 571.44 349.24 576.92 352.88 579.03"/><polygon class="e9902aa6-4872-4eb1-b3c3-c1de4e37dfef" points="352.88 610.92 352.88 626.07 339.74 618.48 349.24 613.01 352.88 610.92"/><polygon class="a36246fe-d057-4be5-9e5b-76f53007c443" points="415.96 615.45 415.96 647.3 412.31 649.41 402.82 654.9 402.82 607.86 412.31 613.34 415.96 615.45"/><polygon class="e9902aa6-4872-4eb1-b3c3-c1de4e37dfef" points="384.42 629.1 384.42 644.27 371.28 636.68 380.76 631.21 384.42 629.1"/><polygon class="e9902aa6-4872-4eb1-b3c3-c1de4e37dfef" points="415.96 647.3 415.96 662.49 402.82 654.9 412.31 649.41 415.96 647.3"/><polygon class="a36246fe-d057-4be5-9e5b-76f53007c443" points="384.42 597.23 384.42 629.1 380.76 631.21 371.28 636.68 371.28 589.65 380.76 595.12 384.42 597.23"/><path class="b366635f-90a3-41a0-8392-e79c75edf384" d="M296.78,644.77a9.48,9.48,0,0,1-2.08,1.76l-.58.33c-7.42,3.83-19.43-3.05-27.23-15.73-8-13-8.5-27.25-1.14-31.76l.6-.35a9.34,9.34,0,0,1,2.46-.86c7.41-1.46,17.78,5.24,24.77,16.61,7.14,11.64,8.29,24.23,3.2,30" transform="translate(-105.9 -115.61)"/><path class="a36246fe-d057-4be5-9e5b-76f53007c443" d="M299.86,643.55l-.61.36-4.55,2.62a9.48,9.48,0,0,0,2.08-1.76c5.09-5.77,3.94-18.36-3.2-30-7-11.37-17.36-18.08-24.77-16.61a9.34,9.34,0,0,0-2.46.86l4.54-2.62.58-.33c7.42-3.83,19.43,3.06,27.23,15.75,8,13,8.48,27.2,1.16,31.73" transform="translate(-105.9 -115.61)"/><path class="b366635f-90a3-41a0-8392-e79c75edf384" d="M343.07,662.46a3.91,3.91,0,0,1-.85.72l-.24.13c-3,1.57-8-1.24-11.14-6.44s-3.48-11.14-.47-13l.25-.14a3.56,3.56,0,0,1,1-.35c3-.61,7.27,2.14,10.13,6.79s3.39,9.92,1.31,12.28" transform="translate(-105.9 -115.61)"/><path class="a36246fe-d057-4be5-9e5b-76f53007c443" d="M344.33,662l-.25.14-1.86,1.08a3.91,3.91,0,0,0,.85-.72c2.09-2.36,1.61-7.52-1.31-12.28s-7.1-7.4-10.13-6.79a3.67,3.67,0,0,0-1,.35l1.86-1.08.23-.13c3-1.57,8,1.25,11.15,6.44s3.47,11.13.47,13" transform="translate(-105.9 -115.61)"/><path class="b366635f-90a3-41a0-8392-e79c75edf384" d="M384.27,686.21a3.91,3.91,0,0,1-.85.72l-.23.13c-3,1.57-8-1.24-11.15-6.43s-3.47-11.15-.46-13l.24-.14a3.67,3.67,0,0,1,1-.35c3-.6,7.28,2.14,10.13,6.79s3.4,9.92,1.31,12.28" transform="translate(-105.9 -115.61)"/><path class="a36246fe-d057-4be5-9e5b-76f53007c443" d="M385.53,685.71l-.25.15-1.86,1.07a3.91,3.91,0,0,0,.85-.72c2.09-2.36,1.62-7.51-1.31-12.28s-7.1-7.39-10.13-6.79a3.67,3.67,0,0,0-1,.35l1.86-1.08.24-.13c3-1.57,7.95,1.25,11.14,6.44s3.47,11.14.47,13" transform="translate(-105.9 -115.61)"/><path class="e07c4f2b-d83a-4c32-a42d-18c8a77ab835" d="M410.53,116.24c14,7.81,28,15.6,41.93,23.49l41.83,23.69,20.89,11.87,20.86,12,41.69,23.91a3.16,3.16,0,0,1,1.4,3.81l0,.08a87.56,87.56,0,0,0-3.88,13.22,21.53,21.53,0,0,0-.44,6.09,3.68,3.68,0,0,0,.53,1.7c.18.17.13.18.64.26a7,7,0,0,0,2.25-.32,21.69,21.69,0,0,0,2.86-1.08A56.37,56.37,0,0,0,587,231.7c3.94-2.4,7.83-5.11,11.83-7.8,2-1.34,4-2.68,6.21-4,1.09-.65,2.21-1.28,3.45-1.87a15.89,15.89,0,0,1,4.5-1.49,7.52,7.52,0,0,1,1.75-.06,6,6,0,0,1,2.34.69,5.58,5.58,0,0,1,2.09,1.94,5.83,5.83,0,0,1,.56,1.16,5.5,5.5,0,0,1,.28,1,9.06,9.06,0,0,1,0,3.1,17.25,17.25,0,0,1-.54,2.27,47.94,47.94,0,0,1-3.06,7.21c-2.24,4.43-4.68,8.58-7.06,12.73s-4.76,8.23-6.75,12.3c-.49,1-.95,2-1.34,3a15.26,15.26,0,0,0-.83,2.65,3.2,3.2,0,0,0-.06.48,1.72,1.72,0,0,0-.21-.63,2.63,2.63,0,0,0-.93-.95,1.42,1.42,0,0,0-.47-.21.58.58,0,0,0-.26-.06c-.06,0-.11,0,0,0a4.47,4.47,0,0,0,.89-.21,32,32,0,0,0,5.62-2.68c1.95-1.13,3.91-2.36,5.85-3.65,7.79-5.16,15.38-10.93,23.1-16.57,3.85-2.83,7.72-5.67,11.7-8.46,2-1.38,4-2.76,6.11-4.1,1.06-.67,2.14-1.33,3.29-2a26.28,26.28,0,0,1,3.92-1.85l.65-.21a7.43,7.43,0,0,1,.78-.19,5.65,5.65,0,0,1,1-.15,6.29,6.29,0,0,1,1.36,0,4.21,4.21,0,0,1,1,.21,4.85,4.85,0,0,1,1.09.45,5.28,5.28,0,0,1,2,2,3.38,3.38,0,0,1,.28.59c.07.18.13.36.19.55s.1.38.13.55l.06.42a7.68,7.68,0,0,1,0,.81c0,.2,0,.4,0,.61a10.29,10.29,0,0,1-.86,3c-.32.75-.65,1.38-1,2a74.77,74.77,0,0,1-4.13,6.45c-2.83,4-5.75,7.83-8.63,11.64s-5.75,7.59-8.48,11.4c-1.35,1.9-2.68,3.81-3.89,5.71-.6,1-1.18,1.91-1.69,2.83a19.06,19.06,0,0,0-1.21,2.58,3,3,0,0,0-.17.59,2,2,0,0,0-.08-.62,1.88,1.88,0,0,0-.12-.39l-.21-.42a3.47,3.47,0,0,0-.73-.85l-.42-.29a2.09,2.09,0,0,0-.4-.19,1.48,1.48,0,0,0-.27-.1l-.22-.05c-.24,0-.27,0-.23,0a4.5,4.5,0,0,0,.84-.19,20.3,20.3,0,0,0,2.74-1.05c1-.44,2-.94,3-1.46,4-2.1,8.1-4.53,12.17-7s8.15-5,12.35-7.41c2.1-1.22,4.23-2.42,6.45-3.58,1.11-.58,2.25-1.14,3.45-1.69a30.83,30.83,0,0,1,4-1.49,11.92,11.92,0,0,1,2.74-.5h1a7.49,7.49,0,0,1,1.24.19,6,6,0,0,1,3.11,1.88,6,6,0,0,1,1.37,3.31,6.93,6.93,0,0,1,0,1.2,6.23,6.23,0,0,1-.13.95,12.9,12.9,0,0,1-.83,2.62,29.81,29.81,0,0,1-2,3.72c-.67,1.12-1.36,2.17-2,3.21-2.78,4.1-5.65,7.91-8.37,11.76-1.35,1.92-2.68,3.83-3.89,5.75a38.15,38.15,0,0,0-3,5.58,9,9,0,0,0-.4,1.16,3.37,3.37,0,0,0-.11.6,1.66,1.66,0,0,0-.36-.87,2.22,2.22,0,0,0-.28-.33,3.51,3.51,0,0,1-.29-.22.85.85,0,0,0-.26-.11s0,0-.07-.05a1.5,1.5,0,0,0,.46,0,10.42,10.42,0,0,0,1.19-.13,24.91,24.91,0,0,0,3-.72c4.23-1.25,8.69-3.06,13.39-4.61a48.86,48.86,0,0,1,7.62-2,16.25,16.25,0,0,1,4.93-.08,9.06,9.06,0,0,1,1.57.4q.42.15.84.33c.28.14.59.33.87.5a6.92,6.92,0,0,1,1.6,1.39,5,5,0,0,1,.63.85,5.1,5.1,0,0,1,.49.92,8.1,8.1,0,0,1,.7,3.5,12.28,12.28,0,0,1-.33,2.69,25.25,25.25,0,0,1-1.38,4.08c-1,2.41-2.11,4.53-3,6.55a24.07,24.07,0,0,0-1.05,2.83,4.79,4.79,0,0,0-.24,1.65c0,.08,0-.08-.09-.14s-.13-.09,0,0A4.47,4.47,0,0,0,700,307a26,26,0,0,0,6.07-.75c2.16-.49,4.36-1.12,6.54-1.82,4.39-1.42,8.76-3.13,13.1-4.94l.06,0a3.85,3.85,0,0,1,3.47.26l58.5,35.19c19.51,11.72,38.93,23.58,58.39,35.38S885,394,904.38,405.86l29.06,17.92,29,18-29.8-16.65L902.88,408.4c-19.77-11.26-39.6-22.44-59.33-33.78S804,352,784.34,340.62l-59.1-34.17,3.53.23c-4.46,1.92-9,3.74-13.66,5.32-2.35.78-4.74,1.51-7.24,2.1a33.85,33.85,0,0,1-8.11,1,12.48,12.48,0,0,1-5.18-1.11,8.06,8.06,0,0,1-2.81-2.23,7.85,7.85,0,0,1-1.55-3.37,12.24,12.24,0,0,1,.34-5.43,32.28,32.28,0,0,1,1.38-3.91c1-2.37,2.08-4.51,2.89-6.51a18.56,18.56,0,0,0,.9-2.71c.19-.75,0-1.25.14-.84a.76.76,0,0,1,.07.13c0,.05.07.07.1.14s.21.17.24.23a.27.27,0,0,0,.11.05h0s-.09,0-.16,0a8.79,8.79,0,0,0-2.2.13,42.37,42.37,0,0,0-6.2,1.72c-4.36,1.48-8.74,3.36-13.67,4.84a33.86,33.86,0,0,1-4,1,17.89,17.89,0,0,1-2.37.26,10.27,10.27,0,0,1-3.08-.32c-.32-.09-.62-.18-.93-.3a10.48,10.48,0,0,1-1-.55,5,5,0,0,1-1-.75,6.78,6.78,0,0,1-.89-1,7.35,7.35,0,0,1-1.36-4.26,11.24,11.24,0,0,1,.4-2.92,16.16,16.16,0,0,1,.75-2.23,44.88,44.88,0,0,1,3.75-7c1.33-2.12,2.72-4.14,4.12-6.13,2.78-4,5.64-7.81,8.2-11.62.63-1,1.24-1.91,1.8-2.84a22.54,22.54,0,0,0,1.38-2.61,4.39,4.39,0,0,0,.27-.78s0,0,0,.07,0,.16,0,.3a2.93,2.93,0,0,0,.74,1.66,3,3,0,0,0,1.58,1,1.44,1.44,0,0,0,.36.05h.07a5.82,5.82,0,0,0-.77.18,20.82,20.82,0,0,0-2.72,1.06c-1,.44-2,.94-3,1.47-2,1.06-4,2.21-6.06,3.4-4.05,2.38-8.09,4.89-12.2,7.38s-8.23,5-12.66,7.32c-1.12.58-2.26,1.14-3.46,1.68a29.93,29.93,0,0,1-4,1.49,13.21,13.21,0,0,1-2.67.51,8.34,8.34,0,0,1-2-.08,4.56,4.56,0,0,1-.66-.15,5.73,5.73,0,0,1-.7-.23,8.43,8.43,0,0,1-.8-.39,4.54,4.54,0,0,1-.79-.55,5.56,5.56,0,0,1-1.3-1.52,4.82,4.82,0,0,1-.41-.82,5.91,5.91,0,0,1-.27-.81,7.26,7.26,0,0,1-.17-2.4,11.35,11.35,0,0,1,.67-2.88,26.84,26.84,0,0,1,1.84-3.9c.64-1.16,1.31-2.25,2-3.32,1.36-2.12,2.77-4.13,4.19-6.11,2.85-4,5.77-7.77,8.67-11.57s5.79-7.57,8.48-11.35c1.32-1.88,2.63-3.81,3.63-5.59.24-.44.46-.87.61-1.22s.24-.73.19-.43a3,3,0,0,0,.42,1.79,3.58,3.58,0,0,0,1.41,1.4,4.54,4.54,0,0,0,.67.3c.22.06.47.09.52.11a3.11,3.11,0,0,0,.47,0c.06,0,.15,0,.1,0s0,0-.1,0l-.2.06a19.38,19.38,0,0,0-2.54,1.22c-.93.52-1.9,1.1-2.86,1.71-1.93,1.21-3.87,2.52-5.8,3.86-3.86,2.68-7.7,5.48-11.56,8.29-7.71,5.63-15.44,11.29-23.63,16.61-2.05,1.33-4.15,2.63-6.35,3.86a38.68,38.68,0,0,1-7.36,3.34,12.68,12.68,0,0,1-2.6.52,8.32,8.32,0,0,1-1.79,0c-.38-.07-.77-.15-1.14-.25a7.84,7.84,0,0,1-1.29-.58,6.91,6.91,0,0,1-1.24-1,6.27,6.27,0,0,1-.9-1.24,6.62,6.62,0,0,1-.73-2.33,10,10,0,0,1,.17-3.08,22.75,22.75,0,0,1,1.33-4.17c.51-1.24,1-2.4,1.62-3.53,2.26-4.49,4.73-8.61,7.16-12.74s4.87-8.18,7-12.25a43,43,0,0,0,2.62-5.93,10.42,10.42,0,0,0,.31-1.22c.06-.32.05-.6.06-.46s0,.07.06.2a1.43,1.43,0,0,0,.18.34,2.16,2.16,0,0,0,.79.74,1.6,1.6,0,0,0,.64.2c.06,0,0,0,0,0a9,9,0,0,0-2.27.77c-.92.42-1.9.95-2.88,1.5-2,1.11-3.93,2.36-5.92,3.64-4,2.56-8,5.25-12.25,7.75a62.72,62.72,0,0,1-6.74,3.49,29.42,29.42,0,0,1-3.88,1.37,13.51,13.51,0,0,1-4.83.46,8.15,8.15,0,0,1-3-.92,7.58,7.58,0,0,1-2.48-2.18,10.3,10.3,0,0,1-1.74-5,27.61,27.61,0,0,1,.65-8.14,94.42,94.42,0,0,1,4.43-14.18l1.37,3.89-41.09-24.93-20.54-12.47-20.5-12.54-41-25.15c-13.65-8.39-27.25-16.88-40.85-25.34" transform="translate(-105.9 -115.61)"/><path class="ed8d736a-c5e9-4c7b-a74b-5c94ff397e8d" d="M436.69,493.2c-3.68-.58-10.6-5.2-14.18-9.62,7.64.41,12.2,3.6,14.18,9.62" transform="translate(-105.9 -115.61)"/><path class="b17bb477-0a59-44e2-9989-1f20f33744a1" d="M436.69,493.2c-3.68-.58-10.6-5.2-14.18-9.62C430.15,484,434.71,487.18,436.69,493.2Z" transform="translate(-105.9 -115.61)"/><path class="ed8d736a-c5e9-4c7b-a74b-5c94ff397e8d" d="M446.34,474.77c-1.17,3.14-2.08,6.25-.94,10.65-5.81-3.3-11.33-5.12-16-8.69-1-.78-1.93-2.21-3.05-.08-.82,1.56-2.14.69-3.16.35a34.22,34.22,0,0,1-19.44-15.55c-1.72-3-4.9-5.28-4.68-10.16,3.16,2.58,11.48,7.35,12.69,7.94,8.95,4.38,18.2,7.3,28.36,6.36,3.07-.29,7.35,6.05,6.19,9.18" transform="translate(-105.9 -115.61)"/><path class="b17bb477-0a59-44e2-9989-1f20f33744a1" d="M446.34,474.77c-1.17,3.14-2.08,6.25-.94,10.65-5.81-3.3-11.33-5.12-16-8.69-1-.78-1.93-2.21-3.05-.08-.82,1.56-2.14.69-3.16.35a34.22,34.22,0,0,1-19.44-15.55c-1.72-3-4.9-5.28-4.68-10.16,3.16,2.58,11.48,7.35,12.69,7.94,8.95,4.38,18.2,7.3,28.36,6.36C443.22,465.3,447.5,471.64,446.34,474.77Z" transform="translate(-105.9 -115.61)"/><path class="ed8d736a-c5e9-4c7b-a74b-5c94ff397e8d" d="M599.55,531.57c-6.3,4.78-17.47,3.78-24.72,1.07.87-1.78,2-3,3.66-3.06,6.5-.07,12.19-3.33,18.45-4.4,2.68-.45,4.78.19,5.63,2.34s-1.59,3-3,4.05" transform="translate(-105.9 -115.61)"/><path class="b17bb477-0a59-44e2-9989-1f20f33744a1" d="M599.55,531.57c-6.3,4.78-17.47,3.78-24.72,1.07.87-1.78,2-3,3.66-3.06,6.5-.07,12.19-3.33,18.45-4.4,2.68-.45,4.78.19,5.63,2.34S601,530.49,599.55,531.57Z" transform="translate(-105.9 -115.61)"/><path class="ed8d736a-c5e9-4c7b-a74b-5c94ff397e8d" d="M524,527.84c-18.85,7.79-64.09-22-69.09-45.67,5.81,4.8,11.3,9.43,17.87,12.14,4.82,2,7.46,4.79,9.44,9.88,4,10.36,13.28,15.43,23.36,18.82A135.8,135.8,0,0,0,524,527.84" transform="translate(-105.9 -115.61)"/><path class="b17bb477-0a59-44e2-9989-1f20f33744a1" d="M524,527.84c-18.85,7.79-64.09-22-69.09-45.67,5.81,4.8,11.3,9.43,17.87,12.14,4.82,2,7.46,4.79,9.44,9.88,4,10.36,13.28,15.43,23.36,18.82A135.8,135.8,0,0,0,524,527.84Z" transform="translate(-105.9 -115.61)"/><path class="ed8d736a-c5e9-4c7b-a74b-5c94ff397e8d" d="M595.76,503.77c-.41,5.67-2.08,10.8-7.19,13.91-1.69,1-3.8,3.28-6,0-1-1.53-1.95.48-2.5,1.31a54.26,54.26,0,0,1-10.27,11.59,33.26,33.26,0,0,1-11.16,6c-2.26.74-4.56.86-8.25,0,9.22-4.74,10.95-11.84,10-20.46-1.7.8-1.54,2-1.78,3a18.39,18.39,0,0,1-6,9.62c-4.51,3.89-10.39,4.38-14.93.57-4.34-3.65-9.09-4.89-14.64-5-12.45-.28-23.84-3.63-32.78-13A28.49,28.49,0,0,1,484,501.06c-.55-1.5-.37-2.34,1.51-1.95,12.4,2.52,22.3-2.7,31.25-10.39,2.46-2.11,4.29-2.23,7-.64,10.43,6.06,20.22,13.26,31.38,18,9,3.84,18.17,5.91,27.86,2.56a37.2,37.2,0,0,0,10.35-5.82,2.78,2.78,0,0,1,1.74-.7c.84.1.71,1,.66,1.62" transform="translate(-105.9 -115.61)"/><path class="b17bb477-0a59-44e2-9989-1f20f33744a1" d="M595.76,503.77c-.41,5.67-2.08,10.8-7.19,13.91-1.69,1-3.8,3.28-6,0-1-1.53-1.95.48-2.5,1.31a54.26,54.26,0,0,1-10.27,11.59,33.26,33.26,0,0,1-11.16,6c-2.26.74-4.56.86-8.25,0,9.22-4.74,10.95-11.84,10-20.46-1.7.8-1.54,2-1.78,3a18.39,18.39,0,0,1-6,9.62c-4.51,3.89-10.39,4.38-14.93.57-4.34-3.65-9.09-4.89-14.64-5-12.45-.28-23.84-3.63-32.78-13A28.49,28.49,0,0,1,484,501.06c-.55-1.5-.37-2.34,1.51-1.95,12.4,2.52,22.3-2.7,31.25-10.39,2.46-2.11,4.29-2.23,7-.64,10.43,6.06,20.22,13.26,31.38,18,9,3.84,18.17,5.91,27.86,2.56a37.2,37.2,0,0,0,10.35-5.82,2.78,2.78,0,0,1,1.74-.7C595.94,502.25,595.81,503.12,595.76,503.77Z" transform="translate(-105.9 -115.61)"/><path class="ed8d736a-c5e9-4c7b-a74b-5c94ff397e8d" d="M637.68,503.79a3.1,3.1,0,0,1-2.66,0c-6.38-2.44-11.59-.11-15.6,4.67-5.7,6.82-14,8.49-21.63,12.06,4.81-7.84,4.09-16,2.23-24.38,20.22,7.39,26.13,6.95,43.2-3.15.5,3.64-2.43,9.27-5.54,10.78" transform="translate(-105.9 -115.61)"/><path class="b17bb477-0a59-44e2-9989-1f20f33744a1" d="M637.68,503.79a3.1,3.1,0,0,1-2.66,0c-6.38-2.44-11.59-.11-15.6,4.67-5.7,6.82-14,8.49-21.63,12.06,4.81-7.84,4.09-16,2.23-24.38,20.22,7.39,26.13,6.95,43.2-3.15C643.72,496.65,640.79,502.28,637.68,503.79Z" transform="translate(-105.9 -115.61)"/><path class="ed8d736a-c5e9-4c7b-a74b-5c94ff397e8d" d="M701.94,483.06c-4.59,5.25-9,10.41-14.76,14.1-2.1,1.35-4.28,2.7-3.85-2.16-5,3.22-7.44,8.47-12.92,11.95,2.2-5.38,4.34-9.79,4.37-14.77,0-1.33,1.14-1.79,2.3-1.6,7,1.17,12.56-2.42,18.29-5.48,2-1.08,4-2.49,6.57-2" transform="translate(-105.9 -115.61)"/><path class="b17bb477-0a59-44e2-9989-1f20f33744a1" d="M701.94,483.06c-4.59,5.25-9,10.41-14.76,14.1-2.1,1.35-4.28,2.7-3.85-2.16-5,3.22-7.44,8.47-12.92,11.95,2.2-5.38,4.34-9.79,4.37-14.77,0-1.33,1.14-1.79,2.3-1.6,7,1.17,12.56-2.42,18.29-5.48C697.4,484,699.37,482.61,701.94,483.06Z" transform="translate(-105.9 -115.61)"/><path class="ed8d736a-c5e9-4c7b-a74b-5c94ff397e8d" d="M660,512.88a45.89,45.89,0,0,1-19.5,11c5.57-3.88,10.24-8.78,15.44-13a10.07,10.07,0,0,1,1.62-1.14c1.43-.76,3.47-1.68,4.4-.47,1.25,1.6-.93,2.68-2,3.67" transform="translate(-105.9 -115.61)"/><path class="b17bb477-0a59-44e2-9989-1f20f33744a1" d="M660,512.88a45.89,45.89,0,0,1-19.5,11c5.57-3.88,10.24-8.78,15.44-13a10.07,10.07,0,0,1,1.62-1.14c1.43-.76,3.47-1.68,4.4-.47C663.21,510.81,661,511.89,660,512.88Z" transform="translate(-105.9 -115.61)"/><path class="ed8d736a-c5e9-4c7b-a74b-5c94ff397e8d" d="M668.64,496.37a11,11,0,0,1-4.27,4.63c-8.66,5.24-16.4,11.72-24.25,18-8.64,6.93-18.25,9.42-29.07,6.75a10.23,10.23,0,0,1-5.72-2.93c7.57-2.59,13.28-7.09,18.63-12.36,2.39-2.36,6.55-1.53,9.89-2.09,1.43-.24.64,1.41.22,2.07-1.48,2.29-3.74,3.72-6,5.09-2.84,1.72-5.8,3.25-8.19,5.6-.84.82-1.86,1.82-1.1,3.11s2.25.87,3.19.24c11.12-7.47,24-13.29,26.93-28.51.35-1.81,1.25-2.05,2.82-1.62,4.92,1.34,9.73.36,14.52-.88.86-.22,1.81-.89,2.6-.06s.27,2-.18,2.93" transform="translate(-105.9 -115.61)"/><path class="b17bb477-0a59-44e2-9989-1f20f33744a1" d="M668.64,496.37a11,11,0,0,1-4.27,4.63c-8.66,5.24-16.4,11.72-24.25,18-8.64,6.93-18.25,9.42-29.07,6.75a10.23,10.23,0,0,1-5.72-2.93c7.57-2.59,13.28-7.09,18.63-12.36,2.39-2.36,6.55-1.53,9.89-2.09,1.43-.24.64,1.41.22,2.07-1.48,2.29-3.74,3.72-6,5.09-2.84,1.72-5.8,3.25-8.19,5.6-.84.82-1.86,1.82-1.1,3.11s2.25.87,3.19.24c11.12-7.47,24-13.29,26.93-28.51.35-1.81,1.25-2.05,2.82-1.62,4.92,1.34,9.73.36,14.52-.88.86-.22,1.81-.89,2.6-.06S669.09,495.44,668.64,496.37Z" transform="translate(-105.9 -115.61)"/><path class="ed8d736a-c5e9-4c7b-a74b-5c94ff397e8d" d="M706.42,437.68c-1.43,18-11.33,30.39-24.44,41.12-6.27,5.12-14,7.58-21.31,10.54a14.43,14.43,0,0,1-9.79.08c-2.27-.71-3.14-1.82-1.59-4a34.44,34.44,0,0,0,6.06-18.66,2.88,2.88,0,0,1,2.25-2.85c20.55-7.57,34.66-21.55,42-42.26.28-.8.31-1.87,1.58-2.37.61,6.33-1,12.1-3.51,17.67-4.31,9.46-11.51,16.81-18.19,24.53a92,92,0,0,0-9.56,12.2,37.68,37.68,0,0,0-2.16,4.25,1.58,1.58,0,0,0,.42,2.15c1,.59,1.82-.15,2.24-1,3.34-6.92,9.56-11.27,14.78-16.48,6.12-6.13,12.31-12.19,16-20.12,6.87-14.56,6.42-28.72-3.14-42.09a6,6,0,0,1-1.34-4,51.43,51.43,0,0,0-.76-11.49c-.25-1.6-.73-3.51,1-4.27s2.7,1.26,3.65,2.35c6,6.83,8,15.13,8.46,23.92.55,10.41-1.89,20.57-2.71,30.85" transform="translate(-105.9 -115.61)"/><path class="b17bb477-0a59-44e2-9989-1f20f33744a1" d="M706.42,437.68c-1.43,18-11.33,30.39-24.44,41.12-6.27,5.12-14,7.58-21.31,10.54a14.43,14.43,0,0,1-9.79.08c-2.27-.71-3.14-1.82-1.59-4a34.44,34.44,0,0,0,6.06-18.66,2.88,2.88,0,0,1,2.25-2.85c20.55-7.57,34.66-21.55,42-42.26.28-.8.31-1.87,1.58-2.37.61,6.33-1,12.1-3.51,17.67-4.31,9.46-11.51,16.81-18.19,24.53a92,92,0,0,0-9.56,12.2,37.68,37.68,0,0,0-2.16,4.25,1.58,1.58,0,0,0,.42,2.15c1,.59,1.82-.15,2.24-1,3.34-6.92,9.56-11.27,14.78-16.48,6.12-6.13,12.31-12.19,16-20.12,6.87-14.56,6.42-28.72-3.14-42.09a6,6,0,0,1-1.34-4,51.43,51.43,0,0,0-.76-11.49c-.25-1.6-.73-3.51,1-4.27s2.7,1.26,3.65,2.35c6,6.83,8,15.13,8.46,23.92C709.68,417.24,707.24,427.4,706.42,437.68Z" transform="translate(-105.9 -115.61)"/><path class="ed8d736a-c5e9-4c7b-a74b-5c94ff397e8d" d="M694.13,375.44c-1.79-1.18-2-3-2.8-4.45-5.47-9.93-12-18.73-23.28-22.72-1.79-.64-2.13-1.68-1.63-3.37a30.6,30.6,0,0,0,.9-11.29c9.23,7.51,19.09,14.31,25.34,24.77,3.21,5.33,4.32,10.94,1.47,17.06" transform="translate(-105.9 -115.61)"/><path class="b17bb477-0a59-44e2-9989-1f20f33744a1" d="M694.13,375.44c-1.79-1.18-2-3-2.8-4.45-5.47-9.93-12-18.73-23.28-22.72-1.79-.64-2.13-1.68-1.63-3.37a30.6,30.6,0,0,0,.9-11.29c9.23,7.51,19.09,14.31,25.34,24.77C695.87,363.71,697,369.32,694.13,375.44Z" transform="translate(-105.9 -115.61)"/><path class="ed8d736a-c5e9-4c7b-a74b-5c94ff397e8d" d="M405.89,371.57c.92,2.53.14,3.05-2.17,2.94a17.59,17.59,0,0,0-4,.31c-5,.93-5.07,1-4.9-4.3.4-12.55,7.55-21.69,15.55-30.4-1.77,4.73-3.84,9.3-5,14.22-1.37,5.82-1.6,11.59.49,17.23" transform="translate(-105.9 -115.61)"/><path class="b17bb477-0a59-44e2-9989-1f20f33744a1" d="M405.89,371.57c.92,2.53.14,3.05-2.17,2.94a17.59,17.59,0,0,0-4,.31c-5,.93-5.07,1-4.9-4.3.4-12.55,7.55-21.69,15.55-30.4-1.77,4.73-3.84,9.3-5,14.22C404,360.16,403.8,365.93,405.89,371.57Z" transform="translate(-105.9 -115.61)"/><path class="ed8d736a-c5e9-4c7b-a74b-5c94ff397e8d" d="M434.5,351.05c-10.88,4.24-16.45,12.81-19.31,23.6-.16.62-.2,1.32-.95,1.6-4.37-3.85-6-12.7-3.27-17.38a3.26,3.26,0,0,1,1-1.23c7.08-3.54,13.11-9.05,20.92-11.2,1.42-.39,2.93-.79,3.55,1.27.53,1.81-.38,2.74-1.91,3.34" transform="translate(-105.9 -115.61)"/><path class="b17bb477-0a59-44e2-9989-1f20f33744a1" d="M434.5,351.05c-10.88,4.24-16.45,12.81-19.31,23.6-.16.62-.2,1.32-.95,1.6-4.37-3.85-6-12.7-3.27-17.38a3.26,3.26,0,0,1,1-1.23c7.08-3.54,13.11-9.05,20.92-11.2,1.42-.39,2.93-.79,3.55,1.27C436.94,349.52,436,350.45,434.5,351.05Z" transform="translate(-105.9 -115.61)"/><path class="ed8d736a-c5e9-4c7b-a74b-5c94ff397e8d" d="M470.87,310c-.13,1.25-1.4.88-2.26,1-9.18.92-17.67,3.4-24.38,10.26-4.68,4.79-7.9,10.23-8.54,17-.16,1.72-.44,3.34-2.73,3.78-7.12,1.36-12.76,5.66-18.53,9.66-.91.61-1.67,2.24-3,1.28-1.09-.8-.34-2.24-.07-3.36,2-8.19,5.72-15.33,12.73-20.45a116.61,116.61,0,0,0,19.67-17.87c3.86-4.48,8.05-8.59,14.29-8.21A15.1,15.1,0,0,1,469.81,308a3.26,3.26,0,0,1,1.06,2" transform="translate(-105.9 -115.61)"/><path class="b17bb477-0a59-44e2-9989-1f20f33744a1" d="M470.87,310c-.13,1.25-1.4.88-2.26,1-9.18.92-17.67,3.4-24.38,10.26-4.68,4.79-7.9,10.23-8.54,17-.16,1.72-.44,3.34-2.73,3.78-7.12,1.36-12.76,5.66-18.53,9.66-.91.61-1.67,2.24-3,1.28-1.09-.8-.34-2.24-.07-3.36,2-8.19,5.72-15.33,12.73-20.45a116.61,116.61,0,0,0,19.67-17.87c3.86-4.48,8.05-8.59,14.29-8.21A15.1,15.1,0,0,1,469.81,308,3.26,3.26,0,0,1,470.87,310Z" transform="translate(-105.9 -115.61)"/><path class="ed8d736a-c5e9-4c7b-a74b-5c94ff397e8d" d="M521.46,275.65c-2.14,2-3.73,3.37-5.18,4.9a4.8,4.8,0,0,1-4.24,1.6c-2.76-.27-5.52-.48-8.28-.69-1.25-.09-2.46-.33-2.74-1.76-.33-1.74,1-2.36,2.27-2.69a54.48,54.48,0,0,1,18.17-1.36" transform="translate(-105.9 -115.61)"/><path class="b17bb477-0a59-44e2-9989-1f20f33744a1" d="M521.46,275.65c-2.14,2-3.73,3.37-5.18,4.9a4.8,4.8,0,0,1-4.24,1.6c-2.76-.27-5.52-.48-8.28-.69-1.25-.09-2.46-.33-2.74-1.76-.33-1.74,1-2.36,2.27-2.69A54.48,54.48,0,0,1,521.46,275.65Z" transform="translate(-105.9 -115.61)"/><path class="ed8d736a-c5e9-4c7b-a74b-5c94ff397e8d" d="M494.56,281.87c-1.16,1.4-2.76,1.17-4.08,1.62-8.45,2.87-15.09,7.7-18.05,16.52-.67,2-1.32,3.1-3.51,1.36-3.4-2.73-7.7-3.21-13-4.25,8.42-5.22,15.27-10.49,22.95-14.39,5-2.52,10.2-3.67,15.68-.86" transform="translate(-105.9 -115.61)"/><path class="b17bb477-0a59-44e2-9989-1f20f33744a1" d="M494.56,281.87c-1.16,1.4-2.76,1.17-4.08,1.62-8.45,2.87-15.09,7.7-18.05,16.52-.67,2-1.32,3.1-3.51,1.36-3.4-2.73-7.7-3.21-13-4.25,8.42-5.22,15.27-10.49,22.95-14.39C483.85,280.21,489.08,279.06,494.56,281.87Z" transform="translate(-105.9 -115.61)"/><path class="ed8d736a-c5e9-4c7b-a74b-5c94ff397e8d" d="M523,325.07c-11.27,5.29-17.07,14.25-17.23,26.77a5.16,5.16,0,0,1,0,1.57,2.53,2.53,0,0,1-3.69,1.24c-3-1.52-7.29,4.31-9.15-1.34a28.87,28.87,0,0,0-10.39-14.17c-7.2-5.54-15.26-9.6-23.3-13.7a3.48,3.48,0,0,0-3.54-.4c3.94,2.68,7.53,5.3,11.3,7.65,5.62,3.52,11.58,6.53,16.19,11.47a38.25,38.25,0,0,1,3.13,3.6c5.15,7.09,5,8.43-2,13.29A26.41,26.41,0,0,0,473,380.74c-.42,4-8,7.36-9.6,8.1.55,2.54,4.5,3.47,3.56,5.67-.68,1.58-3.8,2-5.66,3.22-8.37,5.39-13.88,18.22-11.88,28.2.61,3,0,5-2.15,7.32-6.12,6.6-8.19,14.71-7.16,23.56.51,4.52.47,5-4.09,4.53-17.56-1.76-32.57-8.84-43.21-23.16-5.67-7.64-5.83-17.2-5.7-26.4a92.62,92.62,0,0,1,1.46-13A22,22,0,0,1,396,385.06a14.49,14.49,0,0,1,9-3.69c7.2-.28,8.58,1.6,5.88,8.14-1.87,4.53-3.52,9.12-5.63,13.57-3.11,6.54-2.79,13.49-.42,20.19,3.72,10.61,12,17,21.58,22.77.36-3.07-1.57-4.24-3.1-5.53A66.68,66.68,0,0,1,412,428.86c-8.81-12.13-6.58-26.49,5.57-35.33,1.49-1.09,2.52-1.78,1.95-4.06-5.09-20.51,7.16-36.3,28.34-36.69,2.44,0,4.87,0,8.27,0a20.37,20.37,0,0,0-10.75-3.42c-3.54-.27-4.48-2.23-5-5.05-1.95-11.54,6.1-24.24,17.41-27.55,8.8-2.57,17.63-1.38,26.46-.3,3.82.46,7.62,1.08,11.42,1.66a11.47,11.47,0,0,0,5.11-.44c.78-.24,1.66-.58,1.65-1.49s-1-1.07-1.78-1.2c-6.39-1.07-12.77-2.33-19.2-3.17-2.95-.37-3.76-1.83-3.89-4.42-.45-8.72,6.3-14.64,14.62-12.33,12.58,3.48,22.51,11,30.7,21a23.46,23.46,0,0,1,2.15,3.79c1.37,2.54.64,4-2,5.21" transform="translate(-105.9 -115.61)"/><path class="b17bb477-0a59-44e2-9989-1f20f33744a1" d="M523,325.07c-11.27,5.29-17.07,14.25-17.23,26.77a5.16,5.16,0,0,1,0,1.57,2.53,2.53,0,0,1-3.69,1.24c-3-1.52-7.29,4.31-9.15-1.34a28.87,28.87,0,0,0-10.39-14.17c-7.2-5.54-15.26-9.6-23.3-13.7a3.48,3.48,0,0,0-3.54-.4c3.94,2.68,7.53,5.3,11.3,7.65,5.62,3.52,11.58,6.53,16.19,11.47a38.25,38.25,0,0,1,3.13,3.6c5.15,7.09,5,8.43-2,13.29A26.41,26.41,0,0,0,473,380.74c-.42,4-8,7.36-9.6,8.1.55,2.54,4.5,3.47,3.56,5.67-.68,1.58-3.8,2-5.66,3.22-8.37,5.39-13.88,18.22-11.88,28.2.61,3,0,5-2.15,7.32-6.12,6.6-8.19,14.71-7.16,23.56.51,4.52.47,5-4.09,4.53-17.56-1.76-32.57-8.84-43.21-23.16-5.67-7.64-5.83-17.2-5.7-26.4a92.62,92.62,0,0,1,1.46-13A22,22,0,0,1,396,385.06a14.49,14.49,0,0,1,9-3.69c7.2-.28,8.58,1.6,5.88,8.14-1.87,4.53-3.52,9.12-5.63,13.57-3.11,6.54-2.79,13.49-.42,20.19,3.72,10.61,12,17,21.58,22.77.36-3.07-1.57-4.24-3.1-5.53A66.68,66.68,0,0,1,412,428.86c-8.81-12.13-6.58-26.49,5.57-35.33,1.49-1.09,2.52-1.78,1.95-4.06-5.09-20.51,7.16-36.3,28.34-36.69,2.44,0,4.87,0,8.27,0a20.37,20.37,0,0,0-10.75-3.42c-3.54-.27-4.48-2.23-5-5.05-1.95-11.54,6.1-24.24,17.41-27.55,8.8-2.57,17.63-1.38,26.46-.3,3.82.46,7.62,1.08,11.42,1.66a11.47,11.47,0,0,0,5.11-.44c.78-.24,1.66-.58,1.65-1.49s-1-1.07-1.78-1.2c-6.39-1.07-12.77-2.33-19.2-3.17-2.95-.37-3.76-1.83-3.89-4.42-.45-8.72,6.3-14.64,14.62-12.33,12.58,3.48,22.51,11,30.7,21a23.46,23.46,0,0,1,2.15,3.79C526.41,322.4,525.68,323.82,523,325.07Z" transform="translate(-105.9 -115.61)"/><path class="ed8d736a-c5e9-4c7b-a74b-5c94ff397e8d" d="M564.07,308.47c-4.64,1.93-8.75,4.83-11.13,9.27-.83,1.54-1,3.62-1.88,3.39a77.1,77.1,0,0,0-15.12-1.43c-4,.43-6.32-.39-8.34-4.48-5.08-10.32-14.1-17-23.64-22.94-2.89-1.81-6-3.35-8.73-6.36,9-.87,17,.68,25,2.67,11.57,2.86,23,6.22,34.9,7.62a11.85,11.85,0,0,1,10.53,8.46c.58,1.73.39,3-1.57,3.8" transform="translate(-105.9 -115.61)"/><path class="b17bb477-0a59-44e2-9989-1f20f33744a1" d="M564.07,308.47c-4.64,1.93-8.75,4.83-11.13,9.27-.83,1.54-1,3.62-1.88,3.39a77.1,77.1,0,0,0-15.12-1.43c-4,.43-6.32-.39-8.34-4.48-5.08-10.32-14.1-17-23.64-22.94-2.89-1.81-6-3.35-8.73-6.36,9-.87,17,.68,25,2.67,11.57,2.86,23,6.22,34.9,7.62a11.85,11.85,0,0,1,10.53,8.46C566.22,306.4,566,307.65,564.07,308.47Z" transform="translate(-105.9 -115.61)"/><path class="ed8d736a-c5e9-4c7b-a74b-5c94ff397e8d" d="M546.18,289.86c-8.75,1.65-15.69-3.9-23.53-6.19,9.6-4.76,16.33,1.6,23.53,6.19" transform="translate(-105.9 -115.61)"/><path class="b17bb477-0a59-44e2-9989-1f20f33744a1" d="M546.18,289.86c-8.75,1.65-15.69-3.9-23.53-6.19C532.25,278.91,539,285.27,546.18,289.86Z" transform="translate(-105.9 -115.61)"/><path class="ed8d736a-c5e9-4c7b-a74b-5c94ff397e8d" d="M560.09,277.73c-.67,1.79-1,4.09-2.79,5.1-2.06,1.12-4.27,1.87-6.69.25s-5.26-3-7.92-4.48c-1.17-.64-2.55-1.28-2.51-2.78,0-1.81,1.79-2.11,3.1-2.59a39.19,39.19,0,0,1,12.87-2.05c2.35.19,5.91-.47,6.79.78,1.42,2-2,3.62-2.85,5.77" transform="translate(-105.9 -115.61)"/><path class="b17bb477-0a59-44e2-9989-1f20f33744a1" d="M560.09,277.73c-.67,1.79-1,4.09-2.79,5.1-2.06,1.12-4.27,1.87-6.69.25s-5.26-3-7.92-4.48c-1.17-.64-2.55-1.28-2.51-2.78,0-1.81,1.79-2.11,3.1-2.59a39.19,39.19,0,0,1,12.87-2.05c2.35.19,5.91-.47,6.79.78C564.36,273.94,560.9,275.58,560.09,277.73Z" transform="translate(-105.9 -115.61)"/><path class="ed8d736a-c5e9-4c7b-a74b-5c94ff397e8d" d="M578.56,305.26c-.87,1.86-3.34.71-5.1.88-2.42.25-2.72-1.73-3-3.39-.84-4.38-3.52-7.59-6.47-10.74a26.64,26.64,0,0,0,5.72,3.55,18.34,18.34,0,0,1,6.62,5c1.17,1.4,3,3.06,2.26,4.74" transform="translate(-105.9 -115.61)"/><path class="b17bb477-0a59-44e2-9989-1f20f33744a1" d="M578.56,305.26c-.87,1.86-3.34.71-5.1.88-2.42.25-2.72-1.73-3-3.39-.84-4.38-3.52-7.59-6.47-10.74a26.64,26.64,0,0,0,5.72,3.55,18.34,18.34,0,0,1,6.62,5C577.47,301.92,579.33,303.58,578.56,305.26Z" transform="translate(-105.9 -115.61)"/><path class="ed8d736a-c5e9-4c7b-a74b-5c94ff397e8d" d="M607.83,299.42a19.88,19.88,0,0,0-6.53,7.86c-.64,1.28-1.4,2.29-3,1.87-4.53-.66-9-.93-13.39-2.16a3.25,3.25,0,0,1-2.52-2.23c-2.75-8.75-9.25-13.55-17.4-16.7-4-1.54-4.17-2.31-1.25-5.37,6.65-7,14.84-7.72,23.48-5.05,9.23,2.85,16,9,21.27,17,1.2,1.85,1.31,3.37-.69,4.75" transform="translate(-105.9 -115.61)"/><path class="b17bb477-0a59-44e2-9989-1f20f33744a1" d="M607.83,299.42a19.88,19.88,0,0,0-6.53,7.86c-.64,1.28-1.4,2.29-3,1.87-4.53-.66-9-.93-13.39-2.16a3.25,3.25,0,0,1-2.52-2.23c-2.75-8.75-9.25-13.55-17.4-16.7-4-1.54-4.17-2.31-1.25-5.37,6.65-7,14.84-7.72,23.48-5.05,9.23,2.85,16,9,21.27,17C609.72,296.52,609.83,298,607.83,299.42Z" transform="translate(-105.9 -115.61)"/><path class="ed8d736a-c5e9-4c7b-a74b-5c94ff397e8d" d="M651.84,318.17c-.35,1.38-1.41,1.3-2.28,1.32a31.69,31.69,0,0,0-15.4,4.74c-2,1.19-4.46,1-6.49,2.81-1.15,1-3.6-1.23-4.75-2.77A38.81,38.81,0,0,0,607.05,312c-2.57-1.14-2.14-2.47-1-4.32a16.64,16.64,0,0,1,20-7.35c9.7,3.31,17.27,10.16,25,16.63a6,6,0,0,1,.85,1.17" transform="translate(-105.9 -115.61)"/><path class="b17bb477-0a59-44e2-9989-1f20f33744a1" d="M651.84,318.17c-.35,1.38-1.41,1.3-2.28,1.32a31.69,31.69,0,0,0-15.4,4.74c-2,1.19-4.46,1-6.49,2.81-1.15,1-3.6-1.23-4.75-2.77A38.81,38.81,0,0,0,607.05,312c-2.57-1.14-2.14-2.47-1-4.32a16.64,16.64,0,0,1,20-7.35c9.7,3.31,17.27,10.16,25,16.63A6,6,0,0,1,651.84,318.17Z" transform="translate(-105.9 -115.61)"/><path class="ed8d736a-c5e9-4c7b-a74b-5c94ff397e8d" d="M661.42,338.81c0,6.71-1,8.18-7.46,9.24-7.62,1.26-14.92,3.75-22.45,5.31-1.16.25-2.79.85-3.46.33-4.14-3.19-8.14-.65-12.16,0-2.12.33-3.67,0-4.11-2.45-2.19-12.18-10.14-20.49-19.28-27.78-3.42-2.74-5.79-6.12-8.3-9.51-1.28-1.72-.85-2.61,1.35-2.68a13.87,13.87,0,0,1,6.54,1.36A308.15,308.15,0,0,1,624,329.68a11,11,0,0,0,8.3,1.69,55.72,55.72,0,0,0,12.09-3.88c10-4.39,17,.3,17,11.32" transform="translate(-105.9 -115.61)"/><path class="b17bb477-0a59-44e2-9989-1f20f33744a1" d="M661.42,338.81c0,6.71-1,8.18-7.46,9.24-7.62,1.26-14.92,3.75-22.45,5.31-1.16.25-2.79.85-3.46.33-4.14-3.19-8.14-.65-12.16,0-2.12.33-3.67,0-4.11-2.45-2.19-12.18-10.14-20.49-19.28-27.78-3.42-2.74-5.79-6.12-8.3-9.51-1.28-1.72-.85-2.61,1.35-2.68a13.87,13.87,0,0,1,6.54,1.36A308.15,308.15,0,0,1,624,329.68a11,11,0,0,0,8.3,1.69,55.72,55.72,0,0,0,12.09-3.88C654.38,323.1,661.38,327.79,661.42,338.81Z" transform="translate(-105.9 -115.61)"/><path class="ed8d736a-c5e9-4c7b-a74b-5c94ff397e8d" d="M689.18,404.73c-1.45-2.13-2.27-3.28.93-4,1-.23,1.37-1.16,1.56-2.11,2.3-11.57.48-22.17-7.31-31.38-.66-.78-1.34-1.84-2.59-1.42-1.06.36-1,1.51-1.15,2.38-.8,4.52-2.11,8.87-5.31,12.26-2.13,2.26-2,3.65-.12,6.26,6.83,9.32,10.48,19.62,5.24,30.89-4,8.62-11.14,15.13-17,22.49-.18.23-.69.2-1.46.4,1.59-5.16,4.53-9.17,7.48-13.17s6.11-7.75,7.9-12.39c4.67-12.17-1.23-26.78-13.16-32.75-4-2-4-2.08-.22-4.62,2.41-1.65,4.91-3.18,7.2-5,6-4.81,5.57-10.29-1.14-14.14-5.12-2.93-10.65-2.89-16.27-2.17-8.54,1.09-17,3.07-25.72,1.66-7.59-1.23-15.09-1.12-22.14,2.61-.5.26-1.19.69-1.83-.56,6.63-4.47,3.62-10,1.24-15.37A36.48,36.48,0,0,0,598.9,335a85.31,85.31,0,0,0-24.46-18.87c-7.16-3.71-14.37-1.24-18.1,6-1.12,2.18-.79,3.24,1.61,4.13,4.74,1.73,9.45,3.57,14,5.76,6.37,3.08,12.58,6.49,19.37,10-2.37,1.45-4,.73-5.55.27-4.62-1.37-8.69-3.95-13-5.95-10.63-4.92-21.39-9.31-33.21-10.64-16-1.79-30,10.72-29.21,26.18.12,2.44.92,3.77,3.29,4.71,5.52,2.18,10.34,5.57,15.78,9.2-2.61.69-3.87-.51-5.25-1.13-8.18-3.65-16.44-7-25.68-5.78-9.44,1.22-16.43,6-20,14.89-3.48,8.63-1.75,16.89,2.61,24.84,1.21,2.19,3.24,4,3.63,7-2.69-.78-4-2.66-5.65-4.19a10.21,10.21,0,0,0-4.37-2.6c-9-2.48-20,5-21.55,14.67-1.14,7.29-.46,14.29,4,20.54.42.59,1.22,1.19.43,2.07-5.82-2.33-6.95-2.19-9.95,3.83-4.92,9.85-5.94,19.67,1.44,29.13a77.58,77.58,0,0,0,34.57,25.28,23.66,23.66,0,0,0,17.15-.16,41.46,41.46,0,0,0,17.23-12.34c.86-1,1-1,2-.37q12,7.44,24.13,14.69c7.32,4.37,14.82,8.23,23.28,10.07,14.77,3.2,33.4-7,32.64-25.61,0-.73-.32-1.59.72-2.39,1.62,3.33,2.51,6.7,1.8,10.28a3.34,3.34,0,0,0,2.1,4.14c12,5.85,24.11,5.58,34.9-1.71,10.1-6.83,12.86-17.71,11.15-29.65-.2-1.33-.91-2.7,0-4.16,3.76,4,3.84,4.2,9,2.12,14.64-5.88,25.08-16.51,31.46-30.6a23.81,23.81,0,0,0-2-24m-222.5,61.48a55.93,55.93,0,0,1-15.51-6c-.92-.5-2.16-.84-1.46-2.29s1.93-1,3.06-.49c3.64,1.6,7.27,3.23,10.92,4.8a79.44,79.44,0,0,0,12.52,4c-3.2,1.81-6.43.62-9.53,0m69.92-14.49a42.38,42.38,0,0,0-24.69-4.36c-6.2.79-11.16,4-15.59,8.16-2.9,2.72-5.66,5.6-8.56,8.32-1.53,1.43-3.18,2.81-5.82,2.13,7.73-6,13.29-14.41,22.24-18.88a32.37,32.37,0,0,1,20.16-2.75c1.93.32,4.43,1.25,3.79-3.11a34.92,34.92,0,0,0,12.16,9.9,22.94,22.94,0,0,0,11.79,3.05c3.07-.13,4.78.68,4.65,4.13-.06,1.8.51,3.61.92,6.23a117.27,117.27,0,0,0-21-12.82m25.64-75.15c-1.48,1-2.68,1.36-3-1-1.31-10.17-7.54-17.59-14-24.9q-4.72-5.38-9.36-10.84c-.57-.66-1.46-1.24-.82-2.84a5.72,5.72,0,0,1,1.58.64c10.07,8.86,20.38,17.55,24.81,30.9.8,2.42,1.81,3.18,4.3,2.18a30.26,30.26,0,0,1,22.51,0c2,.76,3.83.89,5.59-1.1-.29,6.26,7.17,7.51,7.11,13.16-1.33.61-1.81-.7-2.43-1.34-8.87-9.09-24.06-13.11-36.32-4.79m64.82,95.63a2.11,2.11,0,0,1-2.55-.52c-2.09-1.84-2.82-4.45-3.8-6.9-3.35-8.42-7.3-16.48-13.22-23.46-5.06-6-10.65-11.15-18.54-13-1.58-.38-2-1.29-1.64-2.59,1.13-4.42.75-8.92,1.2-13.59,2.79,3.42,2.18,10.15,9.29,8.12,0,.88.1,1.28,0,1.36-4.55,3.32-4.58,3.36.15,6.69a36.53,36.53,0,0,1,7.19,7.4A213.11,213.11,0,0,1,627,469.77c.43.81,1.12,1.72,0,2.43M641,439.5c-4.38-6.3-8.48-12.78-13.49-18.61-.48-.56-1.39-1.17-.62-2s1.61-.24,2.19.2c2.62,2.05,4.39.95,6.29-1.2,1.71-1.94,3.77-3.59,7-3.53-1.8,2.24-3.49,4.58-5.43,6.69s-2,3.49-.27,5.79c3.3,4.31,5.31,9.34,7.17,14.93-1.9-.19-2.23-1.45-2.82-2.29" transform="translate(-105.9 -115.61)"/><path class="b17bb477-0a59-44e2-9989-1f20f33744a1" d="M689.18,404.73c-1.45-2.13-2.27-3.28.93-4,1-.23,1.37-1.16,1.56-2.11,2.3-11.57.48-22.17-7.31-31.38-.66-.78-1.34-1.84-2.59-1.42-1.06.36-1,1.51-1.15,2.38-.8,4.52-2.11,8.87-5.31,12.26-2.13,2.26-2,3.65-.12,6.26,6.83,9.32,10.48,19.62,5.24,30.89-4,8.62-11.14,15.13-17,22.49-.18.23-.69.2-1.46.4,1.59-5.16,4.53-9.17,7.48-13.17s6.11-7.75,7.9-12.39c4.67-12.17-1.23-26.78-13.16-32.75-4-2-4-2.08-.22-4.62,2.41-1.65,4.91-3.18,7.2-5,6-4.81,5.57-10.29-1.14-14.14-5.12-2.93-10.65-2.89-16.27-2.17-8.54,1.09-17,3.07-25.72,1.66-7.59-1.23-15.09-1.12-22.14,2.61-.5.26-1.19.69-1.83-.56,6.63-4.47,3.62-10,1.24-15.37A36.48,36.48,0,0,0,598.9,335a85.31,85.31,0,0,0-24.46-18.87c-7.16-3.71-14.37-1.24-18.1,6-1.12,2.18-.79,3.24,1.61,4.13,4.74,1.73,9.45,3.57,14,5.76,6.37,3.08,12.58,6.49,19.37,10-2.37,1.45-4,.73-5.55.27-4.62-1.37-8.69-3.95-13-5.95-10.63-4.92-21.39-9.31-33.21-10.64-16-1.79-30,10.72-29.21,26.18.12,2.44.92,3.77,3.29,4.71,5.52,2.18,10.34,5.57,15.78,9.2-2.61.69-3.87-.51-5.25-1.13-8.18-3.65-16.44-7-25.68-5.78-9.44,1.22-16.43,6-20,14.89-3.48,8.63-1.75,16.89,2.61,24.84,1.21,2.19,3.24,4,3.63,7-2.69-.78-4-2.66-5.65-4.19a10.21,10.21,0,0,0-4.37-2.6c-9-2.48-20,5-21.55,14.67-1.14,7.29-.46,14.29,4,20.54.42.59,1.22,1.19.43,2.07-5.82-2.33-6.95-2.19-9.95,3.83-4.92,9.85-5.94,19.67,1.44,29.13a77.58,77.58,0,0,0,34.57,25.28,23.66,23.66,0,0,0,17.15-.16,41.46,41.46,0,0,0,17.23-12.34c.86-1,1-1,2-.37q12,7.44,24.13,14.69c7.32,4.37,14.82,8.23,23.28,10.07,14.77,3.2,33.4-7,32.64-25.61,0-.73-.32-1.59.72-2.39,1.62,3.33,2.51,6.7,1.8,10.28a3.34,3.34,0,0,0,2.1,4.14c12,5.85,24.11,5.58,34.9-1.71,10.1-6.83,12.86-17.71,11.15-29.65-.2-1.33-.91-2.7,0-4.16,3.76,4,3.84,4.2,9,2.12,14.64-5.88,25.08-16.51,31.46-30.6A23.81,23.81,0,0,0,689.18,404.73Zm-222.5,61.48a55.93,55.93,0,0,1-15.51-6c-.92-.5-2.16-.84-1.46-2.29s1.93-1,3.06-.49c3.64,1.6,7.27,3.23,10.92,4.8a79.44,79.44,0,0,0,12.52,4C473,468,469.78,466.81,466.68,466.21Zm69.92-14.49a42.38,42.38,0,0,0-24.69-4.36c-6.2.79-11.16,4-15.59,8.16-2.9,2.72-5.66,5.6-8.56,8.32-1.53,1.43-3.18,2.81-5.82,2.13,7.73-6,13.29-14.41,22.24-18.88a32.37,32.37,0,0,1,20.16-2.75c1.93.32,4.43,1.25,3.79-3.11a34.92,34.92,0,0,0,12.16,9.9,22.94,22.94,0,0,0,11.79,3.05c3.07-.13,4.78.68,4.65,4.13-.06,1.8.51,3.61.92,6.23A117.27,117.27,0,0,0,536.6,451.72Zm25.64-75.15c-1.48,1-2.68,1.36-3-1-1.31-10.17-7.54-17.59-14-24.9q-4.72-5.38-9.36-10.84c-.57-.66-1.46-1.24-.82-2.84a5.72,5.72,0,0,1,1.58.64c10.07,8.86,20.38,17.55,24.81,30.9.8,2.42,1.81,3.18,4.3,2.18a30.26,30.26,0,0,1,22.51,0c2,.76,3.83.89,5.59-1.1-.29,6.26,7.17,7.51,7.11,13.16-1.33.61-1.81-.7-2.43-1.34C589.69,372.27,574.5,368.25,562.24,376.57Zm64.82,95.63a2.11,2.11,0,0,1-2.55-.52c-2.09-1.84-2.82-4.45-3.8-6.9-3.35-8.42-7.3-16.48-13.22-23.46-5.06-6-10.65-11.15-18.54-13-1.58-.38-2-1.29-1.64-2.59,1.13-4.42.75-8.92,1.2-13.59,2.79,3.42,2.18,10.15,9.29,8.12,0,.88.1,1.28,0,1.36-4.55,3.32-4.58,3.36.15,6.69a36.53,36.53,0,0,1,7.19,7.4A213.11,213.11,0,0,1,627,469.77C627.47,470.58,628.16,471.49,627.06,472.2ZM641,439.5c-4.38-6.3-8.48-12.78-13.49-18.61-.48-.56-1.39-1.17-.62-2s1.61-.24,2.19.2c2.62,2.05,4.39.95,6.29-1.2,1.71-1.94,3.77-3.59,7-3.53-1.8,2.24-3.49,4.58-5.43,6.69s-2,3.49-.27,5.79c3.3,4.31,5.31,9.34,7.17,14.93C641.87,441.6,641.54,440.34,641,439.5Z" transform="translate(-105.9 -115.61)"/><path class="e07c4f2b-d83a-4c32-a42d-18c8a77ab835" d="M810.34,791.5c0,4.63-6.52,8.37-14.54,8.37s-14.53-3.74-14.53-8.37,6.49-8.36,14.53-8.36,14.54,3.74,14.54,8.36" transform="translate(-105.9 -115.61)"/><path class="e07c4f2b-d83a-4c32-a42d-18c8a77ab835" d="M363.46,459.7c0,4.63-6.51,8.36-14.53,8.36s-14.53-3.73-14.53-8.36,6.49-8.37,14.53-8.37,14.53,3.74,14.53,8.37" transform="translate(-105.9 -115.61)"/></g><g class="a6a6f3f1-a92d-4d0a-966b-6a821213bc1c"><g class="adb0814b-e31c-41b1-92ab-d94d9ace5292"><rect class="ec8d989e-f0c5-4f39-8ce9-f4b377d5f970" x="282.71" y="146.57" width="322.17" height="358.19"/></g></g></g></svg>