<svg id="svg" version="1.1" xmlns="http://www.w3.org/2000/svg" xmlns:xlink="http://www.w3.org/1999/xlink" width="400" height="400" viewBox="0, 0, 400,400"><g id="svgg"><path id="path0" d="M215.000 20.045 C 211.479 21.781,211.338 28.017,214.780 29.797 C 219.738 32.361,224.953 27.146,222.389 22.187 C 221.256 19.997,217.379 18.872,215.000 20.045 M258.060 43.543 C 255.171 45.111,255.219 50.522,258.136 52.031 C 262.602 54.340,267.303 49.639,264.994 45.173 C 263.932 43.119,260.380 42.284,258.060 43.543 M195.044 134.095 C 190.963 135.112,186.407 138.748,183.458 143.340 C 176.889 153.570,115.649 257.284,114.795 259.626 C 112.968 264.638,112.666 268.600,113.747 273.407 C 114.264 275.706,114.378 275.784,127.407 282.771 C 145.205 292.316,158.385 299.341,163.519 302.020 C 169.047 304.904,173.223 307.213,176.665 309.290 C 177.988 310.088,179.413 310.741,179.831 310.741 C 180.248 310.741,182.582 311.418,185.017 312.245 C 192.319 314.725,198.702 315.316,204.435 314.040 C 208.383 313.162,263.671 285.114,263.472 284.091 C 262.984 281.576,279.662 244.657,281.504 244.176 C 282.209 243.991,282.222 243.281,282.222 205.896 L 282.222 167.805 274.907 172.204 C 270.884 174.624,267.548 176.559,267.493 176.504 C 267.438 176.450,267.983 173.690,268.704 170.371 C 270.200 163.482,270.329 164.190,266.898 160.485 C 264.253 157.628,266.705 158.699,232.593 145.498 C 199.903 132.847,199.970 132.867,195.044 134.095 M222.730 162.821 C 248.577 172.775,247.834 172.400,249.843 176.506 C 251.996 180.906,253.933 176.583,224.240 233.649 C 196.118 287.697,196.603 286.849,192.746 288.736 C 186.851 291.620,186.095 291.355,159.095 276.954 C 133.049 263.062,132.892 262.954,132.066 258.402 C 131.323 254.312,129.159 258.380,160.671 204.630 C 189.119 156.105,187.853 158.138,190.471 156.805 C 197.434 153.260,198.347 153.431,222.730 162.821 M267.951 158.234 C 268.667 159.071,269.462 160.227,269.717 160.804 C 270.197 161.889,270.738 162.197,270.745 161.389 C 270.747 161.134,270.849 160.324,270.970 159.587 C 271.208 158.151,271.115 158.078,267.676 157.027 L 266.649 156.713 267.951 158.234 " stroke="none" fill="#e43c6c" fill-rule="evenodd"></path><path id="path1" d="M195.370 155.355 C 188.611 156.591,191.151 152.959,160.533 205.161 C 129.209 258.566,130.638 255.657,133.112 260.969 C 134.335 263.595,133.826 263.287,159.444 276.936 C 186.426 291.311,186.646 291.389,192.486 288.715 C 196.430 286.910,195.556 288.435,224.066 233.649 L 250.540 182.778 250.535 180.370 C 250.523 173.774,250.289 173.628,222.562 162.945 C 199.629 154.108,200.644 154.392,195.370 155.355 M195.129 186.741 C 198.053 189.694,199.118 194.665,197.055 195.731 C 190.772 198.981,185.529 189.607,191.571 185.924 C 193.210 184.925,193.366 184.960,195.129 186.741 M223.174 197.500 C 225.972 200.810,226.831 206.126,224.771 207.382 C 222.116 209.000,218.695 208.074,216.768 205.214 C 213.751 200.737,219.776 193.480,223.174 197.500 M177.002 245.741 C 190.858 252.870,202.200 258.870,202.207 259.074 C 202.217 259.365,197.950 268.060,197.620 268.421 C 197.550 268.498,147.381 242.707,146.300 242.040 C 145.936 241.815,147.445 238.650,150.232 233.791 C 151.127 232.232,148.268 230.956,177.002 245.741 M115.616 246.309 C 113.918 247.321,112.487 248.148,112.437 248.148 C 112.386 248.148,106.241 251.619,98.782 255.861 L 85.220 263.575 105.355 276.046 C 116.429 282.905,125.722 288.606,126.006 288.715 C 126.481 288.897,132.210 285.976,132.203 285.556 C 132.202 285.454,128.462 283.394,123.892 280.979 C 113.273 275.367,111.121 273.219,110.017 267.130 C 109.174 262.481,109.953 260.182,115.496 250.966 C 120.188 243.164,120.177 243.592,115.616 246.309 M80.741 266.151 C 78.893 267.212,76.872 268.358,74.630 269.615 C 62.539 276.395,60.734 277.537,58.618 279.747 C 55.832 282.658,54.095 285.512,54.847 285.945 C 91.358 306.957,101.320 312.490,101.667 311.947 C 106.791 303.925,113.003 297.714,121.563 292.052 L 123.681 290.651 103.126 277.918 C 91.821 270.915,82.535 265.187,82.490 265.190 C 82.444 265.192,81.657 265.625,80.741 266.151 M283.704 269.881 C 283.704 271.931,280.961 275.655,277.320 278.546 L 275.566 279.939 278.061 280.887 C 293.004 286.564,294.242 286.971,295.221 286.538 C 308.519 280.653,313.695 278.292,313.699 278.109 C 313.731 276.562,296.217 270.921,286.944 269.491 L 283.704 268.991 283.704 269.881 M269.074 283.633 C 266.833 284.797,263.417 286.688,261.481 287.834 C 256.430 290.827,248.354 295.329,242.292 298.530 C 239.410 300.051,237.049 301.389,237.044 301.502 C 237.040 301.616,240.614 303.062,244.986 304.716 L 252.935 307.724 256.745 305.668 C 258.841 304.537,267.454 300.136,275.885 295.888 C 284.316 291.640,290.983 288.079,290.700 287.974 C 290.417 287.869,286.378 286.365,281.724 284.632 C 277.070 282.899,273.237 281.490,273.205 281.499 C 273.174 281.509,271.315 282.470,269.074 283.633 M52.597 290.350 C 49.567 304.629,61.973 317.097,90.611 328.553 C 94.230 330.001,100.477 332.222,100.930 332.222 C 100.982 332.222,100.587 331.181,100.052 329.907 C 98.861 327.075,98.646 319.184,99.686 316.487 L 100.256 315.012 76.748 301.580 C 63.820 294.193,53.201 288.148,53.153 288.148 C 53.104 288.148,52.854 289.139,52.597 290.350 M162.778 303.770 L 161.766 305.298 163.198 304.442 C 165.246 303.216,165.349 303.077,164.527 302.637 C 163.887 302.294,163.655 302.445,162.778 303.770 M227.593 306.243 C 202.504 319.111,197.861 320.001,181.998 314.981 C 181.451 314.808,181.419 314.836,181.852 315.109 C 182.157 315.302,190.080 318.413,199.457 322.023 L 216.506 328.588 222.975 324.720 C 231.504 319.621,239.866 314.774,245.477 311.676 C 247.980 310.294,249.973 309.109,249.906 309.041 C 249.758 308.894,234.135 302.952,233.990 302.988 C 233.934 303.002,231.056 304.466,227.593 306.243 M138.519 309.957 L 135.370 310.185 135.290 312.963 C 135.223 315.261,135.000 316.162,133.994 318.185 L 132.778 320.628 133.938 320.142 C 137.051 318.838,143.656 315.621,148.144 313.224 L 153.140 310.556 150.366 310.291 C 145.518 309.828,141.759 309.722,138.519 309.957 M171.111 315.964 C 169.991 316.774,168.657 317.715,168.148 318.054 C 160.841 322.915,153.095 330.874,150.126 336.569 L 148.850 339.018 170.629 347.750 L 192.407 356.481 192.806 354.444 C 194.669 344.920,198.315 339.779,207.104 334.281 C 210.706 332.028,213.539 330.073,213.400 329.935 C 213.105 329.643,173.776 314.434,173.401 314.467 C 173.262 314.480,172.231 315.153,171.111 315.964 M291.044 318.796 C 290.864 322.488,289.859 325.163,287.740 327.583 L 286.481 329.022 287.593 328.329 C 288.204 327.947,292.620 325.043,297.407 321.874 L 306.111 316.113 304.074 315.871 C 302.954 315.738,299.599 315.612,296.619 315.592 L 291.202 315.556 291.044 318.796 M269.877 333.073 C 262.218 333.395,261.435 333.488,261.584 334.055 C 262.189 336.371,260.391 341.648,258.110 344.246 C 257.478 344.966,257.055 345.556,257.170 345.556 C 257.677 345.556,279.522 333.465,280.340 332.731 C 280.424 332.655,280.008 332.621,279.414 332.655 C 278.819 332.690,274.528 332.878,269.877 333.073 M148.000 341.986 C 147.884 342.421,147.785 344.278,147.783 346.111 L 147.777 349.444 150.706 352.254 C 160.750 361.891,179.537 370.220,200.280 374.235 C 206.689 375.475,206.987 375.434,203.802 373.743 C 197.237 370.258,192.593 364.503,192.593 359.852 C 192.593 358.512,148.325 340.776,148.000 341.986 M232.139 349.971 C 232.349 351.402,231.612 355.340,230.863 356.789 C 230.562 357.371,230.370 357.900,230.436 357.965 C 230.545 358.073,240.940 353.503,246.641 350.841 L 249.022 349.728 245.900 349.499 C 244.183 349.373,240.345 349.163,237.372 349.032 L 231.966 348.795 232.139 349.971 M203.704 363.621 C 203.704 364.140,206.569 366.667,207.157 366.667 C 207.786 366.667,211.209 365.535,211.579 365.205 C 211.735 365.066,210.235 364.648,208.246 364.276 C 206.257 363.904,204.421 363.522,204.167 363.427 C 203.912 363.332,203.704 363.419,203.704 363.621 " stroke="none" fill="#e4b4c5" fill-rule="evenodd"></path><path id="path2" d="M189.468 10.463 C 187.854 22.753,185.877 52.709,185.197 75.185 L 184.463 99.444 182.059 120.741 C 180.737 132.454,179.595 142.495,179.521 143.056 C 179.333 144.493,179.322 144.506,182.008 140.048 C 185.324 134.545,188.152 132.127,192.602 130.991 L 194.630 130.474 194.750 128.107 C 194.816 126.806,194.420 100.776,193.869 70.263 C 193.319 39.751,192.944 14.710,193.038 14.617 C 193.131 14.523,197.511 16.376,202.771 18.733 L 212.335 23.019 213.190 21.972 C 214.405 20.487,214.981 20.869,202.088 14.611 C 188.573 8.051,189.735 8.433,189.468 10.463 M265.154 49.719 C 264.917 50.179,264.390 50.920,263.985 51.366 L 263.247 52.177 273.753 57.426 C 279.532 60.313,284.331 62.742,284.419 62.824 C 284.618 63.011,284.706 62.287,279.085 106.611 C 275.269 136.702,274.126 144.767,272.814 150.870 C 271.932 154.975,271.000 159.500,270.744 160.926 C 270.488 162.352,269.633 166.417,268.843 169.960 C 268.054 173.503,267.407 176.451,267.407 176.512 C 267.407 176.997,281.724 167.946,281.959 167.312 C 282.240 166.554,290.001 65.908,289.999 63.058 L 289.997 61.667 284.165 58.614 C 280.958 56.935,275.465 54.059,271.959 52.222 C 265.623 48.901,265.583 48.886,265.154 49.719 M281.228 244.365 C 280.293 244.959,273.828 258.125,269.367 268.519 C 266.648 274.856,263.333 283.282,263.333 283.858 C 263.333 286.803,274.255 281.655,279.826 276.084 C 283.611 272.298,283.502 272.811,283.629 258.250 C 283.753 244.034,283.555 242.885,281.228 244.365 M133.447 292.167 C 121.188 299.529,113.515 307.022,111.476 313.623 C 109.732 319.271,111.438 323.384,116.294 325.237 L 118.333 326.015 120.741 325.199 C 122.065 324.750,125.268 323.552,127.859 322.537 L 132.571 320.691 133.761 318.273 C 134.737 316.291,134.981 315.294,135.115 312.742 L 135.278 309.630 140.880 309.632 C 143.961 309.633,147.398 309.780,148.519 309.958 C 153.751 310.789,161.608 306.826,163.121 302.593 C 163.313 302.055,140.649 289.612,138.979 289.339 C 138.624 289.280,136.135 290.553,133.447 292.167 M307.505 290.561 C 305.978 290.892,302.588 292.409,297.505 295.034 C 285.942 301.007,250.497 319.750,248.889 320.743 C 248.583 320.931,244.500 323.111,239.815 325.586 C 229.775 330.890,219.891 336.313,219.630 336.660 C 219.528 336.795,219.145 337.016,218.780 337.151 C 217.688 337.554,208.076 343.198,206.346 344.451 C 202.447 347.276,200.327 356.639,202.484 361.504 L 203.213 363.148 207.996 364.009 L 212.778 364.869 220.000 362.119 C 230.543 358.105,229.896 358.448,230.784 356.405 C 231.265 355.300,231.633 353.461,231.759 351.532 L 231.961 348.435 234.036 348.650 C 235.177 348.768,239.194 348.965,242.963 349.088 L 249.815 349.310 253.007 347.623 C 258.658 344.636,261.451 340.396,261.476 334.770 L 261.481 333.429 264.352 333.206 C 265.931 333.084,270.222 332.878,273.889 332.749 L 280.556 332.515 283.148 330.913 C 288.730 327.464,291.605 322.223,290.867 316.841 L 290.642 315.197 298.747 315.397 L 306.852 315.598 310.771 312.659 C 313.987 310.248,314.842 309.397,315.539 307.916 C 318.327 301.985,318.138 296.498,314.999 292.221 C 313.188 289.754,312.213 289.538,307.505 290.561 " stroke="none" fill="#392c30" fill-rule="evenodd"></path><path id="path3" d="M311.296 279.540 C 307.475 281.194,294.438 287.073,290.370 288.978 C 286.359 290.856,259.937 304.059,259.444 304.431 C 259.241 304.585,257.657 305.431,255.926 306.310 C 235.867 316.492,201.656 337.274,198.990 340.895 C 188.875 354.635,191.219 367.497,205.040 374.093 C 208.856 375.914,209.023 375.912,214.748 373.930 C 243.998 363.807,282.350 343.113,314.259 320.236 C 323.837 313.369,322.941 314.447,324.619 307.778 C 325.993 302.317,326.391 298.638,326.240 292.797 L 326.101 287.429 324.445 285.742 C 322.707 283.970,318.256 280.585,315.741 279.121 L 314.259 278.258 311.296 279.540 M128.294 288.107 C 105.199 301.459,95.093 316.800,100.493 330.307 L 101.333 332.407 106.129 334.051 L 110.926 335.695 117.222 335.704 C 132.018 335.725,149.206 327.970,169.968 311.908 C 175.159 307.892,174.976 308.248,172.521 306.948 L 170.604 305.934 164.469 309.942 C 140.272 325.750,120.776 330.825,112.945 323.355 C 105.772 316.513,114.350 303.420,133.524 291.943 C 139.137 288.583,139.026 288.984,134.920 286.905 C 132.413 285.635,132.640 285.594,128.294 288.107 M315.304 290.397 C 320.872 291.943,322.189 298.786,318.851 308.818 C 317.920 311.615,317.806 311.708,303.065 321.619 C 269.468 344.208,233.929 362.348,212.318 367.939 C 208.889 368.826,205.495 366.939,202.963 362.736 C 200.351 358.400,201.653 348.714,205.339 345.069 C 206.671 343.752,217.464 337.365,218.785 337.112 C 219.249 337.023,219.630 336.815,219.630 336.649 C 219.630 336.037,265.104 311.622,297.576 294.800 C 306.689 290.079,310.631 289.100,315.304 290.397 M136.389 309.885 C 136.745 309.978,137.329 309.978,137.685 309.885 C 138.042 309.792,137.750 309.716,137.037 309.716 C 136.324 309.716,136.032 309.792,136.389 309.885 " stroke="none" fill="#848484" fill-rule="evenodd"></path><path id="path4" d="M83.733 264.410 L 82.465 265.085 83.362 265.665 C 83.856 265.983,93.128 271.735,103.967 278.446 C 114.806 285.156,123.556 290.769,123.411 290.917 C 123.266 291.066,123.907 290.717,124.835 290.142 L 126.522 289.097 122.798 286.828 C 120.750 285.580,111.504 279.866,102.251 274.131 C 92.998 268.396,85.332 263.711,85.214 263.719 C 85.096 263.728,84.430 264.039,83.733 264.410 M274.279 280.719 L 273.187 281.444 274.219 281.837 C 274.787 282.052,278.445 283.416,282.348 284.867 C 286.251 286.318,289.861 287.662,290.370 287.854 L 291.296 288.204 290.370 288.751 C 289.065 289.522,289.916 289.238,292.166 288.153 C 294.695 286.933,295.233 287.287,285.128 283.519 C 274.452 279.537,275.609 279.836,274.279 280.719 M236.231 298.896 C 220.815 306.619,207.148 313.296,205.860 313.735 C 200.405 315.595,193.109 315.064,184.250 312.161 L 179.620 310.645 176.662 312.433 C 175.035 313.417,173.828 314.333,173.981 314.468 C 174.134 314.603,183.009 318.083,193.704 322.200 C 204.398 326.317,213.291 329.824,213.465 329.993 C 213.639 330.161,214.358 329.960,215.062 329.544 C 216.766 328.538,217.957 329.109,198.606 321.664 C 182.628 315.517,179.028 314.022,183.536 315.405 C 198.140 319.885,202.648 318.948,227.696 306.221 L 234.096 302.969 242.040 305.978 C 246.430 307.641,249.884 309.147,249.762 309.345 C 249.640 309.542,250.226 309.311,251.064 308.833 C 253.121 307.658,253.530 307.932,244.815 304.647 C 240.537 303.035,237.040 301.622,237.044 301.506 C 237.049 301.391,239.410 300.051,242.292 298.530 C 249.941 294.490,263.365 286.920,265.731 285.312 C 266.418 284.844,266.395 284.816,265.360 284.835 C 264.681 284.848,253.524 290.233,236.231 298.896 M53.777 286.774 C 53.431 287.688,53.436 288.031,53.798 288.361 C 54.474 288.978,99.848 314.817,100.231 314.803 C 100.711 314.785,101.776 312.349,101.312 312.330 C 101.021 312.318,72.736 296.277,55.719 286.474 L 54.217 285.608 53.777 286.774 M314.628 291.529 C 318.268 295.557,318.705 301.235,315.882 307.797 C 314.921 310.031,312.059 312.225,297.963 321.532 C 285.697 329.630,285.215 329.930,275.556 335.473 C 265.969 340.974,263.424 342.361,252.222 348.186 C 242.811 353.080,214.922 364.815,212.703 364.815 C 212.316 364.815,211.842 364.961,211.648 365.140 C 211.045 365.697,207.408 366.746,206.838 366.527 C 205.607 366.055,206.425 366.720,208.153 367.595 C 209.999 368.531,210.024 368.533,212.320 367.939 C 236.312 361.732,283.877 336.451,315.341 313.182 C 322.594 307.818,322.569 292.414,315.304 290.397 C 313.175 289.806,313.134 289.875,314.628 291.529 M281.481 292.963 C 279.546 293.961,278.130 294.777,278.333 294.777 C 278.537 294.777,280.287 293.961,282.222 292.963 C 284.157 291.965,285.574 291.149,285.370 291.149 C 285.167 291.149,283.417 291.965,281.481 292.963 M113.866 297.870 L 112.778 299.074 113.981 297.986 C 115.104 296.972,115.355 296.667,115.069 296.667 C 115.006 296.667,114.464 297.208,113.866 297.870 M109.247 302.130 L 107.222 304.259 109.352 302.235 C 111.330 300.354,111.651 300.000,111.376 300.000 C 111.318 300.000,110.360 300.958,109.247 302.130 M163.333 304.316 C 162.417 304.853,161.333 305.581,160.926 305.933 C 159.673 307.017,154.313 310.000,153.619 310.000 C 153.258 310.000,152.963 310.145,152.963 310.321 C 152.963 311.677,124.590 324.717,119.259 325.811 L 117.963 326.077 119.444 326.351 C 129.601 328.225,145.540 322.383,164.903 309.689 C 171.283 305.507,170.982 306.016,167.956 304.524 C 165.065 303.098,165.389 303.113,163.333 304.316 M138.987 309.895 C 139.550 309.981,140.383 309.978,140.838 309.890 C 141.294 309.802,140.833 309.733,139.815 309.736 C 138.796 309.738,138.424 309.810,138.987 309.895 M247.315 310.582 C 245.930 311.333,246.014 311.646,247.407 310.926 C 248.019 310.610,248.519 310.272,248.519 310.176 C 248.519 309.937,248.479 309.951,247.315 310.582 M135.291 312.037 C 135.294 313.056,135.366 313.428,135.451 312.865 C 135.536 312.302,135.534 311.469,135.446 311.013 C 135.358 310.558,135.288 311.019,135.291 312.037 M243.981 312.434 C 242.597 313.185,242.681 313.498,244.074 312.778 C 244.685 312.462,245.185 312.124,245.185 312.028 C 245.185 311.789,245.145 311.803,243.981 312.434 M240.648 314.286 C 239.264 315.037,239.348 315.350,240.741 314.630 C 241.352 314.314,241.852 313.976,241.852 313.879 C 241.852 313.641,241.812 313.654,240.648 314.286 M303.245 315.818 C 303.706 315.906,304.372 315.903,304.727 315.810 C 305.081 315.717,304.704 315.645,303.889 315.649 C 303.074 315.653,302.784 315.729,303.245 315.818 M204.907 335.598 C 203.645 336.407,203.236 336.950,204.352 336.336 C 205.202 335.869,206.533 334.840,206.296 334.833 C 206.194 334.830,205.569 335.174,204.907 335.598 M200.821 338.426 C 199.935 339.292,199.921 339.334,200.723 338.709 C 202.304 337.478,202.379 337.407,202.117 337.407 C 201.978 337.407,201.395 337.866,200.821 338.426 M148.545 340.093 C 148.369 340.551,148.333 341.035,148.465 341.169 C 148.640 341.347,187.215 356.919,191.972 358.732 C 192.555 358.954,192.631 358.818,192.527 357.735 L 192.407 356.481 171.111 347.903 C 147.713 338.479,148.994 338.922,148.545 340.093 M231.958 350.926 C 231.961 351.944,232.032 352.317,232.118 351.754 C 232.203 351.191,232.200 350.358,232.113 349.902 C 232.025 349.447,231.955 349.907,231.958 350.926 M193.704 363.846 C 193.704 364.243,194.806 366.296,195.019 366.296 C 195.121 366.296,194.929 365.755,194.592 365.093 C 193.905 363.741,193.704 363.459,193.704 363.846 M196.292 368.143 C 196.935 368.955,197.655 369.739,197.891 369.885 C 198.128 370.031,197.679 369.367,196.894 368.409 C 196.109 367.451,195.389 366.667,195.295 366.667 C 195.200 366.667,195.649 367.331,196.292 368.143 " stroke="none" fill="#a49b9c" fill-rule="evenodd"></path><path id="path5" d="M191.571 185.924 C 185.529 189.607,190.772 198.981,197.055 195.731 C 199.118 194.665,198.053 189.694,195.129 186.741 C 193.366 184.960,193.210 184.925,191.571 185.924 M218.860 197.138 C 213.801 200.548,215.841 208.152,221.814 208.147 C 225.866 208.143,227.057 205.154,224.922 200.348 C 223.194 196.459,221.331 195.473,218.860 197.138 M150.232 233.791 C 147.445 238.650,145.936 241.815,146.300 242.040 C 147.381 242.707,197.550 268.498,197.620 268.421 C 197.950 268.060,202.217 259.365,202.207 259.074 C 202.196 258.744,152.455 232.921,151.367 232.680 C 151.125 232.626,150.614 233.126,150.232 233.791 " stroke="none" fill="#f2e6ee" fill-rule="evenodd"></path><path id="path6" d="M244.394 21.668 C 243.890 22.482,240.820 27.676,237.572 33.210 C 234.324 38.744,231.629 43.234,231.582 43.187 C 231.536 43.141,232.242 38.958,233.151 33.892 C 234.061 28.826,234.758 24.635,234.702 24.578 C 234.537 24.413,225.943 30.158,225.934 30.439 C 225.930 30.579,227.354 30.211,229.100 29.621 L 232.275 28.548 232.075 29.552 C 231.965 30.104,231.366 34.222,230.744 38.704 C 230.123 43.185,229.531 47.227,229.430 47.685 C 229.025 49.511,230.065 48.166,235.549 39.765 C 238.692 34.951,241.315 31.167,241.378 31.357 C 241.442 31.547,241.359 33.236,241.194 35.110 C 240.864 38.882,240.962 39.059,242.426 37.315 C 242.982 36.653,244.135 35.333,244.989 34.382 L 246.541 32.653 245.506 38.808 C 244.936 42.194,244.519 45.013,244.579 45.073 C 244.639 45.133,245.913 44.266,247.409 43.147 C 250.733 40.660,250.231 40.617,252.794 43.611 C 255.295 46.532,255.308 46.035,252.872 40.777 L 251.278 37.336 249.437 38.858 C 247.095 40.793,247.116 41.216,249.070 31.502 C 249.987 26.940,250.670 23.139,250.587 23.056 C 250.504 22.973,248.826 25.251,246.859 28.119 C 244.892 30.987,243.233 33.333,243.174 33.333 C 243.114 33.333,243.627 30.546,244.314 27.140 C 245.707 20.229,245.717 19.530,244.394 21.668 " stroke="none" fill="#d4cc3c" fill-rule="evenodd"></path><path id="path7" d="M193.061 130.918 C 188.019 132.336,185.412 134.534,182.067 140.185 C 180.862 142.222,179.752 143.973,179.601 144.075 C 179.219 144.334,119.259 244.029,119.259 244.405 C 119.259 244.572,117.566 247.524,115.496 250.966 C 108.998 261.769,108.297 265.429,111.553 271.553 C 112.703 273.717,114.479 275.764,113.949 274.316 C 112.606 270.643,112.947 264.688,114.788 259.643 C 115.648 257.286,176.856 153.621,183.458 143.340 C 187.586 136.911,192.523 133.885,198.869 133.894 L 202.778 133.900 232.593 145.475 C 248.991 151.842,262.745 157.194,263.158 157.369 C 264.344 157.871,266.236 159.590,268.197 161.947 C 270.775 165.044,271.357 163.012,268.903 159.480 C 265.832 155.061,267.786 155.975,231.945 142.181 L 202.037 130.670 198.519 130.521 C 196.132 130.421,194.376 130.548,193.061 130.918 M187.940 158.611 L 186.852 159.815 188.056 158.727 C 188.718 158.129,189.259 157.587,189.259 157.523 C 189.259 157.237,188.954 157.489,187.940 158.611 M246.667 172.708 C 246.667 172.772,247.208 173.314,247.870 173.912 L 249.074 175.000 247.986 173.796 C 246.972 172.674,246.667 172.422,246.667 172.708 M131.938 257.037 C 131.938 257.750,132.014 258.042,132.107 257.685 C 132.200 257.329,132.200 256.745,132.107 256.389 C 132.014 256.032,131.938 256.324,131.938 257.037 " stroke="none" fill="#d86e8a" fill-rule="evenodd"></path><path id="path8" d="M296.944 295.027 C 295.560 295.778,295.644 296.091,297.037 295.370 C 297.648 295.054,298.148 294.717,298.148 294.620 C 298.148 294.382,298.108 294.395,296.944 295.027 M293.431 315.451 C 293.994 315.536,294.827 315.534,295.283 315.446 C 295.738 315.358,295.278 315.288,294.259 315.291 C 293.241 315.294,292.868 315.366,293.431 315.451 " stroke="none" fill="#747474" fill-rule="evenodd"></path></g></svg>