<svg width="595" height="676" viewBox="0 0 595 676" fill="none" xmlns="http://www.w3.org/2000/svg">
<circle cx="537.32" cy="537.518" r="381.923" transform="rotate(39.1631 537.32 537.518)" fill="url(#paint0_linear_1977_8570)"/>
<circle cx="168.5" cy="631.5" r="79.5" fill="url(#paint1_linear_1977_8570)"/>
<mask id="mask0_1977_8570" style="mask-type:alpha" maskUnits="userSpaceOnUse" x="89" y="552" width="159" height="159">
<circle r="79.5" transform="matrix(1 0 0 -1 168.5 631.5)" fill="url(#paint2_linear_1977_8570)"/>
</mask>
<g mask="url(#mask0_1977_8570)">
<rect width="93.7152" height="14.7417" rx="7.37086" transform="matrix(1 0 0 -1 171.133 584.643)" fill="url(#paint3_linear_1977_8570)"/>
<rect width="120.04" height="14.7417" rx="7.37086" transform="matrix(1 0 0 -1 144.808 641.504)" fill="url(#paint4_linear_1977_8570)"/>
<rect width="14.7417" height="14.7417" rx="7.37086" transform="matrix(1 0 0 -1 143.755 584.643)" fill="#FCFCFC"/>
</g>
<path d="M91 530.806C91 289.565 286.565 94 527.806 94" stroke="#41BEE8" stroke-width="10" stroke-linecap="round"/>
<defs>
<linearGradient id="paint0_linear_1977_8570" x1="538.163" y1="155.596" x2="538.163" y2="919.441" gradientUnits="userSpaceOnUse">
<stop stop-color="#88C5D9"/>
<stop offset="1" stop-color="#82F8ED"/>
</linearGradient>
<linearGradient id="paint1_linear_1977_8570" x1="219.51" y1="573.333" x2="113.062" y2="689.79" gradientUnits="userSpaceOnUse">
<stop stop-color="#FF6C96"/>
<stop offset="1" stop-color="#FFD166"/>
</linearGradient>
<linearGradient id="paint2_linear_1977_8570" x1="130.51" y1="21.3328" x2="24.0617" y2="137.79" gradientUnits="userSpaceOnUse">
<stop stop-color="#FF6C96"/>
<stop offset="1" stop-color="#FFD166"/>
</linearGradient>
<linearGradient id="paint3_linear_1977_8570" x1="0" y1="7.37086" x2="93.7152" y2="7.37086" gradientUnits="userSpaceOnUse">
<stop stop-color="#FCFCFC"/>
<stop offset="1" stop-color="#FF6C96"/>
</linearGradient>
<linearGradient id="paint4_linear_1977_8570" x1="0" y1="7.37086" x2="120.04" y2="7.37086" gradientUnits="userSpaceOnUse">
<stop stop-color="#FCFCFC"/>
<stop offset="1" stop-color="#FF6C96"/>
</linearGradient>
</defs>
</svg>
