<svg id="ea8020f2-ab31-444c-990e-b685a608c7fc" data-name="Layer 1" xmlns="http://www.w3.org/2000/svg" xmlns:xlink="http://www.w3.org/1999/xlink" viewBox="0 0 779.03 634.92"><defs><style>.aee42ae2-d68a-435d-8d46-fcd06e5f033c{fill:none;}.ee3e5098-5d9e-45b5-9b35-8097cbc44239{fill:#1ad3bd;}.e2f099b3-259f-44fe-bc66-396256358152{fill:#04bfad;}.b6d71f7a-1098-4c58-887b-eda591bb50b6{fill:#059b89;}.ba11261f-913c-4a4a-b01c-a4a9ea12831e{fill:#fcfcfc;}.ad04f37b-1ef6-4890-a1d7-d5a6c062ea7c{fill:#ff6c96;}.bc47ff20-d0d1-4e84-9cb6-e3d9c8556d52{fill:#ef476f;}.b41ca556-745c-41dd-828f-534f2113bbf5{fill:#ffd166;}.b51c37ae-d710-4a3c-8e62-72c10a05dcc9{fill:#d13462;}.bd525750-283d-4d46-95cf-88b536b0293b{fill:#f9cd87;}.a64c3dd1-e303-4c2f-9a41-90e0f867af5e{fill:#edb74c;}.bce0d6b4-871f-4bb0-89fd-5178e2d012c8{clip-path:url(#f3a80ef4-051e-4e88-98da-a6f145e1cd96);}</style><clipPath id="f3a80ef4-051e-4e88-98da-a6f145e1cd96" transform="translate(-136.78 -194.67)"><rect class="aee42ae2-d68a-435d-8d46-fcd06e5f033c" width="1080" height="1080"/></clipPath></defs><title>Logo Transporter</title><polygon class="ee3e5098-5d9e-45b5-9b35-8097cbc44239" points="779.03 387.31 770.38 392.31 767.12 394.2 758.46 399.2 749.79 404.2 741.13 409.2 732.47 414.2 723.81 419.2 715.15 424.2 697.84 434.2 689.17 439.2 680.51 444.2 671.85 449.2 663.19 454.2 654.53 459.2 645.88 464.2 637.22 469.2 619.89 479.2 611.23 484.2 602.58 489.2 593.91 494.2 585.25 499.2 576.59 504.2 567.92 509.2 559.26 514.2 550.6 519.2 541.94 524.2 533.28 529.2 524.63 534.2 515.97 539.2 498.64 549.2 489.98 554.2 482.44 558.55 473.79 563.55 472.54 564.27 471.3 563.55 462.63 558.55 460.25 557.17 451.58 552.17 442.93 547.17 434.26 542.17 425.6 537.17 416.94 532.17 408.29 527.17 399.63 522.17 390.96 517.17 373.64 507.17 364.99 502.17 356.32 497.17 347.66 492.17 338.99 487.18 330.33 482.18 321.68 477.18 313.01 472.18 304.36 467.18 295.69 462.18 287.04 457.18 278.38 452.18 275.99 450.8 267.33 445.8 258.68 440.8 250.01 435.8 241.35 430.8 232.69 425.8 224.03 420.8 215.37 415.8 206.7 410.8 198.04 405.8 189.38 400.8 180.72 395.8 172.06 390.8 163.41 385.8 146.09 375.8 137.43 370.8 128.76 365.8 120.11 360.8 111.44 355.8 102.78 350.8 94.13 345.8 92.88 345.08 84.22 340.08 85.47 339.36 94.13 334.36 96.83 332.8 105.48 327.8 114.14 322.8 131.47 312.8 140.13 307.8 148.78 302.8 148.78 351.13 157.44 346.13 166.1 341.13 174.76 336.13 176.01 335.41 175.66 336.11 184.38 341.14 188.16 343.33 194.56 347.02 203.22 352.02 211.88 357.02 220.53 362.02 229.19 367.02 233.06 369.25 241.72 374.25 245.56 376.47 254.22 371.47 262.88 366.47 271.55 361.47 280.2 356.47 289.11 351.33 290.25 361.27 291.4 371.2 292.41 379.88 293.56 389.81 293.68 390.81 293.72 391.08 293.79 391.34 293.87 391.59 293.95 391.82 294.06 392.04 294.18 392.23 294.32 392.41 294.47 392.57 294.64 392.71 294.82 392.82 295 392.91 299.77 394.7 299.97 394.77 300.18 394.81 300.39 394.83 300.62 394.83 300.83 394.8 300.79 394.86 300.66 395.04 300.56 395.22 300.49 395.41 300.44 395.6 300.43 395.78 300.43 395.99 300.43 404.52 300.43 404.53 300.43 404.6 300.43 404.79 300.43 404.84 300.43 404.85 300.45 404.98 300.5 405.17 300.58 405.35 300.69 405.53 300.82 405.7 300.97 405.86 301.15 406.02 301.35 406.16 301.56 406.3 310.22 411.3 318.88 416.3 327.55 421.3 336.2 426.3 353.52 436.3 362.18 441.3 370.85 446.3 379.5 451.3 388.16 456.3 396.82 461.3 405.48 466.3 414.14 471.3 417.13 473.02 425.79 478.02 434.44 483.02 443.1 488.02 446.68 490.08 451.39 492.8 451.63 492.93 451.88 493.04 452.15 493.14 452.43 493.23 452.73 493.31 453.04 493.37 453.35 493.41 453.68 493.44 454 493.46 454.32 493.46 454.65 493.45 454.98 493.42 455.31 493.38 455.63 493.32 455.94 493.25 456.25 493.17 456.55 493.07 456.82 492.96 457.08 492.84 457.33 492.7 474.65 482.7 483.31 477.7 491.97 472.7 500.63 467.7 509.3 462.7 517.96 457.7 522.91 454.84 531.58 449.84 540.23 444.84 548.89 439.84 566.22 429.84 574.88 424.84 583.53 419.84 589.51 416.39 598.17 411.39 606.84 406.39 624.15 396.39 632.81 391.39 641.47 386.39 650.13 381.39 655.1 378.53 655.33 378.38 655.53 378.23 655.72 378.07 655.89 377.9 656.04 377.73 656.16 377.54 656.26 377.36 656.34 377.17 656.38 376.99 656.38 376.98 656.41 376.79 656.41 367.98 656.4 367.79 656.38 367.6 656.33 367.42 656.25 367.23 656.13 367.06 656 366.89 655.85 366.72 655.68 366.57 655.48 366.42 655.26 366.28 650.54 363.56 641.88 358.56 633.22 353.56 624.56 348.56 621 346.5 612.35 341.5 603.68 336.5 595.02 331.5 586.37 326.5 577.69 321.5 569.03 316.5 560.38 311.5 551.72 306.5 534.39 296.5 525.73 291.5 517.08 286.5 508.42 281.5 505.43 279.78 505.2 279.66 504.94 279.54 504.68 279.44 504.39 279.35 504.1 279.28 503.8 279.22 503.48 279.17 503.15 279.14 502.83 279.12 502.5 279.12 502.18 279.13 501.85 279.16 501.51 279.21 501.19 279.26 500.88 279.33 500.75 279.37 500.93 279.18 501.12 278.95 501.3 278.7 501.46 278.43 501.63 278.16 501.77 277.87 501.9 277.58 502.01 277.28 502.12 276.98 502.19 276.67 502.26 276.37 502.31 276.06 502.35 275.76 502.35 275.46 502.35 275.17 502.32 274.89 501.18 264.95 501.07 264.15 499.93 254.21 498.77 244.28 497.9 236.76 496.75 226.83 496.43 224.16 498.27 225.22 506.93 230.22 515.6 235.22 524.25 240.22 532.91 245.22 541.58 250.22 550.23 255.22 558.89 260.22 576.22 270.22 584.88 275.22 587.26 276.6 595.92 281.6 604.59 286.6 621.9 296.6 630.56 301.6 639.22 306.6 647.88 311.6 656.54 316.6 665.21 321.6 682.52 331.6 691.18 336.6 699.85 341.6 708.51 346.6 717.17 351.6 725.84 356.6 734.5 361.59 743.15 366.59 751.81 371.59 760.47 376.59 769.13 381.59 770.38 382.31 779.03 387.31"/><path class="e2f099b3-259f-44fe-bc66-396256358152" d="M608.07,758.22l-8.66-5L597,751.84l-8.66-5-8.66-5-8.66-5-8.66-5-8.66-5-8.66-5-8.66-5-8.66-5-17.32-10-8.66-5-8.66-5-8.66-5-8.67-5-8.66-5-8.66-5-8.66-5-8.66-5-8.66-5-8.66-5-8.66-5-2.38-1.38-8.66-5-8.66-5-8.66-5-8.66-5-8.66-5-8.66-5-8.67-5-8.66-5-8.66-5-8.66-5-8.66-5-8.66-5-8.66-5-17.32-10-8.66-5-8.66-5-8.66-5-8.66-5-8.66-5-8.66-5-1.25-.72-8.66-5v70.64l8.66,5,1.25.72,8.66,5,8.66,5,8.66,5,8.66,5,8.66,5,8.66,5,17.32,10,8.66,5,8.66,5,8.66,5,8.66,5,8.66,5,8.66,5,8.67,5,8.66,5,8.66,5,8.66,5,8.66,5,8.66,5,8.66,5,2.38,1.38,8.66,5,8.66,5,8.66,5,8.66,5,8.66,5,8.66,5,8.66,5,8.67,5,8.66,5,8.66,5,8.66,5,17.32,10,8.66,5,8.66,5,8.66,5,8.66,5,8.66,5,8.66,5,8.66,5,8.66,5,2.39,1.38,8.66,5,1.24.72V758.94Zm-8.66,53.89-8.67-5-17.32-10-8.66-5-8.66-5-8.66-5-8.66-5-8.66-5-8.66-5-8.66-5-17.32-10-8.66-5-8.66-5-8.66-5-8.66-5-8.66-5-17.32-10-8.66-5-8.66-5-2.39-1.38-8.66-5-17.32-10-8.66-5-8.66-5-8.66-5-8.66-5-8.66-5-8.66-5-8.66-5-17.32-10-8.66-5-8.66-5-8.66-5-8.66-5-8.66-5-17.32-10-8.66-5-8.66-5-2.39-1.38V552.23l8.66,5,8.66,5,8.66,5,8.66,5,8.66,5,8.66,5,17.32,10,8.66,5,8.66,5,8.66,5,8.66,5,8.66,5,17.32,10,8.67,5,8.66,5,8.66,5,8.66,5,8.66,5,8.66,5,2.38,1.37,8.66,5,8.66,5,8.66,5,8.66,5,8.66,5,8.66,5,8.66,5,8.67,5,8.66,5,8.66,5,8.66,5,17.32,10,8.66,5,8.66,5,8.66,5,8.66,5,8.66,5,8.66,5,8.66,5,8.66,5,2.39,1.38Z" transform="translate(-136.78 -194.67)"/><path class="b6d71f7a-1098-4c58-887b-eda591bb50b6" d="M907.15,587l-3.26,1.89-8.66,5-8.66,5-8.66,5-8.66,5-8.66,5-8.66,5-17.32,10-8.66,5-8.66,5-8.66,5-8.66,5-8.66,5-8.66,5-8.66,5-17.32,10-8.66,5-8.66,5-8.66,5-8.66,5-8.67,5-8.66,5-8.66,5-8.66,5-8.66,5-8.66,5-8.66,5-8.66,5-17.32,10-8.66,5-7.54,4.35-8.66,5-1.25.72v70.65l8.66-5,1.25-.72,8.66-5,8.66-5,8.66-5,8.66-5,17.32-10,8.66-5,8.66-5,8.66-5,8.66-5,8.66-5,17.32-10,8.66-5,8.66-5,8.66-5,8.66-5,8.66-5,8.66-5,8.66-5,8.67-5,8.66-5,8.66-5,8.66-5,8.66-5,17.32-10,8.66-5,8.66-5,8.66-5,8.66-5,8.66-5,7.54-4.36,8.66-5,3.26-1.88V582Zm-3.26,60.77-8.66,5-8.66,5-8.66,5-8.66,5-8.66,5-8.66,5-17.32,10-8.66,5-8.66,5-8.66,5-8.66,5-8.66,5-8.66,5-8.66,5-17.32,10-8.66,5-8.66,5-8.66,5-8.66,5-8.67,5-8.66,5-8.66,5-8.66,5-8.66,5-8.66,5-8.66,5-8.66,5-17.32,10-8.66,5-7.54,4.36V765l8.66-5,8.66-5,8.66-5,8.66-5,17.32-10,8.66-5,8.66-5,8.66-5,8.66-5,8.66-5,17.32-10,8.66-5,8.66-5,8.66-5,8.66-5,8.66-5,8.66-5,8.66-5,8.67-5,8.66-5,8.66-5,8.66-5,8.66-5,17.32-10,8.66-5,8.66-5,8.66-5,8.66-5,8.66-5,7.54-4.35Z" transform="translate(-136.78 -194.67)"/><polygon class="ba11261f-913c-4a4a-b01c-a4a9ea12831e" points="767.12 405.96 767.12 453.08 758.46 458.08 749.79 463.08 741.13 468.08 732.47 473.08 723.81 478.08 715.15 483.08 697.84 493.08 689.17 498.08 680.51 503.08 671.85 508.08 663.19 513.08 654.53 518.08 645.88 523.08 637.22 528.08 619.89 538.08 611.23 543.08 602.58 548.08 593.91 553.08 585.25 558.08 576.59 563.08 567.92 568.08 559.26 573.08 550.6 578.08 541.94 583.08 533.28 588.08 524.63 593.08 515.97 598.08 498.64 608.08 489.98 613.08 482.44 617.44 482.44 570.31 491.1 565.31 499.76 560.31 508.43 555.31 517.09 550.31 534.4 540.31 543.06 535.31 551.72 530.31 560.38 525.31 569.04 520.31 577.71 515.31 595.02 505.31 603.68 500.31 612.34 495.31 621 490.31 629.66 485.31 638.33 480.31 646.98 475.31 655.64 470.31 664.31 465.31 672.97 460.31 681.63 455.31 690.29 450.31 698.96 445.31 716.27 435.31 724.93 430.31 733.59 425.31 742.25 420.31 750.91 415.31 759.58 410.31 767.12 405.96"/><polygon class="ba11261f-913c-4a4a-b01c-a4a9ea12831e" points="462.63 570.31 462.63 617.44 453.96 612.44 436.64 602.44 427.98 597.44 419.32 592.44 410.66 587.44 402 582.44 393.34 577.44 384.68 572.44 376.02 567.44 358.7 557.44 350.04 552.44 341.38 547.44 332.72 542.44 324.06 537.44 315.4 532.44 298.08 522.44 289.42 517.44 280.76 512.44 278.37 511.06 269.71 506.06 252.39 496.06 243.73 491.06 235.07 486.06 226.41 481.06 217.75 476.06 209.09 471.06 200.43 466.06 191.77 461.06 174.45 451.06 165.79 446.06 157.13 441.06 148.47 436.06 139.81 431.06 131.15 426.06 113.83 416.06 105.17 411.06 96.51 406.06 94.12 404.68 94.12 357.56 102.78 362.56 111.44 367.56 120.1 372.56 128.76 377.56 137.42 382.56 146.08 387.56 163.4 397.56 172.06 402.56 180.72 407.56 189.38 412.56 198.04 417.56 206.7 422.56 224.02 432.56 232.69 437.56 241.35 442.56 250.01 447.56 258.67 452.56 267.33 457.56 275.99 462.56 278.37 463.93 287.03 468.93 295.69 473.93 304.35 478.93 313.01 483.93 321.67 488.93 330.33 493.93 338.99 498.93 347.66 503.93 356.32 508.93 364.98 513.93 373.64 518.93 390.96 528.93 399.62 533.93 408.28 538.93 416.94 543.93 425.6 548.93 434.26 553.93 442.92 558.93 451.58 563.93 460.24 568.93 462.63 570.31"/><path class="ad04f37b-1ef6-4890-a1d7-d5a6c062ea7c" d="M793.18,562.46l0-.19,0-.18-.08-.19-.11-.17-.13-.17-.15-.17-.17-.15-.2-.15L792,561l-4.72-2.72-8.66-5-8.66-5-8.66-5-3.56-2.06-8.66-5-8.66-5-8.66-5-8.66-5-8.67-5-8.66-5-8.66-5-8.66-5-17.32-10-8.66-5-8.66-5-8.66-5-3-1.72-.23-.12-.26-.12-.26-.1-.29-.09-.29-.07-.31-.06-.31-.05-.33,0-.32,0H639l-.33,0-.33.05-.32.05-.31.07-.14,0L437.61,589.47l-.05.06-.12.18-.1.18-.07.19,0,.19,0,.18v.21l0,.18,0,.19.08.18.11.18.13.17.15.16.18.15.19.15.22.14,8.66,5,8.66,5,8.66,5,8.66,5,17.32,10,8.66,5,8.66,5,8.66,5,8.66,5,8.66,5,8.66,5,8.66,5,3,1.72,8.66,5,8.66,5,8.66,5,3.57,2.06,4.72,2.72.23.13.26.11.27.1.28.09.3.07.3.06.32,0,.32,0,.32,0h.66l.33,0,.33,0,.32-.06.31-.07.3-.09.3-.09.28-.11.26-.13.25-.13,17.32-10,8.66-5,8.66-5,8.66-5,8.66-5,8.66-5,5-2.86,8.66-5,8.66-5,8.66-5,17.32-10,8.66-5,8.66-5,6-3.45,8.66-5,8.66-5,17.32-10,8.66-5,8.66-5,8.66-5,5-2.86.23-.15.21-.15.19-.16.17-.17.15-.18.12-.18.1-.18.07-.19,0-.19,0-.19Zm-95.06-33.79.42.25,8.66,5v2.37l-7.4,4.28-8.66,5-.43-.25-8.66-5V538l7.4-4.28Zm5.51,17.87,3.57,2.07V551l-.42.25-8.66,5-3.58-2.06v-2.25L692.6,553,689,551v-2.37l.42-.25,8.67-5,3.57,2.06v2.25ZM521.18,589.13v-2.37l.43-.25,8.66-5,.42.25,8.66,5v2.37l-.42.25-8.66,5-.43-.25Zm5.45,5v2.38l-.43.24-8.66,5-.42-.24-8.66-5V594.1l.42-.25,8.66-5,.43.25Zm142.7-46.43v-2.38l.42-.25,8.67-5,.42.25,8.66,5v2.38l-.42.24-8.66,5-.43-.24Zm5.45,5V555l-9.09,5.25L656.61,555v-2.38l.42-.24,8.66-5,.43.24ZM680.52,537l-.42.24-8.66,5L671,542l-8.66-5v-2.38l.43-.25,8.66-5,.42.25,8.66,5Zm-12.72,5v2.38l-.42.25-8.66,5-.43-.25-8.66-5V542l.42-.24,8.67-5,.42.24ZM566.32,577.76v-2.38l.43-.24,8.66-5,.42.24,8.66,5v2.38l-.42.24-8.66,5-.43-.24Zm5.45,5v2.37l-.42.25-8.66,5-.43-.25-8.66-5v-2.37l.43-.25,8.66-5,.42.25Zm50.89-29.38v2.37l-.43.25-8.66,5-.42-.25-8.66-5v-2.37l.42-.25,8.66-5,.43.25Zm-5.45-5V546l.42-.24,8.66-5,.43.24,8.66,5v2.38l-.43.25-8.66,5-.42-.24Zm-7.27,12.31v2.38l-.43.24-8.66,5-.43-.24-8.66-5v-2.38l.43-.24,8.66-5,.43.24ZM597.22,568v2.37l-.43.25-8.66,5-.43-.25-8.66-5V568l.43-.25,8.66-5,.43.25ZM573.3,586l.43-.24,8.66-5,.42.24,8.66,5v2.38l-.42.24-8.66,5-.43-.24-8.66-5Zm12.72-5V578.7l.43-.25,8.66-5,.42.25,8.66,5v2.37l-.42.25-8.66,5-.43-.25Zm12.72-7.34v-2.38l.43-.24,8.66-5,.43.24,8.66,5v2.38l-.43.24-8.66,5-.43-.24Zm12.72-7.35V564l.43-.25,8.66-5,.43.25,8.66,5v2.37l-.43.25-8.66,5-.43-.25ZM624.19,559v-2.38l.42-.24,8.66-5,.43.24,8.66,5V559l-.43.25-8.66,5-.42-.25Zm12.72-7.35v-2.37l.42-.25,8.66-5,.43.25,8.66,5v2.37L646,556.94Zm23.91-18-9.08,5.25-9.09-5.25v-2.38l.43-.24,8.66-5,.42.24,8.66,5Zm-12.72,5V541l-.42.25-8.66,5L629.93,541v-2.37l.42-.25,8.67-5,.42.25Zm-7-8.29-.42.25-8.66,5-.43-.25-8.66-5V528l.43-.25,8.66-5,.42.25,8.66,5Zm-12.72,5v2.38L628,538l-8.66,5-.43-.24-8.66-5v-2.38l.42-.24,8.67-5,.42.24Zm-12.72,7.35v2.37l-.43.25-8.66,5-.42-.25-8.66-5v-2.37l.42-.25,8.66-5,.43.25ZM603,550v2.38l-.43.24-8.66,5-.42-.24-8.66-5V550l.42-.24,8.66-5,.43.24Zm-12.72,7.35v2.37l-.43.25-8.66,5-.43-.25-8.66-5v-2.37l.43-.25,8.66-5,.43.25Zm-12.72,7.34v2.38l-.43.24-8.66,5-.43-.24-8.66-5v-2.38l.43-.24,8.66-5,.43.24Zm-12.73,7.35v2.37l-.42.25-8.66,5-.43-.25-8.66-5v-2.37l.43-.25,8.66-5,.42.25Zm-12.72,7.34v2.38l-.42.24L543,587l-.43-.24-8.66-5v-2.38l.43-.25,8.66-5,.42.25Zm-23.91,18,.42-.25,8.66-5,.43.25,8.66,5v2.37l-.43.25-8.66,5-.42-.25-8.66-5Zm12.72-5v-2.38l.43-.25,8.66-5,.42.25,8.66,5v2.38l-.42.24-8.66,5-.43-.24Zm7,8.28.42-.25,8.66-5,.43.24,8.66,5v2.38l-.43.24-8.66,5-.42-.24-8.66-5Zm12.72-5v-2.37l.43-.25,8.66-5,.42.25,8.66,5v2.37l-.42.25-8.66,5-.43-.25Zm7,8.29.42-.25,8.66-5,.43.25,8.66,5v2.37l-.43.25-8.66,5-.42-.25-8.66-5Zm12.72-5V596.7l.43-.24,8.66-5,.42.24,8.66,5v2.38l-.42.24-8.66,5-.43-.24ZM593,591.73v-2.37l.43-.25,8.66-5,.42.25,8.66,5v2.37l-.42.25-8.66,5-.43-.25Zm12.72-7.34V582l.43-.24,8.66-5,.42.24,8.66,5v2.38l-.42.24-8.66,5-.43-.24ZM618.44,577v-2.37l.43-.25,8.66-5,.43.25,8.66,5V577l-.43.25-8.66,5-.43-.25Zm12.72-7.34v-2.38l.43-.24,8.66-5,.43.24,8.66,5v2.38l-.43.25-8.66,5-.43-.25Zm12.73-7.35V560l.42-.25,8.66-5,.43.25,8.66,5v2.37L653,567.6l-.42-.25Zm7,8.29.43-.25,8.66-5,.43.25,8.66,5V573l-.43.25-8.66,5-.43-.25-8.66-5Zm12.73-5v-2.38l.42-.24,8.66-5,.43.24,8.66,5v2.38l-.43.25-8.66,5-.42-.25Zm12.72-7.34V556l.42-.25,8.66-5,.43.25,8.66,5v2.38l-.43.24-8.66,5-.42-.24Zm9.51-36.76,8.66,5V529l-1.66,1-8.66,5-.43-.25-8.66-5v-2.38l1.66-.95,8.66-5ZM672.67,514l.43.25,8.66,5v2.37l-17.3,10-9.09-5.25V524l8.64-5Zm-12.29-7.1,8.66,5v2.38l-7,4-8.66,5-8.66,5-.43-.25-8.66-5v-2.38l7-4,8.66-5,8.66-5Zm-32.92,9,7-4,17.32-10,4.55,2.62v2.38l-24.28,14-4.55-2.62Zm-12.72,7.35.43-.25,8.66-5,4.54,2.63V523l-.42.25-8.66,5-4.55-2.63ZM602,530.6l.42-.24,8.66-5,4.55,2.62v2.38l-.42.24-8.66,5L602,533ZM589.3,538l.42-.25,8.66-5,4.55,2.63v2.37l-.43.25-8.66,5-4.54-2.63Zm-12.72,7.34.42-.24,8.66-5,4.55,2.62v2.38l-.43.24-8.66,5-4.54-2.62Zm-12.73,7.35.43-.25,8.66-5,4.55,2.63v2.37l-.43.25-8.66,5L563.85,555ZM551.13,560l.43-.25,8.66-5,4.55,2.63v2.38l-.43.24-8.66,5-4.55-2.62Zm-12.72,7.35.43-.25,8.66-5,4.55,2.63v2.37l-.43.25-8.66,5-4.55-2.63Zm-12.72,7.34.43-.25,8.66-5,4.54,2.63v2.38l-.42.24-8.66,5-4.55-2.62ZM513,582l.42-.25,8.66-5,4.55,2.62v2.38l-.42.25-8.66,5L513,584.39Zm-12.72,7.34.42-.25,8.66-5,4.55,2.63v2.37l-.43.25-8.66,5-4.54-2.62ZM490,597.65v-2.37l6.61-3.82,4.55,2.62v2.38l-6.62,3.82Zm17.29,10-.42-.25-8.66-5V600l6.61-3.82.43.24,8.66,5v2.38Zm12.3,7.1-8.66-5v-2.38l4.93-2.85,8.66-5,.43.25,8.66,5v2.38L528.68,610,520,615Zm13.15,7.59-.43-.25-8.66-5v-2.37l3.25-1.88,8.66-5,8.66-5,.43.25,8.66,5v2.37l-3.25,1.88-8.66,5Zm12.29,7.1-8.66-5v-2.38l1.57-.9,8.66-5,8.66-5,8.66-5,.43.24,8.66,5v2.38l-1.57.9-8.66,5-8.66,5-8.66,5Zm22.24,2.34-.43.25-8.66,5-.43-.25-8.66-5V629.4l.43-.25,8.66-5,.43.25,8.66,5ZM580,624.43l-.43.24-8.66,5-.43-.24-8.66-5v-2.38l.43-.24,8.66-5,.43.24,8.66,5Zm12.72-7.35-.43.25-8.66,5-.42-.25-8.66-5v-2.37l.42-.25,8.66-5,.43.25,8.66,5Zm12.72-7.34L605,610l-8.66,5-.42-.24-8.66-5v-2.38l.42-.24,8.66-5,.43.24,8.66,5Zm12.3-7.1-8.66,5-.43-.25-8.66-5V600l3.95-2.28,8.66-5,8.66-5,8.66-5,8.66-5,8.66-5,.43.24,8.66,5v2.38l-4,2.28-8.66,5-8.66,5Zm99.26-3.8-17.32,10-8.66,5-8.66,5-8.67,5-17.32,10-4.28,2.47-8.66-5-8.66-5-8.66-5-1.86-1.08-1.7-1,8.66-5,8.66-5,17.32-10,8.66-5,8.66-5,8.66-5,6-3.45,8.66,5,8.66,5,8.66,5,3.57,2.06Zm2.93-55.2-.42.24-8.66,5-.43-.24-8.66-5v-2.38l.43-.25,8.66-5,.42.25,8.66,5Z" transform="translate(-136.78 -194.67)"/><polygon class="bc47ff20-d0d1-4e84-9cb6-e3d9c8556d52" points="581.91 403.19 580.21 404.17 578.34 403.09 569.68 398.09 561.02 393.09 552.36 388.09 552.36 386.13 561.02 391.13 569.68 396.13 578.34 401.13 581.91 403.19"/><polygon class="b41ca556-745c-41dd-828f-534f2113bbf5" points="580.21 404.17 562.89 414.17 554.23 419.17 545.57 424.17 536.9 429.17 519.58 439.17 515.3 441.64 506.64 436.64 497.98 431.64 489.32 426.64 487.46 425.56 496.12 420.56 504.78 415.56 513.44 410.56 522.1 405.56 530.76 400.56 539.42 395.56 548.08 390.56 552.36 388.09 561.02 393.09 569.68 398.09 578.34 403.09 580.21 404.17"/><polygon class="b51c37ae-d710-4a3c-8e62-72c10a05dcc9" points="552.37 386.13 552.37 388.09 548.09 390.56 539.42 395.56 530.76 400.56 522.1 405.56 513.44 410.56 504.79 415.56 496.13 420.56 487.46 425.56 485.76 424.58 494.43 419.58 503.08 414.58 520.4 404.58 529.06 399.58 537.72 394.58 546.38 389.58 552.37 386.13"/><path class="b51c37ae-d710-4a3c-8e62-72c10a05dcc9" d="M639.12,469.84l0-.28L638,459.62l-.1-.8-1.15-9.94L635.55,439l-.87-7.52-1.16-9.93-.31-2.67-1.15-9.94L630.91,399,629.75,389l-1.15-9.94-1.15-9.93-1.16-9.93-1.15-9.94L624,339.36l-1.16-9.93-1.15-9.94-.86-7.38-1.15-9.93-.12-1,0-.27-.06-.26-.07-.25-.09-.23-.11-.22-.13-.19-.14-.18-.15-.16-.16-.14-.18-.11-.19-.09L618,299l-.2-.05-.22,0h-.22l-.22,0-.23,0-.22.07-.23.1-.23.12-8.66,5L601.3,308,584,318l-8.66,5-8.66,5L558,333l-8.66,5L541,342.76l-8.66,5-8.66,5-17.32,10-8.66,5-8.66,5-8.66,5-8.66,5-8.66,5-3.16,1.82-5.66,3.27-17.32,10-3.81,2.2-8.66,5-6.3,3.64-.22.14-.22.16-.22.18-.21.2-.2.22-.19.24-.18.25-.17.26-.16.27-.15.29-.13.29-.11.3-.1.3-.08.31-.07.31-.05.3,0,.31v.58l0,.29.38,3.24.89,7.69,1.15,9.93,1.16,9.94,1.15,9.93.17,1.46.77,6.64,1.15,9.94,1.16,9.93,1.15,9.93,1.15,9.94,1.16,9.93,1.15,9.93,1.15,9.94.73,6.27,1.15,9.94,1.16,9.93,1.15,9.93.37,3.19,1.15,9.93.1.81,0,.27.06.26.07.25.1.23.1.22.13.2.14.17.15.16.17.14.17.11.19.1.2.07.2,0,.22,0h.22l.22,0L637.52,474l.18-.19.19-.23.18-.25.17-.27.16-.27.15-.29.13-.29.11-.3.1-.3.08-.31.07-.3.05-.31,0-.3v-.59Zm-27.76,4.27-8.67,5-8.66,5-8.66,5-8.66,5-8.66,5-17.32,10-8.66,5-8.66,5-8.66,5-8.66,5-8.66,5-17.32,10-8.66,5-8.66,5-8.66,5-8.66,5-3.65,2.11-.21-1.78-2.3-19.86-1.16-9.94L448,533,446.81,523l-1.16-9.94-1.15-9.93-1.15-9.93-1.16-9.94-.61-5.26-1.15-9.94L440.3,467l-1.15-9.94-.1-.88-1.16-9.93-1.13-9.78-.77-6.64-.82-7-.38-3.33,8.66-5,.14-.08,5.66-3.27,8.66-5,8.14-4.7,8.66-5,8.66-5,8.66-5,8.66-5,8.66-5,8.66-5,8.66-5,.83-.47,3-1.73,4.12-2.38,8.66-5,8.66-5,17.32-10,8.66-5,8.66-5,8.66-5,6-3.49,1.71-1,1.16,9.94,1.15,9.93,1.15,9.93,1.16,9.94,1.15,9.93L609.9,382l1.16,9.94,1.15,9.93.6,5.17L614,417l1.16,9.93,1.15,9.94,1.15,9.93,1.16,9.93,1.15,9.94.29,2.46Z" transform="translate(-136.78 -194.67)"/><path class="ba11261f-913c-4a4a-b01c-a4a9ea12831e" d="M616.94,458.39l-1.15-9.93-1.15-9.93-1.16-9.94-2.3-19.86-.33-2.81L609.7,396l-1.16-9.93-1.15-9.93-1.15-9.94-1.16-9.93-1.15-9.93-1.15-9.94-1.16-9.93-.35-3.05-6,3.49-8.66,5-8.66,5-8.66,5-17.32,10-8.66,5-8.66,5-4.12,2.38-3,1.73-.83.47-8.66,5-8.66,5-8.66,5-8.66,5-8.66,5-8.66,5-8.66,5-8.14,4.7-8.66,5-5.66,3.27-.14.08-8.66,5,.38,3.33.82,7,.77,6.64,1.13,9.78,1.16,9.93.1.88L440.3,467l.13,1.08,1.15,9.94.61,5.26,1.16,9.94,1.15,9.93,1.15,9.93,1.16,9.94L448,533l.19,1.67,1.16,9.94,2.3,19.86,17.32-10,8.66-5,8.66-5,8.66-5,8.67-5,8.66-5,8.66-5,8.66-5,8.66-5,8.66-5,8.66-5,8.66-5,8.66-5,17.32-10,8.66-5,8.66-5,8.66-5,1.94-1.12Zm-153.2-8.51,8.66-5,8.66-5,8.66-5,8.67-5,8.52-4.92,8.66-5L520,417.4l.52,4.46,1.15,9.94.17,1.49-.37.22-8.66,5-8.66,5-8.66,5-8.66,5-1.72,1-8.66,5-1.39-.79-1.58-.9-8.7-4.93-3.14-1.78Zm.8,26.23-1.15-9.93-.08-.69-.75-6.45,6,3.41,2.16,1.23,8.7,4.93,4.05,2.3,8.7,4.93-2.13,1.23-8.66,5-8.66,5-1.83-1-5.58-3.17Zm47.78,13.54-8.66,5-8.66,5-8.66,5-8.66,5-8.66,5-.65-5.59-.27-2.35,1.26-2.66,4.3-9,8.62-5,8.66-5,8.66-5,6.11,3.47,8.7,4.93Zm12.87-14-4.3,9-6.11-3.47-8.7-4.93,6.49-3.74-7.41-4.2-6.49,3.74-6.11-3.47-8.7-4.93,8.62-5,17.32-10,6.11,3.47,8.7,4.93.69,6,1.16,9.93ZM588.72,439l-4.3,9-1.31.76-1.53.88-8.66,5L565,459.23l-8.66,5-8.66,5-8.66,5-7.41-4.2-.27-2.35-1.15-9.94L529,447.81l-1.11-9.56,3.58-7.5,1.6-3.36,4.29-9,2.92-6.14,4.3-9,3.25-1.88,8.66-5,8.66-5,1.52-.88,8.66-5,8.16-4.7.92,7.94-.75,1.57-.09.2-4.3,9-.42.89-8.62,5-8.66,5-8.66,5-1.69,3.55-4.3,9-.09.2-4.3,9-.74,1.57.69,6,1.15,9.94,5.91-3.42,8.66-5,1.52-.87,8.66-5,7.67-4.43,2.53-5.32,4.3-9,4.3-9,.46,4,2.3,19.86Zm-2.42-34.43-2.54,5.31-4.29,9-4.3,9-5.43,3.14-8.66,5-5.36,3.1-.77-6.65-.16-1.3,1.27-2.66,4.3-9,8.61-5,8.66-5Z" transform="translate(-136.78 -194.67)"/><polygon class="bc47ff20-d0d1-4e84-9cb6-e3d9c8556d52" points="483.25 274.44 481.32 273.65 480.17 263.72 479.01 253.79 477.87 243.86 476.7 233.92 474.4 214.06 474.07 211.25 472.93 201.31 471.76 191.38 470.62 181.45 469.46 171.51 468.31 161.58 467.15 151.65 466 141.71 464.85 131.78 464.5 128.73 466.2 127.74 467.37 137.68 468.51 147.61 469.67 157.54 470.82 167.48 471.97 177.41 473.13 187.34 474.29 197.28 475.43 207.21 476.04 212.38 477.18 222.31 478.35 232.24 479.5 242.18 480.64 252.11 481.81 262.04 482.95 271.98 483.25 274.44"/><polygon class="ad04f37b-1ef6-4890-a1d7-d5a6c062ea7c" points="483.25 274.44 474.58 279.44 465.92 284.44 457.25 289.44 448.6 294.44 439.93 299.44 431.27 304.44 413.95 314.44 405.3 319.44 396.63 324.44 387.97 329.44 379.31 334.44 370.65 339.44 353.33 349.44 344.68 354.44 336.01 359.44 327.36 364.44 318.69 369.44 315.05 371.55 314.83 369.77 332.15 359.77 340.81 354.77 349.47 349.77 358.13 344.77 366.81 339.77 375.46 334.77 384.13 329.77 392.79 324.77 401.44 319.77 410.1 314.77 418.76 309.77 427.43 304.77 436.08 299.77 453.4 289.77 462.06 284.77 470.72 279.77 479.38 274.77 481.32 273.65 483.25 274.44"/><polygon class="bc47ff20-d0d1-4e84-9cb6-e3d9c8556d52" points="299.77 394.7 295 392.91 294.82 392.82 294.64 392.71 294.47 392.57 294.32 392.41 294.18 392.23 294.06 392.04 293.95 391.82 293.86 391.59 293.78 391.34 293.72 391.08 293.68 390.81 293.56 389.81 292.41 379.88 291.4 371.2 290.25 361.27 289.1 351.33 288.26 344.11 287.1 334.17 285.95 324.24 285.47 320.11 284.32 310.18 283.17 300.25 282.69 296.13 282.56 295.05 281.41 285.11 280.88 280.54 280.11 273.89 279.74 270.75 278.59 260.81 277.43 250.88 276.28 240.95 275.38 233.18 275 229.93 274.92 229.18 274.13 222.43 274.11 222.15 274.1 221.86 274.12 221.56 274.15 221.26 274.19 220.95 274.26 220.65 274.34 220.34 274.44 220.04 274.56 219.74 279.32 221.52 279.21 221.82 279.11 222.12 279.03 222.43 278.96 222.74 278.91 223.04 278.88 223.35 278.87 223.64 278.88 223.93 278.9 224.22 279.28 227.46 280.17 235.15 281.32 245.08 282.48 255.02 283.63 264.95 283.8 266.41 284.57 273.05 285.72 282.99 286.88 292.92 288.03 302.85 289.18 312.79 290.34 322.72 291.49 332.65 292.64 342.59 293.37 348.86 294.52 358.8 295.68 368.73 296.83 378.66 297.2 381.85 298.35 391.78 298.45 392.59 298.49 392.86 298.55 393.12 298.62 393.37 298.72 393.6 298.82 393.82 298.95 394.02 299.09 394.19 299.24 394.35 299.41 394.49 299.58 394.6 299.77 394.7"/><polygon class="ad04f37b-1ef6-4890-a1d7-d5a6c062ea7c" points="481.25 104.34 481.05 104.29 480.83 104.27 480.61 104.27 480.39 104.3 480.16 104.35 479.94 104.42 479.71 104.52 479.48 104.64 470.82 109.64 464.52 113.28 447.2 123.28 438.54 128.28 429.88 133.28 421.22 138.28 412.56 143.28 404.22 148.09 395.56 153.09 386.9 158.09 369.58 168.09 360.92 173.09 352.26 178.09 343.6 183.09 334.94 188.09 326.28 193.09 323.12 194.91 317.46 198.18 300.14 208.18 296.33 210.38 287.67 215.38 281.37 219.02 281.15 219.16 280.93 219.32 280.71 219.5 280.5 219.7 280.3 219.92 280.11 220.16 279.93 220.41 279.76 220.67 279.6 220.94 279.45 221.23 279.32 221.52 274.56 219.74 274.69 219.45 274.83 219.16 274.99 218.89 275.16 218.62 275.34 218.38 275.53 218.14 275.73 217.92 275.94 217.72 276.16 217.54 276.38 217.38 276.61 217.23 282.4 213.89 282.9 213.6 291.56 208.6 294.61 206.84 303.27 201.84 311.93 196.84 320.59 191.84 326.25 188.57 334.39 183.87 343.05 178.87 346.69 176.77 355.35 171.77 364.01 166.77 372.67 161.77 381.33 156.77 398.65 146.77 407.31 141.77 416.45 136.49 425.12 131.49 433.78 126.49 442.44 121.49 451.1 116.49 459.76 111.49 466.05 107.86 474.71 102.86 474.94 102.74 475.17 102.64 475.4 102.57 475.62 102.52 475.85 102.49 476.07 102.49 476.28 102.51 476.48 102.55 476.68 102.62 481.25 104.34"/><polygon class="b41ca556-745c-41dd-828f-534f2113bbf5" points="148.81 219.63 148.81 222.31 148.79 229.23 148.78 234.23 148.78 278.07 139.83 277.63 129.85 277.14 89.89 275.18 79.91 274.69 39.95 272.73 29.97 272.24 19.98 271.75 9.99 271.26 0 270.77 0 212.32 9.99 212.81 29.97 213.79 39.95 214.28 59.93 215.26 60.59 215.3 70.58 215.79 80.57 216.28 90.55 216.77 100.54 217.26 110.53 217.75 114.21 217.93 124.2 218.42 124.4 218.43 134.38 218.92 144.37 219.41 148.81 219.63"/><polygon class="b41ca556-745c-41dd-828f-534f2113bbf5" points="148.95 161.18 148.93 170.79 148.91 180.79 148.88 190.46 148.87 195.58 148.85 203.87 148.85 204.31 148.83 213.47 148.81 219.63 144.37 219.41 134.38 218.92 124.4 218.43 124.2 218.42 114.21 217.93 110.53 217.75 100.54 217.26 90.55 216.77 80.57 216.28 70.58 215.79 60.59 215.3 59.93 215.26 39.95 214.28 29.97 213.79 9.99 212.81 0 212.32 0 153.87 0.66 153.91 10.65 154.4 20.64 154.89 30.63 155.38 40.61 155.87 60.59 156.85 64.27 157.03 74.26 157.52 84.25 158.01 94.23 158.5 114.21 159.48 118.99 159.71 128.98 160.2 138.96 160.69 148.95 161.18"/><polygon class="e2f099b3-259f-44fe-bc66-396256358152" points="148.81 220.63 0 213.32 0 211.32 148.82 218.63 148.81 220.63"/><polygon class="bd525750-283d-4d46-95cf-88b536b0293b" points="230.06 116.56 237.78 112.1 246.44 107.1 255.1 102.1 245.34 101.59 235.36 101.07 225.37 100.55 219.61 100.26 209.62 99.74 202.24 99.35 201.96 99.34 194.12 98.93 193.84 98.92 173.86 97.88 172.12 97.79 162.13 97.27 152.14 96.75 142.16 96.23 122.18 95.19 112.2 94.67 103.34 94.21 94.68 99.21 86.02 104.21 68.7 114.21 60.04 119.21 51.38 124.21 34.06 134.21 25.4 139.21 8.08 149.21 0 153.87 0.66 153.91 10.65 154.4 20.64 154.89 30.63 155.38 40.61 155.87 60.59 156.85 64.27 157.03 74.26 157.52 84.25 158.01 94.23 158.5 114.21 159.48 118.99 159.71 128.98 160.2 138.96 160.69 148.95 161.18 148.93 170.79 148.91 180.79 148.88 190.46 148.87 195.58 148.85 203.87 148.85 204.31 148.83 213.47 148.81 219.63 148.81 222.31 148.79 229.23 148.78 234.23 148.95 234.13 156.72 229.65 157.82 229.01 166.48 224.01 167.4 223.48 176.06 218.48 176.18 218.41 178.41 217.12 187.07 212.12 195.73 207.12 204.39 202.12 221.71 192.12 230.37 187.12 239.03 182.12 243.46 179.57 245.68 178.29 246.01 178.1 246.22 172.6 246.6 162.6 244.44 160 243.46 158.82 239.03 153.48 238.34 152.64 233.6 146.94 230.07 150 230.06 150.01 222.49 156.55 219.99 158.72 219.54 159.11 219.37 163.59 219.07 171.45 214.32 174.19 214.31 174.2 197 184.19 188.34 189.19 179.68 194.19 176.06 196.28 176.12 172.2 176.12 146.76 174.45 146.68 164.47 146.19 124.51 144.23 116.35 143.83 114.21 143.72 113.57 143.69 103.34 143.19 100.54 143.05 90.55 142.56 80.57 142.07 70.58 141.58 60.59 141.09 61.61 140.5 70.27 135.5 78.93 130.5 87.59 125.5 96.25 120.5 104.91 115.5 113.51 110.53 113.57 110.5 117.11 110.69 137.09 111.73 147.07 112.25 148.64 112.33 158.62 112.85 168.61 113.37 175.54 113.72 230.06 116.56"/><polygon class="b6d71f7a-1098-4c58-887b-eda591bb50b6" points="249.71 226.79 246.01 234.28 246.01 228.92 249.71 226.79"/><polygon class="b6d71f7a-1098-4c58-887b-eda591bb50b6" points="204.13 319.17 199.71 328.14 199.15 329.27 195.68 328.09 198.47 322.44 204.13 319.17"/><polygon class="a64c3dd1-e303-4c2f-9a41-90e0f867af5e" points="246.01 178.1 246.01 236.54 244.45 237.44 242.31 238.68 233.65 243.68 216.33 253.68 210.79 256.88 202.13 261.88 193.47 266.88 184.81 271.88 176.15 276.88 176.06 276.93 174.76 277.68 166.1 282.68 157.44 287.68 148.78 292.68 148.78 234.23 148.95 234.13 156.72 229.65 157.82 229.01 166.48 224.01 167.4 223.48 176.06 218.48 176.18 218.41 178.41 217.12 187.07 212.12 195.73 207.12 204.39 202.12 221.71 192.12 230.37 187.12 239.03 182.12 243.46 179.57 245.68 178.29 246.01 178.1"/><polygon class="a64c3dd1-e303-4c2f-9a41-90e0f867af5e" points="246.01 236.54 246.01 294.99 241.43 297.64 238.77 299.17 221.45 309.17 212.79 314.17 204.13 319.17 198.47 322.44 193.33 325.41 184.67 330.41 176.01 335.41 174.76 336.13 166.1 341.13 157.44 346.13 148.78 351.13 148.78 292.68 157.44 287.68 166.1 282.68 174.76 277.68 176.06 276.93 176.15 276.88 184.81 271.88 193.47 266.88 202.13 261.88 210.79 256.88 216.33 253.68 233.65 243.68 242.31 238.68 244.45 237.44 246.01 236.54"/><polygon class="e2f099b3-259f-44fe-bc66-396256358152" points="343.12 159.03 339.91 160.88 334.25 164.15 325.59 169.15 316.93 174.15 308.27 179.15 290.95 189.15 282.29 194.15 273.63 199.15 264.97 204.15 256.31 209.15 255.1 209.85 255.1 204.73 263.76 199.73 272.42 194.73 281.08 189.73 298.4 179.73 307.06 174.73 315.72 169.73 324.38 164.73 333.04 159.73 337.78 157 338.69 156.47 341.33 158 343.12 159.03"/><polygon class="a64c3dd1-e303-4c2f-9a41-90e0f867af5e" points="411.38 40.36 411.38 133.45 407.31 141.77 398.65 146.77 381.33 156.77 372.67 161.77 364.01 166.77 355.35 171.77 346.69 176.77 343.05 178.87 347.17 170.52 347.47 169.91 351.89 160.94 352.36 160 356.78 151.04 361.2 142.07 365.63 133.1 370.05 124.13 374.48 115.16 378.9 106.2 383.33 97.23 387.75 88.26 392.18 79.29 396.6 70.32 399.17 65.11 401.83 59.72 406.26 50.75 410.68 41.78 411.38 40.36"/><polygon class="bd525750-283d-4d46-95cf-88b536b0293b" points="411.38 40.36 403.43 44.95 394.77 49.95 389.45 53.02 380.79 58.02 372.13 63.02 363.75 67.86 355.09 72.86 346.43 77.86 337.77 82.86 320.45 92.86 311.79 97.86 303.13 102.86 294.47 107.86 285.81 112.86 280.03 116.19 272.42 120.59 263.76 125.59 255.1 130.59 255.1 116.92 263.86 111.86 272.52 106.86 281.18 101.86 288.94 97.38 295.24 93.75 298.19 92.04 306.85 87.04 315.51 82.04 324.17 77.04 332.83 72.04 341.49 67.04 347.1 63.81 352.46 60.71 361.12 55.71 369.85 50.67 378.51 45.67 382.94 43.11 380.01 41.43 371.35 36.43 362.69 31.43 354.03 26.43 345.37 21.43 336.71 16.43 332.06 19.11 323.74 23.92 315.08 28.92 306.42 33.92 297.76 38.92 289.1 43.92 280.44 48.92 271.78 53.92 263.12 58.92 254.46 63.92 237.14 73.92 228.48 78.92 219.82 83.92 211.16 88.92 202.5 93.92 193.84 98.92 173.86 97.88 172.12 97.79 177.65 94.59 186.31 89.59 194.97 84.59 203.63 79.59 212.29 74.59 220.95 69.59 238.27 59.59 246.93 54.59 255.59 49.59 264.25 44.59 272.91 39.59 281.57 34.59 290.23 29.59 298.89 24.59 316.21 14.59 324.87 9.59 332.83 5 341.49 0 344.66 1.84 353.32 6.84 353.99 7.22 356.25 8.52 364.91 13.52 373.57 18.52 382.23 23.52 390.89 28.52 399.55 33.52 402.72 35.36 411.38 40.36"/><polygon class="e2f099b3-259f-44fe-bc66-396256358152" points="385.75 69 381.64 77.69 377.36 86.73 373.08 95.77 368.8 104.8 364.52 113.84 360.24 122.88 355.96 131.92 351.68 140.95 347.4 149.99 343.12 159.03 341.33 158 338.69 156.47 340.61 152.41 344.89 143.37 349.17 134.33 353.45 125.3 357.73 116.26 362.01 107.22 366.29 98.18 370.57 89.14 374.85 80.11 377.99 73.48 385.75 69"/><polygon class="bd525750-283d-4d46-95cf-88b536b0293b" points="377.13 406.77 370.51 410.59 370.09 410.35 361.43 405.35 368.04 401.53 368.47 401.77 377.13 406.77"/><polygon class="bd525750-283d-4d46-95cf-88b536b0293b" points="389.85 399.43 381.19 404.43 380.76 404.68 380.34 404.43 371.68 399.43 372.1 399.18 380.76 394.18 381.19 394.43 389.85 399.43"/><polygon class="bd525750-283d-4d46-95cf-88b536b0293b" points="402.57 392.09 393.91 397.09 393.49 397.33 393.06 397.09 384.4 392.09 384.83 391.84 393.49 386.84 393.91 387.09 402.57 392.09"/><polygon class="bd525750-283d-4d46-95cf-88b536b0293b" points="415.29 384.74 406.63 389.74 406.21 389.99 405.78 389.74 397.12 384.74 397.55 384.49 406.21 379.49 406.63 379.74 415.29 384.74"/><polygon class="bd525750-283d-4d46-95cf-88b536b0293b" points="428.01 377.4 419.35 382.4 418.93 382.64 418.5 382.4 409.84 377.4 410.27 377.15 418.93 372.15 419.35 372.4 428.01 377.4"/><polygon class="bd525750-283d-4d46-95cf-88b536b0293b" points="440.75 370.05 432.08 375.05 431.65 375.3 431.22 375.05 422.56 370.05 423 369.81 431.65 364.81 432.08 365.05 440.75 370.05"/><polygon class="bd525750-283d-4d46-95cf-88b536b0293b" points="453.46 362.71 444.8 367.71 444.37 367.95 443.94 367.71 435.28 362.71 435.71 362.46 444.37 357.46 444.8 357.71 453.46 362.71"/><polygon class="bd525750-283d-4d46-95cf-88b536b0293b" points="466.18 355.36 457.52 360.36 457.09 360.61 456.67 360.36 448.01 355.36 448.43 355.12 457.09 350.12 457.52 350.36 466.18 355.36"/><polygon class="bd525750-283d-4d46-95cf-88b536b0293b" points="478.9 348.02 470.25 353.02 469.81 353.26 469.39 353.02 460.73 348.02 461.15 347.77 469.81 342.77 470.25 343.02 478.9 348.02"/><polygon class="bd525750-283d-4d46-95cf-88b536b0293b" points="491.62 340.67 482.96 345.67 482.54 345.92 482.11 345.67 473.45 340.67 473.87 340.43 482.54 335.43 482.96 335.67 491.62 340.67"/><polygon class="bd525750-283d-4d46-95cf-88b536b0293b" points="504.34 333.33 495.68 338.33 495.26 338.57 494.83 338.33 486.17 333.33 486.6 333.08 495.26 328.08 495.68 328.33 504.34 333.33"/><polygon class="bd525750-283d-4d46-95cf-88b536b0293b" points="532.26 317.21 523.6 322.21 514.94 327.21 507.98 331.23 507.55 330.98 498.89 325.98 505.85 321.97 514.51 316.97 523.17 311.97 523.6 312.21 532.26 317.21"/><polygon class="bd525750-283d-4d46-95cf-88b536b0293b" points="396.83 410.09 388.17 415.09 383.24 417.94 382.81 417.69 374.15 412.69 379.08 409.84 387.74 404.84 388.17 405.09 396.83 410.09"/><polygon class="bd525750-283d-4d46-95cf-88b536b0293b" points="409.55 402.75 400.89 407.75 400.46 407.99 400.04 407.75 391.38 402.75 391.8 402.5 400.46 397.5 400.89 397.75 409.55 402.75"/><polygon class="bd525750-283d-4d46-95cf-88b536b0293b" points="422.27 395.4 413.62 400.4 413.19 400.65 412.76 400.4 404.11 395.4 404.54 395.15 413.19 390.15 413.62 390.4 422.27 395.4"/><polygon class="bd525750-283d-4d46-95cf-88b536b0293b" points="435 388.06 426.33 393.06 425.92 393.3 425.48 393.06 416.82 388.06 417.25 387.81 425.92 382.81 426.33 383.06 435 388.06"/><polygon class="bd525750-283d-4d46-95cf-88b536b0293b" points="447.71 380.71 439.05 385.71 438.63 385.96 438.2 385.71 429.54 380.71 429.97 380.47 438.63 375.47 439.05 375.71 447.71 380.71"/><polygon class="bd525750-283d-4d46-95cf-88b536b0293b" points="460.44 373.37 451.79 378.37 451.35 378.61 450.92 378.37 442.26 373.37 442.69 373.12 451.35 368.12 451.79 368.37 460.44 373.37"/><polygon class="bd525750-283d-4d46-95cf-88b536b0293b" points="473.16 366.02 464.5 371.02 464.07 371.27 463.64 371.02 454.98 366.02 455.41 365.78 464.07 360.78 464.5 361.02 473.16 366.02"/><polygon class="bd525750-283d-4d46-95cf-88b536b0293b" points="485.88 358.68 477.22 363.68 476.79 363.92 476.37 363.68 467.71 358.68 468.13 358.43 476.79 353.43 477.22 353.68 485.88 358.68"/><polygon class="bd525750-283d-4d46-95cf-88b536b0293b" points="498.6 351.33 489.94 356.33 489.51 356.58 489.09 356.33 480.43 351.33 480.85 351.09 489.51 346.09 489.94 346.33 498.6 351.33"/><polygon class="bd525750-283d-4d46-95cf-88b536b0293b" points="511.32 343.99 502.67 348.99 502.25 349.23 501.81 348.99 493.15 343.99 493.57 343.74 502.25 338.74 502.67 338.99 511.32 343.99"/><polygon class="bd525750-283d-4d46-95cf-88b536b0293b" points="524.04 336.64 515.38 341.64 514.96 341.89 514.53 341.64 505.87 336.64 506.3 336.4 514.96 331.4 515.38 331.64 524.04 336.64"/><polygon class="bd525750-283d-4d46-95cf-88b536b0293b" points="544.98 324.56 536.33 329.56 527.68 334.55 527.25 334.3 518.59 329.3 527.23 324.31 535.89 319.31 536.33 319.56 544.98 324.56"/><polygon class="bd525750-283d-4d46-95cf-88b536b0293b" points="416.54 413.41 407.88 418.41 399.21 423.41 395.96 425.28 395.54 425.04 386.88 420.04 390.13 418.16 398.79 413.16 407.44 408.16 407.88 408.41 416.54 413.41"/><polygon class="bd525750-283d-4d46-95cf-88b536b0293b" points="429.25 406.06 420.59 411.06 420.16 411.31 419.74 411.06 411.08 406.06 411.5 405.81 420.16 400.82 420.59 401.06 429.25 406.06"/><polygon class="bd525750-283d-4d46-95cf-88b536b0293b" points="441.97 398.72 433.31 403.72 432.89 403.96 432.46 403.72 423.8 398.72 424.23 398.47 432.89 393.47 433.31 393.72 441.97 398.72"/><polygon class="bd525750-283d-4d46-95cf-88b536b0293b" points="454.69 391.37 446.04 396.37 445.62 396.62 445.18 396.37 436.52 391.37 436.95 391.13 445.62 386.13 446.04 386.37 454.69 391.37"/><polygon class="bd525750-283d-4d46-95cf-88b536b0293b" points="467.41 384.03 458.75 389.03 458.33 389.27 457.9 389.03 449.24 384.03 449.67 383.78 458.33 378.78 458.75 379.03 467.41 384.03"/><polygon class="bd525750-283d-4d46-95cf-88b536b0293b" points="480.14 376.68 471.48 381.68 471.05 381.93 470.62 381.68 461.96 376.68 462.39 376.44 471.05 371.44 471.48 371.68 480.14 376.68"/><polygon class="bd525750-283d-4d46-95cf-88b536b0293b" points="492.87 369.34 484.2 374.34 483.77 374.58 483.34 374.34 474.68 369.34 475.12 369.09 483.77 364.09 484.2 364.34 492.87 369.34"/><polygon class="bd525750-283d-4d46-95cf-88b536b0293b" points="505.58 361.99 496.92 366.99 496.49 367.24 496.07 366.99 487.41 361.99 487.83 361.75 496.49 356.75 496.92 356.99 505.58 361.99"/><polygon class="bd525750-283d-4d46-95cf-88b536b0293b" points="518.3 354.65 509.64 359.65 509.21 359.89 508.79 359.65 500.13 354.65 500.55 354.4 509.21 349.4 509.64 349.65 518.3 354.65"/><polygon class="bd525750-283d-4d46-95cf-88b536b0293b" points="531.02 347.3 522.37 352.3 521.94 352.55 521.51 352.3 512.85 347.3 513.27 347.06 521.94 342.06 522.37 342.3 531.02 347.3"/><polygon class="bd525750-283d-4d46-95cf-88b536b0293b" points="543.75 339.96 535.09 344.96 534.66 345.21 534.23 344.96 525.58 339.96 526 339.71 534.66 334.71 535.09 334.96 543.75 339.96"/><polygon class="bd525750-283d-4d46-95cf-88b536b0293b" points="557.71 331.9 549.04 336.9 547.38 337.86 546.96 337.61 538.29 332.61 539.96 331.66 548.62 326.66 549.04 326.9 557.71 331.9"/><polygon class="bd525750-283d-4d46-95cf-88b536b0293b" points="436.23 416.72 427.57 421.72 418.92 426.72 410.25 431.72 408.68 432.63 408.25 432.38 399.59 427.38 401.16 426.48 409.82 421.48 418.48 416.48 427.14 411.48 427.57 411.72 436.23 416.72"/><polygon class="bd525750-283d-4d46-95cf-88b536b0293b" points="448.95 409.38 440.3 414.38 439.87 414.62 439.44 414.38 430.79 409.38 431.2 409.13 439.87 404.13 440.3 404.38 448.95 409.38"/><polygon class="bd525750-283d-4d46-95cf-88b536b0293b" points="461.67 402.03 453.01 407.03 452.59 407.28 452.16 407.03 443.5 402.03 443.93 401.79 452.59 396.79 453.01 397.03 461.67 402.03"/><polygon class="bd525750-283d-4d46-95cf-88b536b0293b" points="474.39 394.69 465.73 399.69 465.31 399.93 464.88 399.69 456.22 394.69 456.65 394.44 465.31 389.44 465.73 389.69 474.39 394.69"/><polygon class="bd525750-283d-4d46-95cf-88b536b0293b" points="487.12 387.34 478.45 392.34 478.04 392.59 477.6 392.34 468.94 387.34 469.38 387.1 478.04 382.1 478.45 382.34 487.12 387.34"/><polygon class="bd525750-283d-4d46-95cf-88b536b0293b" points="499.84 380 491.18 385 490.75 385.24 490.32 385 481.66 380 482.09 379.75 490.75 374.75 491.18 375 499.84 380"/><polygon class="bd525750-283d-4d46-95cf-88b536b0293b" points="512.56 372.65 503.9 377.65 503.47 377.9 503.04 377.65 494.38 372.65 494.81 372.41 503.47 367.41 503.9 367.65 512.56 372.65"/><polygon class="bd525750-283d-4d46-95cf-88b536b0293b" points="525.28 365.31 516.63 370.31 516.19 370.56 515.77 370.31 507.12 365.31 507.54 365.06 516.19 360.06 516.63 360.31 525.28 365.31"/><polygon class="bd525750-283d-4d46-95cf-88b536b0293b" points="538 357.96 529.34 362.96 528.91 363.21 528.49 362.96 519.83 357.96 520.25 357.72 528.91 352.72 529.34 352.96 538 357.96"/><polygon class="bd525750-283d-4d46-95cf-88b536b0293b" points="550.72 350.62 542.06 355.62 541.64 355.87 541.21 355.62 532.55 350.62 532.97 350.37 541.64 345.37 542.06 345.62 550.72 350.62"/><polygon class="bd525750-283d-4d46-95cf-88b536b0293b" points="570.42 339.25 561.76 344.25 554.36 348.52 553.93 348.28 545.27 343.28 552.67 339 561.34 334 561.76 334.25 570.42 339.25"/><polygon class="bd525750-283d-4d46-95cf-88b536b0293b" points="430.5 434.73 421.83 439.73 421.4 439.97 420.97 439.73 412.31 434.73 412.75 434.48 421.4 429.48 421.83 429.73 430.5 434.73"/><polygon class="bd525750-283d-4d46-95cf-88b536b0293b" points="443.21 427.38 434.55 432.38 434.12 432.63 433.69 432.38 425.03 427.38 425.46 427.14 434.12 422.14 434.55 422.38 443.21 427.38"/><polygon class="bd525750-283d-4d46-95cf-88b536b0293b" points="455.93 420.04 447.27 425.04 446.84 425.28 446.42 425.04 437.76 420.04 438.18 419.79 446.84 414.79 447.27 415.04 455.93 420.04"/><polygon class="bd525750-283d-4d46-95cf-88b536b0293b" points="468.65 412.69 460 417.69 459.56 417.94 459.14 417.69 450.48 412.69 450.9 412.45 459.56 407.45 460 407.69 468.65 412.69"/><polygon class="bd525750-283d-4d46-95cf-88b536b0293b" points="519.54 383.31 510.88 388.31 502.22 393.31 493.56 398.31 484.9 403.31 476.23 408.31 472.29 410.59 471.86 410.35 463.2 405.35 467.15 403.07 475.81 398.07 484.47 393.07 493.13 388.07 501.79 383.07 510.45 378.07 510.88 378.31 519.54 383.31"/><polygon class="bd525750-283d-4d46-95cf-88b536b0293b" points="532.26 375.97 523.6 380.97 523.17 381.22 522.74 380.97 514.08 375.97 514.51 375.72 523.17 370.72 523.6 370.97 532.26 375.97"/><polygon class="bd525750-283d-4d46-95cf-88b536b0293b" points="544.98 368.62 536.33 373.62 535.89 373.87 535.47 373.62 526.81 368.62 527.23 368.38 535.89 363.38 536.33 363.62 544.98 368.62"/><polygon class="bd525750-283d-4d46-95cf-88b536b0293b" points="557.71 361.28 549.04 366.28 548.62 366.53 548.19 366.28 539.53 361.28 539.96 361.03 548.62 356.03 549.04 356.28 557.71 361.28"/><polygon class="bd525750-283d-4d46-95cf-88b536b0293b" points="564.91 350.75 556.25 355.75 555.82 356 552.25 353.94 552.67 353.69 561.34 348.69 564.91 350.75"/><polygon class="bd525750-283d-4d46-95cf-88b536b0293b" points="570.42 353.94 561.76 358.94 561.34 359.18 557.88 357.18 557.76 357.12 564.79 353.06 564.91 353 566.85 351.87 570.42 353.94"/><polygon class="bd525750-283d-4d46-95cf-88b536b0293b" points="583.14 346.59 574.48 351.59 574.06 351.84 573.63 351.59 564.97 346.59 565.4 346.34 574.06 341.34 574.48 341.59 583.14 346.59"/><polygon class="bd525750-283d-4d46-95cf-88b536b0293b" points="364.38 399.41 357.76 403.23 353.22 400.61 359.83 396.79 364.38 399.41"/><polygon class="bd525750-283d-4d46-95cf-88b536b0293b" points="377.1 392.07 368.44 397.07 368.01 397.32 363.47 394.69 363.89 394.44 372.55 389.44 377.1 392.07"/><polygon class="bd525750-283d-4d46-95cf-88b536b0293b" points="389.82 384.72 381.16 389.72 380.74 389.97 376.19 387.35 376.61 387.1 385.27 382.1 389.82 384.72"/><polygon class="bd525750-283d-4d46-95cf-88b536b0293b" points="402.54 377.38 393.88 382.38 393.46 382.63 388.91 380 389.34 379.75 398 374.75 402.54 377.38"/><polygon class="bd525750-283d-4d46-95cf-88b536b0293b" points="415.27 370.04 406.6 375.03 406.18 375.28 401.63 372.66 402.06 372.41 410.72 367.41 415.27 370.04"/><polygon class="bd525750-283d-4d46-95cf-88b536b0293b" points="428 362.69 419.33 367.69 418.9 367.94 414.35 365.31 414.79 365.06 423.44 360.06 428 362.69"/><polygon class="bd525750-283d-4d46-95cf-88b536b0293b" points="440.71 355.35 432.05 360.35 431.62 360.59 427.07 357.97 427.5 357.72 436.16 352.72 440.71 355.35"/><polygon class="bd525750-283d-4d46-95cf-88b536b0293b" points="453.43 348 444.77 353 444.34 353.25 439.8 350.62 440.22 350.38 448.88 345.38 453.43 348"/><polygon class="bd525750-283d-4d46-95cf-88b536b0293b" points="466.15 340.66 457.5 345.66 457.06 345.9 452.52 343.28 452.94 343.03 461.6 338.03 466.15 340.66"/><polygon class="bd525750-283d-4d46-95cf-88b536b0293b" points="478.87 333.31 470.21 338.31 469.79 338.56 465.24 335.93 465.66 335.69 474.32 330.69 478.87 333.31"/><polygon class="bd525750-283d-4d46-95cf-88b536b0293b" points="491.59 325.97 482.93 330.97 482.51 331.21 477.96 328.59 478.39 328.34 487.05 323.34 491.59 325.97"/><polygon class="bd525750-283d-4d46-95cf-88b536b0293b" points="519.51 309.85 510.85 314.85 502.19 319.85 495.23 323.87 490.68 321.24 497.64 317.23 514.96 307.23 519.51 309.85"/><polygon class="b41ca556-745c-41dd-828f-534f2113bbf5" points="370.51 410.59 370.51 412.97 370.09 412.72 361.43 407.72 361.43 405.35 370.09 410.35 370.51 410.59"/><polygon class="b41ca556-745c-41dd-828f-534f2113bbf5" points="380.76 404.68 380.76 407.05 380.34 406.81 371.68 401.81 371.68 399.43 380.34 404.43 380.76 404.68"/><polygon class="b41ca556-745c-41dd-828f-534f2113bbf5" points="393.49 397.33 393.49 399.71 393.06 399.46 384.4 394.46 384.4 392.09 393.06 397.09 393.49 397.33"/><polygon class="b41ca556-745c-41dd-828f-534f2113bbf5" points="406.21 389.99 406.21 392.36 405.78 392.12 397.12 387.12 397.12 384.74 405.78 389.74 406.21 389.99"/><polygon class="b41ca556-745c-41dd-828f-534f2113bbf5" points="418.93 382.64 418.93 385.02 418.5 384.77 409.84 379.77 409.84 377.4 418.5 382.4 418.93 382.64"/><polygon class="b41ca556-745c-41dd-828f-534f2113bbf5" points="431.65 375.3 431.65 377.67 431.22 377.43 422.56 372.43 422.56 370.05 431.22 375.05 431.65 375.3"/><polygon class="b41ca556-745c-41dd-828f-534f2113bbf5" points="444.37 367.95 444.37 370.33 443.94 370.08 435.28 365.08 435.28 362.71 443.94 367.71 444.37 367.95"/><polygon class="b41ca556-745c-41dd-828f-534f2113bbf5" points="457.09 360.61 457.09 362.98 456.67 362.74 448.01 357.74 448.01 355.36 456.67 360.36 457.09 360.61"/><polygon class="b41ca556-745c-41dd-828f-534f2113bbf5" points="469.81 353.26 469.81 355.64 469.39 355.39 460.73 350.39 460.73 348.02 469.39 353.02 469.81 353.26"/><polygon class="b41ca556-745c-41dd-828f-534f2113bbf5" points="482.54 345.92 482.54 348.29 482.11 348.05 473.45 343.05 473.45 340.67 482.11 345.67 482.54 345.92"/><polygon class="b41ca556-745c-41dd-828f-534f2113bbf5" points="495.26 338.57 495.26 340.95 494.83 340.7 486.17 335.7 486.17 333.33 494.83 338.33 495.26 338.57"/><polygon class="b41ca556-745c-41dd-828f-534f2113bbf5" points="507.98 331.23 507.98 333.61 507.55 333.36 498.89 328.36 498.89 325.98 507.55 330.98 507.98 331.23"/><polygon class="b41ca556-745c-41dd-828f-534f2113bbf5" points="383.24 417.94 383.24 420.31 382.81 420.07 374.15 415.07 374.15 412.69 382.81 417.69 383.24 417.94"/><polygon class="b41ca556-745c-41dd-828f-534f2113bbf5" points="400.46 407.99 400.46 410.37 400.04 410.12 391.38 405.12 391.38 402.75 400.04 407.75 400.46 407.99"/><polygon class="b41ca556-745c-41dd-828f-534f2113bbf5" points="413.19 400.65 413.19 403.02 412.76 402.78 404.11 397.78 404.11 395.4 412.76 400.4 413.19 400.65"/><polygon class="b41ca556-745c-41dd-828f-534f2113bbf5" points="425.91 393.3 425.91 395.68 425.48 395.43 416.82 390.43 416.82 388.06 425.48 393.06 425.91 393.3"/><polygon class="b41ca556-745c-41dd-828f-534f2113bbf5" points="438.63 385.96 438.63 388.33 438.2 388.09 429.54 383.09 429.54 380.71 438.2 385.71 438.63 385.96"/><polygon class="b41ca556-745c-41dd-828f-534f2113bbf5" points="451.35 378.61 451.35 380.99 450.92 380.74 442.26 375.74 442.26 373.37 450.92 378.37 451.35 378.61"/><polygon class="b41ca556-745c-41dd-828f-534f2113bbf5" points="464.07 371.27 464.07 373.64 463.64 373.4 454.98 368.4 454.98 366.02 463.64 371.02 464.07 371.27"/><polygon class="b41ca556-745c-41dd-828f-534f2113bbf5" points="476.79 363.92 476.79 366.3 476.37 366.05 467.71 361.05 467.71 358.68 476.37 363.68 476.79 363.92"/><polygon class="b41ca556-745c-41dd-828f-534f2113bbf5" points="489.51 356.58 489.51 358.95 489.09 358.71 480.43 353.71 480.43 351.33 489.09 356.33 489.51 356.58"/><polygon class="b41ca556-745c-41dd-828f-534f2113bbf5" points="502.25 349.23 502.25 351.61 493.15 346.36 493.15 343.99 501.81 348.99 502.25 349.23"/><polygon class="b41ca556-745c-41dd-828f-534f2113bbf5" points="514.96 341.89 514.96 344.27 505.87 339.02 505.87 336.64 514.53 341.64 514.96 341.89"/><polygon class="b41ca556-745c-41dd-828f-534f2113bbf5" points="527.68 334.55 527.68 336.92 518.59 331.67 518.59 329.3 527.25 334.3 527.68 334.55"/><polygon class="b41ca556-745c-41dd-828f-534f2113bbf5" points="395.96 425.28 395.96 427.66 395.53 427.41 386.87 422.41 386.87 420.04 395.53 425.04 395.96 425.28"/><polygon class="b41ca556-745c-41dd-828f-534f2113bbf5" points="420.16 411.31 420.16 413.68 419.74 413.44 411.08 408.44 411.08 406.06 419.74 411.06 420.16 411.31"/><polygon class="b41ca556-745c-41dd-828f-534f2113bbf5" points="432.89 403.96 432.89 406.34 432.46 406.09 423.8 401.09 423.8 398.72 432.46 403.72 432.89 403.96"/><polygon class="b41ca556-745c-41dd-828f-534f2113bbf5" points="445.62 396.62 445.62 398.99 445.18 398.75 436.52 393.75 436.52 391.37 445.18 396.37 445.62 396.62"/><polygon class="b41ca556-745c-41dd-828f-534f2113bbf5" points="458.33 389.27 458.33 391.65 457.9 391.4 449.24 386.4 449.24 384.03 457.9 389.03 458.33 389.27"/><polygon class="b41ca556-745c-41dd-828f-534f2113bbf5" points="471.05 381.93 471.05 384.3 470.62 384.06 461.96 379.06 461.96 376.68 470.62 381.68 471.05 381.93"/><polygon class="b41ca556-745c-41dd-828f-534f2113bbf5" points="483.77 374.58 483.77 376.96 483.34 376.71 474.68 371.71 474.68 369.34 483.34 374.34 483.77 374.58"/><polygon class="b41ca556-745c-41dd-828f-534f2113bbf5" points="496.5 367.24 496.5 369.62 496.07 369.37 487.42 364.37 487.42 361.99 496.07 366.99 496.5 367.24"/><polygon class="b41ca556-745c-41dd-828f-534f2113bbf5" points="509.21 359.89 509.21 362.27 500.13 357.02 500.13 354.65 508.79 359.65 509.21 359.89"/><polygon class="b41ca556-745c-41dd-828f-534f2113bbf5" points="521.94 352.55 521.94 354.93 521.51 354.68 512.85 349.68 512.85 347.3 521.51 352.3 521.94 352.55"/><polygon class="b41ca556-745c-41dd-828f-534f2113bbf5" points="534.66 345.21 534.66 347.58 534.23 347.34 525.57 342.34 525.57 339.96 534.23 344.96 534.66 345.21"/><polygon class="b41ca556-745c-41dd-828f-534f2113bbf5" points="547.38 337.86 547.38 340.24 546.95 339.99 538.29 334.99 538.29 332.61 546.95 337.61 547.38 337.86"/><polygon class="b41ca556-745c-41dd-828f-534f2113bbf5" points="408.68 432.63 408.68 435 408.25 434.76 399.59 429.76 399.59 427.38 408.25 432.38 408.68 432.63"/><polygon class="b41ca556-745c-41dd-828f-534f2113bbf5" points="439.87 414.62 439.87 417 439.44 416.75 430.79 411.75 430.79 409.38 439.44 414.38 439.87 414.62"/><polygon class="b41ca556-745c-41dd-828f-534f2113bbf5" points="452.59 407.28 452.59 409.65 452.16 409.41 443.5 404.41 443.5 402.03 452.16 407.03 452.59 407.28"/><polygon class="b41ca556-745c-41dd-828f-534f2113bbf5" points="465.31 399.93 465.31 402.31 464.88 402.06 456.22 397.06 456.22 394.69 464.88 399.69 465.31 399.93"/><polygon class="b41ca556-745c-41dd-828f-534f2113bbf5" points="478.04 392.59 478.04 394.96 477.6 394.72 468.94 389.72 468.94 387.34 477.6 392.34 478.04 392.59"/><polygon class="b41ca556-745c-41dd-828f-534f2113bbf5" points="490.75 385.24 490.75 387.62 490.32 387.37 481.66 382.37 481.66 380 490.32 385 490.75 385.24"/><polygon class="b41ca556-745c-41dd-828f-534f2113bbf5" points="503.47 377.9 503.47 380.28 503.04 380.03 494.38 375.03 494.38 372.65 503.04 377.65 503.47 377.9"/><polygon class="b41ca556-745c-41dd-828f-534f2113bbf5" points="516.19 370.56 516.19 372.93 515.77 372.68 507.12 367.68 507.12 365.31 515.77 370.31 516.19 370.56"/><polygon class="b41ca556-745c-41dd-828f-534f2113bbf5" points="528.91 363.21 528.91 365.59 519.83 360.34 519.83 357.96 528.49 362.96 528.91 363.21"/><polygon class="b41ca556-745c-41dd-828f-534f2113bbf5" points="541.64 355.87 541.64 358.24 541.21 358 532.55 353 532.55 350.62 541.21 355.62 541.64 355.87"/><polygon class="b41ca556-745c-41dd-828f-534f2113bbf5" points="554.37 348.52 554.37 350.9 553.93 350.65 545.27 345.65 545.27 343.28 553.93 348.28 554.37 348.52"/><polygon class="b41ca556-745c-41dd-828f-534f2113bbf5" points="421.4 439.97 421.4 442.35 420.97 442.1 412.31 437.1 412.31 434.73 420.97 439.73 421.4 439.97"/><polygon class="b41ca556-745c-41dd-828f-534f2113bbf5" points="434.12 432.63 434.12 435 433.69 434.76 425.03 429.76 425.03 427.38 433.69 432.38 434.12 432.63"/><polygon class="b41ca556-745c-41dd-828f-534f2113bbf5" points="446.84 425.28 446.84 427.66 446.42 427.41 437.76 422.41 437.76 420.04 446.42 425.04 446.84 425.28"/><polygon class="b41ca556-745c-41dd-828f-534f2113bbf5" points="459.56 417.94 459.56 420.31 459.14 420.07 450.48 415.07 450.48 412.69 459.14 417.69 459.56 417.94"/><polygon class="b41ca556-745c-41dd-828f-534f2113bbf5" points="472.29 410.59 472.29 412.97 471.86 412.72 463.2 407.72 463.2 405.35 471.86 410.35 472.29 410.59"/><polygon class="b41ca556-745c-41dd-828f-534f2113bbf5" points="523.17 381.22 523.17 383.59 522.74 383.34 514.08 378.34 514.08 375.97 522.74 380.97 523.17 381.22"/><polygon class="b41ca556-745c-41dd-828f-534f2113bbf5" points="535.89 373.87 535.89 376.25 535.47 376 526.81 371 526.81 368.62 535.47 373.62 535.89 373.87"/><polygon class="b41ca556-745c-41dd-828f-534f2113bbf5" points="548.62 366.53 548.62 368.9 548.19 368.66 539.53 363.66 539.53 361.28 548.19 366.28 548.62 366.53"/><polygon class="b41ca556-745c-41dd-828f-534f2113bbf5" points="555.83 356 555.83 358.37 552.25 356.31 552.25 353.94 555.83 356"/><polygon class="b41ca556-745c-41dd-828f-534f2113bbf5" points="561.34 359.18 561.34 361.56 557.76 359.5 557.76 357.12 557.88 357.18 561.34 359.18"/><polygon class="b41ca556-745c-41dd-828f-534f2113bbf5" points="574.06 351.84 574.06 354.21 573.63 353.97 564.97 348.97 564.97 346.59 573.63 351.59 574.06 351.84"/><polygon class="b41ca556-745c-41dd-828f-534f2113bbf5" points="357.76 403.23 357.76 405.61 353.22 402.98 353.22 400.61 357.76 403.23"/><polygon class="b41ca556-745c-41dd-828f-534f2113bbf5" points="368.01 397.32 368.01 399.69 363.47 397.07 363.47 394.69 368.01 397.32"/><polygon class="b41ca556-745c-41dd-828f-534f2113bbf5" points="380.74 389.97 380.74 392.35 376.19 389.72 376.19 387.35 380.74 389.97"/><polygon class="b41ca556-745c-41dd-828f-534f2113bbf5" points="393.46 382.63 393.46 385 388.91 382.38 388.91 380 393.46 382.63"/><polygon class="b41ca556-745c-41dd-828f-534f2113bbf5" points="406.18 375.28 406.18 377.66 401.63 375.03 401.63 372.66 406.18 375.28"/><polygon class="b41ca556-745c-41dd-828f-534f2113bbf5" points="418.9 367.94 418.9 370.31 414.35 367.69 414.35 365.31 418.9 367.94"/><polygon class="b41ca556-745c-41dd-828f-534f2113bbf5" points="431.62 360.59 431.62 362.97 427.07 360.34 427.07 357.97 431.62 360.59"/><polygon class="b41ca556-745c-41dd-828f-534f2113bbf5" points="444.34 353.25 444.34 355.62 439.8 353 439.8 350.62 444.34 353.25"/><polygon class="b41ca556-745c-41dd-828f-534f2113bbf5" points="457.06 345.9 457.06 348.28 452.52 345.65 452.52 343.28 457.06 345.9"/><polygon class="b41ca556-745c-41dd-828f-534f2113bbf5" points="469.79 338.56 469.79 340.93 465.24 338.31 465.24 335.93 469.79 338.56"/><polygon class="b41ca556-745c-41dd-828f-534f2113bbf5" points="482.51 331.21 482.51 333.59 477.96 330.96 477.96 328.59 482.51 331.21"/><polygon class="b41ca556-745c-41dd-828f-534f2113bbf5" points="495.23 323.87 495.23 326.24 490.68 323.62 490.68 321.24 495.23 323.87"/><polygon class="a64c3dd1-e303-4c2f-9a41-90e0f867af5e" points="377.13 406.77 377.13 409.15 370.51 412.97 370.51 410.59 377.13 406.77"/><polygon class="a64c3dd1-e303-4c2f-9a41-90e0f867af5e" points="389.85 399.43 389.85 401.81 389.42 402.05 380.76 407.05 380.76 404.68 381.19 404.43 389.85 399.43"/><polygon class="a64c3dd1-e303-4c2f-9a41-90e0f867af5e" points="402.57 392.09 402.57 394.46 402.15 394.71 393.49 399.71 393.49 397.33 393.91 397.09 402.57 392.09"/><polygon class="a64c3dd1-e303-4c2f-9a41-90e0f867af5e" points="415.29 384.74 415.29 387.12 414.87 387.36 406.21 392.36 406.21 389.99 406.63 389.74 415.29 384.74"/><polygon class="a64c3dd1-e303-4c2f-9a41-90e0f867af5e" points="428.01 377.4 428.01 379.77 427.59 380.02 418.93 385.02 418.93 382.64 419.35 382.4 428.01 377.4"/><polygon class="a64c3dd1-e303-4c2f-9a41-90e0f867af5e" points="440.75 370.05 440.75 372.43 440.31 372.67 431.65 377.67 431.65 375.3 432.08 375.05 440.75 370.05"/><polygon class="a64c3dd1-e303-4c2f-9a41-90e0f867af5e" points="453.46 362.71 453.46 365.08 453.03 365.33 444.37 370.33 444.37 367.95 444.8 367.71 453.46 362.71"/><polygon class="a64c3dd1-e303-4c2f-9a41-90e0f867af5e" points="466.18 355.36 466.18 357.74 465.75 357.98 457.09 362.98 457.09 360.61 457.52 360.36 466.18 355.36"/><polygon class="a64c3dd1-e303-4c2f-9a41-90e0f867af5e" points="478.9 348.02 478.9 350.39 478.47 350.64 469.81 355.64 469.81 353.26 470.25 353.02 478.9 348.02"/><polygon class="a64c3dd1-e303-4c2f-9a41-90e0f867af5e" points="491.62 340.67 491.62 343.05 491.2 343.29 482.54 348.29 482.54 345.92 482.96 345.67 491.62 340.67"/><polygon class="a64c3dd1-e303-4c2f-9a41-90e0f867af5e" points="504.34 333.33 504.34 335.7 503.92 335.95 495.26 340.95 495.26 338.57 495.68 338.33 504.34 333.33"/><polygon class="a64c3dd1-e303-4c2f-9a41-90e0f867af5e" points="532.26 317.21 532.26 319.59 525.3 323.61 516.64 328.61 507.98 333.61 507.98 331.23 514.94 327.21 523.6 322.21 532.26 317.21"/><polygon class="a64c3dd1-e303-4c2f-9a41-90e0f867af5e" points="396.83 410.09 396.83 412.47 391.9 415.31 383.24 420.31 383.24 417.94 388.17 415.09 396.83 410.09"/><polygon class="a64c3dd1-e303-4c2f-9a41-90e0f867af5e" points="409.55 402.75 409.55 405.12 409.12 405.37 400.46 410.37 400.46 407.99 400.89 407.75 409.55 402.75"/><polygon class="a64c3dd1-e303-4c2f-9a41-90e0f867af5e" points="422.27 395.4 422.27 397.78 421.85 398.02 413.19 403.02 413.19 400.65 413.62 400.4 422.27 395.4"/><polygon class="a64c3dd1-e303-4c2f-9a41-90e0f867af5e" points="435 388.06 435 390.43 434.57 390.68 425.92 395.68 425.92 393.3 426.33 393.06 435 388.06"/><polygon class="a64c3dd1-e303-4c2f-9a41-90e0f867af5e" points="447.71 380.71 447.71 383.09 447.29 383.33 438.63 388.33 438.63 385.96 439.05 385.71 447.71 380.71"/><polygon class="a64c3dd1-e303-4c2f-9a41-90e0f867af5e" points="460.44 373.37 460.44 375.74 460.01 375.99 451.35 380.99 451.35 378.61 451.79 378.37 460.44 373.37"/><polygon class="a64c3dd1-e303-4c2f-9a41-90e0f867af5e" points="473.16 366.02 473.16 368.4 472.73 368.64 464.07 373.64 464.07 371.27 464.5 371.02 473.16 366.02"/><polygon class="a64c3dd1-e303-4c2f-9a41-90e0f867af5e" points="485.88 358.68 485.88 361.05 485.45 361.3 476.79 366.3 476.79 363.92 477.22 363.68 485.88 358.68"/><polygon class="a64c3dd1-e303-4c2f-9a41-90e0f867af5e" points="498.6 351.33 498.6 353.71 498.17 353.96 489.51 358.95 489.51 356.58 489.94 356.33 498.6 351.33"/><polygon class="a64c3dd1-e303-4c2f-9a41-90e0f867af5e" points="511.32 343.99 511.32 346.36 510.9 346.61 502.25 351.61 502.25 349.23 502.67 348.99 511.32 343.99"/><polygon class="a64c3dd1-e303-4c2f-9a41-90e0f867af5e" points="524.04 336.64 524.04 339.02 514.96 344.27 514.96 341.89 515.38 341.64 524.04 336.64"/><polygon class="a64c3dd1-e303-4c2f-9a41-90e0f867af5e" points="544.98 324.56 544.98 326.93 527.68 336.92 527.68 334.55 536.33 329.56 544.98 324.56"/><polygon class="a64c3dd1-e303-4c2f-9a41-90e0f867af5e" points="416.54 413.41 416.54 415.78 413.29 417.66 404.63 422.66 395.96 427.66 395.96 425.28 399.21 423.41 407.88 418.41 416.54 413.41"/><polygon class="a64c3dd1-e303-4c2f-9a41-90e0f867af5e" points="429.25 406.06 429.25 408.44 428.82 408.68 420.16 413.68 420.16 411.31 420.59 411.06 429.25 406.06"/><polygon class="a64c3dd1-e303-4c2f-9a41-90e0f867af5e" points="441.97 398.72 441.97 401.09 441.55 401.34 432.89 406.34 432.89 403.96 433.31 403.72 441.97 398.72"/><polygon class="a64c3dd1-e303-4c2f-9a41-90e0f867af5e" points="454.69 391.37 454.69 393.75 454.27 393.99 445.62 398.99 445.62 396.62 446.04 396.37 454.69 391.37"/><polygon class="a64c3dd1-e303-4c2f-9a41-90e0f867af5e" points="467.41 384.03 467.41 386.4 466.99 386.65 458.33 391.65 458.33 389.27 458.75 389.03 467.41 384.03"/><polygon class="a64c3dd1-e303-4c2f-9a41-90e0f867af5e" points="480.14 376.68 480.14 379.06 479.71 379.3 471.05 384.3 471.05 381.93 471.48 381.68 480.14 376.68"/><polygon class="a64c3dd1-e303-4c2f-9a41-90e0f867af5e" points="492.87 369.34 492.87 371.71 492.43 371.96 483.77 376.96 483.77 374.58 484.2 374.34 492.87 369.34"/><polygon class="a64c3dd1-e303-4c2f-9a41-90e0f867af5e" points="505.58 361.99 505.58 364.37 505.15 364.62 496.49 369.62 496.49 367.24 496.92 366.99 505.58 361.99"/><polygon class="a64c3dd1-e303-4c2f-9a41-90e0f867af5e" points="518.3 354.65 518.3 357.02 509.21 362.27 509.21 359.89 509.64 359.65 518.3 354.65"/><polygon class="a64c3dd1-e303-4c2f-9a41-90e0f867af5e" points="531.02 347.3 531.02 349.68 530.6 349.93 521.94 354.93 521.94 352.55 522.37 352.3 531.02 347.3"/><polygon class="a64c3dd1-e303-4c2f-9a41-90e0f867af5e" points="543.75 339.96 543.75 342.34 543.33 342.58 534.66 347.58 534.66 345.21 535.09 344.96 543.75 339.96"/><polygon class="a64c3dd1-e303-4c2f-9a41-90e0f867af5e" points="557.71 331.9 557.71 334.28 556.04 335.24 547.38 340.24 547.38 337.86 549.04 336.9 557.71 331.9"/><polygon class="a64c3dd1-e303-4c2f-9a41-90e0f867af5e" points="436.23 416.72 436.23 419.1 434.67 420 426 425 417.34 430 408.68 435 408.68 432.63 410.25 431.72 418.92 426.72 427.57 421.72 436.23 416.72"/><polygon class="a64c3dd1-e303-4c2f-9a41-90e0f867af5e" points="448.95 409.38 448.95 411.75 448.52 412 439.87 417 439.87 414.62 440.3 414.38 448.95 409.38"/><polygon class="a64c3dd1-e303-4c2f-9a41-90e0f867af5e" points="461.67 402.03 461.67 404.41 461.25 404.65 452.59 409.65 452.59 407.28 453.01 407.03 461.67 402.03"/><polygon class="a64c3dd1-e303-4c2f-9a41-90e0f867af5e" points="474.39 394.69 474.39 397.06 473.97 397.31 465.31 402.31 465.31 399.93 465.73 399.69 474.39 394.69"/><polygon class="a64c3dd1-e303-4c2f-9a41-90e0f867af5e" points="487.12 387.34 487.12 389.72 486.69 389.96 478.04 394.96 478.04 392.59 478.45 392.34 487.12 387.34"/><polygon class="a64c3dd1-e303-4c2f-9a41-90e0f867af5e" points="499.84 380 499.84 382.37 499.41 382.62 490.75 387.62 490.75 385.24 491.18 385 499.84 380"/><polygon class="a64c3dd1-e303-4c2f-9a41-90e0f867af5e" points="512.56 372.65 512.56 375.03 512.13 375.28 503.47 380.28 503.47 377.9 503.9 377.65 512.56 372.65"/><polygon class="a64c3dd1-e303-4c2f-9a41-90e0f867af5e" points="525.28 365.31 525.28 367.68 516.19 372.93 516.19 370.56 516.63 370.31 525.28 365.31"/><polygon class="a64c3dd1-e303-4c2f-9a41-90e0f867af5e" points="538 357.96 538 360.34 528.91 365.59 528.91 363.21 529.34 362.96 538 357.96"/><polygon class="a64c3dd1-e303-4c2f-9a41-90e0f867af5e" points="550.72 350.62 550.72 353 550.3 353.24 541.64 358.24 541.64 355.87 542.06 355.62 550.72 350.62"/><polygon class="a64c3dd1-e303-4c2f-9a41-90e0f867af5e" points="570.42 339.25 570.42 341.62 563.02 345.9 554.36 350.9 554.36 348.52 561.76 344.25 570.42 339.25"/><polygon class="a64c3dd1-e303-4c2f-9a41-90e0f867af5e" points="430.5 434.73 430.5 437.1 430.06 437.35 421.4 442.35 421.4 439.97 421.83 439.73 430.5 434.73"/><polygon class="a64c3dd1-e303-4c2f-9a41-90e0f867af5e" points="443.21 427.38 443.21 429.76 442.78 430 434.12 435 434.12 432.63 434.55 432.38 443.21 427.38"/><polygon class="a64c3dd1-e303-4c2f-9a41-90e0f867af5e" points="455.93 420.04 455.93 422.41 455.5 422.66 446.84 427.66 446.84 425.28 447.27 425.04 455.93 420.04"/><polygon class="a64c3dd1-e303-4c2f-9a41-90e0f867af5e" points="468.65 412.69 468.65 415.07 468.22 415.31 459.56 420.31 459.56 417.94 460 417.69 468.65 412.69"/><polygon class="a64c3dd1-e303-4c2f-9a41-90e0f867af5e" points="519.54 383.31 519.54 385.69 515.59 387.97 506.93 392.97 498.27 397.97 480.95 407.97 472.29 412.97 472.29 410.59 476.23 408.31 484.9 403.31 493.56 398.31 502.22 393.31 510.88 388.31 519.54 383.31"/><polygon class="a64c3dd1-e303-4c2f-9a41-90e0f867af5e" points="532.26 375.97 532.26 378.34 531.83 378.59 523.17 383.59 523.17 381.22 523.6 380.97 532.26 375.97"/><polygon class="a64c3dd1-e303-4c2f-9a41-90e0f867af5e" points="544.98 368.62 544.98 371 544.55 371.25 535.89 376.25 535.89 373.87 536.33 373.62 544.98 368.62"/><polygon class="a64c3dd1-e303-4c2f-9a41-90e0f867af5e" points="557.71 361.28 557.71 363.66 557.27 363.9 548.62 368.9 548.62 366.53 549.04 366.28 557.71 361.28"/><polygon class="a64c3dd1-e303-4c2f-9a41-90e0f867af5e" points="564.91 350.75 564.91 353 564.79 353.06 557.76 357.12 557.76 357.25 555.82 358.37 555.82 356 556.25 355.75 564.91 350.75"/><polygon class="a64c3dd1-e303-4c2f-9a41-90e0f867af5e" points="570.42 353.94 570.42 356.31 570 356.56 561.34 361.56 561.34 359.18 561.76 358.94 570.42 353.94"/><polygon class="a64c3dd1-e303-4c2f-9a41-90e0f867af5e" points="583.14 346.59 583.14 348.97 582.72 349.21 574.06 354.21 574.06 351.84 574.48 351.59 583.14 346.59"/><polygon class="a64c3dd1-e303-4c2f-9a41-90e0f867af5e" points="364.38 399.41 364.38 401.79 357.76 405.61 357.76 403.23 364.38 399.41"/><polygon class="a64c3dd1-e303-4c2f-9a41-90e0f867af5e" points="377.1 392.07 377.1 394.44 376.67 394.69 368.01 399.69 368.01 397.32 368.44 397.07 377.1 392.07"/><polygon class="a64c3dd1-e303-4c2f-9a41-90e0f867af5e" points="389.82 384.72 389.82 387.1 389.4 387.35 380.74 392.35 380.74 389.97 381.16 389.72 389.82 384.72"/><polygon class="a64c3dd1-e303-4c2f-9a41-90e0f867af5e" points="402.54 377.38 402.54 379.76 402.12 380 393.46 385 393.46 382.63 393.88 382.38 402.54 377.38"/><polygon class="a64c3dd1-e303-4c2f-9a41-90e0f867af5e" points="415.27 370.04 415.27 372.41 414.84 372.66 406.18 377.66 406.18 375.28 406.6 375.03 415.27 370.04"/><polygon class="a64c3dd1-e303-4c2f-9a41-90e0f867af5e" points="428 362.69 428 365.07 427.56 365.31 418.9 370.31 418.9 367.94 419.33 367.69 428 362.69"/><polygon class="a64c3dd1-e303-4c2f-9a41-90e0f867af5e" points="440.71 355.35 440.71 357.72 440.28 357.97 431.62 362.97 431.62 360.59 432.05 360.35 440.71 355.35"/><polygon class="a64c3dd1-e303-4c2f-9a41-90e0f867af5e" points="453.43 348 453.43 350.38 453 350.62 444.34 355.62 444.34 353.25 444.77 353 453.43 348"/><polygon class="a64c3dd1-e303-4c2f-9a41-90e0f867af5e" points="466.15 340.66 466.15 343.03 465.72 343.28 457.06 348.28 457.06 345.9 457.5 345.66 466.15 340.66"/><polygon class="a64c3dd1-e303-4c2f-9a41-90e0f867af5e" points="478.87 333.31 478.87 335.69 478.45 335.93 469.79 340.93 469.79 338.56 470.21 338.31 478.87 333.31"/><polygon class="a64c3dd1-e303-4c2f-9a41-90e0f867af5e" points="491.59 325.97 491.59 328.34 491.17 328.59 482.51 333.59 482.51 331.21 482.93 330.97 491.59 325.97"/><polygon class="a64c3dd1-e303-4c2f-9a41-90e0f867af5e" points="519.51 309.85 519.51 312.23 495.23 326.24 495.23 323.87 502.19 319.85 510.85 314.85 519.51 309.85"/><polygon class="b41ca556-745c-41dd-828f-534f2113bbf5" points="453.2 241.66 451.94 244.32 447.64 253.35 446.33 254.11 444.81 254.99 436.14 259.99 428.23 264.56 419.57 269.56 410.92 274.56 402.25 279.56 394.85 275.36 394.57 273.01 393.43 263.07 392.26 253.14 391.15 243.58 394.74 236.08 396.33 232.72 400.63 223.69 403.55 217.55 407.85 208.52 411.1 206.64 419.75 201.64 428.42 196.64 429.93 195.76 438.6 190.76 446.75 186.06 447.68 194 446.93 195.57 446.83 195.77 442.54 204.8 442.12 205.69 433.5 210.66 424.83 215.66 416.18 220.66 414.48 224.21 410.18 233.24 410.1 233.44 405.8 242.47 405.06 244.04 405.75 249.99 406.89 259.93 412.81 256.51 421.46 251.51 422.98 250.64 431.64 245.64 439.31 241.21 441.85 235.89 446.14 226.86 450.44 217.83 450.9 221.8 453.2 241.66"/><polygon class="b41ca556-745c-41dd-828f-534f2113bbf5" points="449.52 209.89 446.98 215.2 442.69 224.23 438.39 233.26 432.96 236.4 424.3 241.4 418.94 244.5 418.17 237.85 418.01 236.55 419.29 233.89 423.58 224.86 432.19 219.89 440.85 214.89 449.52 209.89"/><polygon class="b41ca556-745c-41dd-828f-534f2113bbf5" points="387.83 262.45 379.17 267.45 370.51 272.45 368.38 273.69 361.89 277.43 355.78 273.96 347.08 269.03 355.7 264.05 373.02 254.05 379.13 257.52 387.83 262.45"/><polygon class="b41ca556-745c-41dd-828f-534f2113bbf5" points="389.68 278.34 388.41 281 384.11 290.03 378 286.56 369.3 281.63 375.79 277.89 368.38 273.69 379.17 267.45 387.83 262.45 388.52 268.41 389.68 278.34"/><polygon class="b41ca556-745c-41dd-828f-534f2113bbf5" points="377.63 293.77 375.54 294.98 366.88 299.98 358.22 304.98 349.56 309.98 340.9 314.98 332.24 319.98 331.59 314.39 331.32 312.04 332.58 309.38 336.88 300.35 345.5 295.37 354.16 290.37 362.82 285.37 368.93 288.84 377.63 293.77"/><polygon class="b41ca556-745c-41dd-828f-534f2113bbf5" points="385.06 238.62 384.69 238.84 376.03 243.84 367.37 248.84 358.71 253.84 350.05 258.84 348.33 259.83 339.67 264.83 338.28 264.04 336.7 263.14 328 258.21 324.86 256.43 326.96 255.21 335.62 250.21 344.28 245.21 352.94 240.21 361.61 235.21 370.13 230.29 378.79 225.29 383.22 222.73 383.74 227.19 384.89 237.13 385.06 238.62"/><polygon class="b41ca556-745c-41dd-828f-534f2113bbf5" points="355.41 281.17 353.28 282.4 344.62 287.4 335.96 292.4 334.13 291.37 328.55 288.2 327.76 281.44 326.61 271.51 326.53 270.82 325.78 264.37 331.8 267.78 333.96 269.01 342.66 273.94 346.71 276.24 355.41 281.17"/><polygon class="b6d71f7a-1098-4c58-887b-eda591bb50b6" points="113.57 110.5 113.57 143.69 60.59 141.09 113.57 110.5"/><polygon class="e2f099b3-259f-44fe-bc66-396256358152" points="214.28 174.21 197 184.19 188.34 189.19 179.68 194.19 176.06 196.28 176.12 173.9 176.12 172.19 214.28 174.21"/><polygon class="e2f099b3-259f-44fe-bc66-396256358152" points="230.07 150 230.06 150.01 222.49 156.55 219.99 158.72 219.54 159.11 219.37 163.59 219.07 171.45 214.38 174.2 214.31 174.2 214.28 174.21 176.12 172.19 176.18 146.76 176.12 146.76 174.45 146.68 164.47 146.19 124.51 144.23 116.35 143.83 114.21 143.72 113.57 143.69 113.57 110.5 175.54 113.72 230.06 116.56 230.07 150"/><polygon class="e2f099b3-259f-44fe-bc66-396256358152" points="382.94 43.11 378.51 45.67 371.35 41.54 362.69 36.54 354.03 31.54 345.37 26.54 336.71 21.54 336.71 16.43 345.37 21.43 354.03 26.43 362.69 31.43 371.35 36.43 380.01 41.43 382.94 43.11"/><polygon class="b6d71f7a-1098-4c58-887b-eda591bb50b6" points="336.71 16.43 336.71 21.54 328.53 26.27 320.13 31.12 312.63 35.44 305.89 39.34 297.23 44.34 288.57 49.34 279.91 54.34 271.25 59.34 262.58 64.34 253.92 69.34 245.26 74.34 236.6 79.34 227.94 84.34 219.28 89.34 210.62 94.34 201.96 99.34 194.12 98.93 193.84 98.92 202.5 93.92 211.16 88.92 219.82 83.92 228.48 78.92 237.14 73.92 254.46 63.92 263.12 58.92 271.78 53.92 280.44 48.92 289.1 43.92 297.76 38.92 306.42 33.92 315.08 28.92 323.74 23.92 332.06 19.11 336.71 16.43"/><polygon class="ba11261f-913c-4a4a-b01c-a4a9ea12831e" points="378.51 45.67 369.85 50.67 361.12 55.71 352.46 60.71 347.1 63.81 341.49 67.04 332.83 72.04 324.17 77.04 315.51 82.04 306.85 87.04 298.19 92.04 295.24 93.75 288.94 97.38 281.18 101.86 272.52 106.86 263.86 111.86 255.1 116.92 255.1 102.1 245.34 101.59 235.36 101.07 225.37 100.55 219.61 100.26 209.62 99.74 202.24 99.35 201.96 99.34 210.62 94.34 219.28 89.34 227.94 84.34 236.6 79.34 245.26 74.34 253.92 69.34 262.58 64.34 271.25 59.34 279.91 54.34 288.57 49.34 297.23 44.34 305.89 39.34 312.63 35.44 320.13 31.12 328.53 26.27 336.71 21.54 345.37 26.54 354.03 31.54 362.69 36.54 371.35 41.54 378.51 45.67"/><polygon class="ba11261f-913c-4a4a-b01c-a4a9ea12831e" points="377.99 73.48 374.85 80.11 370.57 89.14 366.29 98.18 362.01 107.22 357.73 116.26 353.45 125.3 349.17 134.33 344.89 143.37 340.61 152.41 338.69 156.47 337.78 157 333.04 159.73 324.38 164.73 315.72 169.73 307.06 174.73 298.4 179.73 281.08 189.73 272.42 194.73 263.76 199.73 255.1 204.73 255.1 144.43 260.52 141.3 261.73 140.6 267.6 137.22 276.26 132.22 278.54 130.9 279.87 130.13 288.53 125.13 297.19 120.13 305.85 115.13 314.51 110.13 323.17 105.13 331.83 100.13 340.49 95.13 342.76 93.82 344.94 92.56 353.6 87.56 362.26 82.56 370.92 77.56 372.13 76.86 377.99 73.48"/><polygon class="a64c3dd1-e303-4c2f-9a41-90e0f867af5e" points="289.1 351.33 280.2 356.47 271.54 361.47 262.88 366.47 254.22 371.47 245.56 376.47 248.66 370.19 253.08 361.23 256.62 354.05 261.04 345.09 265.47 336.12 269.89 327.15 274.32 318.18 278.74 309.21 283.17 300.25 284.32 310.18 285.47 320.11 285.95 324.24 287.1 334.17 288.26 344.11 289.1 351.33"/><polygon class="b41ca556-745c-41dd-828f-534f2113bbf5" points="283.17 300.25 278.74 309.21 274.32 318.18 269.89 327.15 265.47 336.12 261.04 345.09 256.62 354.05 253.08 361.23 248.66 370.19 245.56 376.47 241.72 374.25 233.06 369.25 229.19 367.02 220.53 362.02 211.87 357.02 203.21 352.02 194.55 347.02 188.16 343.33 184.37 341.14 175.66 336.11 176.01 335.41 184.67 330.41 193.33 325.41 198.47 322.44 195.68 328.09 197.28 329.01 205.94 334.01 214.6 339.01 223.26 344.01 231.92 349.01 240.58 354.01 240.89 353.38 244.37 346.32 248.8 337.36 253.22 328.39 257.64 319.42 262.07 310.45 263.73 307.08 267.42 299.6 271.85 290.63 275.68 282.86 280.11 273.89 280.88 280.54 281.41 285.11 282.56 295.05 282.69 296.13 283.17 300.25"/><polygon class="a64c3dd1-e303-4c2f-9a41-90e0f867af5e" points="403.43 44.95 394.77 49.95 389.45 53.02 380.79 58.02 372.13 63.02 363.75 67.86 355.09 72.86 346.43 77.86 337.77 82.86 320.45 92.86 311.79 97.86 303.13 102.86 294.47 107.86 285.81 112.86 280.03 116.19 272.42 120.59 263.76 125.59 255.1 130.59 255.1 144.43 260.52 141.3 261.73 140.6 267.6 137.22 276.26 132.22 278.54 130.9 279.87 130.13 288.53 125.13 297.19 120.13 305.85 115.13 314.51 110.13 323.17 105.13 331.83 100.13 340.49 95.13 342.76 93.82 344.94 92.56 353.6 87.56 362.26 82.56 370.92 77.56 372.13 76.86 377.99 73.48 385.75 69 381.64 77.69 377.36 86.73 373.08 95.77 368.8 104.8 364.52 113.84 360.24 122.88 355.96 131.92 351.68 140.95 347.4 149.99 343.12 159.03 339.91 160.88 334.25 164.15 325.59 169.15 316.93 174.15 308.27 179.15 290.95 189.15 282.29 194.15 273.63 199.15 264.97 204.15 256.31 209.15 255.1 209.85 255.1 223.68 258.37 221.79 267.03 216.79 275.69 211.79 284.35 206.79 286.47 205.57 295.13 200.57 303.79 195.57 312.45 190.57 321.11 185.57 324.71 183.49 330.37 180.22 334.1 178.07 342.76 173.07 347.17 170.52 347.47 169.91 351.89 160.94 352.36 160 356.78 151.04 361.2 142.07 365.63 133.1 370.05 124.13 374.48 115.16 378.9 106.2 383.33 97.23 387.75 88.26 392.18 79.29 396.6 70.32 399.17 65.11 401.83 59.72 406.26 50.75 410.68 41.78 411.38 40.36 403.43 44.95"/><polygon class="a64c3dd1-e303-4c2f-9a41-90e0f867af5e" points="255.1 102.1 255.1 223.68 249.71 226.79 246.01 228.92 246.01 178.1 246.22 172.6 246.6 162.6 244.44 160 243.46 158.82 239.03 153.48 238.34 152.64 233.6 146.94 230.06 150.01 230.06 116.56 237.78 112.1 246.44 107.1 255.1 102.1"/><polygon class="b41ca556-745c-41dd-828f-534f2113bbf5" points="347.17 170.52 343.05 178.87 334.39 183.87 326.25 188.57 320.59 191.84 324.71 183.49 330.37 180.22 334.1 178.07 342.76 173.07 347.17 170.52"/><polygon class="ba11261f-913c-4a4a-b01c-a4a9ea12831e" points="324.71 183.49 320.59 191.84 311.93 196.84 303.27 201.84 294.61 206.84 291.56 208.6 282.9 213.6 282.4 213.89 276.61 217.23 276.38 217.38 276.16 217.54 275.94 217.72 275.73 217.92 275.53 218.14 275.34 218.38 275.16 218.62 274.99 218.89 274.83 219.16 274.69 219.45 274.56 219.74 274.44 220.04 274.34 220.34 274.26 220.65 274.19 220.95 274.15 221.26 274.12 221.56 274.1 221.86 274.11 222.15 274.13 222.43 274.92 229.18 275 229.93 275.38 233.18 276.28 240.95 277.43 250.88 278.59 260.81 279.74 270.75 280.11 273.89 275.68 282.86 271.85 290.63 267.42 299.6 263.73 307.08 262.07 310.45 257.64 319.42 253.22 328.39 248.8 337.36 244.37 346.32 240.89 353.38 233.79 349.27 225.13 344.27 216.47 339.27 207.81 334.27 199.15 329.27 199.71 328.14 204.13 319.17 212.79 314.17 221.45 309.17 238.77 299.17 241.43 297.64 246.01 294.99 246.01 234.28 249.71 226.79 255.1 223.68 258.37 221.79 267.03 216.79 275.69 211.79 284.35 206.79 286.47 205.57 295.13 200.57 303.79 195.57 312.45 190.57 321.11 185.57 324.71 183.49"/><polygon class="b51c37ae-d710-4a3c-8e62-72c10a05dcc9" points="656.41 367.98 656.41 376.79 656.38 376.98 656.38 376.99 656.33 377.17 656.26 377.36 656.16 377.54 656.04 377.73 655.89 377.9 655.72 378.07 655.53 378.23 655.32 378.38 655.09 378.53 650.13 381.39 641.47 386.39 632.81 391.39 624.15 396.39 606.83 406.39 598.17 411.39 589.51 416.39 583.53 419.84 574.87 424.84 566.21 429.84 548.89 439.84 540.23 444.84 531.57 449.84 522.91 454.84 517.95 457.7 509.29 462.7 500.63 467.7 491.97 472.7 483.31 477.7 474.65 482.7 457.33 492.7 457.08 492.84 456.82 492.96 456.54 493.07 456.24 493.17 455.94 493.25 455.63 493.32 455.31 493.38 454.98 493.42 454.65 493.45 454.32 493.46 454 493.46 453.89 484.64 453.99 484.65 454.32 484.65 454.65 484.64 454.98 484.61 455.31 484.57 455.63 484.51 455.94 484.44 456.24 484.35 456.54 484.26 456.82 484.15 457.08 484.02 457.33 483.89 474.65 473.89 483.31 468.89 491.97 463.89 500.63 458.89 509.29 453.89 517.95 448.89 522.91 446.03 531.57 441.03 540.23 436.03 548.89 431.03 566.21 421.03 574.87 416.03 583.53 411.03 589.51 407.58 598.17 402.58 606.83 397.58 624.15 387.58 632.81 382.58 641.47 377.58 650.13 372.58 655.09 369.72 655.32 369.57 655.53 369.42 655.72 369.26 655.89 369.09 656.04 368.91 656.16 368.73 656.26 368.55 656.33 368.36 656.38 368.17 656.41 367.98"/><polygon class="bc47ff20-d0d1-4e84-9cb6-e3d9c8556d52" points="454 493.46 453.99 493.46 453.67 493.44 453.35 493.41 453.03 493.37 452.73 493.31 452.43 493.23 452.15 493.14 451.88 493.04 451.62 492.93 451.39 492.8 446.67 490.08 443.1 488.02 434.44 483.02 425.78 478.02 417.12 473.02 414.14 471.3 405.48 466.3 396.82 461.3 388.16 456.3 379.5 451.3 370.84 446.3 362.18 441.3 353.52 436.3 336.2 426.3 327.54 421.3 318.88 416.3 310.22 411.3 301.56 406.3 301.34 406.16 301.15 406.02 300.97 405.86 300.82 405.7 300.69 405.53 300.58 405.35 300.5 405.17 300.45 404.98 300.43 404.85 300.43 404.52 300.42 395.99 300.45 396.17 300.5 396.36 300.58 396.54 300.69 396.72 300.82 396.89 300.97 397.05 301.15 397.2 301.34 397.35 301.56 397.49 310.22 402.49 318.88 407.49 327.54 412.49 336.2 417.49 353.52 427.49 362.18 432.49 370.84 437.49 379.5 442.49 388.16 447.49 396.82 452.49 405.48 457.49 414.14 462.49 417.12 464.21 425.78 469.21 434.44 474.21 443.1 479.21 446.67 481.27 451.39 483.99 451.62 484.12 451.88 484.23 452.15 484.33 452.43 484.42 452.73 484.49 453.03 484.55 453.35 484.6 453.67 484.63 453.89 484.64 454 493.46"/><g class="bce0d6b4-871f-4bb0-89fd-5178e2d012c8"><path class="bc47ff20-d0d1-4e84-9cb6-e3d9c8556d52" d="M589.61,296.3a25.41,25.41,0,0,1,12.22-15.79,25.84,25.84,0,0,1,20.69-2.26,26.61,26.61,0,0,1,15.57,13.8,27,27,0,0,1,2.59,10A24.39,24.39,0,0,1,639.2,312a31,31,0,0,0-4.56-18.05A25.75,25.75,0,0,0,621,283a24.77,24.77,0,0,0-17.4,1,30.54,30.54,0,0,0-14,12.29" transform="translate(-136.78 -194.67)"/><path class="bc47ff20-d0d1-4e84-9cb6-e3d9c8556d52" d="M573.08,270.35a49.29,49.29,0,0,1,9.3-16.63,52,52,0,0,1,15.06-12.16,50.93,50.93,0,0,1,18.71-5.8,48.05,48.05,0,0,1,19.63,2,50.17,50.17,0,0,1,17.11,9.81,52.48,52.48,0,0,1,17.48,34,50.21,50.21,0,0,1-1.74,19,59.41,59.41,0,0,0-.69-18.61,55.18,55.18,0,0,0-6.47-17.05,52.39,52.39,0,0,0-11.65-13.74,46.67,46.67,0,0,0-15.58-8.66,44.41,44.41,0,0,0-17.67-2.07A50.74,50.74,0,0,0,599.18,245a56.27,56.27,0,0,0-26.1,25.32" transform="translate(-136.78 -194.67)"/><path class="bc47ff20-d0d1-4e84-9cb6-e3d9c8556d52" d="M579.19,283.35a41.26,41.26,0,0,1,34.59-27.79,38.36,38.36,0,0,1,15.77,1.63,40.22,40.22,0,0,1,13.74,7.87,42.27,42.27,0,0,1,14,27.33,40.25,40.25,0,0,1-1.4,15.24A45.71,45.71,0,0,0,650.18,279a41.88,41.88,0,0,0-9.35-11,37.37,37.37,0,0,0-12.52-7,35.68,35.68,0,0,0-14.19-1.66,40.78,40.78,0,0,0-14,3.67,45.16,45.16,0,0,0-21,20.34" transform="translate(-136.78 -194.67)"/><polygon class="e2f099b3-259f-44fe-bc66-396256358152" points="240.89 353.38 240.58 354.01 231.92 349.01 223.26 344.01 214.6 339.01 205.94 334.01 197.28 329.01 195.68 328.09 199.15 329.27 207.81 334.27 216.47 339.27 225.13 344.27 233.79 349.27 240.89 353.38"/><path class="bc47ff20-d0d1-4e84-9cb6-e3d9c8556d52" d="M289.71,611.57q8.75,4.23,17.15,9.16,4.2,2.46,8.29,5.09c2.74,1.74,5.38,3.65,8.15,5.19s5.77,2.74,8.73,2.33a8.58,8.58,0,0,0,4-1.66,17.27,17.27,0,0,0,1.73-1.52,15.11,15.11,0,0,1,1.92-1.73,3.6,3.6,0,0,1,1.49-.63,3.27,3.27,0,0,1,1.7.18,4.48,4.48,0,0,1,2.17,2.15,20,20,0,0,1,1.55,4.88,58.8,58.8,0,0,0,2.35,9.21,11.08,11.08,0,0,0,2.29,3.7,5.63,5.63,0,0,0,3.5,1.68,16.29,16.29,0,0,0,4.38-.85,11.35,11.35,0,0,1,5.41-.11,10.47,10.47,0,0,1,4.86,2.56,15.58,15.58,0,0,1,3,4.36,42.38,42.38,0,0,0,2.24,4.14,17,17,0,0,0,2.9,3.41,17.62,17.62,0,0,0,3.66,2.54,16,16,0,0,0,4.22,1.41c3,.64,6.18.45,9.61,1a13.84,13.84,0,0,1,9.11,5.28,15.45,15.45,0,0,1,2.48,4.71,46.69,46.69,0,0,0,1.53,4.45,11.2,11.2,0,0,0,6.28,5.49,18,18,0,0,0,4.35,1,37.77,37.77,0,0,0,4.68.13,32,32,0,0,1,10,1.68,44.84,44.84,0,0,1,9,4.3,73.32,73.32,0,0,1,8.06,5.73c2.56,2,5,4.21,7.41,6.4a168.56,168.56,0,0,0,14.66,12.54A246.14,246.14,0,0,0,505.58,740c11.42,6.06,23.18,11.48,35,16.75-24.09-9.43-48-20-69.33-35.11-2.64-1.9-5.25-3.88-7.75-6s-4.89-4.31-7.3-6.45-4.84-4.25-7.35-6.22a71.51,71.51,0,0,0-7.83-5.43,43.72,43.72,0,0,0-8.48-4,29.55,29.55,0,0,0-9.06-1.49,39,39,0,0,1-5-.13,21,21,0,0,1-5.08-1.17,16,16,0,0,1-4.61-2.69,12.5,12.5,0,0,1-3.35-4.32,48.53,48.53,0,0,1-1.62-4.73,12.45,12.45,0,0,0-2-3.85,12.12,12.12,0,0,0-3.2-2.83,12.25,12.25,0,0,0-4.08-1.4c-3-.52-6.29-.35-9.68-1.06a19,19,0,0,1-4.95-1.69,16.35,16.35,0,0,1-2.24-1.37l-1.05-.78c-.35-.26-.66-.57-1-.86a19.85,19.85,0,0,1-3.32-4,45.19,45.19,0,0,1-2.34-4.42,13.21,13.21,0,0,0-2.4-3.65,7.88,7.88,0,0,0-3.62-2,8.84,8.84,0,0,0-4.21.07,16.74,16.74,0,0,1-5.14.84,8,8,0,0,1-5-2.49,13.15,13.15,0,0,1-2.72-4.54,60.86,60.86,0,0,1-2.26-9.63,18.37,18.37,0,0,0-1.26-4.38c-.64-1.28-1.54-1.75-2.55-1s-2.23,2.14-3.65,3.13a10.41,10.41,0,0,1-4.88,1.88,12.27,12.27,0,0,1-5.13-.59,22,22,0,0,1-4.54-2.14c-2.83-1.71-5.38-3.7-8.05-5.52s-5.34-3.63-8.08-5.36q-8.19-5.17-16.73-9.83" transform="translate(-136.78 -194.67)"/><path class="bc47ff20-d0d1-4e84-9cb6-e3d9c8556d52" d="M653.37,773.75a83.24,83.24,0,0,0,16.53-7.64,75.71,75.71,0,0,0,14.22-11.23c2.17-2.11,4.22-4.34,6.27-6.59s4.08-4.55,6.3-6.71a30.37,30.37,0,0,1,7.54-5.63,19.18,19.18,0,0,1,4.54-1.61c.8-.13,1.57-.32,2.4-.4a11.29,11.29,0,0,1,2.53.06,14.59,14.59,0,0,1,4.66,1.59c1.39.69,2.63,1.32,3.69,1.22a4.88,4.88,0,0,0,3.09-1.64,10.23,10.23,0,0,0,1.91-3.53c.93-2.72,1.4-5.78,2.42-8.81a17.65,17.65,0,0,1,2.12-4.46,11.59,11.59,0,0,1,3.75-3.52,9.15,9.15,0,0,1,2.49-1,8.72,8.72,0,0,1,2.67-.22,42.25,42.25,0,0,1,4.68.69,30.09,30.09,0,0,0,8.73.26,36.61,36.61,0,0,0,8.54-2,46.27,46.27,0,0,0,8-3.84,65.94,65.94,0,0,0,13.81-11.25,44.94,44.94,0,0,0,5.36-7c1.58-2.5,2.92-5.3,5-7.86a19.38,19.38,0,0,1,3.54-3.41,27,27,0,0,1,4.17-2.46,17.77,17.77,0,0,1,4.69-1.52c1.63-.26,3.18-.3,4.67-.42a50.77,50.77,0,0,0,8.8-1.43,81.31,81.31,0,0,0,8.62-2.59,89.86,89.86,0,0,0,16.26-7.85,87.74,87.74,0,0,0,7.5-5c2.39-1.82,4.57-3.91,6.9-5.93a101.42,101.42,0,0,1,15.07-10.51c2.66-1.52,5.37-2.94,8.14-4.23s5.59-2.45,8.45-3.5A109.59,109.59,0,0,0,860.69,653c-2.22,2-4.41,4.22-6.84,6.15a87.15,87.15,0,0,1-7.54,5.34,92.67,92.67,0,0,1-16.45,8.4,65.52,65.52,0,0,1-18,4.48c-1.55.14-3.06.2-4.43.45a14.86,14.86,0,0,0-4,1.33,24.65,24.65,0,0,0-3.66,2.23,17.1,17.1,0,0,0-3,3A85.82,85.82,0,0,0,792,692a46.45,46.45,0,0,1-5.68,7.51A68.47,68.47,0,0,1,772,711.33a49.45,49.45,0,0,1-8.5,4,40,40,0,0,1-9.25,2.09,33.16,33.16,0,0,1-9.49-.33c-1.53-.25-3-.6-4.36-.67a6.09,6.09,0,0,0-3.59.83,11,11,0,0,0-4.71,6.41c-1,2.74-1.46,5.75-2.53,8.8a12.68,12.68,0,0,1-2.49,4.41,7.29,7.29,0,0,1-4.87,2.39,6.44,6.44,0,0,1-2.72-.53,23,23,0,0,1-2.16-1,12.43,12.43,0,0,0-3.92-1.46,9.07,9.07,0,0,0-2-.09c-.69,0-1.41.21-2.12.31a17.42,17.42,0,0,0-4.08,1.34A28.53,28.53,0,0,0,698,743c-4.37,4.11-8.32,8.84-12.86,13a75.68,75.68,0,0,1-31.76,17.82" transform="translate(-136.78 -194.67)"/><path class="b6d71f7a-1098-4c58-887b-eda591bb50b6" d="M382.79,430l-67.22,38.81-30,17.33v1.14h0v1.15l31-17.9,66.22-38.23Z" transform="translate(-136.78 -194.67)"/></g></svg>