<svg width="33" height="32" viewBox="0 0 33 32" fill="none" xmlns="http://www.w3.org/2000/svg">
<path d="M6.65056 0C3.4138 0 0.807556 2.60624 0.807556 5.84301V26.157C0.807556 29.3938 3.4138 32 6.65056 32H17.6606V19.49H14.3526V14.986H17.6606V11.138C17.6606 8.11482 19.6151 5.33901 24.1176 5.33901C25.9405 5.33901 27.2886 5.51402 27.2886 5.51402L27.1826 9.72003C27.1826 9.72003 25.8077 9.70704 24.3076 9.70704C22.6839 9.70704 22.4236 10.4551 22.4236 11.6971V14.986H27.3116L27.0986 19.49H22.4236V32.0001H26.9646C30.2013 32.0001 32.8076 29.3938 32.8076 26.1571V5.84304C32.8076 2.60627 30.2013 3.2e-05 26.9646 3.2e-05H6.65053L6.65056 0Z" fill="#0F1F1C" fill-opacity="0.75"/>
</svg>
