<svg width="33" height="32" viewBox="0 0 33 32" fill="none" xmlns="http://www.w3.org/2000/svg">
<path d="M16.9472 10.6644C14.0092 10.6644 11.6117 13.062 11.6117 16C11.6117 18.938 14.0092 21.3356 16.9472 21.3356C19.8851 21.3356 22.2827 18.938 22.2827 16C22.2827 13.062 19.8851 10.6644 16.9472 10.6644ZM32.9497 16C32.9497 13.7905 32.9697 11.601 32.8456 9.39554C32.7215 6.83381 32.1372 4.56027 30.2639 2.68701C28.3867 0.809737 26.1172 0.229345 23.5555 0.105261C21.3461 -0.018823 19.1566 0.00119058 16.9512 0.00119058C14.7417 0.00119058 12.5523 -0.018823 10.3468 0.105261C7.78516 0.229345 5.51166 0.813739 3.63843 2.68701C1.7612 4.56427 1.18082 6.83381 1.05674 9.39554C0.932654 11.605 0.952668 13.7945 0.952668 16C0.952668 18.2055 0.932654 20.399 1.05674 22.6045C1.18082 25.1662 1.7652 27.4397 3.63843 29.313C5.51567 31.1903 7.78516 31.7707 10.3468 31.8947C12.5563 32.0188 14.7457 31.9988 16.9512 31.9988C19.1606 31.9988 21.3501 32.0188 23.5555 31.8947C26.1172 31.7707 28.3907 31.1863 30.2639 29.313C32.1412 27.4357 32.7215 25.1662 32.8456 22.6045C32.9737 20.399 32.9497 18.2095 32.9497 16V16ZM16.9472 24.2095C12.4042 24.2095 8.73778 20.5431 8.73778 16C8.73778 11.4569 12.4042 7.79045 16.9472 7.79045C21.4902 7.79045 25.1566 11.4569 25.1566 16C25.1566 20.5431 21.4902 24.2095 16.9472 24.2095ZM25.4928 9.37152C24.4321 9.37152 23.5755 8.51494 23.5755 7.45423C23.5755 6.39351 24.4321 5.53693 25.4928 5.53693C26.5535 5.53693 27.4101 6.39351 27.4101 7.45423C27.4104 7.7061 27.361 7.95556 27.2648 8.18832C27.1685 8.42108 27.0273 8.63256 26.8492 8.81066C26.6711 8.98876 26.4596 9.12998 26.2269 9.22622C25.9941 9.32246 25.7447 9.37184 25.4928 9.37152V9.37152Z" fill="#0F1F1C" fill-opacity="0.75"/>
</svg>
