<?xml version="1.0" encoding="UTF-8" standalone="no"?>
<svg
   width="33"
   height="32"
   viewBox="0 0 33 32"
   fill="none"
   version="1.1"
   id="svg15"
   sodipodi:docname="Line.svg"
   inkscape:version="1.1.1 (3bf5ae0d25, 2021-09-20)"
   xmlns:inkscape="http://www.inkscape.org/namespaces/inkscape"
   xmlns:sodipodi="http://sodipodi.sourceforge.net/DTD/sodipodi-0.dtd"
   xmlns="http://www.w3.org/2000/svg"
   xmlns:svg="http://www.w3.org/2000/svg">
  <sodipodi:namedview
     id="namedview17"
     pagecolor="#ffffff"
     bordercolor="#666666"
     borderopacity="1.0"
     inkscape:pageshadow="2"
     inkscape:pageopacity="0.0"
     inkscape:pagecheckerboard="0"
     showgrid="false"
     inkscape:zoom="24.25"
     inkscape:cx="16.515464"
     inkscape:cy="15.958763"
     inkscape:window-width="1920"
     inkscape:window-height="1011"
     inkscape:window-x="0"
     inkscape:window-y="0"
     inkscape:window-maximized="1"
     inkscape:current-layer="g8" />
  <g
     clip-path="url(#clip0_1003_14778)"
     id="g8">
    <path
       d="M7.04892 0H25.9511C27.6864 0.00513968 29.3491 0.696764 30.5762 1.92381C31.8032 3.15086 32.4949 4.81362 32.5 6.54892V25.4511C32.4949 27.1864 31.8032 28.8491 30.5762 30.0762C29.3491 31.3032 27.6864 31.9949 25.9511 32H7.04892C5.31362 31.9949 3.65086 31.3032 2.42381 30.0762C1.19676 28.8491 0.50514 27.1864 0.5 25.4511V6.54892C0.50514 4.81362 1.19676 3.15086 2.42381 1.92381C3.65086 0.696764 5.31362 0.00513968 7.04892 0Z"
       fill="#0F1F1C"
       fill-opacity="0.75"
       id="path2" />
    <path
       d="M16.4687 5.30029C22.9532 5.30029 28.2094 9.50953 28.2094 14.7031C28.2094 16.5167 27.5673 18.2101 26.4568 19.6459C26.3909 19.7417 26.3181 19.8325 26.2391 19.9178L26.2323 19.9255C25.8449 20.3856 25.4177 20.8108 24.9557 21.1961C21.7097 24.1982 16.3653 27.7713 15.6597 27.2241C15.0464 26.7454 16.6694 24.4015 14.7973 24.0119C14.666 23.9966 14.5364 23.9805 14.4068 23.9619C8.90746 23.1809 4.73126 19.3342 4.73126 14.7056C4.72872 9.50953 9.98497 5.30029 16.4687 5.30029Z"
       fill="#D4D5D6"
       id="path4"
       style="fill:#ffffff" />
    <path
       d="M9.65713 17.7003H12.0248C12.1871 17.6998 12.3426 17.6352 12.4573 17.5204C12.5721 17.4056 12.6368 17.2501 12.6372 17.0878V17.037C12.6368 16.8747 12.5721 16.7192 12.4573 16.6044C12.3426 16.4897 12.1871 16.425 12.0248 16.4246H10.3204V12.5465C10.32 12.3842 10.2553 12.2287 10.1405 12.114C10.0258 11.9992 9.87025 11.9345 9.70796 11.9341H9.65713C9.4949 11.9348 9.33951 11.9995 9.2248 12.1142C9.11009 12.2289 9.04535 12.3843 9.04468 12.5465V17.0878C9.04512 17.2501 9.10979 17.4056 9.22455 17.5204C9.33931 17.6352 9.49483 17.6998 9.65713 17.7003ZM24.3297 14.8566V14.8057C24.3293 14.6435 24.2646 14.4879 24.1498 14.3732C24.0351 14.2584 23.8796 14.1937 23.7173 14.1933H22.0129V13.2208H23.7173C23.8796 13.2204 24.0351 13.1557 24.1498 13.0409C24.2646 12.9262 24.3293 12.7707 24.3297 12.6084V12.5575C24.3291 12.3953 24.2643 12.2399 24.1496 12.1252C24.0349 12.0105 23.8795 11.9458 23.7173 11.9451H21.3496C21.1873 11.9455 21.0318 12.0102 20.9171 12.125C20.8023 12.2397 20.7376 12.3953 20.7372 12.5575V17.0988C20.7376 17.2611 20.8023 17.4167 20.9171 17.5314C21.0318 17.6462 21.1873 17.7108 21.3496 17.7113H23.7173C23.8796 17.7108 24.0351 17.6462 24.1498 17.5314C24.2646 17.4167 24.3293 17.2611 24.3297 17.0988V17.048C24.3293 16.8857 24.2646 16.7302 24.1498 16.6154C24.0351 16.5007 23.8796 16.436 23.7173 16.4356H22.0129V15.4665H23.7173C23.8795 15.4658 24.0349 15.4011 24.1496 15.2864C24.2643 15.1717 24.3291 15.0163 24.3297 14.854V14.8566ZM19.7757 17.5207C19.8892 17.4066 19.9528 17.2521 19.9528 17.0912V12.5465C19.9523 12.3843 19.8876 12.2289 19.7728 12.1143C19.658 11.9996 19.5025 11.9352 19.3403 11.9349H19.2895C19.1273 11.9354 18.9719 11.9999 18.8572 12.1145C18.7425 12.2291 18.6777 12.3844 18.677 12.5465V15.2124L16.4644 12.2475C16.4108 12.1537 16.3334 12.0757 16.24 12.0214C16.1466 11.9671 16.0405 11.9384 15.9324 11.9383H15.8816C15.7194 11.9385 15.5639 12.003 15.4491 12.1176C15.3343 12.2323 15.2696 12.3877 15.2692 12.5499V17.0912C15.2696 17.2535 15.3343 17.409 15.449 17.5238C15.5638 17.6386 15.7193 17.7032 15.8816 17.7037H15.9324C16.0947 17.7032 16.2502 17.6386 16.365 17.5238C16.4798 17.409 16.5444 17.2535 16.5449 17.0912V14.3805L18.7736 17.425C18.788 17.4462 18.8024 17.4665 18.8185 17.486C18.8791 17.5668 18.9622 17.6281 19.0574 17.6622C19.131 17.6925 19.2099 17.708 19.2895 17.7079H19.3403C19.4402 17.7082 19.5385 17.6837 19.6266 17.6368C19.6836 17.6107 19.7344 17.5729 19.7757 17.5258V17.5207ZM13.7469 17.7003H13.7986C13.9608 17.6998 14.1162 17.6351 14.2309 17.5204C14.3455 17.4056 14.41 17.25 14.4102 17.0878V12.5465C14.4097 12.3845 14.3452 12.2292 14.2306 12.1146C14.116 12 13.9607 11.9354 13.7986 11.9349H13.7469C13.5848 11.9354 13.4294 11.9999 13.3146 12.1145C13.1999 12.2291 13.1351 12.3844 13.1345 12.5465V17.0878C13.1349 17.2501 13.1996 17.4056 13.3143 17.5204C13.4291 17.6352 13.5846 17.6998 13.7469 17.7003Z"
       fill="#0F1F1C"
       fill-opacity="0.75"
       id="path6" />
  </g>
  <defs
     id="defs13">
    <clipPath
       id="clip0_1003_14778">
      <rect
         width="32"
         height="32"
         fill="white"
         transform="translate(0.5)"
         id="rect10" />
    </clipPath>
  </defs>
</svg>
