<svg width="33" height="32" viewBox="0 0 33 32" fill="none" xmlns="http://www.w3.org/2000/svg">
<path d="M6.91473 0C3.46627 0 0.643921 2.82229 0.643921 6.2708V25.7302C0.643921 29.1787 3.46621 32 6.91473 32H26.3741C29.8226 32 32.6439 29.1787 32.6439 25.7302V6.2708C32.6439 2.82235 29.8226 0 26.3741 0H6.91473ZM8.49193 5.28064C10.1454 5.28064 11.1638 6.36611 11.1953 7.79294C11.1953 9.18827 10.1453 10.3042 8.45994 10.3042H8.42892C6.80693 10.3042 5.75857 9.18833 5.75857 7.79294C5.75857 6.36614 6.83866 5.28064 8.49189 5.28064H8.49193ZM22.7407 11.9495C25.9206 11.9495 28.3044 14.0279 28.3044 18.4943V26.8323H23.4718V19.0533C23.4718 17.0985 22.7724 15.7649 21.0235 15.7649C19.6884 15.7649 18.8926 16.6638 18.5432 17.5321C18.4156 17.8428 18.3842 18.2767 18.3842 18.7113V26.8323H13.5516C13.5516 26.8323 13.615 13.6549 13.5516 12.2905H18.3852V14.3498C19.0274 13.3589 20.1761 11.9494 22.7407 11.9494V11.9495ZM6.04362 12.2915H10.8762V26.8324H6.04362V12.2915Z" fill="#0F1F1C" fill-opacity="0.75"/>
</svg>
