<svg width="29" height="32" viewBox="0 0 29 32" fill="none" xmlns="http://www.w3.org/2000/svg">
<path d="M26.6028 7.50617C25.0153 7.15534 23.5792 6.30812 22.5006 5.0861C21.422 3.86408 20.7563 2.33007 20.599 0.704204V0H15.1049V21.8783C15.106 22.8491 14.8031 23.7956 14.2392 24.5838C13.6753 25.372 12.879 25.9619 11.9629 26.27C11.0469 26.578 10.0576 26.5886 9.13527 26.3002C8.21292 26.0118 7.40423 25.4391 6.82377 24.6631C6.30373 23.9763 5.98529 23.1569 5.90445 22.2976C5.82362 21.4384 5.98362 20.5736 6.36636 19.8009C6.7491 19.0283 7.33931 18.3787 8.07025 17.9256C8.80118 17.4725 9.64369 17.234 10.5025 17.237C10.9774 17.2343 11.45 17.3044 11.9039 17.445V11.8434C11.3757 11.7777 10.8434 11.7509 10.3114 11.7634C8.35148 11.816 6.4494 12.4419 4.83803 13.5644C3.22667 14.6868 1.97597 16.2571 1.23909 18.0831C0.502212 19.909 0.311135 21.9112 0.68926 23.8446C1.06738 25.778 1.9983 27.5586 3.36801 28.9684C4.77179 30.4027 6.56815 31.3853 8.52886 31.7913C10.4896 32.1972 12.5261 32.0083 14.3797 31.2484C16.2333 30.4885 17.8203 29.192 18.939 27.5236C20.0578 25.8552 20.6577 23.8902 20.6627 21.8783V10.6751C22.8787 12.2659 25.5359 13.1168 28.259 13.1078V7.66622C27.7241 7.66843 27.1904 7.6148 26.6665 7.50617H26.6028Z" fill="#0F1F1C" fill-opacity="0.75"/>
</svg>
