<svg width="33" height="32" viewBox="0 0 33 32" fill="none" xmlns="http://www.w3.org/2000/svg">
<path d="M28.6772 0H3.46662C1.56866 0 0.0288086 1.53571 0.0288086 3.42857V28.5714C0.0288086 30.4643 1.56866 32 3.46662 32H28.6772C30.5752 32 32.1151 30.4643 32.1151 28.5714V3.42857C32.1151 1.53571 30.5752 0 28.6772 0ZM25.175 11.3429C25.1893 11.5429 25.1893 11.75 25.1893 11.95C25.1893 18.1429 20.4623 25.2786 11.8248 25.2786C9.1605 25.2786 6.68957 24.5071 4.61256 23.1786C4.99215 23.2214 5.35742 23.2357 5.74417 23.2357C7.94294 23.2357 9.96266 22.4929 11.5741 21.2357C9.51144 21.1929 7.77821 19.8429 7.18376 17.9857C7.90713 18.0929 8.55888 18.0929 9.30374 17.9C7.15511 17.4643 5.54363 15.5786 5.54363 13.3V13.2429C6.16674 13.5929 6.89727 13.8071 7.66362 13.8357C7.01934 13.4083 6.49117 12.8285 6.12625 12.148C5.76133 11.4675 5.57102 10.7074 5.57228 9.93571C5.57228 9.06429 5.80147 8.26429 6.20971 7.57143C8.52307 10.4143 11.9967 12.2714 15.8929 12.4714C15.2268 9.29286 17.6118 6.71429 20.4766 6.71429C21.8303 6.71429 23.0478 7.27857 23.9073 8.19286C24.9673 7.99286 25.9843 7.6 26.8867 7.06429C26.5358 8.15 25.7981 9.06429 24.824 9.64286C25.7694 9.54286 26.6862 9.27857 27.5313 8.91429C26.8939 9.85 26.0917 10.6786 25.175 11.3429Z" fill="#0F1F1C" fill-opacity="0.75"/>
</svg>
