<?xml version="1.0" encoding="UTF-8" standalone="no"?>
<svg
   id="Layer_1"
   data-name="Layer 1"
   viewBox="0 0 796.47998 796.47998"
   version="1.1"
   sodipodi:docname="certificate.svg"
   width="796.47998"
   height="796.47998"
   inkscape:version="1.1.1 (3bf5ae0d25, 2021-09-20)"
   xmlns:inkscape="http://www.inkscape.org/namespaces/inkscape"
   xmlns:sodipodi="http://sodipodi.sourceforge.net/DTD/sodipodi-0.dtd"
   xmlns="http://www.w3.org/2000/svg"
   xmlns:svg="http://www.w3.org/2000/svg"
   xmlns:rdf="http://www.w3.org/1999/02/22-rdf-syntax-ns#"
   xmlns:cc="http://creativecommons.org/ns#"
   xmlns:dc="http://purl.org/dc/elements/1.1/">
  <sodipodi:namedview
     id="namedview93"
     pagecolor="#ffffff"
     bordercolor="#666666"
     borderopacity="1.0"
     inkscape:pageshadow="2"
     inkscape:pageopacity="0.0"
     inkscape:pagecheckerboard="0"
     showgrid="false"
     inkscape:zoom="0.71851852"
     inkscape:cx="208.06701"
     inkscape:cy="417.52577"
     inkscape:window-width="1920"
     inkscape:window-height="1011"
     inkscape:window-x="0"
     inkscape:window-y="0"
     inkscape:window-maximized="1"
     inkscape:current-layer="Layer_1" />
  <defs
     id="defs4">
    <style
       id="style2">.cls-1{fill:#006d58;}.cls-2{fill:#0b8c75;}.cls-3{fill:#059b89;}.cls-4{fill:#1ad3bd;}.cls-5{fill:#04bfad;}.cls-6{fill:#ef476f;}.cls-7{fill:#d13462;}.cls-8{fill:#d6d4d5;}.cls-9{fill:#fcfcfc;}.cls-10{fill:#fff;}.cls-11{fill:#ff6c96;}.cls-12{fill:#009e80;}.cls-13{fill:none;}.cls-14{fill:#f9cd87;}.cls-15{fill:#ffd166;}.cls-16{fill:#edb74c;}</style>
  </defs>
  <title
     id="title6">Artboard 1 copy 2</title>
  <g
     id="View_Layer_LineSet"
     data-name="View Layer_LineSet"
     transform="translate(-76.92501,-121.85001)">
    <g
       id="strokes">
      <polygon
         class="cls-1"
         points="167.65,896.74 167.65,465.82 168.69,466.43 195.97,482.19 195.97,913.1 196.06,914.15 196.28,915.11 196.66,915.96 197.18,916.69 197.82,917.29 198.59,917.76 197.54,917.15 190.72,913.22 183.9,909.28 177.07,905.35 170.25,901.42 169.47,900.94 168.82,900.34 168.31,899.6 167.94,898.75 167.72,897.8 "
         id="polygon8" />
      <path
         class="cls-2"
         d="m 782.65,144.37 v -0.9 l -0.08,-1.06 -0.23,-0.95 -0.37,-0.85 -0.52,-0.73 -0.64,-0.6 -0.78,-0.47 -0.9,-0.34 -1,-0.19 -1.11,-0.06 -1.2,0.1 -1.27,0.23 -1.33,0.37 -1.38,0.51 -1.41,0.64 -1.42,0.76 -6.82,3.94 -6.82,3.94 -6.82,3.93 -6.82,3.94 -6.82,3.94 -6.83,3.94 -13.64,7.88 -6.82,3.93 -6.82,3.94 -6.8,3.94 -27.3,15.76 -6.82,3.93 -6.83,3.94 -34.05,19.7 -6.83,3.93 -27.28,15.76 -6.89,3.94 -6.82,3.94 -6.81,3.95 -13.64,7.88 -6.83,3.94 -13.64,7.88 -6.82,3.94 -6.82,3.93 -6.82,3.94 -6.8,3.92 -20.46,11.82 -6.82,3.94 -6.83,3.93 -34.1,19.7 -6.83,3.94 -6.82,3.93 -20.46,11.82 -6.83,3.94 -6.85,3.94 -6.82,3.94 -6.82,3.93 -13.64,7.88 -6.83,3.94 -6.82,3.92 -6.82,4 -6.82,3.93 -6.82,3.94 -6.83,3.94 -20.46,11.82 -6.82,3.94 -6.82,3.93 -6.83,3.94 -27.28,15.76 -6.83,3.94 -6.82,3.86 -27.28,15.76 -1.44,0.88 -1.4,1 -1.38,1.08 -1.33,1.17 -1.27,1.23 -1.2,1.29 -1.11,1.34 -1,1.36 -0.9,1.37 -0.77,1.37 -0.65,1.35 -0.52,1.33 -0.37,1.27 -0.23,1.22 -0.08,1.15 V 913.1 l 0.08,1 0.23,1 0.37,0.85 0.52,0.73 0.65,0.6 0.77,0.47 0.9,0.34 1,0.19 1.11,0.05 1.2,-0.09 1.27,-0.23 1.33,-0.37 1.38,-0.51 1.4,-0.64 1.44,-0.76 1.12,-0.64 20.46,-11.82 6.83,-3.94 13.64,-7.88 6.82,-3.93 6.82,-3.94 6.83,-3.94 20.46,-11.82 6.82,-3.94 6.82,-3.93 6.83,-3.94 6.82,-3.94 6.82,-3.94 13.64,-7.88 6.83,-3.94 6.82,-3.93 27.28,-15.76 6.83,-3.94 6.82,-3.94 6.82,-3.93 13.64,-7.88 6.83,-3.94 13.64,-7.88 6.82,-3.93 13.64,-7.88 6.83,-3.94 20.46,-11.82 6.82,-3.93 6.83,-3.94 34.1,-19.7 6.82,-3.93 27.29,-15.76 6.83,-3.94 6.82,-3.94 6.81,-3.93 13.65,-7.88 3.79,-2.19 3,-1.75 6.6,-3.81 0.22,-0.13 6.82,-3.94 6.82,-3.94 6.81,-3.93 6.83,-3.94 6.83,-3.94 13.68,-7.87 6.82,-3.94 6.82,-3.94 6.81,-3.93 6.84,-3.94 20.46,-11.82 6.82,-3.94 6.83,-3.94 4.16,-2.4 2.66,-1.53 6.82,-3.94 6.82,-3.94 6.82,-3.94 6.83,-3.94 11.5,-6.64 1,-0.59 1.42,-0.88 1.41,-1 1.38,-1.09 1.33,-1.16 1.27,-1.23 1.2,-1.3 1.11,-1.33 1,-1.36 0.9,-1.37 0.78,-1.37 0.64,-1.36 0.55,-1.33 0.37,-1.28 0.23,-1.21 0.08,-1.15 v -0.74 z M 763,573.51 l -0.08,1.15 v 0.09 l -0.2,1.12 V 576 l -0.32,1.08 v 0.07 l -0.05,0.16 -0.53,1.34 -0.65,1.34 -0.77,1.34 -0.87,1.31 -1,1.29 -1.06,1.28 -0.53,0.58 -0.62,0.67 -1.32,1.22 -1.34,1.17 -1.36,1.15 -1.45,1 -1.45,0.9 -6.83,3.94 -6.82,3.93 -9.19,5.31 -4.45,2.57 -6.82,3.94 -6.84,3.94 -13.63,7.88 -6.82,3.92 -13.64,7.88 -6.83,3.94 -20.46,11.85 -6.82,3.93 -6.83,3.94 -20.42,11.75 -9.64,5.57 -4.07,2.35 -6.83,3.93 -27.26,15.76 -6.82,3.94 -6.82,3.94 -6.82,3.89 -20.46,11.82 -6.83,3.94 -6.82,3.94 -6.82,3.94 -6.81,3.97 -6.82,3.94 -6.83,3.94 -13.64,7.88 -6.82,3.94 -6.82,3.94 -6.82,3.93 -6.83,3.94 -20.42,11.82 -6.82,3.94 -6.83,3.94 -6.82,3.93 -27.33,15.76 -6.83,3.94 -6.82,3.93 -20.46,11.82 -6.83,3.94 -6.82,3.94 -6.82,3.92 -6.82,4 -6.8,3.89 -6.83,3.94 -13.64,7.88 -6.82,3.94 -6.82,3.94 -6.82,3.93 -6.83,3.94 -6.82,3.94 -6.78,3.92 -1.44,0.77 -1.23,0.55 -0.23,0.11 -1.38,0.51 v 0 l -1.31,0.38 -1.28,0.23 -1.2,0.09 -1.11,-0.05 -1,-0.19 -0.9,-0.34 -0.12,-0.07 -6.33,-3.68 -0.78,-0.47 -0.65,-0.6 -0.51,-0.73 -0.37,-0.85 -0.23,-1 -0.08,-1.06 v -388.8 l 0.08,-1.14 0.23,-1.22 0.37,-1.28 0.51,-1.32 0.65,-1.35 0.78,-1.37 0.89,-1.38 1,-1.36 1.11,-1.33 1.19,-1.29 1.28,-1.23 1.33,-1.17 1.38,-1.08 1.41,-1 1.42,-0.89 6.79,-3.91 6.82,-3.94 20.46,-11.82 6.83,-3.93 13.64,-7.88 6.82,-3.94 13.64,-7.88 6.83,-3.94 6.82,-3.93 13.64,-7.88 6.82,-3.94 6.83,-3.94 13.64,-7.88 6.82,-3.93 13.64,-7.88 6.82,-3.94 20.47,-11.82 6.82,-3.93 6.83,-3.94 34.1,-19.7 6.83,-3.93 6.82,-3.94 20.46,-11.82 6.83,-3.94 6.82,-3.94 6.82,-3.93 6.82,-3.94 6.82,-3.94 6.81,-3.94 6.84,-3.94 13.64,-7.88 6.82,-3.93 6.82,-3.94 6.83,-3.94 27.28,-15.76 6.82,-3.93 6.83,-3.94 27.28,-15.76 6.83,-3.93 6.82,-3.94 27.28,-15.76 6.83,-3.94 6.82,-3.93 6.82,-3.94 13.64,-7.88 6.83,-3.94 13.64,-7.88 1.43,-0.76 1.4,-0.64 1.38,-0.51 1.34,-0.37 1.27,-0.23 1.19,-0.09 1.11,0.05 1,0.19 0.9,0.34 0.29,0.17 0.14,0.07 6,3.48 0.24,0.14 0.54,0.33 0.65,0.61 0.51,0.73 0.37,0.85 0.22,1 0.08,1 z"
         id="path10" />
      <polygon
         class="cls-3"
         points="230.97,881.76 231.06,882.14 231.21,882.72 231.57,883.57 232.09,884.3 232.74,884.91 233.38,885.31 227.06,881.63 226.28,881.16 225.63,880.56 225.12,879.83 224.75,878.98 224.51,878.03 224.44,876.97 224.44,488.12 230.91,491.85 230.91,880.71 "
         id="polygon12" />
      <polygon
         class="cls-4"
         points="742.54,185.94 722.09,197.76 715.25,201.7 708.43,205.64 701.62,209.58 694.79,213.51 687.98,217.45 681.14,221.39 674.33,225.33 667.5,229.27 660.68,233.21 653.87,237.15 647.04,241.08 640.22,245.02 619.75,256.84 612.93,260.78 606.11,264.72 599.28,268.65 572,284.41 565.17,288.35 558.36,292.28 537.89,304.1 531.07,308.04 524.25,311.98 517.42,315.92 510.61,319.85 496.96,327.73 490.13,331.67 483.31,335.61 476.5,339.55 469.68,343.49 462.86,347.42 456.02,351.36 435.56,363.18 428.75,367.12 421.93,371.06 415.1,374.99 387.81,390.75 380.99,394.69 374.17,398.62 346.88,414.38 340.06,418.32 333.24,422.26 326.42,426.19 312.77,434.07 305.94,438.01 299.13,441.95 292.31,445.89 285.49,449.83 278.67,453.76 271.85,457.7 265.01,461.64 258.19,465.58 251.38,469.52 244.56,473.46 243.13,474.34 241.72,475.33 240.34,476.41 239,477.57 237.72,478.81 236.53,480.1 235.41,481.43 234.41,482.79 233.5,484.17 232.74,485.54 232.09,486.9 231.57,488.22 231.21,489.5 230.97,490.71 230.91,491.85 224.44,488.12 224.51,486.98 224.75,485.76 225.12,484.48 225.63,483.16 226.28,481.81 227.06,480.44 227.96,479.06 228.97,477.7 230.07,476.37 231.26,475.08 232.54,473.85 233.88,472.68 235.25,471.6 236.66,470.61 238.09,469.72 244.88,465.81 251.69,461.87 272.15,450.05 278.99,446.12 292.63,438.24 299.44,434.3 313.08,426.42 319.92,422.48 326.74,418.55 340.38,410.67 347.19,406.73 354.02,402.79 367.67,394.91 374.49,390.98 388.13,383.1 394.95,379.16 415.42,367.34 422.24,363.41 429.06,359.47 463.17,339.77 470,335.84 476.81,331.9 497.27,320.08 504.11,316.14 510.93,312.2 517.75,308.27 524.57,304.33 531.38,300.39 538.21,296.45 545.03,292.51 558.67,284.63 565.5,280.7 572.32,276.76 579.14,272.82 606.42,257.06 613.25,253.13 620.08,249.19 647.36,233.43 654.18,229.5 661,225.56 688.28,209.8 695.12,205.86 701.93,201.93 708.75,197.99 722.39,190.11 729.23,186.17 742.87,178.29 744.29,177.53 745.71,176.89 747.08,176.38 748.41,176.01 749.68,175.78 750.88,175.69 751.99,175.74 753,175.93 753.89,176.27 754.18,176.44 754.33,176.51 760.38,179.99 759.48,179.65 758.47,179.45 757.36,179.4 756.35,179.48 756.15,179.5 754.88,179.73 753.54,180.11 752.16,180.62 750.75,181.26 749.34,182.03 "
         id="polygon14" />
      <path
         class="cls-5"
         d="m 762.91,183.61 -0.22,-1 -0.37,-0.85 -0.51,-0.73 -0.65,-0.61 -0.54,-0.33 -0.24,-0.14 -0.9,-0.34 -1,-0.2 h -1.11 l -1,0.08 h -0.19 l -1.27,0.23 -1.34,0.38 -1.38,0.51 -1.41,0.64 -1.42,0.77 -6.79,3.91 -20.46,11.82 -6.83,3.94 -6.82,3.94 -6.82,3.94 -6.82,3.93 -6.82,3.95 -6.83,3.94 -6.82,3.94 -6.82,3.94 -6.82,3.94 -6.82,3.94 -6.82,3.93 -6.85,3.92 -20.46,11.82 -6.82,3.94 -6.83,3.94 -6.82,3.93 -27.29,15.78 -6.83,3.94 -6.82,3.93 -20.45,11.82 -6.83,3.9 -6.82,4 -6.82,3.94 -6.82,3.93 -13.61,7.86 -6.83,3.94 -6.82,3.94 -6.82,3.94 -6.82,3.94 -6.82,3.93 -6.89,3.94 -20.46,11.82 -6.82,3.94 -6.82,3.94 -6.8,3.94 -27.28,15.76 -6.82,3.93 -6.82,3.93 -27.28,15.76 -6.83,3.94 -6.82,3.94 -6.82,3.93 -13.64,7.88 -6.79,3.93 -6.87,4 -6.82,3.94 -6.82,3.94 -6.82,3.93 -6.82,3.94 -6.85,3.89 -6.82,3.94 -6.82,3.94 -6.82,3.94 -1.43,0.88 -1.41,1 -1.38,1.08 -1.32,1.15 -1.28,1.24 -1.2,1.29 -1.11,1.33 -1,1.36 -0.9,1.38 -0.77,1.37 -0.65,1.36 -0.51,1.32 -0.38,1.28 -0.22,1.21 -0.07,1.14 v 388.86 l 0.07,1 0.09,0.38 0.13,0.58 0.38,0.85 0.51,0.73 0.65,0.61 0.65,0.4 0.12,0.07 0.9,0.34 1,0.19 1.11,0.05 1.2,-0.09 1.28,-0.23 1.31,-0.38 1.4,-0.51 0.23,-0.11 1.23,-0.55 1.44,-0.77 6.78,-3.92 6.82,-3.94 6.83,-3.94 6.82,-3.93 6.82,-3.94 6.82,-3.94 13.64,-7.88 6.83,-3.94 6.83,-3.84 6.82,-3.93 6.82,-3.94 6.82,-3.94 6.83,-3.94 20.46,-11.82 6.82,-3.93 6.83,-3.94 27.28,-15.76 6.82,-3.93 6.83,-3.94 6.82,-3.94 20.46,-11.82 6.83,-3.94 6.82,-3.93 6.82,-3.94 6.82,-3.94 13.64,-7.88 6.83,-3.94 6.82,-3.94 6.82,-3.93 6.82,-3.94 6.82,-3.94 6.83,-3.94 20.46,-11.91 6.82,-3.93 6.82,-3.94 6.82,-3.94 27.29,-15.76 6.83,-3.93 4.07,-2.35 9.64,-5.57 20.39,-11.78 6.83,-3.94 6.82,-3.93 20.46,-11.82 6.83,-3.94 13.64,-7.84 6.82,-3.93 13.63,-7.88 6.84,-3.94 6.82,-3.94 4.45,-2.57 9.19,-5.31 6.82,-3.93 6.83,-3.94 1.45,-0.9 1.45,-1 1.4,-1.11 1.34,-1.17 1.25,-1.22 0.62,-0.67 0.53,-0.58 1.06,-1.28 1,-1.29 0.87,-1.31 0.77,-1.34 0.65,-1.34 0.53,-1.34 0.05,-0.16 v -0.07 l 0.32,-1.08 v -0.07 l 0.22,-1.18 v -0.09 l 0.08,-1.15 V 184.66 Z m -331.57,256.5 v -0.23 -0.23 -0.24 -0.23 -0.23 l 0.06,-0.22 0.05,-0.22 0.12,-0.42 0.07,-0.19 0.07,-0.18 0.08,-0.17 0.08,-0.16 0.08,-0.15 0.09,-0.12 0.09,-0.12 0.09,-0.1 0.09,-0.07 0.1,-0.07 4.11,-2.38 6.82,-3.93 27.29,-15.76 6.83,-3.94 h 0.09 0.09 0.18 0.09 l 0.08,0.05 4.01,2.2 0.08,0.07 0.08,0.08 0.07,0.1 0.07,0.11 0.06,0.13 0.06,0.15 0.05,0.16 v 0.17 0.19 0.19 0.2 0.22 21.89 0.23 0.23 0.24 0.22 0.23 l -0.05,0.22 -0.06,0.21 -0.06,0.2 -0.07,0.2 -0.07,0.18 -0.08,0.17 -0.08,0.16 -0.09,0.14 -0.08,0.13 -0.09,0.12 -0.09,0.09 -0.09,0.08 -0.1,0.06 -4.12,2.38 -27.28,15.76 -6.82,3.93 -6.83,3.94 -0.09,0.05 h -0.09 -0.18 -0.09 -0.08 l -3.88,-2.3 -0.08,-0.06 -0.08,-0.08 -0.07,-0.1 -0.07,-0.12 -0.06,-0.13 -0.06,-0.14 -0.05,-0.16 -0.06,-0.17 v -0.19 -0.19 -0.21 -0.21 -21.66 z m 0,48.93 v -0.25 -0.24 l 0.14,-0.52 0.1,-0.26 0.11,-0.26 0.12,-0.26 0.19,-0.25 0.16,-0.26 0.16,-0.25 0.18,-0.24 0.18,-0.23 0.2,-0.23 0.21,-0.21 0.21,-0.2 0.22,-0.19 0.22,-0.17 0.22,-0.16 0.22,-0.14 7.17,-4.13 6.82,-3.94 6.83,-3.95 6.83,-3.94 20.46,-11.82 6.82,-3.93 6.82,-3.94 6.83,-3.94 20.46,-11.82 6.82,-3.93 6.83,-3.94 6.82,-3.94 0.22,-0.12 0.23,-0.11 0.22,-0.08 0.21,-0.06 h 0.22 0.2 0.2 0.18 0.18 l 0.17,0.06 0.15,0.07 3.92,2.27 0.14,0.09 0.12,0.12 0.11,0.14 0.1,0.15 0.07,0.17 0.07,0.18 v 0.2 0.21 21.44 0.24 0.25 l -0.07,0.25 -0.07,0.26 -0.1,0.26 -0.11,0.26 -0.12,0.26 -0.14,0.26 -0.16,0.26 -0.16,0.25 -0.18,0.24 -0.19,0.24 -0.19,0.22 -0.22,0.21 -0.2,0.21 -0.21,0.18 -0.23,0.17 -0.22,0.16 -0.22,0.14 -7.17,4.14 -6.82,3.93 -6.82,3.94 -6.8,3.93 -27.3,15.76 -6.82,3.93 -6.83,3.94 -27.28,15.76 -6.83,3.94 -6.82,3.93 -0.22,0.12 -0.23,0.11 -0.22,0.08 -0.21,0.06 h -0.22 -0.2 -0.2 -0.18 -0.18 l -0.17,-0.06 -0.15,-0.08 -3.94,-2.24 -0.14,-0.1 -0.12,-0.12 -0.11,-0.13 -0.1,-0.16 -0.07,-0.17 -0.07,-0.18 v -0.2 -0.21 z m -118.7,3.43 0.55,-3.42 0.88,-3.45 1.2,-3.44 1.48,-3.39 1.74,-3.29 2,-3.16 2.19,-3 2.38,-2.76 2.55,-2.49 2.68,-2.18 2.8,-1.84 2.8,-1.39 2.68,-0.92 2.54,-0.45 h 2.39 l 2.19,0.44 2,0.87 5.24,3 1.74,1.28 1.49,1.67 1.19,2.06 0.88,2.43 0.56,2.78 0.18,3.12 -0.18,3.34 -0.56,3.42 -0.88,3.45 -1.19,3.44 -1.52,3.41 -1.74,3.3 -2,3.16 -2.19,3 -2.39,2.76 -2.54,2.49 -2.69,2.18 -2.79,1.84 -2.8,1.39 -2.68,0.92 -2.55,0.45 h -2.38 l -2.21,-0.44 -2,-0.87 -5.24,-3 -1.74,-1.28 -1.48,-1.67 -1.2,-2.06 -0.88,-2.43 -0.55,-2.78 -0.19,-3.12 z m -22.17,97.53 0.28,-3.39 0.45,-3.44 0.64,-3.5 0.81,-3.54 1,-3.56 1.15,-3.59 1.31,-3.58 1.46,-3.58 1.63,-3.57 1.77,-3.53 1.94,-3.49 2.06,-3.42 2.17,-3.3 2.27,-3.19 2.37,-3.06 2.44,-2.93 2.54,-2.78 2.6,-2.63 2.66,-2.47 2.7,-2.3 2.77,-2.12 2.79,-1.93 2.82,-1.74 2.82,-1.52 2.79,-1.29 2.76,-1.06 2.71,-0.84 2.66,-0.6 2.6,-0.37 2.53,-0.14 2.45,0.1 2.37,0.33 2.27,0.56 2.16,0.8 2.07,1 5.24,3 1.93,1.27 1.78,1.48 1.62,1.68 1.47,1.89 1.31,2.07 1.14,2.26 1,2.44 0.81,2.6 0.64,2.76 0.45,2.92 0.28,3.07 0.1,3.2 -3.54,2 -13.64,7.88 -6.88,4 -6.83,3.94 -27.28,15.76 -6.83,3.94 -6.82,3.93 -6.82,3.94 -6.82,3.94 -5.24,-3 z m 267.9,47.4 v 0.24 0.24 0.25 l -0.06,0.25 -0.08,0.26 -0.09,0.26 -0.11,0.26 -0.13,0.26 -0.14,0.26 -0.15,0.26 -0.17,0.25 -0.17,0.24 -0.19,0.24 -0.2,0.22 -0.2,0.21 -0.21,0.2 -0.22,0.19 -0.22,0.17 -0.23,0.16 -0.22,0.14 -4.08,2.35 -27.36,15.69 -6.83,4 -27.31,15.73 -6.83,3.94 -6.82,3.94 -6.82,3.93 -20.43,11.82 -6.83,3.94 -6.82,3.94 -6.82,3.94 -6.82,3.93 -6.81,3.94 -6.84,3.95 -20.46,11.81 -6.82,3.94 -6.82,3.93 -6.83,3.94 -27.23,15.76 -6.83,3.94 -6.82,3.93 L 299,790 l -0.23,0.12 -0.22,0.1 -0.22,0.08 -0.22,0.07 h -0.21 -0.22 -0.18 -0.19 -0.18 l -0.16,-0.06 -0.16,-0.08 -3.89,-2.23 -0.14,-0.1 -0.13,-0.12 -0.11,-0.13 -0.09,-0.15 -0.08,-0.17 -0.06,-0.18 -0.05,-0.2 v -0.21 -112.49 -0.24 l 0.05,-0.25 0.06,-0.25 0.08,-0.26 0.09,-0.26 0.11,-0.26 0.13,-0.26 0.14,-0.26 0.15,-0.26 0.16,-0.25 0.18,-0.24 0.19,-0.24 0.19,-0.22 0.21,-0.21 0.2,-0.21 0.23,-0.18 0.22,-0.17 0.22,-0.16 0.23,-0.14 4.07,-2.35 6.83,-3.94 6.82,-3.94 13.63,-7.88 6.83,-3.93 6.82,-3.89 6.83,-3.94 6.82,-3.94 6.82,-3.94 13.63,-7.88 6.84,-3.93 20.46,-11.87 6.82,-3.94 6.83,-3.94 6.82,-3.94 6.82,-3.93 20.46,-11.82 6.83,-3.94 13.64,-7.88 6.82,-3.93 6.82,-3.94 6.83,-3.94 6.82,-3.94 20.46,-11.82 6.82,-3.93 6.83,-3.94 6.82,-3.94 6.82,-3.94 6.82,-3.94 0.23,-0.12 0.22,-0.1 0.22,-0.08 0.22,-0.07 h 0.21 0.2 0.2 0.19 0.17 l 0.17,0.06 0.15,0.08 3.77,2.18 0.15,0.08 0.14,0.1 0.13,0.12 0.11,0.13 0.09,0.15 0.08,0.17 0.06,0.18 v 0.2 0.21 112.23 z m 64.76,-309.9 v -0.15 -0.15 -0.2 -0.15 -0.15 -0.14 -0.15 -0.14 -0.13 l 0.05,-0.13 0.12,-0.24 0.06,-0.1 0.06,-0.1 0.07,-0.09 0.06,-0.08 0.07,-0.07 0.07,-0.05 0.07,-0.05 4.42,-2.55 6.82,-3.94 6.83,-3.94 27.28,-15.76 6.83,-3.93 20.46,-11.82 6.82,-3.94 0.14,-0.06 h 0.14 0.06 0.07 l 3.91,2.26 h 0.07 l 0.11,0.11 v 0.07 l 0.05,0.08 v 0.09 0.09 0.11 0.12 0.12 0.13 0.28 72.51 0.15 0.15 0.15 0.14 0.15 0.14 l -0.1,0.26 -0.06,0.12 v 0.12 l -0.07,0.1 -0.06,0.1 -0.06,0.09 -0.07,0.08 -0.07,0.07 -0.14,0.1 -4.14,2.66 -6.82,3.94 -6.83,3.94 -6.82,3.94 -6.82,3.94 -13.64,7.88 -6.83,3.93 -20.46,11.82 -6.82,3.94 h -0.07 -0.07 -0.14 -0.06 -0.07 -0.06 l -3.85,-2.22 h -0.06 -0.06 l -0.06,-0.06 -0.05,-0.06 v -0.09 -0.09 -0.09 -0.11 -0.12 -0.12 -0.21 -0.14 -72.36 z"
         id="path16" />
      <polygon
         class="cls-6"
         points="707.91,356.63 707.87,356.75 707.79,356.85 707.74,356.95 707.67,357.04 707.61,357.12 707.53,357.19 707.39,357.29 702.98,359.84 696.15,363.78 689.33,367.72 682.5,371.66 675.68,375.6 662.04,383.48 655.22,387.41 634.75,399.23 627.93,403.17 627.87,403.2 627.79,403.23 627.73,403.24 627.65,403.24 627.6,403.22 627.52,403.2 627.47,403.16 627.4,403.11 627.36,403.06 627.3,402.99 627.25,402.91 627.22,402.82 627.17,402.72 627.14,402.61 627.12,402.49 627.09,402.37 627.07,402.24 627.05,402.11 627.04,401.97 627.04,329.76 627.05,329.61 627.07,329.46 627.09,329.31 627.12,329.15 627.14,329 627.17,328.86 627.22,328.71 627.25,328.57 627.3,328.44 627.36,328.31 627.4,328.19 627.47,328.07 627.52,327.97 627.6,327.87 627.65,327.78 627.73,327.7 627.79,327.63 627.87,327.58 627.93,327.53 634.75,323.59 641.58,319.65 648.39,315.72 655.22,311.78 662.04,307.84 675.68,299.96 682.5,296.02 689.33,292.08 696.15,288.15 702.98,284.21 707.39,281.65 707.47,281.62 707.53,281.6 707.61,281.59 707.67,281.59 707.74,281.6 707.79,281.62 707.87,281.66 707.98,281.77 708.02,281.84 708.08,281.92 708.12,282.01 708.15,282.1 708.18,282.21 708.22,282.33 708.25,282.45 708.26,282.58 708.28,282.86 708.28,355.06 708.27,355.21 708.26,355.37 708.25,355.52 708.22,355.67 708.18,355.82 708.15,355.96 708.12,356.11 708.08,356.25 707.98,356.51 "
         id="polygon18" />
      <polygon
         class="cls-7"
         points="623.16,400.11 623.15,399.98 623.13,399.84 623.13,399.7 623.13,327.64 627.04,329.91 627.04,401.97 627.05,402.11 627.07,402.24 627.09,402.37 627.12,402.49 627.14,402.61 627.17,402.72 627.22,402.82 627.25,402.91 627.3,402.99 627.36,403.06 627.4,403.11 627.47,403.16 623.62,400.94 623.55,400.9 623.5,400.85 623.43,400.79 623.38,400.73 623.34,400.64 623.29,400.55 623.25,400.46 623.23,400.35 623.2,400.23 "
         id="polygon20" />
      <polygon
         class="cls-8"
         points="431.38,462.19 431.37,461.98 431.35,461.77 431.33,461.55 431.33,440.34 435.25,442.6 435.25,463.59 435.25,463.81 435.26,464.03 435.31,464.45 435.33,464.64 435.38,464.83 435.43,465 435.48,465.16 435.54,465.31 435.6,465.44 435.67,465.55 435.74,465.65 435.81,465.73 435.89,465.8 431.98,463.53 431.89,463.47 431.81,463.39 431.75,463.29 431.68,463.17 431.62,463.04 431.56,462.9 431.5,462.74 431.45,462.57 431.42,462.38 "
         id="polygon22" />
      <polygon
         class="cls-8"
         points="435.25,491.53 435.25,512.51 435.25,512.73 435.29,512.95 435.32,513.14 435.38,513.33 435.46,513.5 435.56,513.65 435.68,513.78 435.8,513.9 435.94,514 432.01,511.74 431.88,511.64 431.75,511.52 431.64,511.39 431.55,511.23 431.48,511.06 431.4,510.88 431.37,510.68 431.33,510.47 431.33,489.27 "
         id="polygon24" />
      <polygon
         class="cls-9"
         points="557.52,639.91 557.36,640.16 557.18,640.4 557,640.64 556.79,640.86 556.6,641.07 556.38,641.27 556.16,641.46 555.95,641.63 555.72,641.79 555.5,641.93 551.41,644.28 524.13,660.04 517.3,663.97 490.02,679.73 483.19,683.67 476.38,687.61 469.56,691.54 449.1,703.36 442.26,707.3 435.44,711.24 428.63,715.18 421.81,719.11 414.99,723.05 408.15,726.99 387.69,738.81 380.88,742.75 374.06,746.68 367.23,750.62 339.94,766.38 333.12,770.32 326.3,774.25 299.01,790.01 298.79,790.13 298.56,790.23 298.35,790.31 298.13,790.38 297.92,790.42 297.7,790.44 297.51,790.45 297.32,790.43 297.14,790.39 296.99,790.33 296.82,790.25 296.69,790.15 296.56,790.04 296.45,789.9 296.36,789.75 296.29,789.58 296.23,789.4 296.18,789.2 296.14,788.99 296.14,676.52 296.18,676.27 296.23,676.03 296.29,675.77 296.36,675.51 296.45,675.25 296.56,674.99 296.69,674.73 296.82,674.47 296.99,674.21 297.14,673.96 297.32,673.72 297.7,673.26 297.92,673.05 298.13,672.85 298.35,672.66 298.56,672.49 298.79,672.33 299.01,672.19 305.83,668.25 312.65,664.32 333.12,652.5 339.94,648.56 353.58,640.68 360.4,636.75 367.23,632.81 374.06,628.87 380.88,624.93 387.69,620.99 394.51,617.05 401.33,613.12 408.15,609.18 414.99,605.24 428.63,597.36 435.44,593.42 442.26,589.48 449.1,585.55 476.38,569.79 483.19,565.85 490.02,561.91 496.85,557.98 517.3,546.16 524.13,542.22 537.77,534.34 544.6,530.41 551.41,526.47 555.5,524.11 555.72,523.99 555.95,523.89 556.16,523.81 556.38,523.74 556.6,523.7 556.79,523.68 557,523.68 557.18,523.69 557.36,523.73 557.52,523.79 557.67,523.87 557.82,523.97 557.95,524.09 558.05,524.22 558.14,524.37 558.23,524.54 558.28,524.72 558.33,524.92 558.36,525.13 558.37,525.36 558.37,637.37 558.36,637.61 558.33,637.85 558.28,638.1 558.23,638.35 558.14,638.61 558.05,638.87 557.95,639.13 557.82,639.39 557.67,639.65 "
         id="polygon26" />
      <polygon
         class="cls-9"
         points="482.25,438.66 482.18,438.84 482.1,439.01 482.01,439.17 481.93,439.31 481.85,439.44 481.75,439.56 481.67,439.65 481.57,439.73 481.48,439.79 477.36,442.17 450.07,457.93 443.25,461.86 436.43,465.8 436.33,465.85 436.25,465.87 436.15,465.88 436.06,465.87 435.98,465.84 435.89,465.8 435.81,465.73 435.74,465.65 435.67,465.55 435.6,465.44 435.54,465.31 435.48,465.16 435.43,465 435.38,464.83 435.33,464.64 435.31,464.45 435.26,464.03 435.25,463.81 435.25,463.59 435.25,442.6 435.25,442.37 435.26,442.14 435.29,441.91 435.31,441.68 435.33,441.44 435.38,441.21 435.43,440.99 435.48,440.77 435.54,440.56 435.6,440.36 435.67,440.16 435.74,439.98 435.81,439.81 435.89,439.65 435.98,439.51 436.06,439.38 436.15,439.26 436.25,439.17 436.33,439.09 436.43,439.02 443.25,435.09 470.54,419.33 477.36,415.39 481.48,413.02 481.57,412.97 481.67,412.94 481.75,412.94 481.85,412.95 481.93,412.98 482.01,413.02 482.1,413.09 482.18,413.17 482.25,413.27 482.31,413.38 482.38,413.51 482.44,413.66 482.49,413.82 482.52,413.99 482.56,414.18 482.61,414.37 482.63,414.57 482.64,414.79 482.65,415.01 482.65,436.44 482.64,436.68 482.63,436.91 482.61,437.14 482.56,437.38 482.52,437.6 482.49,437.83 482.44,438.05 482.38,438.26 482.31,438.46 "
         id="polygon28" />
      <polygon
         class="cls-9"
         points="549.48,448.77 549.29,449.01 549.11,449.25 548.91,449.47 548.71,449.68 548.5,449.89 548.28,450.07 548.05,450.24 547.84,450.4 547.62,450.54 540.45,454.68 533.63,458.61 526.8,462.55 519.98,466.49 492.69,482.25 485.88,486.18 479.05,490.12 451.76,505.88 444.94,509.82 438.12,513.75 437.89,513.87 437.67,513.98 437.44,514.06 437.24,514.12 437.01,514.17 436.81,514.19 436.62,514.19 436.44,514.17 436.25,514.14 436.08,514.08 435.94,514 435.8,513.9 435.68,513.78 435.56,513.65 435.46,513.5 435.38,513.33 435.32,513.14 435.29,512.95 435.25,512.73 435.25,512.51 435.25,491.53 435.25,491.3 435.29,491.06 435.32,490.81 435.38,490.55 435.46,490.3 435.56,490.03 435.68,489.77 435.8,489.51 435.94,489.25 436.08,489 436.25,488.75 436.44,488.5 436.62,488.27 436.81,488.04 437.01,487.83 437.24,487.63 437.44,487.44 437.67,487.27 437.89,487.11 438.12,486.98 444.94,483.04 451.76,479.1 479.05,463.34 485.88,459.41 492.69,455.47 519.98,439.71 526.8,435.77 533.63,431.84 540.45,427.9 547.62,423.76 547.84,423.64 548.05,423.54 548.28,423.45 548.5,423.39 548.71,423.35 548.91,423.32 549.11,423.32 549.29,423.34 549.48,423.38 549.63,423.44 549.79,423.52 549.93,423.61 550.05,423.73 550.16,423.87 550.26,424.02 550.34,424.19 550.4,424.37 550.45,424.57 550.48,424.78 550.48,446.22 550.45,446.46 550.4,446.71 550.34,446.96 550.26,447.22 550.16,447.48 550.05,447.74 549.93,448 549.79,448.26 549.63,448.52 "
         id="polygon30" />
      <polygon
         class="cls-10"
         points="551.41,526.47 544.6,530.41 537.77,534.34 524.13,542.22 517.3,546.16 496.85,557.98 490.02,561.91 483.19,565.85 476.38,569.79 449.1,585.55 442.26,589.48 435.44,593.42 428.63,597.36 414.99,605.24 408.15,609.18 401.33,613.12 394.51,617.05 387.69,620.99 380.88,624.93 374.06,628.87 367.23,632.81 360.4,636.75 353.58,640.68 339.94,648.56 333.12,652.5 312.65,664.32 305.83,668.25 299.01,672.19 298.79,672.33 298.56,672.49 298.35,672.66 298.13,672.85 297.92,673.05 297.7,673.26 297.32,673.72 297.14,673.96 296.99,674.21 296.82,674.47 296.69,674.73 296.56,674.99 296.45,675.25 296.36,675.51 296.29,675.77 296.23,676.03 296.18,676.27 296.14,676.52 296.14,676.75 292.23,674.49 292.24,674.25 292.25,674.01 292.31,673.76 292.37,673.51 292.44,673.25 292.54,672.99 292.64,672.73 292.77,672.47 292.92,672.21 293.06,671.95 293.23,671.7 293.4,671.46 293.6,671.22 293.79,671 294,670.79 294.2,670.58 294.43,670.4 294.64,670.23 294.87,670.07 295.1,669.93 299.17,667.58 306,663.64 312.81,659.7 326.45,651.82 333.27,647.89 340.1,643.95 346.93,640.01 353.75,636.07 360.56,632.13 374.2,624.25 381.04,620.32 401.5,608.5 408.31,604.56 415.14,600.62 421.96,596.68 428.79,592.75 449.25,580.93 456.07,576.99 469.71,569.11 476.54,565.18 483.36,561.24 490.19,557.3 497,553.36 517.47,541.54 524.28,537.61 531.12,533.67 537.93,529.73 544.75,525.79 551.58,521.85 551.8,521.73 552.02,521.63 552.25,521.55 552.47,521.48 552.67,521.44 552.88,521.42 553.08,521.41 553.26,521.43 553.43,521.47 553.61,521.53 553.75,521.61 557.52,523.79 557.36,523.73 557.18,523.69 557,523.68 556.79,523.68 556.6,523.7 556.38,523.74 556.16,523.81 555.95,523.89 555.72,523.99 555.5,524.11 "
         id="polygon32" />
      <polygon
         class="cls-11"
         points="675.68,299.96 662.04,307.84 655.22,311.78 648.39,315.72 641.58,319.65 634.75,323.59 627.93,327.53 627.87,327.58 627.79,327.63 627.73,327.7 627.65,327.78 627.6,327.87 627.52,327.97 627.47,328.07 627.4,328.19 627.36,328.31 627.3,328.44 627.25,328.57 627.22,328.71 627.17,328.86 627.14,329 627.12,329.15 627.09,329.31 627.07,329.46 627.05,329.61 627.04,329.76 627.04,329.91 623.13,327.64 623.13,327.5 623.13,327.35 623.15,327.2 623.16,327.04 623.2,326.89 623.23,326.74 623.25,326.6 623.29,326.45 623.34,326.31 623.38,326.18 623.43,326.05 623.55,325.81 623.62,325.71 623.67,325.61 623.75,325.52 623.8,325.44 623.88,325.37 623.95,325.32 624.01,325.27 628.43,322.72 635.25,318.78 642.09,314.84 669.37,299.08 676.2,295.15 696.65,283.33 703.48,279.39 703.62,279.33 703.68,279.32 703.75,279.32 703.82,279.34 703.88,279.36 707.79,281.62 707.74,281.6 707.67,281.59 707.61,281.59 707.53,281.6 707.47,281.62 707.39,281.65 702.98,284.21 696.15,288.15 689.33,292.08 682.5,296.02 "
         id="polygon34" />
      <polygon
         class="cls-10"
         points="436.33,439.09 436.25,439.17 436.15,439.26 436.06,439.38 435.98,439.51 435.89,439.65 435.81,439.81 435.74,439.98 435.67,440.16 435.6,440.36 435.54,440.56 435.48,440.77 435.43,440.99 435.38,441.21 435.33,441.44 435.31,441.68 435.29,441.91 435.26,442.14 435.25,442.37 435.25,442.6 431.33,440.34 431.33,440.11 431.35,439.88 431.37,439.65 431.38,439.41 431.42,439.18 431.45,438.95 431.5,438.73 431.56,438.51 431.68,438.09 431.75,437.9 431.81,437.72 431.89,437.55 431.98,437.39 432.06,437.24 432.14,437.12 432.24,437 432.32,436.9 432.42,436.83 432.51,436.76 436.63,434.38 443.45,430.45 470.74,414.69 477.56,410.75 477.65,410.71 477.75,410.68 477.83,410.67 477.93,410.68 478.01,410.71 478.1,410.76 482.01,413.02 481.93,412.98 481.85,412.95 481.75,412.94 481.67,412.94 481.57,412.97 481.48,413.02 477.36,415.39 470.54,419.33 443.25,435.09 436.43,439.02 "
         id="polygon36" />
      <polygon
         class="cls-10"
         points="547.62,423.76 540.45,427.9 533.63,431.84 526.8,435.77 519.98,439.71 492.69,455.47 485.88,459.41 479.05,463.34 451.76,479.1 444.94,483.04 438.12,486.98 437.89,487.11 437.67,487.27 437.44,487.44 437.24,487.63 437.01,487.83 436.81,488.04 436.62,488.27 436.44,488.5 436.25,488.75 436.08,489 435.94,489.25 435.8,489.51 435.68,489.77 435.56,490.03 435.46,490.3 435.38,490.55 435.32,490.81 435.29,491.06 435.25,491.3 435.25,491.53 431.33,489.27 431.33,489.04 431.37,488.79 431.4,488.55 431.55,488.03 431.64,487.77 431.75,487.51 431.88,487.25 432.01,486.99 432.18,486.73 432.33,486.48 432.51,486.24 432.7,486.01 432.89,485.78 433.11,485.57 433.31,485.37 433.54,485.18 433.75,485.01 433.98,484.85 434.19,484.71 441.37,480.58 448.19,476.64 455,472.7 461.83,468.76 482.3,456.94 489.12,453.01 495.94,449.07 502.76,445.13 523.23,433.31 530.04,429.38 536.88,425.44 543.7,421.5 543.91,421.38 544.14,421.27 544.37,421.19 544.58,421.13 544.79,421.09 545,421.06 545.2,421.06 545.38,421.08 545.55,421.12 545.73,421.18 545.88,421.25 549.79,423.52 549.63,423.44 549.48,423.38 549.29,423.34 549.11,423.32 548.91,423.32 548.71,423.35 548.5,423.39 548.28,423.45 548.05,423.54 547.84,423.64 "
         id="polygon38" />
      <polygon
         class="cls-6"
         points="341.11,508.9 338.31,510.74 335.51,512.13 332.83,513.05 330.29,513.5 327.9,513.49 325.7,513.05 323.73,512.18 321.99,510.9 320.5,509.22 319.31,507.16 318.43,504.73 317.88,501.95 317.69,498.83 317.88,495.49 318.43,492.08 319.31,488.63 320.5,485.19 321.99,481.8 323.73,478.51 325.7,475.35 327.9,472.37 330.29,469.61 332.83,467.12 335.51,464.94 338.31,463.11 341.11,461.71 343.8,460.79 346.33,460.35 348.73,460.35 350.92,460.8 352.89,461.67 354.63,462.95 356.13,464.62 357.31,466.68 358.2,469.11 358.75,471.89 358.94,475.01 358.75,478.35 358.2,481.77 357.31,485.22 356.13,488.66 354.63,492.04 352.89,495.34 350.92,498.5 348.73,501.47 346.33,504.23 343.8,506.72 "
         id="polygon40" />
      <polygon
         class="cls-6"
         points="295.99,589.61 296.44,586.16 297.07,582.66 297.88,579.13 298.87,575.56 300.01,571.98 301.31,568.39 302.79,564.81 304.42,561.25 306.19,557.72 308.12,554.23 310.18,550.81 312.36,547.5 314.63,544.31 317,541.25 319.44,538.33 321.98,535.54 324.57,532.91 327.24,530.44 329.94,528.14 332.69,526.02 335.5,524.09 338.31,522.36 341.13,520.84 343.93,519.54 346.69,518.48 349.39,517.65 352.06,517.05 354.65,516.67 357.19,516.54 359.63,516.63 362,516.96 364.27,517.53 366.44,518.33 368.5,519.36 370.44,520.63 372.21,522.11 373.83,523.79 375.31,525.68 376.62,527.75 377.75,530.01 378.74,532.45 379.55,535.05 380.19,537.81 380.63,540.73 380.92,543.8 381.01,547 377.48,549.04 363.83,556.92 357.01,560.85 350.19,564.79 322.9,580.55 316.07,584.49 309.25,588.42 302.44,592.36 295.62,596.3 295.7,592.99 "
         id="polygon42" />
      <polygon
         class="cls-11"
         points="341.13,520.84 338.31,522.36 335.5,524.09 332.69,526.02 329.94,528.14 327.24,530.44 324.57,532.91 321.98,535.54 319.44,538.33 317,541.25 314.63,544.31 312.36,547.5 310.18,550.81 308.12,554.23 306.19,557.72 304.42,561.25 302.79,564.81 301.31,568.39 300.01,571.98 298.87,575.56 297.88,579.13 297.07,582.66 296.44,586.16 295.99,589.61 295.7,592.99 295.62,596.3 290.38,593.28 290.46,589.97 290.75,586.58 291.2,583.14 291.83,579.64 292.64,576.1 293.63,572.54 294.77,568.95 296.08,565.37 297.55,561.79 299.18,558.22 300.95,554.69 302.88,551.2 304.94,547.78 307.12,544.48 309.38,541.29 311.75,538.23 314.2,535.3 316.74,532.52 319.33,529.89 322,527.42 324.7,525.12 327.46,523 330.25,521.07 333.07,519.33 335.89,517.81 338.69,516.52 341.44,515.46 344.15,514.62 346.81,514.02 349.42,513.65 351.94,513.51 354.39,513.61 356.76,513.94 359.04,514.5 361.2,515.3 363.26,516.34 368.5,519.36 366.44,518.33 364.27,517.53 362,516.96 359.63,516.63 357.19,516.54 354.65,516.67 352.06,517.05 349.39,517.65 346.69,518.48 343.93,519.54 "
         id="polygon44" />
      <polygon
         class="cls-11"
         points="325.7,475.35 323.73,478.51 321.99,481.8 320.5,485.19 319.31,488.63 318.43,492.08 317.88,495.49 317.69,498.83 317.88,501.95 318.43,504.73 319.31,507.16 320.5,509.22 321.99,510.9 323.73,512.18 318.49,509.15 316.75,507.87 315.26,506.2 314.06,504.14 313.19,501.71 312.63,498.93 312.44,495.81 312.63,492.47 313.19,489.05 314.06,485.6 315.26,482.16 316.75,478.77 318.49,475.48 320.48,472.32 322.67,469.35 325.05,466.59 327.6,464.1 330.27,461.92 333.07,460.08 335.88,458.69 338.56,457.77 341.1,457.32 343.49,457.33 345.68,457.77 347.65,458.64 352.89,461.67 350.92,460.8 348.73,460.35 346.33,460.35 343.8,460.79 341.11,461.71 338.31,463.11 335.51,464.94 332.83,467.12 330.29,469.61 327.9,472.37 "
         id="polygon46" />
      <polygon
         class="cls-8"
         points="292.23,674.49 296.14,676.75 296.14,788.99 296.18,789.2 296.23,789.4 296.29,789.58 296.36,789.75 296.45,789.9 296.56,790.04 296.69,790.15 296.82,790.25 292.92,787.99 292.77,787.89 292.64,787.77 292.54,787.64 292.44,787.49 292.37,787.32 292.31,787.14 292.25,786.94 292.24,786.73 292.23,786.5 "
         id="polygon48" />
      <polygon
         class="cls-12"
         points="755.38,148.71 748.55,152.64 741.74,156.58 734.91,160.52 728.09,164.46 714.45,172.34 707.63,176.27 700.8,180.21 693.98,184.15 666.7,199.91 659.88,203.84 653.04,207.78 618.95,227.48 612.12,231.41 584.84,247.17 578,251.11 571.18,255.05 564.37,258.98 550.73,266.86 543.89,270.8 530.25,278.68 523.43,282.62 516.62,286.55 509.8,290.49 502.96,294.43 482.5,306.25 475.69,310.19 468.86,314.12 434.75,333.82 427.93,337.76 421.11,341.69 400.64,353.51 393.81,357.45 387,361.39 380.18,365.33 373.36,369.26 359.71,377.14 352.88,381.08 346.06,385.02 339.25,388.96 332.43,392.89 325.61,396.83 318.77,400.77 298.31,412.59 291.5,416.53 284.68,420.46 277.85,424.4 250.56,440.16 243.74,444.1 236.91,448.03 209.63,463.79 208.21,464.67 206.79,465.66 205.41,466.74 204.09,467.91 202.81,469.14 201.62,470.43 200.5,471.77 199.5,473.13 198.59,474.5 197.82,475.87 197.18,477.22 196.66,478.55 196.28,479.82 196.06,481.04 195.97,482.19 168.69,466.43 167.65,465.82 167.72,464.68 167.74,464.58 167.74,464.55 167.94,463.47 167.97,463.32 168.1,462.88 168.31,462.19 168.31,462.18 168.32,462.16 168.37,462.02 168.88,460.69 169.53,459.35 170.29,458.02 171.16,456.71 172.12,455.42 173.18,454.14 174.34,452.88 175.59,451.65 176.93,450.47 178.34,449.36 179.78,448.34 181.24,447.45 188.04,443.52 188.1,443.49 194.93,439.56 201.75,435.62 208.56,431.68 215.4,427.74 222.22,423.8 228.97,419.89 235.79,415.95 235.85,415.92 242.68,411.99 249.5,408.05 269.96,396.23 276.73,392.32 283.56,388.38 285.39,387.32 290.44,384.42 297.25,380.48 317.71,368.66 324.49,364.75 331.31,360.81 331.37,360.78 338.19,356.85 345,352.91 358.64,345.03 365.48,341.09 372.24,337.18 379.06,333.24 379.12,333.21 385.94,329.28 392.75,325.34 399.58,321.4 413.23,313.52 419.99,309.61 426.81,305.67 426.87,305.64 433.69,301.71 440.51,297.77 447.33,293.83 454.15,289.89 460.98,285.95 467.74,282.04 474.56,278.1 474.63,278.07 481.44,274.14 501.9,262.32 508.74,258.38 515.5,254.47 515.55,254.44 522.38,250.51 529.2,246.57 542.84,238.69 549.66,234.75 556.42,230.84 563.25,226.9 563.3,226.87 570.13,222.94 576.95,219 583.77,215.06 597.41,207.18 604.17,203.27 611,199.33 611.05,199.3 617.88,195.37 624.71,191.43 645.16,179.61 651.92,175.7 658.75,171.76 658.82,171.73 665.63,167.8 692.91,152.04 699.68,148.13 706.5,144.19 706.57,144.16 713.38,140.23 727.02,132.35 733.86,128.41 740.67,124.47 742.07,123.72 742.1,123.71 743.33,123.15 743.51,123.06 744.89,122.55 746.23,122.18 747.5,121.94 748.7,121.85 749.8,121.9 750.82,122.09 751.72,122.43 752.76,123.04 773.23,134.86 780.04,138.81 779.14,138.47 778.13,138.28 777.02,138.22 775.83,138.32 774.55,138.55 773.23,138.92 771.85,139.43 770.43,140.07 769.01,140.83 762.2,144.77 "
         id="polygon50" />
      <polyline
         class="cls-13"
         points="188.1 443.49 194.87 439.58 201.69 435.64 208.51 431.7 215.34 427.76 222.16 423.82 228.97 419.89"
         id="polyline52" />
      <polyline
         class="cls-13"
         points="235.85 415.92 242.62 412.01 249.44 408.07 256.26 404.13 263.08 400.19 269.9 396.25 276.73 392.32"
         id="polyline54" />
      <polyline
         class="cls-13"
         points="285.39 387.32 290.38 384.44 297.19 380.5 304.01 376.56 310.83 372.62 317.65 368.68 324.49 364.75"
         id="polyline56" />
      <polyline
         class="cls-13"
         points="331.37 360.78 338.13 356.87 344.94 352.93 351.76 348.99 358.6 345.05 365.42 341.11 372.24 337.18"
         id="polyline58" />
      <polyline
         class="cls-13"
         points="379.12 333.21 385.88 329.3 392.69 325.36 399.52 321.42 406.35 317.48 413.17 313.54 419.99 309.61"
         id="polyline60" />
      <polyline
         class="cls-13"
         points="426.87 305.64 433.63 301.73 440.45 297.79 447.27 293.85 454.1 289.91 460.92 285.97 467.74 282.04"
         id="polyline62" />
      <polyline
         class="cls-13"
         points="474.63 278.07 481.38 274.16 488.2 270.22 495.02 266.28 501.85 262.34 508.68 258.4 515.5 254.47"
         id="polyline64" />
      <polyline
         class="cls-13"
         points="515.55 254.44 522.32 250.53 529.13 246.59 535.96 242.65 542.77 238.71 549.61 234.77 556.42 230.84"
         id="polyline66" />
      <polyline
         class="cls-13"
         points="563.3 226.87 570.07 222.96 576.88 219.02 583.72 215.08 590.53 211.14 597.36 207.2 604.17 203.27"
         id="polyline68" />
      <polyline
         class="cls-13"
         points="611.05 199.3 617.82 195.39 624.64 191.45 631.47 187.51 638.28 183.57 645.11 179.63 651.92 175.7"
         id="polyline70" />
      <polyline
         class="cls-13"
         points="658.82 171.73 665.58 167.82 672.39 163.88 679.22 159.94 686.03 156 692.86 152.06 699.68 148.13"
         id="polyline72" />
      <polyline
         class="cls-13"
         points="706.57 144.16 713.33 140.25 720.14 136.31 726.97 132.37 733.79 128.43 740.62 124.49 742.07 123.72"
         id="polyline74" />
      <polygon
         class="cls-14"
         points="689.67,436.64 686.09,437.78 682.48,439.14 678.84,440.72 675.18,442.52 671.52,444.53 667.85,446.75 664.19,449.17 660.56,451.79 656.94,454.6 653.37,457.6 649.83,460.76 646.35,464.1 642.93,467.6 639.58,471.25 636.3,475.05 633.11,478.97 630.02,483.03 627.02,487.2 624.13,491.47 621.35,495.84 618.7,500.29 616.17,504.81 613.78,509.4 611.52,514.04 609.41,518.72 607.45,523.43 605.64,528.16 603.99,532.89 602.51,537.62 601.19,542.33 600.04,547.01 599.06,551.66 598.26,556.25 597.63,560.79 597.18,565.25 596.91,569.62 596.82,573.91 596.91,578.09 597.18,582.16 597.63,586.1 598.26,589.91 599.06,593.57 600.04,597.09 601.19,600.45 602.51,603.63 603.99,606.65 605.64,609.48 607.45,612.12 609.41,614.56 611.52,616.8 613.03,618.16 613.03,619 612.13,618.48 605.31,614.54 603.39,613.32 602.78,612.93 600.39,611.11 598.13,609.07 596.02,606.83 594.06,604.39 592.26,601.75 590.61,598.92 589.12,595.9 587.8,592.72 586.65,589.36 585.67,585.85 584.87,582.18 584.24,578.37 583.8,574.43 583.52,570.36 583.44,566.18 583.52,561.9 583.8,557.52 584.24,553.06 584.87,548.53 585.67,543.93 586.65,539.29 587.8,534.6 589.12,529.89 590.61,525.16 592.26,520.43 594.06,515.7 596.02,510.99 598.13,506.31 600.39,501.67 602.78,497.09 605.31,492.56 607.97,488.11 610.74,483.74 613.63,479.47 616.63,475.3 619.73,471.25 622.92,467.32 626.19,463.52 629.55,459.87 632.97,456.37 636.45,453.04 639.98,449.87 643.56,446.87 647.17,444.06 650.81,441.45 654.47,439.02 658.13,436.8 661.8,434.79 665.45,432.99 669.09,431.41 672.7,430.05 676.28,428.91 679.81,428 683.3,427.32 686.72,426.87 690.07,426.65 693.34,426.66 696.53,426.9 699.63,427.38 702.63,428.09 705.52,429.02 708.29,430.19 710.95,431.57 717.51,435.36 724.33,439.3 721.68,437.91 718.9,436.75 716.01,435.82 713.01,435.11 709.92,434.63 706.73,434.39 703.45,434.37 700.1,434.59 696.68,435.05 693.2,435.73 "
         id="polygon76" />
      <path
         class="cls-15"
         d="m 746.12,483.48 -0.27,-4.07 -0.45,-3.94 -0.62,-3.81 -0.78,-3.66 -1,-3.51 -1.15,-3.36 -1.32,-3.19 -1.49,-3 -1.65,-2.83 -1.81,-2.64 -2,-2.44 -2.11,-2.24 -2.25,-2 -2.4,-1.82 -2.53,-1.61 -2.65,-1.39 -2.78,-1.16 -2.89,-0.93 -3,-0.71 -3.09,-0.48 -3.19,-0.24 h -3.28 l -3.35,0.22 -3.42,0.46 -3.48,0.68 -3.53,0.91 -3.58,1.14 -3.61,1.36 -3.64,1.58 -3.66,1.8 -3.66,2 -3.67,2.22 -3.66,2.42 -3.63,2.62 -3.62,2.81 -3.57,3 -3.54,3.16 -3.48,3.34 -3.42,3.5 -3.35,3.65 -3.28,3.8 -3.15,3.88 -3.11,4 -3,4.17 -2.89,4.27 -2.78,4.37 -2.65,4.45 -2.53,4.52 -2.39,4.59 -2.24,4.63 -2.11,4.68 -2,4.71 -1.81,4.73 -1.6,4.77 -1.48,4.73 -1.32,4.71 -1.2,4.67 -1,4.65 -0.8,4.59 -0.63,4.54 -0.45,4.46 -0.27,4.37 -0.09,4.29 0.09,4.18 0.27,4.07 0.45,3.94 0.63,3.81 0.8,3.66 1,3.52 1.15,3.36 1.32,3.18 1.48,3 1.65,2.83 1.81,2.64 2,2.44 2.11,2.24 1.51,1.36 0.75,0.68 2.39,1.82 2.53,1.61 2.65,1.38 2.78,1.17 2.89,0.93 3,0.71 3.09,0.48 3.19,0.24 h 3.28 l 3.35,-0.22 3.42,-0.45 3.48,-0.68 3.54,-0.91 3.57,-1.14 3.62,-1.36 3.63,-1.58 3.66,-1.8 3.67,-2 3.66,-2.22 3.66,-2.43 3.64,-2.62 3.61,-2.81 3.58,-3 3.53,-3.17 3.48,-3.33 3.42,-3.5 3.35,-3.65 3.28,-3.8 3.19,-3.93 3.09,-4.05 3,-4.17 2.89,-4.27 2.78,-4.37 2.65,-4.45 2.23,-4 0.3,-0.54 2.4,-4.58 2.25,-4.64 2.11,-4.69 2,-4.7 1.81,-4.73 1.65,-4.73 1.49,-4.73 1.32,-4.71 1.15,-4.69 1,-4.64 0.81,-4.6 0.62,-4.53 0.45,-4.46 0.27,-4.38 0.09,-4.28 z m -15.89,16.52 -0.21,3.45 -0.36,3.53 -0.49,3.58 -0.64,3.62 -0.77,3.67 -0.91,3.7 -1,3.72 -1.21,3.73 -1.31,3.74 -1.42,3.73 -1.55,3.72 -1.67,3.7 -1.78,3.66 -1.91,3.63 -2,3.57 -2.09,3.51 -2.2,3.45 -2.28,3.38 -2.36,3.29 -2.45,3.2 -2.52,3.1 -2.59,3 -2.64,2.88 -2.7,2.76 -2.73,2.68 -2.79,2.5 -2.83,2.36 -2.82,2.14 -2.87,2.07 -2.92,1.93 -2.89,1.76 -2.9,1.59 -2.89,1.42 -2.87,1.23 -2.85,1.07 -2.81,0.93 -2.79,0.72 -2.75,0.54 -2.7,0.35 -2.64,0.18 h -2.59 l -2.52,-0.2 -2.44,-0.37 -2.37,-0.56 -2.28,-0.74 -2.2,-0.92 -2.09,-1.09 -1.89,-1.21 h -0.06 v 0 l -1.89,-1.44 -1.78,-1.61 -1.67,-1.77 -1.55,-1.93 -1.42,-2.08 -1.3,-2.24 -1.18,-2.38 -1,-2.51 -0.91,-2.65 -0.77,-2.78 -0.63,-2.9 -0.5,-3 -0.35,-3.12 -0.33,-3.29 -0.07,-3.3 0.07,-3.38 0.22,-3.46 0.35,-3.52 0.5,-3.58 0.63,-3.63 0.77,-3.67 0.91,-3.69 1,-3.72 1.18,-3.74 1.3,-3.74 1.42,-3.73 1.55,-3.72 1.67,-3.69 1.78,-3.67 1.89,-3.62 2,-3.57 2.09,-3.52 2.2,-3.45 2.28,-3.37 2.37,-3.29 2.44,-3.2 2.52,-3.11 2.59,-3 2.64,-2.88 2.7,-2.77 2.75,-2.63 2.79,-2.51 2.83,-2.36 2.85,-2.22 2.87,-2.07 2.89,-1.91 2.9,-1.75 2.89,-1.59 2.89,-1.42 2.94,-1.22 2.85,-1.08 2.83,-0.89 2.79,-0.72 2.75,-0.54 2.7,-0.36 2.64,-0.17 h 2.59 l 2.52,0.19 2.45,0.38 2.36,0.56 2.28,0.74 2.2,0.91 h 0.05 v 0 l 2,1 2,1.27 1.89,1.44 1.78,1.6 1.67,1.77 1.55,1.93 1.42,2.09 1.31,2.23 1.17,2.38 1,2.52 0.91,2.65 0.77,2.78 0.64,2.89 0.49,3 0.36,3.11 0.21,3.21 0.07,3.3 z"
         id="path78" />
      <polygon
         class="cls-15"
         points="717.92,534.17 716.37,537.89 714.7,541.59 712.92,545.25 711.03,548.87 709.04,552.45 706.94,555.96 704.75,559.41 702.47,562.79 700.1,566.08 699.91,566.33 699.9,566.34 699.85,566.4 699.83,566.43 697.65,569.28 695.13,572.38 692.55,575.38 689.9,578.26 689.82,578.34 689.78,578.39 689.74,578.43 687.2,581.02 684.45,583.66 681.66,586.16 678.84,588.52 675.98,590.74 673.11,592.81 670.22,594.72 667.33,596.47 664.43,598.06 661.55,599.48 658.67,600.73 655.82,601.81 653,602.71 650.21,603.43 647.46,603.97 644.76,604.32 642.11,604.5 639.52,604.49 637,604.29 634.56,603.92 632.19,603.36 629.91,602.62 627.72,601.7 627.66,601.67 627.61,601.64 625.72,600.2 623.94,598.59 622.27,596.82 620.72,594.89 619.3,592.81 618,590.57 616.82,588.19 615.78,585.68 614.87,583.03 614.1,580.25 613.47,577.35 612.97,574.35 612.62,571.23 612.4,568.02 612.33,564.72 612.4,561.34 612.62,557.88 612.97,554.36 613.47,550.78 614.1,547.15 614.87,543.48 615.78,539.79 616.82,536.07 618,532.33 619.3,528.59 620.72,524.86 622.27,521.14 623.94,517.45 625.72,513.78 627.61,510.16 629.61,506.59 631.7,503.07 633.9,499.62 636.18,496.25 638.55,492.96 640.99,489.76 643.51,486.65 646.1,483.66 648.74,480.78 651.44,478.01 654.19,475.38 656.98,472.87 659.81,470.51 662.66,468.29 665.53,466.22 668.42,464.31 671.32,462.56 674.21,460.97 677.1,459.55 679.97,458.3 682.82,457.22 685.65,456.33 688.44,455.61 691.19,455.07 693.89,454.71 696.53,454.54 699.12,454.55 701.64,454.74 704.09,455.12 706.45,455.68 708.73,456.42 710.93,457.33 710.98,457.36 711.03,457.39 712.92,458.83 714.7,460.44 716.37,462.21 717.92,464.14 719.35,466.23 720.65,468.46 721.82,470.84 722.86,473.36 723.77,476.01 724.54,478.78 725.18,481.68 725.67,484.69 726.03,487.8 726.24,491.01 726.31,494.31 726.24,497.69 726.03,501.15 725.67,504.67 725.18,508.25 724.54,511.88 723.77,515.55 722.86,519.25 721.82,522.97 720.65,526.7 719.35,530.44 "
         id="polygon80" />
      <polygon
         class="cls-16"
         points="721.91,536.47 720.36,540.19 718.69,543.89 716.91,547.55 715.02,551.18 713.02,554.75 710.93,558.26 708.73,561.71 706.45,565.09 704.09,568.38 701.64,571.58 699.12,574.68 696.53,577.68 693.89,580.56 691.19,583.32 688.44,585.96 685.65,588.46 682.82,590.82 679.97,593.04 677.1,595.11 674.21,597.02 671.32,598.78 668.42,600.37 665.53,601.79 662.66,603.04 659.81,604.11 656.98,605.01 654.19,605.73 651.44,606.27 648.74,606.62 646.1,606.8 643.51,606.79 640.99,606.59 638.55,606.22 636.18,605.66 633.9,604.92 631.7,604 629.61,602.91 627.72,601.7 629.91,602.62 632.19,603.36 634.56,603.92 637,604.29 639.52,604.49 642.11,604.5 644.76,604.32 647.46,603.97 650.21,603.43 653,602.71 655.82,601.81 658.67,600.73 661.55,599.48 664.43,598.06 667.33,596.47 670.22,594.72 673.11,592.81 675.98,590.74 678.84,588.52 681.66,586.16 684.45,583.66 687.2,581.02 689.74,578.43 689.78,578.39 689.82,578.34 689.9,578.26 692.55,575.38 695.13,572.38 697.65,569.28 699.83,566.43 699.85,566.4 699.9,566.34 699.91,566.33 700.1,566.08 702.47,562.79 704.75,559.41 706.94,555.96 709.04,552.45 711.03,548.87 712.92,545.25 714.7,541.59 716.37,537.89 717.92,534.17 719.35,530.44 720.65,526.7 721.82,522.97 722.86,519.25 723.77,515.55 724.54,511.88 725.18,508.25 725.67,504.67 726.03,501.15 726.24,497.69 726.31,494.31 726.24,491.01 726.03,487.8 725.67,484.69 725.18,481.68 724.54,478.78 723.77,476.01 722.86,473.36 721.82,470.84 720.65,468.46 719.35,466.23 717.92,464.14 716.37,462.21 714.7,460.44 712.92,458.83 711.03,457.39 713.02,458.43 715.02,459.7 716.91,461.14 718.69,462.74 720.36,464.51 721.91,466.44 723.33,468.53 724.64,470.76 725.81,473.14 726.85,475.66 727.76,478.31 728.53,481.09 729.17,483.98 729.66,486.99 730.02,490.1 730.23,493.31 730.3,496.61 730.23,500 730.02,503.45 729.66,506.98 729.17,510.56 728.53,514.18 727.76,517.85 726.85,521.55 725.81,525.27 724.64,529 723.33,532.74 "
         id="polygon82" />
      <polygon
         class="cls-6"
         points="664.48,701.42 660.19,708.02 655.91,714.63 651.62,721.24 643.04,734.46 638.76,741.07 634.47,747.67 630.18,754.28 625.9,760.89 621.61,767.5 617.32,774.11 613.03,780.71 613.03,619 618.7,622.27 621.35,623.65 624.13,624.82 627.02,625.75 630.02,626.46 633.11,626.94 636.3,627.18 639.58,627.19 642.93,626.97 646.35,626.52 649.83,625.84 653.37,624.93 656.94,623.79 660.56,622.43 664.19,620.85 667.85,619.05 671.52,617.04 675.18,614.82 678.84,612.39 682.48,609.77 686.09,606.96 689.67,603.97 693.2,600.8 696.68,597.47 700.1,593.97 703.45,590.32 706.73,586.52 709.92,582.59 713.01,578.54 716.01,574.37 718.9,570.1 721.68,565.73 724.33,561.28 726.56,557.29 726.56,715.17 721.22,713.11 713.88,710.27 706.53,707.43 699.18,704.59 691.84,701.75 684.49,698.91 677.14,696.07 669.79,693.23 668.77,694.81 "
         id="polygon84" />
      <polygon
         class="cls-7"
         points="603.39,613.32 605.31,614.54 612.13,618.48 613.03,619 613.03,780.71 610.21,779.08 603.39,775.15 "
         id="polygon86" />
    </g>
  </g>
  <path
     class="cls-16"
     d="m 530.93,407.9 -5.94,8.53 -0.42,3.7 -0.42,5.52 -5.48,9.63 -7.58,8 v 0.61 l -7.15,8.91 -7.23,-0.61 v -0.65 l -7.44,0.84 v 0 l -0.34,0.06 -5.51,-3.29 -0.74,-8.42 -5.86,-1.58 v -11.89 l 3.38,-5.21 -0.27,-2 0.08,0.15 -0.22,-1.62 -0.48,-0.22 v -5 l -1.62,-31.82 -0.26,-4.82 0.92,4.33 5,23.33 0.76,-2.5 2.4,-0.46 a 57.44,57.44 0 0 1 6.63,-11.77 l 0.53,-0.73 v 2.42 c 0.26,-0.39 0.52,-0.75 0.78,-1.12 a 44.14,44.14 0 0 1 2.94,-3.59 29.17,29.17 0 0 1 4.86,-4.27 l 1.18,-4.44 0.27,-1.2 0.27,-0.16 0.27,0.89 1.22,3.08 a 12.35,12.35 0 0 1 7.69,-1.09 c 0.26,0.06 0.51,0.11 0.76,0.19 v -2.48 l 0.54,0.1 a 5.47,5.47 0 0 1 0.68,0.14 v 0 a 11.6,11.6 0 0 1 6.14,4 l 2.51,-2.45 0.66,1.59 4.81,-28.89 0.9,-5.37 -0.22,5.1 -1.43,33.43 v -0.05 5 l -0.59,1 -0.39,3.36 -0.07,0.66 3.44,1.3 z"
     id="path90" />
  <metadata
     id="metadata111">
    <rdf:RDF>
      <cc:Work
         rdf:about="">
        <dc:title>Artboard 1 copy 2</dc:title>
      </cc:Work>
    </rdf:RDF>
  </metadata>
</svg>
