<?xml version="1.0" encoding="UTF-8" standalone="no"?>
<svg
   id="Layer_1"
   data-name="Layer 1"
   viewBox="0 0 796.47998 796.47998"
   version="1.1"
   sodipodi:docname="recording.svg"
   width="796.47998"
   height="796.47998"
   inkscape:version="1.1.1 (3bf5ae0d25, 2021-09-20)"
   xmlns:inkscape="http://www.inkscape.org/namespaces/inkscape"
   xmlns:sodipodi="http://sodipodi.sourceforge.net/DTD/sodipodi-0.dtd"
   xmlns="http://www.w3.org/2000/svg"
   xmlns:svg="http://www.w3.org/2000/svg"
   xmlns:rdf="http://www.w3.org/1999/02/22-rdf-syntax-ns#"
   xmlns:cc="http://creativecommons.org/ns#"
   xmlns:dc="http://purl.org/dc/elements/1.1/">
  <sodipodi:namedview
     id="namedview163"
     pagecolor="#ffffff"
     bordercolor="#666666"
     borderopacity="1.0"
     inkscape:pageshadow="2"
     inkscape:pageopacity="0.0"
     inkscape:pagecheckerboard="0"
     showgrid="false"
     inkscape:zoom="0.71851852"
     inkscape:cx="233.11856"
     inkscape:cy="343.76289"
     inkscape:window-width="1920"
     inkscape:window-height="1011"
     inkscape:window-x="0"
     inkscape:window-y="0"
     inkscape:window-maximized="1"
     inkscape:current-layer="View_Layer_LineSet" />
  <defs
     id="defs4">
    <style
       id="style2">.cls-1{fill:none;}.cls-2{fill:#1ad3bd;}.cls-3{fill:#04bfad;}.cls-4{fill:#0b8c75;}.cls-5{fill:#009e80;}.cls-6{fill:#ef476f;}.cls-7{fill:#ffd166;}</style>
  </defs>
  <title
     id="title6">Artboard 1</title>
  <g
     id="View_Layer_LineSet"
     data-name="View Layer_LineSet"
     transform="translate(-142.12,-195.79)">
    <g
       id="strokes"
       transform="translate(0.48999023,54.51999)">
      <path
         class="cls-1"
         d="m 576.52,544.42 -0.06,-0.74 -0.34,0.15 -1.71,0.88 -1.46,0.83 1.35,4.46 1.22,7.67 0.19,-1 0.34,-2.14 0.27,-2.1 0.17,-2.08 0.1,-2 v -2 z m -14.58,43.83 -0.73,-0.42 -0.21,1.9 0.64,-0.85 0.4,-0.57 z M 537,705 l -0.35,0.59 -4.93,7.24 -4.92,7.23 -1.42,2.09 -5.49,6.85 -3.75,4.66 0.54,-0.41 1.67,-1.38 1.66,-1.47 1.63,-1.54 1.61,-1.62 1.57,-1.7 1.54,-1.76 1.5,-1.83 1.45,-1.88 1.42,-1.93 1.36,-2 1.31,-2 1.25,-2.07 1.2,-2.11 1.13,-2.15 1.07,-2.16 1,-2.19 0.93,-2.19 0.86,-2.22 0.56,-1.56 z m -124.88,87.42 -6.07,-3.51 -0.49,0.08 h -0.1 l -0.19,2 -0.1,2 v 1 1 l 0.06,1.94 0.08,1.14 1.71,-0.86 1.71,-1 1.71,-1.06 1.36,-0.91 0.36,-0.24 1.28,-0.94 z m 10.62,-8 h 0.07 l 0.09,-0.1 z m -32,-93.38 -6.51,5.86 -2,1.83 0.39,0.21 0.47,-0.35 1.69,-1.37 1.66,-1.45 1.63,-1.53 1.62,-1.61 1.35,-1.43 z"
         id="path8" />
      <polygon
         class="cls-2"
         points="578.3,445.5 571.05,444.94 563.6,444.92 555.98,445.41 548.2,446.44 540.29,447.99 532.25,450.06 524.12,452.65 515.91,455.74 512.12,457.4 507.63,459.34 499.78,463.21 499.33,463.44 491.65,467.64 491,468.01 486.68,470.62 482.66,473.05 480.03,474.8 474.35,478.56 470.31,481.47 466.08,484.52 465.75,484.76 461.03,488.44 457.86,490.9 451.15,496.52 449.73,497.71 446.11,500.95 444.36,502.52 441.69,504.91 438.74,507.74 433.78,512.5 431.4,514.93 426,520.46 420.08,526.91 418.38,528.76 416.99,530.37 411.28,536.99 410.94,537.39 409.65,538.97 404.14,545.76 403.69,546.31 398.37,553.27 396.64,555.53 395.41,557.25 390.3,564.35 389.82,565.01 388.34,567.21 383.44,574.46 383.26,574.72 378.56,582.11 376.94,584.65 372.46,592.17 370.91,594.78 366.64,602.42 365.16,605.06 361.11,612.82 359.72,615.49 357.54,619.98 354.59,626.04 352.3,631.11 349.79,636.68 346.42,644.76 345.33,647.39 343.3,652.7 341.81,656.6 341.63,657.05 341.22,658.14 339.32,663.58 337.48,668.9 334.85,677.25 334.1,679.65 332.89,683.96 331.1,690.36 330.21,693.97 328.48,701 326.68,709.57 326.26,711.57 324.75,720.19 324.44,722.01 323.74,727.05 323.01,732.32 322.19,740.49 322.16,740.71 321.98,742.46 321.45,751.19 321.37,752.41 321.23,758.97 321.17,762.15 321.35,770.9 321.37,771.66 321.95,780.39 321.98,780.9 322.54,785.76 323.01,789.86 324.44,798.53 326.26,806.86 328.48,814.86 331.1,822.48 334.1,829.73 337.48,836.58 341.22,843.01 345.33,849.02 349.79,854.58 354.59,859.67 359.72,864.3 365.16,868.44 370.91,872.1 369.51,871.29 361.93,866.92 354.35,862.54 339.19,853.79 333.44,850.13 328,845.99 322.88,841.36 318.07,836.27 313.62,830.71 309.5,824.71 305.76,818.27 302.38,811.42 299.38,804.17 296.77,796.55 296.24,794.67 294.55,788.55 294.18,786.88 292.72,780.22 291.29,771.55 290.83,767.45 290.27,762.59 290.08,759.8 289.66,753.35 289.64,752.59 289.45,743.84 289.52,740.66 289.54,739.86 289.56,738.31 289.63,735.72 289.66,734.1 289.69,733.56 289.73,732.91 289.84,731.24 290.27,724.15 290.41,722.72 291.29,714.01 292.05,708.51 292.72,703.7 293.03,701.88 294.55,693.26 294.96,691.26 296.77,682.7 297.29,680.55 299.38,672.05 300.02,669.77 302.38,661.34 303.13,658.94 305.76,650.59 307.95,644.29 308.87,641.64 309.5,639.83 310.49,637.25 313.62,629.08 315.13,625.44 318.07,618.37 319.27,615.71 322.88,607.73 324.17,605.06 328,597.18 329.4,594.51 333.44,586.75 334.47,584.91 338.75,577.27 339.19,576.47 340.75,573.86 345.23,566.34 346.85,563.8 351.54,556.41 353.2,553.95 358.12,546.7 359.82,544.33 364.92,537.22 366.66,534.96 371.97,528 372.87,526.9 373.15,526.55 373.7,525.87 379.23,519.08 380.95,517.07 386.67,510.44 388.36,508.61 394.27,502.17 394.29,502.15 399,497.32 402.06,494.19 403.66,492.66 409.98,486.6 412.64,484.21 414.39,482.64 418.02,479.4 419.44,478.21 426.15,472.59 427.73,471.36 428.52,470.74 434.36,466.21 435.53,465.37 442.63,460.25 448.17,456.58 448.31,456.49 448.4,456.43 448.75,456.2 450.94,454.74 453.64,453.12 454.39,452.66 454.97,452.31 459.28,449.7 459.93,449.33 467.61,445.13 473.41,442.27 475.92,441.03 480.4,439.09 484.19,437.43 492.4,434.34 495.41,433.38 498.9,432.28 500.55,431.75 506.69,430.17 508.57,429.68 516.49,428.13 524.26,427.1 531.89,426.61 539.33,426.63 546.58,427.19 553.57,428.27 553.63,428.28 560.44,429.88 567.01,432.01 573.32,434.65 577.83,437 579.36,437.81 581.98,439.31 589.56,443.69 597.14,448.07 603.49,451.74 611.08,456.12 605.04,452.97 598.73,450.32 594.93,449.09 592.16,448.2 585.34,446.59 "
         id="polygon10" />
      <path
         class="cls-3"
         d="m 660.63,557.31 v -0.76 l -0.58,-8.73 v -0.51 l -1,-8.7 v -0.26 l -1.41,-8.67 -1.83,-8.33 -2.23,-8 -2.61,-7.63 -3,-7.25 -3.37,-6.85 -3.76,-6.44 -4.1,-6 -4.46,-5.56 -4.8,-5.1 -5.13,-4.63 -5.45,-4.14 -5.74,-3.65 -6.16,-3.1 -6.31,-2.65 -3.8,-1.23 -2.77,-0.89 -6.82,-1.61 -7,-1.09 -7.25,-0.56 h -7.45 l -7.62,0.49 -7.78,1 -7.91,1.54 -8,2.07 -8.14,2.59 -8.21,3.09 -3.79,1.66 -4.49,1.94 -7.85,3.87 -0.45,0.23 -7.68,4.21 -0.68,0.34 -4.32,2.61 -4,2.43 -2.68,1.76 -5.68,3.76 -4.05,2.91 -4.22,3 -0.33,0.25 -4.72,3.72 -3.17,2.46 -6.71,5.62 -1.42,1.19 -3.59,3.29 -1.75,1.57 -2.67,2.39 -2.95,2.83 -5,4.76 -2.38,2.44 -5.4,5.52 -5.92,6.45 -1.7,1.85 -1.34,1.56 -5.72,6.63 -0.34,0.4 -1.29,1.6 -5.51,6.79 -0.45,0.55 -5.32,7 -1.73,2.26 -1.23,1.72 -5.11,7.1 -0.47,0.66 -1.49,2.2 -4.9,7.25 -0.18,0.26 -4.7,7.39 -1.62,2.54 -4.48,7.52 -1.55,2.61 -4.27,7.64 -1.48,2.64 -4.05,7.76 -1.39,2.67 -2.18,4.44 -3,6.06 -2.29,5.07 -2.51,5.57 -3.37,8.08 -1.09,2.63 -2,5.31 -1.49,3.9 -0.18,0.45 -0.41,1.09 -1.9,5.44 -1.84,5.32 -2.63,8.35 -0.75,2.4 -1.19,4.33 -1.79,6.4 -0.89,3.61 -1.73,7 -1.8,8.56 -0.42,2 -1.51,8.62 -0.31,1.82 -0.7,5 -0.73,5.27 -0.82,8.17 v 0.22 l -0.18,1.75 -0.53,8.73 -0.08,1.22 -0.14,6.56 -0.06,3.18 0.18,8.75 v 0.76 l 0.58,8.73 v 0.51 l 0.56,4.86 0.47,4.1 1.43,8.67 1.82,8.33 2.22,8 2.62,7.62 3,7.25 3.38,6.85 3.74,6.44 4.11,6 4.46,5.56 4.8,5.09 5.13,4.63 5.44,4.14 5.75,3.66 6,3.15 6.32,2.64 6.57,2.13 6.81,1.6 7.05,1.09 7.25,0.56 h 7.44 l 7.62,-0.49 7.78,-1 7.91,-1.55 8,-2.07 8.13,-2.58 8.22,-3.1 8,-3.49 0.25,-0.11 7.96,-3.84 0.46,-0.23 7.67,-4.21 0.67,-0.35 7.48,-4.54 0.85,-0.51 7.29,-4.84 1,-0.67 7.11,-5.11 1.17,-0.84 6.91,-5.38 1.3,-1 6.72,-5.62 1.42,-1.19 6.52,-5.84 1.51,-1.36 6.32,-6.06 1.59,-1.53 6.12,-6.26 1.66,-1.7 5.92,-6.44 1.7,-1.86 5.72,-6.62 1.73,-2 5.51,-6.8 1.74,-2.13 5.32,-6.95 1.72,-2.27 5.11,-7.11 1.71,-2.36 4.9,-7.26 1.67,-2.46 4.69,-7.38 1.62,-2.55 4.48,-7.52 1.56,-2.61 4.26,-7.64 1.48,-2.64 4,-7.76 1.4,-2.67 3.82,-7.87 1.31,-2.68 3.59,-8 1.2,-2.66 3.37,-8.08 1.1,-2.63 3.12,-8.17 1,-2.58 2.88,-8.26 0.88,-2.49 2.61,-8.35 0.76,-2.4 2.36,-8.43 0.64,-2.28 2.09,-8.5 0.52,-2.16 1.81,-8.56 0.42,-2 1.5,-8.62 0.33,-1.83 1.2,-8.67 0.21,-1.63 0.89,-8.71 0.14,-1.44 0.54,-8.73 0.07,-1.22 0.18,-8.75 v -1 z m -6.85,21.45 v 0.6 l -0.55,8.74 v 0.81 l -0.88,8.71 -0.1,1 -1.2,8.67 -0.17,1.22 -1.51,8.63 -0.25,1.4 -1.8,8.57 -0.32,1.56 -2.09,8.5 -0.42,1.72 -2.37,8.43 -0.51,1.85 -2.63,8.35 -0.61,2 -2.88,8.26 -0.72,2.07 -3.16,8.15 -0.83,2.14 -3.36,8.08 -0.92,2.19 -3.59,8 -1,2.23 -3.83,7.87 -1.08,2.25 -4.05,7.76 -1.18,2.25 -4.27,7.64 -1.25,2.23 -4.48,7.52 -1.3,2.2 -4.7,7.38 -1.36,2.15 -4.91,7.25 -1.4,2.07 -5.1,7.11 -1.43,2 -5.31,7 -1.45,1.89 -5.52,6.79 -1.44,1.78 -5.72,6.63 -1.46,1.59 -5.91,6.44 -1.4,1.53 -6.12,6.25 -1.34,1.38 -6.32,6 -1.28,1.23 -6.51,5.85 -1.2,1.06 -6.71,5.62 -1.09,0.91 -6.91,5.38 -1,0.75 -7.11,5.12 -0.83,0.6 -7.3,4.84 -0.68,0.44 -7.46,4.6 -0.5,0.31 -7.68,4.21 -0.32,0.18 -7.85,3.87 -0.14,0.06 -7.93,3.45 -7.88,3 -7.81,2.48 -7.71,2 -7.6,1.49 -7.45,1 -7.32,0.48 h -7.14 l -7,-0.54 -6.77,-1 -6.54,-1.55 -6.3,-2 -6.05,-2.54 -5.8,-3 -5.51,-3.5 -5.23,-4 -4.93,-4.44 -4.6,-4.89 -4.28,-5.34 -3.94,-5.76 -3.6,-6.17 -3.24,-6.57 -2.88,-7 -2.5,-7.45 -2.13,-7.67 -1.75,-8 -1.38,-8.32 -0.25,-2.22 -0.72,-6.37 -0.58,-8.74 v -0.14 l -0.09,-4.37 -0.1,-4.75 0.18,-8.75 v -0.59 l 0.54,-8.74 0.05,-0.82 0.88,-8.7 0.09,-1 0.69,-4.91 0.1,-0.77 0.59,-4.21 0.72,-4.11 1,-5.91 1.8,-8.56 0.33,-1.57 0.61,-2.47 1.68,-6.85 0.22,-0.9 2.36,-8.43 0.52,-1.85 2.62,-8.35 0.62,-2 2.88,-8.27 0.16,-0.47 0.56,-1.59 0.39,-1 3.12,-8.18 0.43,-1.12 3.37,-8.08 0.91,-2.19 3.6,-8 1,-2.23 3.83,-7.88 1.1,-2.25 4.05,-7.75 1.18,-2.26 4.26,-7.64 1.25,-2.23 4.48,-7.52 1.32,-2.2 4.69,-7.38 1.36,-2.15 3.86,-5.71 0.43,-0.63 2,-3 5.12,-7.11 1.42,-2 5.32,-6.95 1.45,-1.89 5.51,-6.8 1.45,-1.78 5.71,-6.63 1.43,-1.64 5.91,-6.45 1.41,-1.53 6.11,-6.25 1.34,-1.38 0.62,-0.59 6.32,-6 0.66,-0.64 0.41,-0.37 5.83,-5.22 1.47,-1.33 0.3,-0.24 6.71,-5.62 0.8,-0.66 0.28,-0.22 2.68,-2.09 4.5,-3.5 0.42,-0.32 3.99,-2.77 2.89,-2.08 1.11,-0.92 7.3,-4.83 0.69,-0.45 3.58,-2.17 4.42,-2.67 2.48,-1.38 5.51,-3 7.86,-3.87 0.12,-0.06 5.88,-2.55 2.06,-0.9 7.88,-3 7.8,-2.48 7.71,-2 7.6,-1.48 7.46,-1 7.31,-0.47 h 7.15 l 2.07,0.16 4.89,0.38 6.47,1 0.29,0.06 6.54,1.54 6.31,2 6.06,2.53 5.78,3 5.52,3.51 5.23,4 4.92,4.44 4.6,4.9 4.28,5.33 4,5.76 3.6,6.18 3.24,6.57 2.88,6.95 2.51,7.32 2.12,7.67 1.76,8 1.37,8.32 1,8.6 0.58,8.73 v 0.14 l 0.18,8.75 V 570 Z"
         id="path12" />
      <path
         class="cls-4"
         d="m 654,569.64 -0.18,-8.75 v -0.14 l -0.58,-8.73 -1,-8.6 -1.37,-8.32 -1.76,-8 -2.11,-7.67 -2.51,-7.32 -2.88,-6.95 -3.24,-6.57 -3.6,-6.18 -4,-5.76 -4.28,-5.33 -4.6,-4.9 -4.89,-4.42 -5.23,-4 -5.52,-3.51 -5.78,-3 -6.06,-2.53 -6.31,-2 -6.54,-1.54 -0.29,-0.06 -6.47,-1 -4.89,-0.38 -2.07,-0.16 h -7.15 l -7.31,0.47 -7.46,1 -7.6,1.48 -7.71,2 -7.8,2.48 -7.88,3 -2.06,0.9 -5.87,2.44 -0.12,0.06 -7.88,3.87 -5.51,3 -2.49,1.4 -4.42,2.67 -3.58,2.17 -0.69,0.45 -7.31,4.79 -1.15,0.83 -2.85,2.17 -3.89,2.81 -0.42,0.32 -4.5,3.5 -2.68,2.09 -0.28,0.22 -0.8,0.66 -6.71,5.62 -0.3,0.24 -1.47,1.33 -5.86,5.21 -0.41,0.37 -0.68,0.63 -6.32,6 -0.62,0.59 -1.32,1.41 -6.11,6.25 -1.41,1.53 -5.91,6.45 -1.43,1.64 -5.71,6.63 -1.45,1.78 -5.51,6.8 -1.45,1.92 -5.32,6.95 -1.42,2 -5.12,7.05 -2,3 -0.43,0.63 -3.86,5.71 -1.36,2.15 -4.69,7.38 -1.32,2.2 -4.48,7.52 -1.25,2.23 -4.26,7.64 -1.18,2.26 -4.07,7.73 -1.1,2.25 -3.83,7.88 -1,2.23 -3.6,8 -0.91,2.19 -3.37,8.08 -0.43,1.12 -3.12,8.18 -0.39,1 -0.55,1.62 -0.16,0.47 -2.88,8.27 -0.62,2 -2.62,8.26 -0.52,1.85 -2.36,8.43 -0.22,0.9 -1.68,6.85 -0.61,2.47 -0.33,1.57 -1.8,8.56 -1,5.91 -0.72,4.11 -0.59,4.21 -0.1,0.77 -0.69,4.91 -0.09,1 -0.88,8.7 -0.05,0.82 -0.54,8.74 v 0.59 l -0.24,8.81 0.1,4.75 0.09,4.37 v 0.14 l 0.58,8.74 0.72,6.37 0.25,2.22 1.38,8.32 1.75,8 2.13,7.67 2.51,7.32 2.88,7 3.24,6.57 3.6,6.17 3.94,5.76 4.28,5.34 4.6,4.89 4.93,4.44 5.23,4 5.51,3.5 5.8,3 6.05,2.54 6.3,2 6.54,1.55 6.77,1 7,0.54 h 7.14 l 7.32,-0.48 7.45,-1 7.6,-1.49 7.71,-2 7.8,-2.43 7.88,-3 7.93,-3.45 0.14,-0.06 7.85,-3.87 0.32,-0.18 7.68,-4.14 0.5,-0.31 7.49,-4.54 0.68,-0.44 7.3,-4.84 0.83,-0.6 7.11,-5.12 1,-0.75 6.91,-5.38 1.09,-0.91 6.71,-5.62 1.2,-1.06 6.51,-5.85 1.28,-1.23 6.32,-6 1.34,-1.38 6.12,-6.25 1.4,-1.53 5.91,-6.44 1.43,-1.65 5.72,-6.63 1.44,-1.78 5.52,-6.79 1.45,-1.89 5.31,-7 1.43,-2 5.11,-7.11 1.4,-2.07 4.91,-7.25 1.36,-2.15 4.7,-7.38 1.3,-2.2 4.48,-7.52 1.25,-2.23 4.27,-7.64 1.18,-2.25 4.05,-7.76 1.09,-2.25 3.83,-7.87 1,-2.23 3.59,-8 0.92,-2.19 3.36,-8.08 0.83,-2.14 3.12,-8.17 0.72,-2.07 2.88,-8.26 0.61,-2 2.63,-8.35 0.51,-1.85 2.37,-8.43 0.42,-1.72 2.09,-8.5 0.32,-1.56 1.8,-8.57 0.25,-1.4 1.51,-8.63 0.17,-1.22 1.2,-8.67 0.1,-1 0.88,-8.71 v -0.81 l 0.55,-8.74 v -0.6 L 654,570 Z m -197.9,12.6 0.09,-1.38 v -0.67 l 0.21,-2.09 0.29,-2.12 0.38,-2.14 0.45,-2.17 0.54,-2.2 0.62,-2.2 0.7,-2.21 0.77,-2.21 0.84,-2.22 0.92,-2.19 1,-2.19 1.05,-2.17 1.12,-2.15 1.18,-2.12 1.24,-2.08 1,-1.59 0.28,-0.45 1.35,-2 1.4,-2 1.46,-1.89 1.48,-1.84 0.14,-0.16 1.4,-1.62 1.56,-1.71 1.6,-1.63 1.63,-1.56 1.66,-1.48 1.67,-1.4 1.69,-1.31 1.69,-1.23 1.72,-1.14 1.72,-1 1.7,-0.94 1.37,-0.68 0.35,-0.17 1.7,-0.74 1.69,-0.63 1.67,-0.53 1.65,-0.43 1.63,-0.32 1.35,-0.18 h 0.25 l 1.57,-0.09 h 1.53 l 1.5,0.12 1.44,0.22 h 0.07 l 1.33,0.31 1.36,0.44 1.29,0.54 1.25,0.65 1.18,0.75 1.12,0.85 1,1 1,1 1.05,1.11 0.84,1.24 0.77,1.33 0.7,1.41 0.62,1.49 0.53,1.56 0.46,1.65 0.37,1.71 0.3,1.79 0.21,1.84 0.12,1.9 v 2 2 l -0.12,2.05 -0.21,2.08 -0.3,2.12 -0.37,2.15 -0.46,2.17 -0.53,2.19 -0.62,2.21 -0.7,2.21 -0.77,2.22 -0.84,2.2 -0.92,2.21 -1,2.19 -1,2.17 -1.12,2.14 -1.18,2.12 -1.25,2.08 -1.29,2 -1.36,2 -1.4,1.95 -1.44,1.9 -1.5,1.84 -1.53,1.76 -1.57,1.71 -1.6,1.64 -1.63,1.56 -1.65,1.48 -1.67,1.4 -1.77,1.33 -1.7,1.22 -1.72,1.13 -1.7,1 -1.72,0.94 -1.72,0.85 -1.69,0.73 -1.46,0.55 -0.23,0.09 -1.67,0.54 -1.66,0.42 -1.63,0.32 -1.6,0.21 -1.56,0.11 h -1.54 L 473,609 l -1.46,-0.22 -1.4,-0.33 -1.35,-0.44 -1.3,-0.54 -1.24,-0.66 -1.18,-0.74 -0.07,-0.07 -1,-0.79 -1.05,-0.94 -1,-1 -0.92,-1.15 -0.84,-1.23 -0.77,-1.33 -0.7,-1.4 -0.62,-1.5 -0.54,-1.57 -0.45,-1.64 -0.38,-1.72 -0.29,-1.78 -0.21,-1.84 v -0.39 l -0.1,-1.51 v -2 z m -53.3,141.65 -1.68,0.6 -1.67,0.49 -1.64,0.37 -1.62,0.29 -1.59,0.16 -1.55,0.06 -1.52,-0.05 -1.47,-0.16 -1.43,-0.26 -1.39,-0.38 -1.33,-0.48 -1.27,-0.58 -1.22,-0.7 -1.16,-0.78 -1.09,-0.9 -1,-1 -1,-1.08 -0.25,-0.34 -0.64,-0.84 -0.81,-1.27 -0.74,-1.37 -0.66,-1.43 -0.59,-1.52 -0.51,-1.61 -0.43,-1.67 -0.34,-1.74 -0.07,-0.48 -0.13,-1.32 -0.15,-1.51 v -0.36 l -0.08,-1.92 v -2 -0.93 l 0.05,-1.09 0.08,-1.25 0.07,-0.82 0.25,-2.1 0.32,-2.13 0.41,-2.16 0.48,-2.19 0.58,-2.18 0.65,-2.22 0.73,-2.2 0.79,-2.22 0.88,-2.21 0.33,-0.77 0.61,-1.43 1,-2.18 1,-2.13 1.14,-2.14 1.21,-2.1 1.27,-2.06 1.31,-2 1.38,-2 1.42,-1.93 1.46,-1.87 1.51,-1.81 1.55,-1.75 1.58,-1.68 1.61,-1.6 1.64,-1.54 1.66,-1.45 1.68,-1.36 1.69,-1.28 1.71,-1.19 1.72,-1.1 1.71,-1 1.71,-0.91 0.68,-0.31 1,-0.49 1.69,-0.69 1.69,-0.6 1.66,-0.49 1.65,-0.38 1.62,-0.28 1.09,-0.12 h 0.49 1.25 0.3 1 0.58 l 1.47,0.16 1.27,0.24 h 0.16 l 1.38,0.37 1.33,0.48 1.26,0.58 v 0 l 1.22,0.69 1.16,0.79 1.1,0.89 1,1 1,1.09 0.88,1.17 0.82,1.28 0.33,0.6 0.41,0.76 0.66,1.44 0.59,1.53 0.51,1.59 0.42,1.67 0.34,1.74 0.26,1.81 0.18,1.87 0.09,1.92 v 2 l -0.08,2 -0.16,2.06 -0.24,2.1 -0.32,2.14 -0.42,2.16 -0.49,2.18 -0.56,2.19 -0.65,2.21 -0.73,2.21 -0.8,2.22 -0.87,2.2 -0.95,2.2 -1,2.18 -0.68,1.34 -0.41,0.82 -1.14,2.11 -1.21,2.1 -1.27,2.06 -1.32,2 -1.37,2 -1.43,1.93 -1.4,1.88 -1.51,1.81 -1.54,1.75 -1.62,1.71 -1.61,1.62 -1.63,1.52 -1.67,1.45 -1.68,1.37 -1.69,1.27 -0.78,0.55 -0.92,0.64 -1.72,1.1 -1.71,1 -1.72,0.9 -1.71,0.8 z m 72.18,32 -0.11,2 -0.19,2.08 -0.28,2.11 -0.36,2.14 -0.44,2.17 -0.52,2.19 -0.6,2.2 -0.68,2.22 -0.76,2.22 -0.17,0.46 -0.66,1.75 -0.9,2.2 -1,2.2 -1,2.17 -1.11,2.15 -1.2,2.13 -1.24,2.08 -1.28,2.06 -1.34,2 -1.39,2 -1.45,1.91 -1.48,1.85 -1.52,1.78 -1.57,1.73 -1.59,1.64 -1.62,1.59 -1.64,1.49 -1.68,1.42 -1.68,1.33 -1.7,1.24 -1.71,1.15 -1.72,1.06 -1.71,1 -1.71,0.86 -1.7,0.76 -1.69,0.66 -1.68,0.55 -1.66,0.45 -1.63,0.34 -1.61,0.23 -1.57,0.13 h -1.54 l -1.5,-0.09 -1.46,-0.2 -1.41,-0.31 -1.37,-0.41 -1.3,-0.53 -1.25,-0.63 -1.2,-0.72 -1.13,-0.84 -1.07,-0.93 -1,-1 -0.93,-1.12 -0.86,-1.22 -0.79,-1.31 -0.71,-1.39 -0.63,-1.48 -0.56,-1.55 -0.47,-1.63 -0.39,-1.7 -0.31,-1.77 -0.23,-1.83 v -0.21 l -0.05,-0.54 -0.08,-1.14 -0.06,-1.94 v -1 -1 l 0.1,-2 0.19,-2 v -0.11 l 0.28,-2.11 0.36,-2.14 0.43,-2.17 0.53,-2.19 0.6,-2.2 0.68,-2.21 0.76,-2.22 0.83,-2.2 0.9,-2.21 1,-2.13 v -0.07 l 1,-2.17 1.11,-2.15 1.17,-2.12 1.23,-2.09 1.29,-2 1.34,-2 1.39,-2 1.44,-1.9 1.48,-1.86 1.53,-1.78 1.55,-1.73 1.6,-1.64 1.63,-1.58 1.64,-1.49 1.67,-1.42 1.69,-1.33 1.7,-1.24 1.71,-1.16 1.71,-1.06 1.72,-1 1.7,-0.85 v 0 l 1.71,-0.76 1.69,-0.66 1.68,-0.55 1.66,-0.44 1.63,-0.35 1.6,-0.23 1.58,-0.13 h 1.54 l 1.5,0.09 1.46,0.2 1.41,0.31 1.36,0.42 1.31,0.52 1.25,0.63 1.2,0.73 1.13,0.83 1.06,0.93 1,1 0.93,1.12 0.86,1.21 0.78,1.32 0.71,1.39 0.63,1.47 0.56,1.56 0.48,1.62 0.39,1.7 0.31,1.77 0.22,1.83 0.14,1.82 v 0.07 0.42 l 0.05,1.53 z m 31.2,-69.67 -1.18,1.3 -1.19,1.27 -1.22,1.21 -1.23,1.16 -1.26,1.09 -1.27,1 -1.28,1 -1.29,0.9 -1.26,0.85 -1.3,0.75 -1.29,0.69 -1.3,0.6 -1.27,0.53 -1.27,0.45 -1.26,0.37 -1.25,0.29 -1.22,0.21 -1.2,0.13 h -1.17 -1.15 l -1.11,-0.11 -1.09,-0.21 -0.84,-0.22 -0.2,-0.06 -1,-0.36 -1,-0.45 -0.93,-0.52 -0.87,-0.59 -0.82,-0.68 -0.78,-0.75 -0.73,-0.82 -0.66,-0.89 -0.63,-1 -0.56,-1 -0.5,-1.09 -0.44,-1.15 -0.38,-1.21 -0.32,-1.27 -0.26,-1.31 -0.2,-1.33 -0.13,-1.41 -0.07,-1.45 v -1.5 l 0.06,-1.53 0.12,-1.56 0.18,-1.58 0.25,-1.61 0.31,-1.64 0.37,-1.64 0.43,-1.66 0.49,-1.67 0.55,-1.67 0.6,-1.67 0.66,-1.67 0.72,-1.67 0.77,-1.64 0.81,-1.64 0.87,-1.61 0.91,-1.59 0.95,-1.56 1,-1.53 1,-1.5 1.08,-1.46 1.1,-1.41 1.14,-1.37 1.17,-1.32 1.2,-1.27 1.22,-1.22 1.23,-1.16 1.26,-1.09 1.27,-1 1.28,-1 1.29,-0.9 1.29,-0.83 1.3,-0.75 1.29,-0.68 1.3,-0.61 1.28,-0.52 1.27,-0.46 1.26,-0.37 1.24,-0.28 1.22,-0.21 1.2,-0.13 h 1.18 1.14 l 1.11,0.12 1.09,0.2 1,0.29 1,0.36 1,0.44 0.93,0.52 0.87,0.6 0.83,0.68 0.77,0.74 0.73,0.82 0.67,0.9 0.62,1 0.56,1 0.5,1.1 0.44,1.14 0.38,1.21 0.32,1.27 0.27,1.31 0.19,1.37 0.13,1.41 0.07,1.46 v 1.49 l -0.05,1.52 v 0 l -0.13,1.56 -0.18,1.58 -0.25,1.61 -0.31,1.64 -0.37,1.65 -0.43,1.66 -0.35,1.2 -0.14,0.46 -0.55,1.67 -0.6,1.68 -0.66,1.67 -0.72,1.66 -0.77,1.64 -0.81,1.64 -0.87,1.61 -0.91,1.59 -0.95,1.56 -1,1.53 -1,1.5 -1.08,1.46 -1.1,1.42 z m 70.61,11.67 -0.15,2.06 -0.23,2.09 -0.3,2.13 -0.4,2.15 -0.47,2.18 -0.55,2.2 -0.63,2.2 -0.72,2.21 -0.78,2.21 -0.87,2.22 -0.92,2.19 -1,2.19 -1.07,2.16 -1.14,2.15 -1.19,2.11 -1.25,2.07 -1.31,2 -1.37,2 -1.44,1.94 -1.45,1.88 -1.5,1.83 -1.55,1.76 -1.57,1.7 -1.6,1.62 -1.64,1.54 -1.65,1.47 -1.68,1.38 -1.69,1.3 -1.67,1.17 -1.72,1.11 -1.71,1 -1.72,0.92 -1.7,0.82 -1.7,0.72 -1.69,0.61 -1.66,0.52 -1.66,0.4 -1.62,0.3 -1.59,0.19 -1.56,0.08 h -1.53 l -1.48,-0.14 -1.44,-0.25 -1.4,-0.35 -1.33,-0.46 -1.29,-0.47 -1.23,-0.67 -1.17,-0.78 -1.11,-0.86 -1,-1 -1,-1.06 -0.91,-1.17 -0.83,-1.25 -0.75,-1.34 -0.68,-1.42 -0.61,-1.51 -0.51,-1.58 -0.45,-1.67 -0.29,-1.39 -0.07,-0.33 -0.27,-1.8 -0.19,-1.85 v 0 l -0.12,-1.9 v -2 l 0.06,-2 0.1,-1.48 v -0.58 l 0.23,-2.1 0.31,-2.12 0.39,-2.15 0.48,-2.18 0.55,-2.2 0.36,-1.27 0.27,-0.93 0.71,-2.21 0.79,-2.21 0.85,-2.22 0.94,-2.19 1,-2.19 1.07,-2.16 1.13,-2.15 1.19,-2.11 1.26,-2.07 1.31,-2 1.36,-2 1.41,-1.93 1.46,-1.88 1.5,-1.83 0.71,-0.82 0.82,-0.94 0.09,-0.1 1.49,-1.6 1.61,-1.62 1.63,-1.54 1.66,-1.47 1.67,-1.38 1.69,-1.3 1.71,-1.21 1.71,-1.11 1.72,-1 1.71,-0.92 1,-0.49 0.68,-0.33 1.7,-0.72 1.68,-0.61 1.67,-0.52 1.65,-0.4 1.63,-0.3 1.47,-0.18 h 0.12 l 1.56,-0.08 h 1.52 l 1.49,0.14 1.43,0.25 1.39,0.35 1.35,0.46 1.29,0.56 1.22,0.67 1.18,0.78 1.1,0.86 1,1 1,1.06 0.9,1.17 0.83,1.25 0.76,1.34 0.68,1.42 0.6,1.51 0.52,1.58 0.44,1.67 0.36,1.72 0.28,1.8 0.19,1.85 0.11,1.92 v 2 z m 31.51,-131.24 -0.09,2 -0.18,2.08 -0.26,2.1 -0.34,2.14 -0.43,2.17 -0.51,2.18 -0.57,2.2 -0.67,2.21 -0.74,2.21 -0.82,2.22 -0.89,2.2 -0.95,2.19 -1,2.18 -1.09,2.16 -1.16,2.13 -1.21,2.09 -1.28,2.06 -1.33,2 -1.38,2 -1.43,1.91 -1.52,1.92 -1.51,1.8 -1.56,1.73 -1.59,1.67 -1.61,1.59 -1.65,1.51 -1.66,1.44 -1.68,1.35 -1.7,1.26 -1.71,1.16 -1.71,1.08 -1.72,1 -1.71,0.88 -1.7,0.78 -1.7,0.68 -1.68,0.57 -1.66,0.48 -1.12,0.24 -0.52,0.11 -1.61,0.26 -1.58,0.15 h -1.55 l -1.5,-0.07 -1.47,-0.17 -1.42,-0.29 -0.73,-0.21 -0.64,-0.19 -1.33,-0.5 -1.26,-0.61 -0.95,-0.56 -0.22,-0.14 -1.15,-0.81 -1.09,-0.91 -1,-1 -1,-1.1 -0.86,-1.2 -0.81,-1.28 -0.72,-1.38 -0.65,-1.46 -0.57,-1.54 -0.49,-1.61 -0.41,-1.69 -0.33,-1.75 -0.24,-1.82 -0.1,-1.14 -0.06,-0.74 -0.08,-1.94 v -2 l 0.1,-2 0.17,-2.07 0.26,-2.11 0.35,-2.13 0.42,-2.17 0.5,-2.18 0.59,-2.2 0.67,-2.22 0.74,-2.2 0.81,-2.22 0.89,-2.2 1,-2.2 1,-2.18 1.1,-2.15 1.16,-2.13 1,-1.77 0.18,-0.33 1.28,-2.06 1.33,-2 1.38,-2 1.43,-1.91 1.48,-1.86 1.51,-1.8 1.55,-1.74 1.59,-1.67 1.61,-1.58 1.65,-1.52 1.66,-1.43 1.69,-1.35 1.7,-1.26 1.71,-1.17 1.71,-1.08 0.25,-0.15 1.46,-0.83 1.71,-0.88 0.34,-0.15 1.37,-0.63 1.7,-0.68 1.67,-0.57 1.66,-0.47 1.64,-0.36 1.62,-0.26 1.57,-0.15 h 1.55 l 1.51,0.07 1.47,0.18 1.42,0.29 1.37,0.39 1.32,0.5 1.26,0.61 1.21,0.71 1.15,0.81 1.09,0.83 1,1 0.94,1.1 0.88,1.2 0.81,1.28 0.72,1.39 0.65,1.45 0.57,1.54 0.49,1.61 0.4,1.69 0.33,1.76 0.24,1.82 0.17,1.87 0.07,1.94 z"
         id="path14" />
      <polygon
         class="cls-5"
         points="543.53,690.17 542.97,692.37 542.34,694.57 541.63,696.78 541.4,697.43 536.98,704.99 536.63,705.58 531.7,712.82 526.78,720.05 525.36,722.14 519.89,728.97 516.14,733.63 514.99,734.52 513.28,735.73 511.56,736.84 509.86,737.86 508.14,738.78 507.12,739.27 507,737.37 506.98,735.4 507.04,733.4 507.14,731.92 507.18,731.34 507.41,729.24 507.72,727.12 508.11,724.97 508.59,722.79 509.14,720.59 509.5,719.32 509.77,718.39 510.48,716.18 511.27,713.97 512.12,711.75 513.06,709.56 514.06,707.37 515.13,705.21 516.26,703.06 517.46,700.95 518.71,698.88 520.02,696.85 521.38,694.85 522.79,692.92 524.25,691.04 525.75,689.21 526.46,688.39 527.28,687.45 527.37,687.35 528.86,685.75 530.47,684.13 532.1,682.59 533.76,681.12 535.43,679.74 537.12,678.44 538.83,677.23 540.54,676.12 542.26,675.1 543.97,674.18 545,673.69 545.1,675.59 545.13,677.55 545.07,679.56 544.93,681.62 544.7,683.71 544.39,685.84 544,687.99 "
         id="polygon16" />
      <polygon
         class="cls-5"
         points="441.88,748.09 441.36,750.28 440.76,752.48 440.08,754.69 439.33,756.91 438.5,759.11 437.6,761.32 436.62,763.52 435.57,765.69 434.47,767.84 433.3,769.96 432.07,772.05 430.79,774.11 429.44,776.11 428.85,776.94 428.05,778.07 426.61,779.98 425.12,781.83 423.6,783.61 422.9,784.39 422.74,784.45 422.81,784.49 422.04,785.34 420.45,786.98 418.82,788.56 417.18,790.06 415.5,791.47 413.82,792.81 413.41,793.11 412.12,792.42 406.05,788.91 405.56,788.99 405.46,789 405.47,788.88 405.75,786.77 406.11,784.63 406.54,782.46 407.07,780.27 407.67,778.07 408.35,775.86 409.11,773.64 409.94,771.44 410.84,769.23 411.79,767.1 411.81,767.03 412.85,764.86 413.96,762.71 415.13,760.59 416.36,758.5 417.65,756.45 418.99,754.44 420.38,752.48 421.82,750.58 423.3,748.72 424.83,746.94 426.38,745.21 427.98,743.57 429.61,741.99 431.25,740.5 432.92,739.08 434.61,737.75 436.31,736.51 438.02,735.35 439.73,734.29 441.45,733.33 443.15,732.48 443.23,733.61 443.29,735.56 443.27,737.55 443.15,739.59 442.96,741.67 442.68,743.78 442.32,745.92 "
         id="polygon18" />
      <polygon
         class="cls-5"
         points="410.6,653.56 410.11,655.74 409.55,657.93 409.34,658.6 409.19,659.15 408.9,660.14 408.17,662.35 407.37,664.56 406.49,666.77 405.55,668.97 404.53,671.15 403.86,672.49 403.45,673.31 402.31,675.45 401.1,677.55 399.84,679.61 398.52,681.64 397.14,683.62 395.73,685.55 394.25,687.42 392.75,689.23 391.2,690.98 390.97,691.23 390.7,691.07 384.19,696.93 382.16,698.76 382.55,698.98 381.33,699.89 380.56,700.44 379.63,701.08 377.91,702.18 376.2,703.18 374.49,704.08 373.81,704.39 373.77,704.03 373.69,702.11 373.68,700.14 373.71,699.21 373.76,698.12 373.84,696.87 373.91,696.05 374.16,693.95 374.48,691.82 374.89,689.66 375.38,687.47 375.95,685.29 376.6,683.07 377.33,680.87 378.12,678.65 379,676.44 379.33,675.67 379.94,674.24 380.96,672.06 382.04,669.9 383.18,667.76 384.39,665.66 385.66,663.6 386.97,661.57 388.35,659.59 389.77,657.66 391.24,655.79 392.74,653.98 394.29,652.23 395.87,650.55 397.48,648.95 399.12,647.41 400.78,645.96 402.46,644.6 404.15,643.32 405.86,642.13 407.57,641.03 409.29,640.03 411,639.13 411.68,638.82 411.71,639.18 411.8,641.1 411.81,643.08 411.74,645.1 411.57,647.16 411.34,649.26 411.01,651.4 410.61,653.5 "
         id="polygon20" />
      <polygon
         class="cls-5"
         points="492.78,537.84 492.7,538.17 492.17,540.36 491.55,542.57 490.86,544.78 490.09,546.99 489.24,549.2 488.33,551.41 487.34,553.6 486.28,555.77 485.16,557.91 483.98,560.03 482.73,562.11 481.44,564.15 480.09,566.15 478.68,568.1 477.24,570 476.62,570.76 475.75,571.83 474.22,573.6 472.64,575.31 471.05,576.95 469.97,577.98 469.42,578.51 467.77,579.99 466.1,581.39 465.19,582.09 464.41,582.71 462.7,583.93 460.99,585.06 459.28,586.1 457.56,587.04 456.2,587.71 456.1,586.2 456.06,584.25 456.1,582.24 456.19,580.86 456.23,580.19 456.44,578.1 456.73,575.98 457.11,573.84 457.56,571.67 458.1,569.47 458.72,567.27 459.42,565.06 460.19,562.85 461.03,560.63 461.95,558.43 462.94,556.25 463.99,554.08 465.11,551.93 466.29,549.81 467.53,547.73 468.55,546.14 468.83,545.69 470.18,543.69 471.58,541.74 473.04,539.85 474.52,538.01 474.66,537.85 476.06,536.23 477.62,534.52 479.22,532.89 480.85,531.33 482.51,529.85 484.18,528.45 485.87,527.14 487.56,525.91 489.28,524.77 491,523.74 492.7,522.79 494.07,522.12 494.16,523.63 494.21,525.6 494.16,527.6 494.04,529.65 493.83,531.73 493.54,533.85 493.17,536 "
         id="polygon22" />
      <polygon
         class="cls-5"
         points="571.97,569.88 571.09,572.08 570.99,572.3 570.91,572.47 570.13,574.27 569.1,576.45 568.01,578.61 566.85,580.74 565.63,582.83 564.35,584.89 563.02,586.91 562.04,588.31 561.94,588.25 561.21,587.83 561,589.74 560.21,590.79 558.73,592.66 557.22,594.46 555.78,596.06 555.67,596.19 554.08,597.86 552.47,599.45 550.82,600.96 549.16,602.39 547.47,603.75 545.77,605.01 544.06,606.17 542.36,607.25 540.64,608.23 538.92,609.11 538.59,609.26 538.53,608.52 538.45,606.58 538.46,604.6 538.56,602.57 538.73,600.5 539,598.39 539.34,596.25 539.76,594.09 540.26,591.9 540.85,589.71 541.51,587.49 542.26,585.29 543.07,583.07 543.96,580.87 544.92,578.67 545.94,576.49 547.04,574.34 548.2,572.21 549.24,570.43 549.42,570.11 550.7,568.05 552.03,566.03 553.41,564.06 554.84,562.15 556.32,560.29 557.83,558.49 559.38,556.75 560.97,555.08 562.58,553.5 564.23,551.99 565.89,550.55 567.58,549.2 569.28,547.94 570.99,546.77 572.7,545.69 572.96,545.54 574.3,550.03 575.52,557.7 575.29,558.86 574.78,561.03 574.2,563.24 573.53,565.45 572.8,567.66 "
         id="polygon24" />
      <polygon
         class="cls-3"
         points="607,577.17 606.49,579.35 605.92,581.55 605.25,583.76 604.51,585.97 603.69,588.18 602.8,590.39 601.85,592.58 600.81,594.76 599.72,596.92 598.56,599.05 597.35,601.14 596.07,603.21 594.74,605.22 593.36,607.19 591.93,609.1 590.45,610.97 588.94,612.77 587.38,614.5 585.79,616.17 584.17,617.76 582.53,619.27 580.87,620.71 579.19,622.06 577.49,623.32 575.78,624.48 574.07,625.56 572.35,626.54 570.64,627.42 568.94,628.2 567.24,628.88 565.56,629.45 563.9,629.93 562.77,630.17 562.26,630.28 560.65,630.54 559.07,630.69 557.52,630.72 556.02,630.65 554.55,630.48 553.13,630.19 552.4,629.98 551.76,629.79 550.43,629.29 549.17,628.68 548.22,628.12 547.97,627.97 546.82,627.16 545.73,626.25 544.72,625.24 543.77,624.13 542.91,622.93 542.1,621.65 541.38,620.27 540.73,618.81 540.16,617.27 539.67,615.66 539.26,613.97 538.93,612.22 538.69,610.4 538.59,609.26 538.92,609.11 540.64,608.23 542.36,607.25 544.06,606.17 545.77,605.01 547.47,603.75 549.16,602.39 550.82,600.96 552.47,599.45 554.08,597.86 555.67,596.19 555.78,596.06 557.22,594.46 558.73,592.66 560.21,590.79 561,589.74 561.64,588.88 562.04,588.31 563.02,586.91 564.35,584.89 565.63,582.83 566.85,580.74 568.01,578.61 569.1,576.45 570.13,574.27 570.91,572.47 570.99,572.3 571.09,572.08 571.97,569.88 572.8,567.66 573.53,565.45 574.2,563.24 574.78,561.03 575.29,558.86 575.52,557.7 575.71,556.69 576.05,554.55 576.32,552.45 576.49,550.37 576.59,548.34 576.6,546.36 576.52,544.42 576.46,543.68 577.83,543.05 579.53,542.38 581.2,541.8 582.86,541.33 584.5,540.97 586.12,540.71 587.69,540.56 589.24,540.53 590.75,540.6 592.22,540.78 593.64,541.07 595.01,541.46 596.33,541.96 597.59,542.57 598.8,543.28 599.95,544.09 601.02,545.01 602.04,546.02 602.98,547.12 603.86,548.32 604.66,549.6 605.39,550.99 606.04,552.44 606.61,553.98 607.1,555.59 607.5,557.28 607.83,559.04 608.07,560.86 608.24,562.73 608.31,564.67 608.3,566.65 608.21,568.68 608.03,570.76 607.77,572.86 607.43,575 "
         id="polygon26" />
      <polygon
         class="cls-3"
         points="575.24,708.48 574.69,710.68 574.06,712.88 573.34,715.09 572.56,717.3 571.69,719.52 570.77,721.71 569.77,723.9 568.7,726.06 567.56,728.21 566.37,730.32 565.12,732.39 563.81,734.42 562.44,736.42 561.03,738.35 559.58,740.23 558.08,742.06 556.53,743.82 554.96,745.52 553.36,747.14 551.72,748.68 550.07,750.15 548.39,751.53 546.7,752.83 545,754.04 543.28,755.15 541.57,756.17 539.85,757.09 538.15,757.91 536.45,758.63 534.76,759.25 533.1,759.76 531.44,760.16 529.82,760.46 528.23,760.65 526.67,760.73 525.14,760.71 523.66,760.57 522.22,760.32 520.82,759.97 519.49,759.51 518.2,758.95 516.97,758.28 515.8,757.5 514.69,756.64 513.65,755.66 512.68,754.6 511.77,753.43 510.94,752.18 510.19,750.84 509.51,749.42 508.9,747.91 508.39,746.33 507.94,744.66 507.65,743.27 507.58,742.94 507.31,741.14 507.12,739.29 507.12,739.27 508.14,738.78 509.86,737.86 511.56,736.84 513.28,735.73 514.99,734.52 516.14,733.63 516.68,733.22 518.35,731.84 520.01,730.37 521.64,728.83 523.25,727.21 524.82,725.51 526.37,723.75 527.86,721.92 529.31,720.04 530.73,718.11 532.09,716.11 533.4,714.08 534.65,712.01 535.85,709.9 536.98,707.75 538.05,705.59 539.05,703.4 539.98,701.21 540.84,698.99 541.4,697.43 541.63,696.78 542.34,694.57 542.97,692.37 543.53,690.17 544,687.99 544.39,685.84 544.7,683.71 544.93,681.62 545.07,679.56 545.13,677.55 545.1,675.59 545,673.69 545.68,673.36 547.38,672.64 549.06,672.03 550.73,671.51 552.38,671.11 554,670.81 555.49,670.63 555.6,670.62 557.16,670.54 558.68,670.56 560.17,670.7 561.6,670.95 562.99,671.3 564.34,671.76 565.63,672.32 566.85,672.99 568.03,673.77 569.13,674.63 570.17,675.61 571.15,676.67 572.05,677.84 572.88,679.09 573.64,680.43 574.32,681.86 574.91,683.36 575.44,684.95 575.88,686.61 576.24,688.33 576.52,690.13 576.71,691.98 576.82,693.9 576.84,695.87 576.79,697.87 576.64,699.93 576.41,702.02 576.11,704.15 575.71,706.3 "
         id="polygon28" />
      <polygon
         class="cls-3"
         points="441.82,674.05 441.25,676.25 440.61,678.45 439.88,680.66 439.08,682.88 438.21,685.09 437.26,687.28 436.25,689.46 435.57,690.8 435.16,691.62 434.03,693.76 432.82,695.86 431.55,697.92 430.23,699.96 428.86,701.93 427.44,703.86 425.97,705.73 424.46,707.54 422.92,709.29 421.33,710.98 419.72,712.59 418.09,714.11 416.42,715.56 414.74,716.93 413.05,718.2 412.27,718.75 411.35,719.39 409.63,720.49 407.92,721.49 406.2,722.39 404.5,723.19 402.8,723.89 401.12,724.49 399.45,724.98 397.81,725.36 396.19,725.63 394.6,725.8 393.05,725.86 391.53,725.81 390.06,725.65 388.63,725.39 387.24,725.01 385.91,724.53 384.63,723.95 383.42,723.25 382.26,722.47 381.17,721.57 380.14,720.59 379.18,719.5 378.93,719.16 378.29,718.32 377.48,717.05 376.74,715.68 376.07,714.25 375.49,712.73 374.98,711.12 374.55,709.45 374.21,707.71 374.14,707.23 373.96,705.9 373.81,704.39 374.49,704.08 376.2,703.18 377.91,702.18 379.63,701.08 380.56,700.44 381.33,699.89 382.55,698.98 383.02,698.62 384.7,697.25 386.37,695.8 388,694.27 389.62,692.66 390.97,691.23 391.2,690.98 392.75,689.23 394.25,687.42 395.73,685.55 397.14,683.62 398.52,681.64 399.84,679.61 401.1,677.55 402.31,675.45 403.45,673.31 403.86,672.49 404.53,671.15 405.55,668.97 406.49,666.77 407.37,664.56 408.17,662.35 408.9,660.14 409.19,659.15 409.34,658.6 409.55,657.93 410.11,655.74 410.6,653.56 410.61,653.5 411.01,651.4 411.34,649.26 411.57,647.16 411.74,645.1 411.81,643.08 411.8,641.1 411.71,639.18 411.68,638.82 412.71,638.33 414.4,637.64 416.09,637.04 417.75,636.55 419.4,636.17 421.02,635.89 422.11,635.77 422.6,635.72 423.85,635.68 424.15,635.66 425.1,635.69 425.68,635.71 427.15,635.87 428.42,636.11 428.58,636.14 429.96,636.51 431.29,636.99 432.55,637.57 432.56,637.58 433.78,638.27 434.94,639.05 436.04,639.95 437.06,640.94 438.03,642.03 438.91,643.2 439.73,644.48 440.06,645.08 440.47,645.84 441.13,647.28 441.72,648.8 442.23,650.4 442.65,652.07 442.99,653.81 443.25,655.62 443.43,657.49 443.52,659.41 443.53,661.39 443.45,663.41 443.3,665.47 443.05,667.57 442.73,669.71 442.31,671.87 "
         id="polygon30" />
      <polygon
         class="cls-3"
         points="473.61,766.4 473.08,768.59 472.48,770.79 471.8,773 471.04,775.22 470.87,775.68 470.21,777.43 469.31,779.63 468.34,781.83 467.29,784 466.18,786.15 465.02,788.28 463.78,790.36 462.5,792.42 461.16,794.42 459.77,796.38 458.32,798.29 456.84,800.14 455.32,801.92 453.75,803.65 452.16,805.29 450.54,806.88 448.9,808.37 447.22,809.79 445.54,811.12 443.84,812.36 442.13,813.51 440.42,814.57 438.7,815.53 436.99,816.39 435.29,817.15 433.6,817.81 431.92,818.36 430.26,818.81 428.63,819.15 427.02,819.38 425.45,819.51 423.91,819.52 422.41,819.43 420.95,819.23 419.54,818.92 418.18,818.51 416.87,817.98 415.62,817.35 414.42,816.63 413.29,815.79 412.22,814.86 411.22,813.83 410.29,812.71 409.43,811.49 408.64,810.18 407.93,808.79 407.3,807.31 406.74,805.76 406.27,804.13 405.88,802.43 405.57,800.66 405.34,798.83 405.33,798.62 405.28,798.08 406.99,797.22 408.7,796.26 410.41,795.2 411.77,794.29 412.13,794.05 413.41,793.11 413.82,792.81 415.5,791.47 417.18,790.06 418.82,788.56 420.45,786.98 422.04,785.34 422.81,784.49 422.9,784.39 423.6,783.61 425.12,781.83 426.61,779.98 428.05,778.07 428.85,776.94 429.44,776.11 430.79,774.11 432.07,772.05 433.3,769.96 434.47,767.84 435.57,765.69 436.62,763.52 437.6,761.32 438.5,759.11 439.33,756.91 440.08,754.69 440.76,752.48 441.36,750.28 441.88,748.09 442.32,745.92 442.68,743.78 442.96,741.67 443.15,739.59 443.27,737.55 443.29,735.56 443.23,733.61 443.15,732.48 443.15,732.47 444.86,731.71 446.55,731.05 448.23,730.5 449.88,730.05 451.52,729.71 453.12,729.48 454.7,729.36 456.24,729.34 457.74,729.43 459.2,729.63 460.61,729.94 461.97,730.36 463.28,730.88 464.53,731.51 465.73,732.24 466.86,733.08 467.92,734 468.93,735.03 469.86,736.16 470.72,737.37 471.5,738.68 472.21,740.08 472.84,741.55 473.4,743.11 473.88,744.73 474.27,746.43 474.58,748.2 474.8,750.03 474.94,751.85 474.94,751.92 474.96,752.34 475,753.87 474.98,755.87 474.87,757.9 474.68,759.98 474.4,762.09 474.04,764.23 "
         id="polygon32" />
      <polygon
         class="cls-3"
         points="524.42,556.48 523.89,558.67 523.27,560.88 522.58,563.09 521.8,565.31 520.96,567.51 520.04,569.72 519.05,571.91 518,574.08 516.88,576.22 515.7,578.34 514.45,580.42 513.16,582.46 511.8,584.46 510.4,586.41 508.96,588.31 507.46,590.15 505.93,591.91 504.36,593.62 502.76,595.26 501.13,596.82 499.48,598.3 497.81,599.7 496.12,601.02 494.42,602.24 492.7,603.37 491,604.41 489.28,605.35 487.56,606.2 485.87,606.93 484.4,607.49 484.18,607.57 482.51,608.11 480.85,608.53 479.22,608.85 477.62,609.06 476.06,609.16 474.52,609.16 473.04,609.04 471.58,608.82 470.18,608.49 468.83,608.05 467.53,607.51 466.29,606.85 465.11,606.11 465.02,606.04 463.99,605.25 462.94,604.31 461.95,603.26 461.03,602.11 460.19,600.88 459.42,599.55 458.72,598.15 458.1,596.65 457.56,595.08 457.11,593.44 456.73,591.72 456.44,589.95 456.23,588.1 456.2,587.71 457.56,587.04 459.28,586.1 460.99,585.06 462.7,583.93 464.41,582.71 465.19,582.09 466.1,581.39 467.77,579.99 469.42,578.51 469.97,577.98 471.05,576.95 472.64,575.31 474.22,573.6 475.75,571.83 476.62,570.76 477.24,570 478.68,568.1 480.09,566.15 481.44,564.15 482.73,562.11 483.98,560.03 485.16,557.91 486.28,555.77 487.34,553.6 488.33,551.41 489.24,549.2 490.09,546.99 490.86,544.78 491.55,542.57 492.17,540.36 492.7,538.17 492.78,537.84 493.17,536 493.54,533.85 493.83,531.73 494.04,529.65 494.16,527.6 494.21,525.6 494.16,523.63 494.07,522.12 494.42,521.96 496.12,521.21 497.81,520.58 499.48,520.05 501.13,519.62 502.76,519.3 504.11,519.12 504.36,519.08 505.93,518.99 507.46,518.99 508.96,519.11 510.4,519.33 510.47,519.35 511.8,519.66 513.16,520.1 514.45,520.64 515.7,521.29 516.88,522.04 518,522.89 519.05,523.85 520.04,524.9 520.96,526.03 521.8,527.27 522.58,528.6 523.27,530.01 523.89,531.5 524.42,533.06 524.88,534.71 525.25,536.42 525.55,538.21 525.76,540.05 525.88,541.95 525.93,543.91 525.88,545.91 525.76,547.96 525.55,550.04 525.25,552.16 524.88,554.31 "
         id="polygon34" />
      <polygon
         class="cls-2"
         points="423.71,359.88 416.27,359.85 408.64,360.36 400.87,361.38 392.96,362.93 384.92,365 376.79,367.59 368.57,370.69 360.55,374.18 360.3,374.28 352.45,378.14 351.99,378.37 344.32,382.59 343.66,382.95 336.17,387.48 335.32,388 328.03,392.83 327.01,393.5 319.91,398.61 318.74,399.45 311.83,404.83 310.53,405.84 303.81,411.46 302.4,412.64 295.88,418.49 294.36,419.86 288.04,425.91 286.45,427.44 280.33,433.7 278.67,435.39 272.75,441.84 271.05,443.7 265.33,450.32 263.61,452.32 258.08,459.11 256.35,461.26 251.04,468.21 249.31,470.46 244.2,477.57 242.49,479.94 237.59,487.19 235.92,489.66 231.23,497.05 229.61,499.59 225.13,507.11 223.57,509.71 219.31,517.35 217.83,520 213.78,527.76 212.38,530.44 208.55,538.3 207.26,540.98 203.66,548.96 202.45,551.63 199.09,559.71 198,562.33 194.87,570.5 193.89,573.08 191.01,581.34 190.14,583.84 187.52,592.18 186.76,594.58 184.4,603.01 183.76,605.3 181.67,613.79 181.15,615.95 179.34,624.51 178.92,626.5 177.42,635.13 177.09,636.95 175.9,645.62 175.67,647.26 174.79,655.97 174.65,657.4 174.11,666.13 174.04,667.35 173.86,676.1 173.83,677.09 174.02,685.84 174.04,686.6 174.62,695.33 174.65,695.84 175.64,704.53 175.68,704.8 177.09,713.46 178.92,721.8 181.15,729.79 183.76,737.42 186.76,744.67 190.14,751.52 193.89,757.95 198,763.95 202.45,769.51 207.26,774.61 212.38,779.24 217.83,783.38 223.57,787.03 222.18,786.23 214.6,781.85 207.02,777.48 199.44,773.1 191.86,768.72 186.11,765.07 180.67,760.92 175.54,756.3 170.74,751.2 166.28,745.64 162.17,739.64 158.43,733.21 155.05,726.36 152.04,719.11 149.43,711.48 147.21,703.49 145.38,695.15 143.96,686.49 143.92,686.22 142.93,677.53 142.9,677.01 142.32,668.29 142.3,667.53 142.12,658.78 142.14,657.79 142.32,649.04 142.4,647.83 142.93,639.09 143.08,637.65 143.96,628.95 144.19,627.31 145.38,618.64 145.7,616.82 147.21,608.19 147.63,606.2 149.43,597.64 149.96,595.49 152.04,586.99 152.68,584.7 155.05,576.27 155.8,573.88 158.43,565.52 159.29,563.03 162.17,554.76 163.15,552.2 166.28,544.02 167.37,541.39 170.74,533.31 171.94,530.65 175.54,522.67 176.84,519.99 180.67,512.13 182.06,509.45 186.11,501.69 187.59,499.04 191.86,491.4 193.41,488.8 197.9,481.28 199.51,478.74 204.21,471.35 205.87,468.88 210.78,461.63 212.48,459.26 217.59,452.15 219.32,449.89 224.64,442.95 226.37,440.8 231.89,434.01 233.62,432.01 239.33,425.39 241.03,423.53 246.96,417.08 248.61,415.39 254.73,409.13 256.33,407.6 262.64,401.54 264.17,400.18 270.68,394.33 272.1,393.15 278.81,387.53 280.11,386.52 287.03,381.14 288.19,380.3 295.3,375.19 296.31,374.52 303.61,369.69 304.45,369.17 311.94,364.64 312.6,364.27 320.28,360.06 320.73,359.83 328.59,355.97 328.84,355.87 336.86,352.38 345.07,349.28 353.2,346.69 361.24,344.62 369.15,343.07 376.93,342.04 384.56,341.54 392,341.57 399.25,342.13 406.29,343.21 413.11,344.82 419.68,346.95 425.99,349.59 432.03,352.74 433.42,353.55 441,357.92 448.58,362.3 456.16,366.68 463.74,371.05 457.71,367.9 451.39,365.26 444.83,363.13 438.01,361.52 430.96,360.44 "
         id="polygon36" />
      <polygon
         class="cls-3"
         points="453.11,376.41 447.05,373.88 440.75,371.83 434.2,370.29 427.44,369.25 420.49,368.72 413.34,368.69 406.03,369.17 398.56,370.15 390.97,371.64 383.26,373.63 375.45,376.11 367.58,379.08 359.63,382.54 359.51,382.6 351.66,386.46 351.33,386.64 343.66,390.85 343.15,391.16 335.67,395.69 334.98,396.15 327.68,400.98 326.85,401.58 319.74,406.69 318.77,407.45 311.87,412.83 310.77,413.74 304.06,419.36 302.86,420.43 296.35,426.27 295.07,427.5 288.75,433.55 287.41,434.93 281.29,441.19 279.89,442.7 273.98,449.15 272.55,450.81 266.83,457.43 265.39,459.21 259.87,466 258.42,467.89 253.11,474.84 251.68,476.84 246.57,483.94 245.17,486.01 240.26,493.26 238.91,495.41 234.21,502.8 232.9,504.99 228.41,512.51 227.17,514.74 222.9,522.38 221.72,524.63 217.67,532.4 216.58,534.65 212.75,542.51 211.75,544.75 208.15,552.73 207.23,554.93 203.87,563 203.05,565.14 199.92,573.32 199.2,575.38 196.32,583.64 195.71,585.61 193.09,593.96 192.57,595.81 190.21,604.24 189.79,605.96 187.69,614.46 187.37,616.03 185.57,624.6 185.32,626 183.81,634.62 183.64,635.83 182.44,644.51 182.34,645.53 181.46,654.24 181.42,655.05 180.88,663.79 180.87,664.38 180.68,673.14 180.68,673.5 180.88,682.26 180.88,682.4 181.46,691.13 182.44,699.74 183.81,708.04 185.57,716.04 187.69,723.72 190.21,731.03 193.09,737.99 196.32,744.57 199.92,750.74 203.87,756.5 208.15,761.84 212.75,766.73 217.67,771.17 222.9,775.15 228.41,778.65 234.21,781.68 240.26,784.22 246.57,786.25 253.11,787.8 259.87,788.84 266.83,789.37 273.98,789.4 281.29,788.92 288.75,787.94 294.18,786.88 294.55,788.55 296.24,794.67 294.36,795.16 286.45,796.71 278.67,797.74 271.05,798.24 263.61,798.2 256.35,797.65 249.31,796.57 242.49,794.96 235.92,792.83 229.61,790.18 223.57,787.03 217.83,783.38 212.38,779.24 207.26,774.61 202.45,769.51 198,763.95 193.89,757.95 190.14,751.52 186.76,744.67 183.76,737.42 181.15,729.79 178.92,721.8 177.09,713.46 175.68,704.8 175.64,704.53 174.65,695.84 174.62,695.33 174.04,686.6 174.02,685.84 173.83,677.09 173.86,676.1 174.04,667.35 174.11,666.13 174.65,657.4 174.79,655.97 175.67,647.26 175.9,645.62 177.09,636.95 177.42,635.13 178.92,626.5 179.34,624.51 181.15,615.95 181.67,613.79 183.76,605.3 184.4,603.01 186.76,594.58 187.52,592.18 190.14,583.84 191.01,581.34 193.89,573.08 194.87,570.5 198,562.33 199.09,559.71 202.45,551.63 203.66,548.96 207.26,540.98 208.55,538.3 212.38,530.44 213.78,527.76 217.83,520 219.31,517.35 223.57,509.71 225.13,507.11 229.61,499.59 231.23,497.05 235.92,489.66 237.59,487.19 242.49,479.94 244.2,477.57 249.31,470.46 251.04,468.21 256.35,461.26 258.08,459.11 263.61,452.32 265.33,450.32 271.05,443.7 272.75,441.84 278.67,435.39 280.33,433.7 286.45,427.44 288.04,425.91 294.36,419.86 295.88,418.49 302.4,412.64 303.81,411.46 310.53,405.84 311.83,404.83 318.74,399.45 319.91,398.61 327.01,393.5 328.03,392.83 335.32,388 336.17,387.48 343.66,382.95 344.32,382.59 351.99,378.37 352.45,378.14 360.3,374.28 360.55,374.18 368.57,370.69 376.79,367.59 384.92,365 392.96,362.93 400.87,361.38 408.64,360.36 416.27,359.85 423.71,359.88 430.96,360.44 438.01,361.52 444.83,363.13 451.39,365.26 457.71,367.9 463.74,371.05 469.49,374.7 474.94,378.85 480.06,383.48 480.24,383.66 473.15,386.95 470.81,387.98 469.64,386.92 464.41,382.94 458.9,379.44 "
         id="polygon38" />
      <polygon
         class="cls-6"
         points="519.67,659.23 519.3,660.88 518.87,662.54 518.52,663.74 518.38,664.2 517.83,665.87 517.23,667.55 516.57,669.22 515.85,670.88 515.08,672.52 514.27,674.16 513.4,675.77 512.49,677.37 511.54,678.92 510.54,680.45 509.5,681.95 508.42,683.41 507.32,684.83 506.18,686.2 505.01,687.52 503.82,688.79 502.59,690 501.36,691.16 500.1,692.25 498.83,693.29 497.55,694.25 496.26,695.15 494.97,695.98 493.67,696.73 492.38,697.42 491.08,698.02 489.81,698.55 488.54,699 487.28,699.37 486.03,699.66 484.81,699.87 483.61,700 482.44,700.04 481.29,700 480.18,699.88 479.09,699.68 478.25,699.46 478.05,699.4 477.04,699.04 476.08,698.59 475.15,698.07 474.28,697.48 473.46,696.79 472.68,696.05 471.95,695.23 471.29,694.34 470.66,693.37 470.1,692.35 469.61,691.26 469.16,690.11 468.78,688.9 468.46,687.63 468.2,686.32 468,684.95 467.87,683.54 467.8,682.09 467.79,680.6 467.85,679.06 467.97,677.5 468.15,675.92 468.4,674.31 468.71,672.67 469.08,671.03 469.51,669.37 470,667.7 470.55,666.03 471.15,664.36 471.81,662.69 472.53,661.02 473.3,659.38 474.11,657.74 474.98,656.13 475.89,654.54 476.84,652.98 477.84,651.45 478.88,649.95 479.96,648.49 481.06,647.08 482.2,645.71 483.37,644.38 484.57,643.12 485.79,641.9 487.02,640.74 488.28,639.65 489.55,638.62 490.83,637.65 492.12,636.75 493.41,635.92 494.71,635.17 496,634.49 497.3,633.88 498.58,633.36 499.85,632.9 501.11,632.53 502.35,632.25 503.57,632.03 504.77,631.91 505.94,631.87 507.09,631.9 508.2,632.02 509.29,632.22 510.33,632.51 511.34,632.87 512.3,633.31 513.23,633.83 514.1,634.43 514.92,635.11 515.7,635.85 516.43,636.67 517.1,637.57 517.72,638.53 518.28,639.55 518.78,640.65 519.22,641.79 519.6,643 519.92,644.27 520.19,645.58 520.38,646.95 520.51,648.36 520.58,649.82 520.59,651.31 520.54,652.83 520.54,652.84 520.41,654.4 520.23,655.98 519.98,657.59 "
         id="polygon40" />
      <line
         class="cls-1"
         x1="475.14999"
         y1="698.07001"
         x2="471.91"
         y2="696.19"
         id="line42" />
      <path
         class="cls-1"
         d="M 513.22,633.83 510,632"
         id="path44" />
      <path
         class="cls-1"
         d="m 405.15,794 0.65,0.36 0.91,0.54 5.06,-0.61"
         id="path46" />
      <polyline
         class="cls-1"
         points="263.85 725.83 269.61 729.14 270.53 729.67 272.94 731.06 274.15 731.76"
         id="polyline48" />
      <polyline
         class="cls-1"
         points="271.33 730.11 266.75 727.41 266.05 727 263.5 725.5"
         id="polyline50" />
      <path
         class="cls-5"
         d="m 930,257.16 -6.67,-3.84 -7.54,-4.32 -6.66,-3.86 -7.58,-4.37 -6.66,-3.84 -7.58,-4.38 -6.66,-3.85 -7.58,-4.38 -6.66,-3.84 -7.58,-4.38 -6.67,-3.85 -7.58,-4.36 -6.66,-3.89 -7.58,-4.37 -6.66,-3.84 -7.68,4.21 -7.76,4.29 -7.67,4.23 -7.76,4.29 -7.64,4.19 -7.77,4.28 -7.66,4.23 -7.74,4.32 -7.65,4.23 -7.77,4.29 -7.66,4.22 -7.76,4.29 -7.67,4.23 -7.76,4.29 -7.73,4.23 -7.76,4.29 -7.67,4.23 -7.76,4.28 -7.66,4.24 -7.77,4.28 -7.65,4.23 -7.73,4.28 -7.66,4.24 -7.77,4.32 -7.66,4.23 -7.76,4.29 -7.67,4.22 -7.75,4.26 -7.67,4.23 -7.76,4.29 -7.66,4.23 -7.76,4.25 -7.67,4.23 -7.76,4.29 -7.66,4.23 -7.79,4.32 -7.66,4.22 -7.76,4.29 -7.67,4.23 -7.17,4 -7.74,4.09 -6.5,3.45 -7.86,3.88 -6.35,3.14 -7.08,3.29 -7.06,3.34 -2.34,1 -4.51,2 -7.3,3.2 -0.73,0.3 -8,3.45 -5.36,2.29 -8.07,3.4 -6.05,2.55 -8.06,3.41 -6.06,2.57 -8,3.48 -6.1,2.64 -8,3.6 -6.18,2.78 -7.9,3.78 -6.28,3 -7.8,4 -0.61,0.32 -0.35,0.17 -5.45,2.75 -7.66,4.23 -4.34,2.38 v 0 l -0.15,0.09 -1.16,0.65 -1,0.53 0.13,0.07 -7.43,4.64 -4.63,2.88 -6.95,5.31 -7.08,5.41 -0.57,0.53 -6.48,5.89 -6.47,5.89 -0.15,0.13 -6,6.39 -6,6.38 -1.06,1.2 -5.48,6.83 -3.29,4.1 -3.55,4.43 -4.95,7.22 -4.94,7.23 -1.42,2.06 -4.43,7.56 -4.44,7.54 -0.41,0.7 -0.7,1.2 -0.21,0.35 -3.9,7.84 -3.9,7.83 -1.13,2.26 -3.33,8.09 -1.32,3.21 -2.87,7 -2.73,8.26 -2.73,8.31 -0.57,1.71 -2.09,8.5 -2.08,8.51 -0.28,1.14 -0.68,4.32 -1.37,8.65 -0.75,4.73 v 0.66 l -0.24,3.63 -0.56,8.73 -0.26,4 0.33,8.74 0.27,7.31 1.14,7.35 1.16,7.52 2.47,8.39 1.5,5.09 3.71,7.93 1.86,4 5.05,7.15 2.09,3 2.5,2.31 6.18,5.71 2.77,1.73 1.33,0.83 1.46,0.9 1.72,1.05 -0.35,-0.32 v 0 0 l -0.07,-0.06 0.13,0.07 0.79,0.44 2.46,1.32 0.92,0.49 1.53,0.83 2.44,1.34 0.73,0.43 1.75,1.42 0.14,0.12 2,1.12 2.43,1.41 0.41,0.23 -6.24,-4.87 -0.48,-0.44 -5.28,-4.86 -4.72,-6.7 1.85,1.07 7.58,4.38 1.84,1.06 7.58,4.38 6.84,4 1.47,0.85 v -0.65 l 0.11,-1.67 0.43,-7.09 0.14,-1.43 0.88,-8.71 0.76,-5.49 -4.94,-2.85 -1.84,-1.07 -7.58,-4.37 -1.93,-1.12 -7.5,-4.33 -7.18,-4.15 -2.24,-1.29 -1.79,-1.12 -7.58,-4.38 -0.18,-1.36 -1.08,-8.69 -0.1,-1.78 -0.46,-8.73 v -2.11 -8.76 l 0.27,-2.74 0.85,-8.7 0.4,-2.95 1.16,-8.67 0.68,-3.33 1.75,-8.58 0.94,-3.61 2.24,-8.45 1.12,-3.75 2.51,-8.38 1.84,1.06 7.58,4.37 1.85,1.07 7.58,4.38 1.84,1.06 7.58,4.38 1.85,1.07 7.58,4.37 1.85,1.07 7.58,4.38 0.95,0.55 7.58,4.38 2.94,-7.07 1.2,-2.66 3.61,-8 1.29,-2.67 3.83,-7.88 1.4,-2.67 4,-7.76 1,-1.84 4.28,-7.64 -0.24,-0.13 -1.85,-1.07 -7.58,-4.37 -1.84,-1.07 -7.58,-4.38 -1.85,-1.07 -7.58,-4.37 -1.85,-1.07 -7.58,-4.38 -1.78,-1.04 -7.58,-4.38 -1.85,-1.06 -7.57,-4.38 2.33,-3.91 4.48,-7.52 2.54,-3.73 4.91,-7.24 1.77,-2.36 5.24,-7 0.86,-1.14 5.08,-6.33 3.07,-3.83 1.18,-1.26 1.51,-1.62 6,-6.39 2.64,-2.66 6.17,-6.2 3.93,-3.5 5.17,-4.61 2.37,-1.85 6.89,-5.4 1.84,1.06 7.58,4.38 1.85,1.07 7.58,4.37 1.85,1.07 7.58,4.38 1.84,1.07 7.58,4.37 1.85,1.07 7.58,4.37 1.37,0.79 2.43,1.41 3.06,-3.14 1.6,-1.53 6.27,-6.07 2.66,-2.39 1.75,-1.57 3.59,-3.24 1.42,-1.19 6.71,-5.62 1.58,-1.23 -5.8,-3.36 -3.77,-2.17 -5.66,-3.26 -1.84,-1.07 -7.58,-4.38 -1.85,-1.06 -7.58,-4.38 -1.85,-1.07 -7.58,-4.37 1.61,-0.82 7.8,-4 1.5,-0.72 7.89,-3.7 6.36,-3 3,-1.4 2.4,-1.08 7,-3.11 1.33,-0.58 8,-3.49 1.3,-0.56 8.05,-3.45 1.27,-0.54 8.07,-3.4 1.28,-0.54 8.06,-3.4 1.85,1.07 7.58,4.37 1.85,1.06 7.58,4.38 1.84,1.07 7.58,4.37 0.39,0.23 7.58,4.37 3.49,-1.1 1.64,-0.53 6.15,-1.58 1.88,-0.49 7.92,-1.55 7.77,-1 7.63,-0.5 h 7.44 l 7.25,0.56 7,1.08 -1.46,-0.84 -7.57,-4.38 -1.83,-1.04 -7.58,-4.37 -1.85,-1.07 -7.58,-4.38 -1.84,-1.06 -7.58,-4.38 -1.85,-1.07 -7.58,-4.37 -1.82,-1.08 -7.58,-4.38 1.48,-0.7 7.92,-3.75 1.53,-0.74 7.87,-3.83 1.6,-0.82 7.8,-4 1.74,-1 7.64,-4.1 2,-1.09 7.66,-4.22 2.55,-1.41 7.66,-4.23 2.55,-1.41 7.66,-4.23 2.55,-1.41 7.66,-4.23 1.85,1.07 7.58,4.37 1.85,1.07 7.58,4.38 1.84,1.06 7.58,4.38 1.85,1.07 7.58,4.37 1.85,1.07 7.58,4.38 1.84,1.06 7.58,4.37 1.85,1.07 7.58,4.38 1.85,1.07 7.58,4.37 -2.55,1.41 -7.66,4.23 -2.55,1.41 -7.66,4.22 -2.55,1.41 -7.66,4.23 -2,1.09 -7.66,4.23 -1.74,0.95 -7.68,4.18 -1.61,0.82 -7.8,4 -1.53,0.74 -7.87,3.84 -4.36,2.03 1.53,0.81 2.62,1.5 7.58,4.38 7.58,4.38 4.12,-1.91 7.84,-3.88 6.37,-3.14 7.72,-4.12 6.5,-3.46 7.67,-4.23 7.17,-4 7.67,-4.24 7.76,-4.28 7.66,-4.24 7.77,-4.28 7.61,-4.19 7.77,-4.28 7.66,-4.24 7.77,-4.29 7.66,-4.22 7.76,-4.29 7.67,-4.23 7.76,-4.29 7.66,-4.23 7.76,-4.29 7.66,-4.22 7.76,-4.29 7.71,-4.23 7.77,-4.29 7.65,-4.23 7.77,-4.28 7.66,-4.23 7.77,-4.29 7.66,-4.23 7.76,-4.29 7.66,-4.23 7.76,-4.28 7.67,-4.24 7.76,-4.28 7.66,-4.24 7.76,-4.28 7.67,-4.23 7.76,-4.28 7.66,-4.24 7.77,-4.29 7.66,-4.22 7.76,-4.29 7.67,-4.23 7.76,-4.29 z M 235.4,637.79 v -0.07 l 0.31,-4.19 0.8,-5.24 0.92,0.52 2.39,1.4 2.39,1.4 2.39,1.4 0.72,0.43 -0.73,5.22 -0.19,2.09 -0.31,3.54 -0.72,-0.44 -2.38,-1.4 -2.38,-1.4 -2.39,-1.4 -0.92,-0.53 z m 1,31.83 -0.91,-0.53 -0.75,-5.88 -0.06,-3.52 v -0.31 l 0.13,0.08 0.77,0.46 2.35,1.43 2.41,1.39 1,0.58 1.47,0.77 0.76,0.41 0.73,8.72 0.09,1 -0.72,-0.44 -2.39,-1.41 -2.39,-1.37 z m 18,42.64 2.12,1.37 0.2,0.13 0.73,0.43 0.68,0.95 3.46,4.9 0.36,0.39 -0.7,-0.48 -2.32,-1.5 -0.22,-0.13 -2.11,-1.32 -2.41,-1.37 -1,-0.48 -0.17,-0.23 -3.62,-4.74 -0.71,-1.25 1,0.49 2.42,1.36 z m -6.63,-20.46 0.41,1.53 0.63,2.32 0.64,2.32 0.41,1 0.44,1.09 v 0.05 l -0.89,-0.51 -7.58,-4.38 -0.41,-0.24 v -0.05 l -0.87,-2.09 -0.63,-2.31 -0.38,-1.44 -0.65,-2.43 0.94,0.51 1.55,1 z m 2.36,-83.06 -0.85,3 -0.77,-0.41 -0.51,-0.33 -1.81,-1.08 -2.29,-1.41 -1.55,-1 -0.76,-0.46 -0.92,-0.53 1.12,-4.82 1.93,-6.54 0.92,0.52 2.41,1.39 2.4,1.39 0.29,0.17 2.13,1.23 0.74,0.42 z m 14.47,-40.94 -0.7,1.46 -1.39,3.07 -0.81,2.1 -0.39,1 -1,2.6 -6,-3.43 -2,-1.16 -0.92,-0.53 1.46,-3.78 0.74,-1.92 1.39,-3.07 1.24,-2.59 7.44,4.29 0.77,0.45 0.67,0.38 z m 17.71,-33.48 -4.31,7.59 -1.76,3.09 -0.73,-0.43 -2.42,-1.39 -2.34,-1.36 -2.38,-1.37 -0.95,-0.55 1.37,-2.5 4.56,-7.48 0.48,-0.78 0.93,0.55 2.39,1.37 2.36,1.35 2.3,1.32 0.71,0.4 z m 21.29,-29.65 -4.54,5.65 v 0 l -2.8,3.79 -0.71,-0.41 -4.85,-2.82 -2.44,-1.42 -0.93,-0.55 0.93,-1.33 1.91,-2.38 0.25,-0.31 4.52,-5.63 0.92,0.52 2.41,1.4 2.4,1.39 2.41,1.39 0.74,0.42 z m 24,-25.51 -6.26,6.11 -1.78,1.73 -0.74,-0.42 -2.41,-1.41 -2.41,-1.42 -2.12,-1.26 -0.29,-0.17 -0.18,-0.1 -0.74,-0.43 0.28,-0.3 1,-0.9 6.39,-6 0.82,-0.76 0.92,0.54 2.39,1.38 2.4,1.35 2.39,1.33 v 0 l 0.7,0.41 z m 25.93,-20.5 -2.39,1.66 -2.38,1.75 -0.73,0.53 -3.2,2.35 -0.74,-0.43 -1.91,-1.09 -0.5,-0.29 -2.4,-1.38 -2.41,-1.36 -0.92,-0.55 7.2,-5 1.62,-1.11 0.39,0.21 0.52,0.29 2.3,1.08 5.64,3.26 z m 22.78,-12.81 -0.23,0.12 -0.74,0.38 -2.41,1.33 v 0 l -3.17,-1.83 -2.38,-1.32 -2.42,-1.37 -0.91,-0.55 7,-3.72 0.56,-0.28 1.36,-0.69 0.92,0.53 1.64,1 0.76,0.45 2.41,1.41 2.41,1.37 0.73,0.42 z m 31,-15.15 -2,1 -6.69,3.13 -0.74,-0.42 -2.43,-1.41 -2.4,-1.39 -2.41,-1.41 -0.92,-0.52 6.51,-3.09 2.32,-1 0.92,0.52 2.41,1.4 2.41,1.39 2.4,1.38 v 0 l 0.74,0.42 z m 20.76,-9.15 -3.88,1.69 -0.74,-0.43 -2.4,-1.39 -2.41,-1.42 -2.42,-1.39 -0.91,-0.54 6.08,-2.63 2.73,-1.15 0.92,0.52 4.81,2.78 2.41,1.4 0.73,0.42 z m 22.38,-9.49 -0.73,0.3 -0.75,-0.42 -0.52,-0.3 -1.88,-1.09 -2.41,-1.39 -2.41,-1.39 -0.91,-0.53 5.66,-2.39 3.14,-1.33 0.92,0.54 2.41,1.39 2.4,1.39 2.41,1.39 0.74,0.43 z m 33.3,-14.29 -2.4,1.06 h -0.08 l -2.31,1 -2.39,1 -1.14,0.5 -0.19,0.08 -0.14,-0.09 -4.79,-2.75 -3.94,-2.29 1.33,-0.57 1.21,-0.52 1.18,-0.51 1.48,-0.66 3.61,-1.62 0.92,0.53 h 0.08 l 2.33,1.35 0.31,0.18 5.24,3 z m 18,-8.3 -1,0.45 -0.73,-0.43 -2.41,-1.38 -2.41,-1.39 -2.4,-1.39 -0.92,-0.53 4.8,-2.27 4.05,-2 0.92,0.53 4.81,2.83 2.37,1.38 v 0 l 0.73,0.41 z m 29.14,-14.93 -4.4,2.39 -0.74,-0.42 -4.75,-2.81 -2.4,-1.39 -0.92,-0.53 4.41,-2.36 4.46,-2.46 0.92,0.52 4.82,2.78 2.4,1.4 0.75,0.42 z m 24.52,-13.54 -1.95,1.08 -0.73,-0.43 -0.15,-0.09 -2.26,-1.29 -2.41,-1.4 -2.4,-1.39 -0.92,-0.53 4.32,-2.39 5.29,-2.92 0.92,0.53 2.4,1.39 2.41,1.39 2.42,1.39 0.73,0.42 z m 35.29,-19.48 -1.26,0.69 -2.6,1.43 -2.6,1.45 -2.61,1.43 -0.28,0.16 -5.3,-3.06 -0.25,-0.14 -2.41,-1.39 -0.92,-0.54 3.88,-2.13 1.61,-0.9 2.61,-1.44 1.51,-0.83 7.58,4.37 1.12,0.64 0.19,0.11 z m 7.39,99.48 -4.8,2.27 -0.92,-0.53 -2.37,-1.36 -4.81,-2.78 -0.74,-0.42 7.9,-3.79 0.94,-0.46 0.75,0.44 v 0 l 2.37,1.37 2.41,1.36 2.41,1.36 0.92,0.53 z m 25.3,-13.11 -4.39,2.39 -0.92,-0.52 -2.41,-1.39 -2.43,-1.37 -2.4,-1.38 -0.74,-0.42 4.41,-2.39 4.47,-2.47 0.73,0.43 2.41,1.38 2.4,1.39 2.41,1.39 0.92,0.54 z m 172.33,-209.6 7.66,-4.23 1.79,-1 0.92,0.53 2.4,1.39 1.93,1.11 0.48,0.28 2.41,1.39 0.74,0.42 -2.95,1.63 -6.67,3.69 -0.73,-0.43 -2.41,-1.38 -2.41,-1.4 -2.4,-1.39 -0.62,-0.36 -0.3,-0.17 z m -27.44,15.15 7.66,-4.23 1.34,-0.74 0.92,0.53 4.82,2.78 2.4,1.39 0.75,0.43 -7.67,4.23 -1.34,0.73 -0.61,0.34 -0.74,-0.43 -2.4,-1.38 -2.41,-1.36 -2.41,-1.39 -0.92,-0.54 z m -27.43,15.15 7.65,-4.23 0.9,-0.49 0.92,0.53 2.4,1.38 2.41,1.39 2.41,1.4 0.74,0.42 -3.75,2.07 -5.87,3.24 -0.73,-0.42 -4.82,-2.78 -2.4,-1.4 -0.92,-0.52 z m -27.44,15.14 7.66,-4.22 0.44,-0.25 0.92,0.54 2.41,1.38 2.4,1.39 1.75,1 1.41,0.8 -1.9,1 -2.61,1.45 -2.61,1.43 -2.5,1.38 -7.58,-4.37 -1.3,-0.75 z m -27.41,15.15 7.59,-4.19 0.91,0.53 2.41,1.39 2.33,1.34 3.23,1.87 h -0.09 l -2.61,1.44 -0.79,0.44 -6.13,3.38 -0.73,-0.42 -2.41,-1.39 -2.41,-1.39 -0.84,-0.48 -1.57,-0.91 L 684,280 Z m -27.4,15.12 7.14,-3.95 0.92,0.54 2.41,1.39 2.4,1.38 2.42,1.39 0.73,0.43 -7.62,4.26 -1.89,1 h -0.07 l -0.73,-0.42 -2.41,-1.4 -2.4,-1.39 -2.41,-1.39 -0.92,-0.52 z m -27.44,15.15 6.69,-3.7 0.92,0.53 2.41,1.39 2.41,1.4 2.41,1.38 0.74,0.43 -4.3,2.37 -5.32,2.94 -0.74,-0.43 -2.38,-1.36 -2.41,-1.39 -2.41,-1.38 -0.92,-0.54 z m -20,21.05 -2,1.09 -0.73,-0.43 -2.41,-1.39 -2.41,-1.4 -2.4,-1.38 -0.92,-0.53 3.37,-1.86 6.24,-3.45 0.92,0.53 2.4,1.39 2.41,1.39 2,1.13 0.46,0.26 0.73,0.42 z m 39,82.86 -4.32,2.39 -0.84,-0.45 -4.82,-2.79 -2.26,-1.3 -0.14,-0.09 -0.75,-0.42 7.67,-4.24 1.95,-1.07 0.74,0.43 2.4,1.38 2.41,1.39 2.41,1.39 0.92,0.54 z m 31.66,-17.48 -2.61,1.45 -1.61,0.88 -3.88,2.14 -0.92,-0.52 -2.4,-1.39 -0.26,-0.15 -5.3,-3.06 0.28,-0.15 2.61,-1.44 2.6,-1.44 2.61,-1.44 1.25,-0.69 0.27,-0.15 0.18,0.11 7.58,4.37 1.11,0.65 z m 23.16,-12.78 -3.37,1.86 -0.92,-0.53 -2.41,-1.39 -2.28,-1.36 -2.4,-1.39 -0.75,-0.43 7.67,-4.23 1.95,-1.07 0.74,0.42 0.45,0.26 1.95,1.13 4.82,2.78 0.92,0.53 z m 27.43,-15.15 -2.92,1.61 -0.92,-0.53 -2.4,-1.38 -2.41,-1.4 -2.41,-1.39 -0.74,-0.43 5.33,-2.94 4.29,-2.36 0.73,0.42 2.41,1.39 2.41,1.39 2.4,1.4 0.92,0.52 z m 27.44,-15.15 -2.47,1.37 -0.92,-0.54 -2.33,-1.33 -2.41,-1.38 -2.4,-1.39 -0.75,-0.43 h 0.07 l 7.66,-4.22 1.89,-1.05 0.74,0.42 2.41,1.4 2.4,1.39 2.41,1.39 0.92,0.52 z m 11.61,-21 -7.66,4.23 -2.54,1.41 -7.67,4.24 -2.55,1.4 -7.58,4.22 -2.54,1.4 -7.67,4.24 -2.55,1.36 -7.7,4.27 -2.54,1.4 -7.67,4.23 -2.55,1.41 -7.66,4.23 -2.5,1.46 -7.67,4.22 -1.85,-1.06 -7.56,-4.43 -1.84,-1.07 -7.58,-4.37 -1.85,-1.06 -7.58,-4.38 -1.85,-1.07 -7.58,-4.37 -1.84,-1.07 -7.6,-4.34 -1.85,-1.06 -7.58,-4.38 -1.85,-1.11 -7.58,-4.37 -1.84,-1.08 -7.58,-4.37 2.54,-1.4 7.66,-4.23 2.56,-1.4 7.66,-4.23 2.58,-1.37 7.66,-4.24 2.56,-1.41 7.66,-4.23 2.54,-1.4 7.66,-4.23 2.52,-1.49 7.66,-4.23 2.54,-1.41 7.67,-4.23 2.55,-1.4 7.66,-4.23 1.84,1.07 7.58,4.43 1.9,1 7.58,4.38 1.85,1.07 7.58,4.37 1.84,1.07 7.58,4.38 1.85,1.06 7.58,4.38 1.85,1.07 7.57,4.37 1.85,1.07 7.58,4.38 1.85,1.06 7.58,4.37 z m 15.83,5.9 -2,1.12 -0.92,-0.53 -1.57,-0.9 -0.83,-0.49 -2.41,-1.4 -2.41,-1.38 -0.74,-0.43 6.13,-3.38 0.79,-0.44 2.61,-1.44 0.09,-0.05 3.22,1.86 2.33,1.35 2.4,1.39 0.92,0.53 z m 27.89,-15.4 -0.45,0.25 -1.5,0.84 -7.58,-4.38 -1.3,-0.75 2.51,-1.39 2.61,-1.44 2.6,-1.44 1.89,-1 1.4,0.81 1.75,1 2.4,1.4 2.41,1.38 0.92,0.53 z m 27.89,-15.39 -0.9,0.49 -1.06,0.58 -0.91,-0.52 -2.41,-1.4 -2.41,-1.39 -2.38,-1.37 -0.74,-0.42 5.87,-3.24 3.75,-2.07 0.74,0.43 2.4,1.39 2.41,1.39 2.41,1.38 0.91,0.54 z m 27.93,-15.38 -1.34,0.74 -0.61,0.34 -0.92,-0.53 -2.41,-1.39 -2.4,-1.39 -2.41,-1.39 -0.74,-0.42 0.61,-0.35 7.67,-4.22 1.34,-0.75 0.73,0.43 2.41,1.39 2.4,1.39 2.41,1.39 0.92,0.53 z m 13.74,-22.23 -7.67,4.23 -2.55,1.41 -7.66,4.22 -2.54,1.41 -7.67,4.23 -2.55,1.41 -7.66,4.23 -2.54,1.41 -7.67,4.22 -2.55,1.41 -7.68,4.22 -2.55,1.41 -7.64,4.19 -1.81,-1 -7.58,-4.38 -1.84,-1.07 -7.58,-4.39 -1.85,-1.07 -7.58,-4.38 -1.85,-1.06 -7.57,-4.38 -1.85,-1.07 -7.58,-4.38 -1.85,-1.06 -7.58,-4.38 -1.84,-1.06 -7.62,-4.32 -1.83,-1.12 -7.58,-4.38 2.55,-1.41 7.66,-4.23 2.55,-1.4 7.66,-4.23 2.55,-1.41 7.66,-4.23 2.55,-1.41 7.66,-4.23 2.55,-1.4 7.66,-4.24 2.55,-1.4 7.66,-4.24 2.55,-1.4 7.66,-4.23 2.55,-1.4 7.66,-4.24 1.84,1.07 7.58,4.37 1.85,1.07 7.58,4.38 1.85,1.07 7.58,4.37 1.84,1.06 7.58,4.38 1.85,1.06 7.58,4.38 1.85,1.07 7.58,4.38 1.84,1.06 7.58,4.38 1.85,1.07 7.58,4.37 -2.55,1.4 -7.66,4.24 z m 14.1,6.84 -1.8,1 -0.15,0.09 -0.31,-0.17 -0.61,-0.35 -2.41,-1.4 -2.41,-1.39 -2.4,-1.39 -0.75,-0.42 6.67,-3.68 3,-1.63 0.74,0.43 2.4,1.38 0.48,0.28 1.93,1.11 2.41,1.39 0.92,0.54 z"
         id="path52" />
      <polygon
         class="cls-4"
         points="234.79,663.21 234.73,659.69 234.72,659.38 234.85,659.46 235.62,659.92 237.97,661.35 240.38,662.74 241.38,663.32 242.85,664.09 243.61,664.5 244.34,673.23 244.43,674.21 243.71,673.77 241.32,672.36 238.89,670.99 236.46,669.62 235.54,669.09 "
         id="polygon54" />
      <polygon
         class="cls-4"
         points="239.98,690.53 239.6,689.09 238.95,686.66 239.9,687.17 241.44,688.12 247.82,691.8 248.23,693.33 248.86,695.65 249.5,697.97 249.91,698.97 250.35,700.06 250.38,700.11 249.49,699.6 241.91,695.22 241.5,694.98 241.48,694.93 240.61,692.84 "
         id="polygon56" />
      <polygon
         class="cls-4"
         points="248.72,708.94 249.68,709.42 252.1,710.79 254.45,712.26 256.57,713.63 256.77,713.76 257.5,714.19 258.18,715.14 258.24,715.6 258.55,717.37 258.76,718.32 256.6,717.01 254.19,715.64 253.22,715.16 253.05,714.93 249.43,710.19 "
         id="polygon58" />
      <polygon
         class="cls-3"
         points="478.51,394.42 478.82,394.6 484.06,397.63 483.75,397.76 481.35,398.83 481.27,398.87 479.17,396.25 476.18,393.07 "
         id="polygon60" />
      <polygon
         class="cls-4"
         points="470.31,398.67 466.37,396.38 467.7,395.81 468.91,395.29 470.09,394.78 471.56,394.12 475.18,392.5 476.1,393.03 476.18,393.07 479.17,396.25 481.27,398.87 478.96,399.91 476.57,400.93 475.43,401.43 475.24,401.51 475.1,401.42 "
         id="polygon62" />
      <polygon
         class="cls-4"
         points="444.16,409.16 441.75,407.77 440.83,407.24 446.5,404.86 449.64,403.52 450.56,404.06 452.97,405.45 455.37,406.84 457.78,408.23 458.51,408.66 450.44,412.06 449.72,412.36 448.98,411.94 448.45,411.64 446.57,410.55 "
         id="polygon64" />
      <polygon
         class="cls-4"
         points="416.22,418.65 415.31,418.12 421.39,415.48 424.12,414.32 425.04,414.85 429.85,417.63 432.26,419.02 432.99,419.44 428.06,421.56 424.19,423.24 423.45,422.81 421.05,421.42 418.64,420.04 "
         id="polygon66" />
      <polygon
         class="cls-4"
         points="393.05,431.58 390.64,430.19 389.72,429.66 396.23,426.57 398.55,425.53 399.47,426.05 401.88,427.44 404.29,428.84 406.69,430.22 406.7,430.23 407.44,430.65 407.31,430.7 405.29,431.65 398.6,434.79 397.86,434.37 395.45,432.98 "
         id="polygon68" />
      <polygon
         class="cls-4"
         points="372.7,439.83 371.72,438.78 371.54,438.62 372.9,437.93 373.82,438.46 375.46,439.41 376.22,439.86 378.63,441.26 381.04,442.64 381.77,443.06 376.31,445.85 375.94,444.94 375.24,443.53 374.46,442.21 373.62,440.98 "
         id="polygon70" />
      <polygon
         class="cls-3"
         points="367.36,444.54 364.94,443.17 364.03,442.62 370.98,438.9 371.54,438.62 371.72,438.78 372.7,439.83 373.62,440.98 374.46,442.21 375.24,443.53 375.94,444.94 376.31,445.85 376.07,445.96 375.34,446.35 372.93,447.68 372.91,447.69 369.74,445.86 "
         id="polygon72" />
      <polygon
         class="cls-3"
         points="344.09,464.52 342.18,463.43 342.75,461.93 343.52,459.72 344.22,457.5 344.84,455.3 345.16,453.97 345.68,454.26 347.98,455.34 353.63,458.6 353.53,458.66 351.14,460.32 348.76,462.07 348.03,462.6 344.83,464.95 "
         id="polygon74" />
      <polygon
         class="cls-4"
         points="290.75,510.89 288.31,509.46 287.38,508.92 288.31,507.59 290.22,505.21 290.47,504.9 294.99,499.27 295.91,499.79 298.32,501.19 300.73,502.58 303.13,503.97 303.87,504.39 303.65,504.67 299.11,510.32 299.11,510.33 296.31,514.12 295.6,513.71 "
         id="polygon76" />
      <polygon
         class="cls-4"
         points="270.75,541.78 268.37,540.4 267.42,539.86 268.79,537.36 273.35,529.88 273.83,529.1 274.76,529.65 277.15,531.02 279.51,532.37 281.81,533.69 282.52,534.09 282.36,534.32 277.99,541.91 276.24,544.96 275.51,544.53 273.09,543.14 "
         id="polygon78" />
      <polygon
         class="cls-3"
         points="262.77,570.67 263.26,568.49 263.68,566.33 263.75,565.83 264.51,566.28 265.19,566.66 264.65,567.8 263.95,569.26 262.56,572.33 261.75,574.43 262.2,572.87 "
         id="polygon80" />
      <polygon
         class="cls-5"
         points="235.3,639.12 235.4,637.79 235.4,637.73 236.09,638.2 237.3,638.89 238.58,639.48 239.91,639.95 241.29,640.32 242.72,640.59 244.2,640.75 244.4,640.75 244.09,644.29 243.37,643.85 240.99,642.45 238.61,641.05 236.22,639.65 "
         id="polygon82" />
      <polygon
         class="cls-3"
         points="243.88,608.5 242.33,607.55 243.87,605.92 245.42,604.18 246.92,602.36 248.38,600.49 249.72,598.67 251.85,599.9 252.59,600.32 250.18,608.74 249.33,611.72 248.56,611.31 247.98,610.99 246.17,609.91 "
         id="polygon84" />
      <polygon
         class="cls-3"
         points="239.91,639.95 238.58,639.48 237.3,638.89 236.09,638.2 235.4,637.73 235.71,633.53 236.51,628.29 237.43,628.82 239.82,630.22 242.21,631.61 244.6,633.01 245.32,633.44 244.59,638.66 244.4,640.75 244.2,640.75 242.72,640.59 241.29,640.32 "
         id="polygon86" />
      <polygon
         class="cls-3"
         points="227.65,626.06 227.22,624.39 226.88,622.64 226.62,620.84 226.48,619.34 227.15,619.02 228.87,618.12 230.58,617.11 231.53,616.51 230.16,625.16 229.41,629.89 229.37,630.55 228.74,629.18 228.15,627.66 "
         id="polygon88" />
      <polygon
         class="cls-3"
         points="346.67,445.03 346.71,444.58 346.83,442.53 346.88,440.53 346.83,438.58 346.74,437.06 347.09,436.89 348.79,436.15 350.47,435.51 352.15,434.98 353.8,434.55 355.43,434.24 357.03,434.03 358.6,433.92 360.13,433.93 361.62,434.05 363.07,434.26 364.47,434.6 365.42,434.9 359.95,437.69 352.29,441.92 347.99,444.3 347.98,444.29 347.83,444.38 "
         id="polygon90" />
      <polygon
         class="cls-4"
         points="436.81,402.64 430.76,405.19 422.7,408.6 416.64,411.17 408.62,414.65 402.52,417.29 394.53,420.89 388.36,423.67 380.45,427.44 374.17,430.44 366.37,434.41 365.76,434.73 365.42,434.9 364.47,434.6 363.07,434.26 361.62,434.05 360.13,433.93 358.6,433.92 357.03,434.03 355.43,434.24 353.8,434.55 352.15,434.98 350.47,435.51 348.79,436.15 347.09,436.89 346.74,437.06 345.37,437.73 343.66,438.68 341.94,439.72 340.23,440.85 338.54,442.07 336.85,443.38 335.18,444.78 333.52,446.26 331.89,447.83 330.29,449.47 328.72,451.17 327.19,452.94 325.7,454.78 324.25,456.68 322.85,458.63 321.49,460.63 320.2,462.67 319.17,464.4 312.69,470.29 306.22,476.18 306.07,476.31 300.09,482.7 294.1,489.08 292.97,490.29 287.49,497.12 284.2,501.22 280.65,505.65 275.7,512.87 270.76,520.1 269.34,522.16 264.91,529.72 260.47,537.26 260.06,537.96 259.36,539.16 259.15,539.51 255.25,547.35 251.35,555.18 250.22,557.44 246.89,565.53 245.57,568.74 245.41,568.91 243.9,570.72 242.43,572.6 241.01,574.53 239.64,576.51 238.32,578.53 237.06,580.6 235.85,582.71 234.7,584.84 233.63,587 232.61,589.18 231.67,591.38 230.79,593.59 229.99,595.8 229.26,598.01 228.61,600.22 228.04,602.42 227.55,604.6 227.15,606.76 226.82,608.88 226.58,610.99 226.42,613.05 226.35,615.07 226.35,617.05 226.44,618.97 226.48,619.34 226.62,620.84 226.88,622.64 227.22,624.39 227.65,626.06 228.15,627.66 228.74,629.18 229.37,630.55 229.13,634.18 228.57,642.91 228.31,646.89 228.64,655.63 228.91,662.94 230.05,670.29 231.21,677.81 233.68,686.21 235.18,691.29 238.89,699.22 240.75,703.19 245.8,710.34 247.89,713.3 250.39,715.61 256.57,721.32 259.34,723.05 260.67,723.88 261.31,725.12 262.09,726.42 262.96,727.64 263.88,728.77 264.88,729.79 265.95,730.73 267.09,731.56 268.28,732.3 269.53,732.92 270.84,733.44 272.21,733.86 273.62,734.17 275.07,734.37 276.58,734.46 278.12,734.45 278.68,734.4 279.09,734.64 286.67,739.02 288.51,740.09 289.52,740.66 289.45,743.84 289.64,752.59 289.66,753.35 290.08,759.8 290.27,762.59 290.83,767.45 291.29,771.55 292.72,780.22 294.18,786.88 288.75,787.94 281.29,788.92 273.98,789.4 266.83,789.37 259.87,788.84 253.11,787.8 246.57,786.25 240.26,784.22 234.21,781.68 228.41,778.65 222.9,775.15 217.67,771.17 212.75,766.73 208.15,761.84 203.87,756.5 199.92,750.74 196.32,744.57 193.09,737.99 190.21,731.03 187.69,723.72 185.57,716.04 183.81,708.04 182.44,699.74 181.46,691.13 180.88,682.4 180.88,682.26 180.68,673.5 180.68,673.14 180.87,664.38 180.88,663.79 181.42,655.05 181.46,654.24 182.34,645.53 182.44,644.51 183.64,635.83 183.81,634.62 185.32,626 185.57,624.6 187.37,616.03 187.69,614.46 189.79,605.96 190.21,604.24 192.57,595.81 193.09,593.96 195.71,585.61 196.32,583.64 199.2,575.38 199.92,573.32 203.05,565.14 203.87,563 207.23,554.93 208.15,552.73 211.75,544.75 212.75,542.51 216.58,534.65 217.67,532.4 221.72,524.63 222.9,522.38 227.17,514.74 228.41,512.51 232.9,504.99 234.21,502.8 238.91,495.41 240.26,493.26 245.17,486.01 246.57,483.94 251.68,476.84 253.11,474.84 258.42,467.89 259.87,466 265.39,459.21 266.83,457.43 272.55,450.81 273.98,449.15 279.89,442.7 281.29,441.19 287.41,434.93 288.75,433.55 295.07,427.5 296.35,426.27 302.86,420.43 304.06,419.36 310.77,413.74 311.87,412.83 318.77,407.45 319.74,406.69 326.85,401.58 327.68,400.98 334.98,396.15 335.67,395.69 343.15,391.16 343.66,390.85 351.33,386.64 351.66,386.46 359.51,382.6 359.63,382.54 367.58,379.08 375.45,376.11 383.26,373.63 390.97,371.64 398.56,370.15 406.03,369.17 413.34,368.69 420.49,368.72 427.44,369.25 434.2,370.29 440.75,371.83 447.05,373.88 453.11,376.41 458.9,379.44 464.41,382.94 469.64,386.92 470.81,387.98 466.31,389.97 459,393.2 458.28,393.5 450.24,396.95 444.88,399.24 "
         id="polygon92" />
      <polygon
         class="cls-7"
         points="288.51,740.09 286.67,739.02 279.09,734.64 273,729.87 272.53,729.43 267.25,724.57 262.53,717.87 264.38,718.94 271.95,723.32 273.8,724.38 281.38,728.76 288.22,732.71 289.69,733.56 289.66,734.1 289.63,735.72 289.56,738.31 289.54,739.86 289.52,740.66 "
         id="polygon94" />
      <polygon
         class="cls-7"
         points="305.76,650.59 303.13,658.94 302.38,661.34 300.02,669.77 299.38,672.05 297.29,680.55 296.77,682.7 294.96,691.26 294.55,693.26 293.03,701.88 292.72,703.7 292.05,708.51 287.11,705.67 285.27,704.6 277.69,700.23 275.76,699.12 268.26,694.78 261.08,690.63 258.83,689.34 256.99,688.27 249.41,683.89 249.23,682.53 248.15,673.84 248.05,672.06 247.59,663.33 247.58,661.22 247.55,652.46 247.82,649.72 248.67,641.02 249.07,638.08 250.23,629.4 250.91,626.07 252.66,617.49 253.6,613.88 255.84,605.43 256.96,601.68 259.46,593.3 261.31,594.36 268.89,598.73 270.74,599.8 278.32,604.18 280.17,605.24 287.75,609.62 289.59,610.69 297.17,615.06 299.02,616.13 306.6,620.51 307.55,621.06 315.13,625.44 313.62,629.08 310.49,637.25 309.5,639.83 308.87,641.64 307.95,644.29 "
         id="polygon96" />
      <polygon
         class="cls-7"
         points="379.23,519.08 373.7,525.87 373.15,526.55 372.87,526.9 371.97,528 366.66,534.96 364.92,537.22 359.82,544.33 358.12,546.7 353.2,553.95 351.54,556.41 346.85,563.8 345.23,566.34 340.75,573.86 339.19,576.47 338.75,577.27 338.51,577.14 336.66,576.07 329.08,571.7 327.24,570.63 319.66,566.25 317.81,565.18 310.23,560.81 308.38,559.74 300.8,555.36 298.96,554.29 291.38,549.92 289.53,548.86 281.95,544.48 284.28,540.57 288.76,533.05 291.3,529.33 296.21,522.08 297.98,519.72 303.22,512.71 304.08,511.57 309.16,505.24 312.23,501.41 313.41,500.15 314.92,498.53 320.9,492.14 323.54,489.48 329.71,483.28 333.64,479.78 338.81,475.17 341.18,473.32 348.07,467.92 349.91,468.99 357.49,473.36 359.34,474.43 366.92,478.81 368.77,479.87 376.35,484.25 378.19,485.32 385.77,489.69 387.62,490.76 395.2,495.13 396.57,495.93 399,497.32 394.29,502.15 394.27,502.17 388.36,508.61 386.67,510.44 380.95,517.07 "
         id="polygon98" />
      <polygon
         class="cls-7"
         points="467.61,445.13 459.93,449.33 459.28,449.7 454.97,452.31 454.39,452.66 453.64,453.12 450.94,454.74 448.75,456.2 448.4,456.43 448.31,456.49 448.17,456.58 442.63,460.25 435.53,465.37 434.36,466.21 428.52,470.74 427.73,471.36 421.93,468 418.16,465.83 412.5,462.57 410.66,461.5 403.08,457.13 401.23,456.06 393.65,451.68 391.8,450.61 384.22,446.24 385.83,445.42 393.63,441.46 395.13,440.74 403.02,436.97 409.38,434.01 412.41,432.61 414.81,431.53 421.77,428.42 423.1,427.84 431.13,424.35 432.43,423.79 440.48,420.34 441.75,419.8 449.82,416.4 451.1,415.86 459.16,412.46 461.01,413.53 468.59,417.9 470.44,418.96 478.02,423.34 479.86,424.41 487.44,428.78 487.83,429.01 495.41,433.38 492.4,434.34 484.19,437.43 480.4,439.09 475.92,441.03 473.41,442.27 "
         id="polygon100" />
      <polygon
         class="cls-7"
         points="620.06,415.12 618.09,416.21 610.43,420.44 608.69,421.39 601.01,425.57 599.4,426.39 591.6,430.36 590.07,431.1 582.2,434.94 577.83,437 573.32,434.65 567.01,432.01 560.44,429.88 553.63,428.28 553.57,428.27 552.12,427.43 544.53,423.05 542.68,421.98 535.1,417.61 533.25,416.54 525.67,412.16 523.83,411.1 516.25,406.72 514.4,405.65 506.82,401.27 504.97,400.22 497.39,395.84 498.87,395.14 506.79,391.39 508.32,390.65 516.19,386.82 517.79,386 525.6,382.04 527.33,381.08 535.01,376.9 536.98,375.81 544.64,371.59 547.19,370.18 554.85,365.95 557.4,364.54 565.06,360.31 567.61,358.9 575.27,354.67 577.12,355.74 584.7,360.11 586.55,361.18 594.13,365.56 595.97,366.62 603.55,371 605.4,372.07 612.98,376.44 614.83,377.51 622.41,381.89 624.25,382.95 631.83,387.32 633.68,388.39 641.26,392.77 643.11,393.83 650.69,398.21 648.14,399.62 640.48,403.85 637.93,405.26 630.27,409.49 627.72,410.89 "
         id="polygon102" />
      <polygon
         class="cls-1"
         points="637.78,410.78 637.03,410.36 644.7,406.12 646.65,405.05 647.39,405.48 649.79,406.86 652.2,408.25 654.61,409.64 655.53,410.18 650.24,413.09 645.92,415.48 645,414.95 640.18,412.17 637.92,410.87 "
         id="polygon104" />
      <polygon
         class="cls-1"
         points="610.84,425.61 610.1,425.19 614.51,422.8 618.98,420.33 619.71,420.76 622.12,422.14 624.52,423.53 626.93,424.92 627.85,425.46 623.39,427.92 618.98,430.28 618.06,429.76 615.65,428.37 613.24,426.99 "
         id="polygon106" />
      <polygon
         class="cls-1"
         points="584.41,438.18 592.31,434.39 593.25,433.93 594,434.37 594.03,434.39 596.4,435.76 598.81,437.12 601.22,438.48 602.14,439.01 598.09,441.03 593.29,443.31 592.37,442.77 589.96,441.38 585.15,438.6 "
         id="polygon108" />
      <polygon
         class="cls-1"
         points="670.48,398.17 670.22,398.02 664.92,394.96 665.2,394.81 667.81,393.37 670.41,391.93 673.02,390.49 674.27,389.8 674.54,389.65 674.72,389.76 682.3,394.13 683.41,394.78 681.9,395.61 679.29,397.06 677.68,397.94 673.8,400.08 672.88,399.56 "
         id="polygon110" />
      <polygon
         class="cls-1"
         points="581.35,346.71 576.05,343.65 575.8,343.51 573.39,342.12 572.47,341.58 576.35,339.45 577.96,338.55 580.57,337.11 582.08,336.28 589.66,340.65 590.78,341.29 590.97,341.4 590.7,341.55 589.44,342.24 586.85,343.68 584.24,345.12 581.63,346.55 "
         id="polygon112" />
      <polygon
         class="cls-1"
         points="492.88,385.33 491.96,384.8 496.76,382.53 500.81,380.5 501.73,381.04 506.54,383.88 508.91,385.25 508.95,385.27 509.68,385.68 501.79,389.47 500.83,389.92 500.1,389.49 497.69,388.11 495.29,386.72 "
         id="polygon114" />
      <polygon
         class="cls-1"
         points="517.65,371.78 522.06,369.42 526.52,366.96 527.44,367.48 532.25,370.26 534.66,371.66 535.41,372.08 530.93,374.55 526.53,376.93 525.79,376.5 520.97,373.7 518.57,372.31 "
         id="polygon116" />
      <polygon
         class="cls-1"
         points="547.91,358.9 545.51,357.51 544.59,356.98 548.91,354.59 554.2,351.67 555.12,352.2 557.52,353.59 559.93,354.98 562.35,356.38 563.08,356.8 555.41,361.03 553.46,362.11 552.73,361.68 552.58,361.59 550.32,360.3 "
         id="polygon118" />
      <polygon
         class="cls-7"
         points="743.46,346.99 740.92,348.39 733.25,352.63 730.7,354.03 723.04,358.26 720.5,359.67 712.83,363.9 710.28,365.31 702.62,369.54 700.08,370.95 692.41,375.18 690.56,374.11 682.98,369.73 681.14,368.66 673.56,364.29 671.71,363.23 664.13,358.85 662.28,357.78 654.7,353.41 652.86,352.34 645.28,347.96 643.43,346.9 635.85,342.52 634,341.45 626.42,337.07 624.58,336.01 617,331.63 619.54,330.23 627.2,326 629.76,324.59 637.42,320.36 639.96,318.96 647.62,314.72 650.18,313.31 657.84,309.08 660.38,307.68 668.04,303.45 670.6,302.04 678.26,297.81 680.8,296.4 688.47,292.18 691.02,290.77 698.68,286.54 700.52,287.61 708.1,291.98 709.95,293.04 717.53,297.42 719.38,298.49 726.96,302.86 728.8,303.93 736.38,308.31 738.23,309.37 745.81,313.75 747.65,314.82 755.24,319.19 757.08,320.26 764.66,324.64 766.51,325.7 774.09,330.07 771.54,331.48 763.88,335.71 761.34,337.12 753.67,341.36 751.12,342.76 "
         id="polygon120" />
      <polygon
         class="cls-1"
         points="749.32,349.2 748.57,348.77 748.64,348.73 756.3,344.51 758.19,343.46 758.93,343.88 761.34,345.28 763.74,346.67 766.15,348.06 767.07,348.58 759.93,352.53 757.46,353.9 756.54,353.36 754.13,351.97 751.73,350.59 "
         id="polygon122" />
      <polygon
         class="cls-1"
         points="721.43,364.59 720.69,364.16 726.02,361.22 730.31,358.86 731.04,359.28 733.45,360.67 735.86,362.06 738.26,363.45 739.18,363.98 732.49,367.68 729.57,369.29 728.65,368.76 726.25,367.38 723.84,365.99 "
         id="polygon124" />
      <polygon
         class="cls-1"
         points="693.55,379.99 692.8,379.56 700.47,375.33 702.42,374.26 703.16,374.68 703.61,374.94 705.56,376.07 710.38,378.85 711.3,379.38 705.06,382.83 701.69,384.69 700.77,384.15 698.36,382.77 695.95,381.38 "
         id="polygon126" />
      <polygon
         class="cls-1"
         points="779.61,335.19 777.2,333.8 776.46,333.37 782.59,329.99 783.38,329.55 785.99,328.11 786.08,328.06 789.3,329.92 791.63,331.27 794.03,332.66 794.95,333.19 787.37,337.38 785.34,338.5 784.42,337.97 782.85,337.07 782.02,336.58 "
         id="polygon128" />
      <polygon
         class="cls-1"
         points="689.75,283.31 687.34,281.92 686.5,281.44 684.93,280.52 684.01,280 686.04,278.88 693.63,274.69 694.54,275.22 696.95,276.61 699.28,277.95 702.51,279.82 702.42,279.86 699.81,281.3 699.02,281.74 692.89,285.12 692.15,284.7 "
         id="polygon130" />
      <polygon
         class="cls-1"
         points="629.16,311.32 628.24,310.79 631.16,309.18 637.86,305.48 638.77,306.01 641.18,307.4 643.59,308.8 646,310.18 646.74,310.61 642.44,312.98 637.12,315.92 636.38,315.49 633.98,314.1 631.57,312.71 "
         id="polygon132" />
      <polygon
         class="cls-1"
         points="659.46,297.31 657.05,295.92 656.13,295.4 658.6,294.03 665.74,290.08 666.66,290.62 669.07,292.01 671.47,293.39 673.89,294.78 674.62,295.21 666.96,299.44 665.08,300.48 665,300.52 664.27,300.1 661.86,298.7 "
         id="polygon134" />
      <polygon
         class="cls-1"
         points="601.28,326.72 600.36,326.19 603.73,324.33 609.97,320.88 610.89,321.41 613.29,322.8 615.7,324.19 617.66,325.32 618.12,325.58 618.85,326 611.19,330.23 609.23,331.32 608.5,330.89 606.09,329.5 603.68,328.1 "
         id="polygon136" />
      <polygon
         class="cls-7"
         points="866.87,278.85 864.32,280.26 856.65,284.49 854.1,285.9 846.45,290.13 843.9,291.54 836.23,295.76 833.68,297.17 826.02,301.4 823.48,302.81 815.81,307.04 813.96,305.98 806.38,301.6 804.54,300.53 796.96,296.16 795.11,295.09 787.53,290.71 785.68,289.64 778.11,285.27 776.26,284.2 768.68,279.82 766.83,278.76 759.25,274.38 757.4,273.32 749.83,268.95 747.98,267.88 740.4,263.5 742.95,262.09 750.61,257.87 753.16,256.46 760.82,252.23 763.37,250.82 771.03,246.59 773.58,245.18 781.24,240.95 783.79,239.55 791.45,235.31 794,233.91 801.66,229.67 804.21,228.27 811.87,224.04 814.42,222.64 822.08,218.4 823.92,219.47 831.5,223.84 833.35,224.91 840.93,229.29 842.78,230.36 850.36,234.73 852.2,235.79 859.78,240.17 861.63,241.24 869.21,245.61 871.06,246.68 878.64,251.06 880.48,252.12 888.06,256.5 889.91,257.57 897.49,261.94 894.94,263.34 887.28,267.58 884.74,268.99 877.07,273.22 874.52,274.63 "
         id="polygon138" />
      <polygon
         class="cls-1"
         points="711.9,264.6 713.41,263.76 721.07,259.54 721.51,259.29 722.43,259.82 724.84,261.21 727.24,262.6 729,263.62 730.39,264.42 728.5,265.46 725.89,266.91 723.28,268.34 720.78,269.72 713.2,265.35 "
         id="polygon140" />
      <polygon
         class="cls-1"
         points="806.86,316.59 809.47,315.15 812.07,313.71 813.96,312.66 815.36,313.47 817.11,314.49 819.51,315.88 821.92,317.26 822.84,317.79 815.18,322.02 814.73,322.27 813.23,323.11 805.65,318.73 804.35,317.98 "
         id="polygon142" />
      <polygon
         class="cls-1"
         points="893.56,274.99 891.15,273.6 888.75,272.21 888,271.79 894.67,268.11 897.62,266.48 898.36,266.91 900.76,268.29 901.24,268.57 903.17,269.68 905.58,271.07 906.5,271.61 898.84,275.83 897.04,276.82 896.89,276.91 896.58,276.74 895.97,276.38 "
         id="polygon144" />
      <polygon
         class="cls-1"
         points="863.27,289 860.86,287.61 860.12,287.19 860.73,286.84 868.4,282.62 869.74,281.87 870.47,282.3 872.88,283.69 875.28,285.08 877.69,286.47 878.61,287 870.95,291.23 869.61,291.97 869,292.31 868.08,291.78 865.67,290.39 "
         id="polygon146" />
      <polygon
         class="cls-1"
         points="835.38,304.39 832.98,303 832.23,302.58 838.1,299.34 841.85,297.27 842.59,297.7 844.99,299.09 847.4,300.48 849.81,301.86 850.73,302.4 843.07,306.63 842.17,307.12 841.12,307.7 840.2,307.18 837.79,305.79 "
         id="polygon148" />
      <polygon
         class="cls-1"
         points="739.79,249.21 740.85,248.62 748.5,244.39 749.4,243.9 750.32,244.43 752.72,245.81 755.13,247.2 757.54,248.6 758.28,249.03 754.53,251.09 748.66,254.33 747.93,253.91 743.11,251.13 740.71,249.73 "
         id="polygon150" />
      <polygon
         class="cls-1"
         points="771,235.73 768.59,234.34 767.67,233.8 768.28,233.47 775.94,229.24 777.28,228.5 778.2,229.03 783.01,231.81 785.42,233.2 786.17,233.63 778.5,237.86 777.16,238.59 776.55,238.93 775.81,238.5 773.4,237.12 "
         id="polygon152" />
      <polygon
         class="cls-1"
         points="796.48,218.94 795.86,218.58 795.56,218.41 795.72,218.32 803.38,214.09 805.17,213.1 806.09,213.63 808.49,215.02 810.42,216.13 810.9,216.41 813.31,217.8 814.05,218.22 811.1,219.85 804.43,223.54 803.7,223.11 801.29,221.73 798.88,220.33 "
         id="polygon154" />
      <path
         class="cls-1"
         d="m 266.05,727 -2.53,-1.51"
         id="path156" />
      <path
         class="cls-1"
         d="m 266.75,727.41 0.95,0.33"
         id="path158" />
    </g>
  </g>
  <metadata
     id="metadata181">
    <rdf:RDF>
      <cc:Work
         rdf:about="">
        <dc:title>Artboard 1</dc:title>
      </cc:Work>
    </rdf:RDF>
  </metadata>
</svg>
