<?xml version="1.0" encoding="UTF-8" standalone="no"?>
<svg
   id="Layer_1"
   data-name="Layer 1"
   viewBox="0 0 796.47998 796.47998"
   version="1.1"
   sodipodi:docname="resume.svg"
   width="796.47998"
   height="796.47998"
   inkscape:version="1.1.1 (3bf5ae0d25, 2021-09-20)"
   xmlns:inkscape="http://www.inkscape.org/namespaces/inkscape"
   xmlns:sodipodi="http://sodipodi.sourceforge.net/DTD/sodipodi-0.dtd"
   xmlns="http://www.w3.org/2000/svg"
   xmlns:svg="http://www.w3.org/2000/svg"
   xmlns:rdf="http://www.w3.org/1999/02/22-rdf-syntax-ns#"
   xmlns:cc="http://creativecommons.org/ns#"
   xmlns:dc="http://purl.org/dc/elements/1.1/">
  <sodipodi:namedview
     id="namedview89"
     pagecolor="#ffffff"
     bordercolor="#666666"
     borderopacity="1.0"
     inkscape:pageshadow="2"
     inkscape:pageopacity="0.0"
     inkscape:pagecheckerboard="0"
     showgrid="false"
     inkscape:zoom="0.71851852"
     inkscape:cx="164.92268"
     inkscape:cy="370.20618"
     inkscape:window-width="1920"
     inkscape:window-height="1011"
     inkscape:window-x="0"
     inkscape:window-y="0"
     inkscape:window-maximized="1"
     inkscape:current-layer="Layer_1" />
  <defs
     id="defs4">
    <style
       id="style2">.cls-1{fill:#006d58;}.cls-2{fill:#0b8c75;}.cls-3{fill:#009e80;}.cls-4{fill:none;}.cls-5{fill:#edb74c;}.cls-6{fill:#f9cd87;}.cls-7{fill:#1ad3bd;}.cls-8{fill:#ffd166;}.cls-9{fill:#04bfad;}.cls-10{fill:#fff;}.cls-11{fill:#fcfcfc;}.cls-12{fill:#d6d4d5;}.cls-13{fill:#d13462;}.cls-14{fill:#ff6c96;}.cls-15{fill:#059b89;}.cls-16{fill:#ef476f;}.cls-17{fill:#414042;}.cls-18{fill:#58595b;}</style>
  </defs>
  <title
     id="title6">Artboard 1 copy</title>
  <g
     id="View_Layer_LineSet"
     data-name="View Layer_LineSet"
     transform="translate(-171.67001,-143.67501)">
    <g
       id="strokes">
      <polygon
         class="cls-1"
         points="212.35,894.86 211.75,894.25 211.22,893.51 210.79,892.67 210.44,891.71 210.2,890.67 210.19,890.63 210.05,889.54 209.99,888.33 209.99,413.99 209.97,405.14 211.17,405.83 218.82,410.25 226.47,414.67 234.12,419.08 241.77,423.5 241.77,906.67 241.82,907.88 241.97,909.01 242.22,910.06 242.57,911 243.01,911.85 243.53,912.58 244.14,913.19 244.82,913.67 243.64,912.99 235.99,908.58 228.34,904.17 220.68,899.75 213.03,895.34 "
         id="polygon8" />
      <path
         class="cls-2"
         d="m 636.67,196.5 v 482.19 l -0.07,1.31 -0.15,1.31 -0.25,1.33 -0.35,1.35 -0.43,1.36 -0.53,1.33 -0.6,1.31 -0.68,1.26 -0.74,1.21 -0.81,1.14 -0.85,1.05 -0.9,1 -0.93,0.86 -1,0.74 -1,0.63 -0.65,0.38 -7.92,4.57 -7.65,4.42 -7.64,4.42 -7.52,4.33 -7.65,4.42 -7.65,4.42 -7.7,4.4 -7.65,4.42 -15.3,8.83 -7.65,4.42 -7.64,4.41 -7.65,4.42 -7.66,4.42 -7.65,4.41 -7.64,4.43 -7.65,4.41 -7.65,4.42 -7.65,4.42 -7.65,4.41 -7.64,4.42 -7.65,4.42 -15.27,8.82 -7.65,4.41 -7.65,4.42 -7.7,4.42 -7.63,4.43 -7.65,4.42 -15.29,8.83 -7.65,4.42 -7.65,4.41 -7.65,4.42 -7.65,4.42 -7.65,4.41 -7.65,4.42 -7.65,4.42 -15.29,8.83 -7.65,4.41 -7.65,4.42 -7.65,4.42 -7.64,4.39 -7.65,4.42 -7.65,4.42 -7.7,4.41 -15.3,8.83 -0.78,0.45 -1,0.48 -0.95,0.36 -0.93,0.21 -0.9,0.07 -0.85,-0.06 -0.81,-0.22 -0.74,-0.34 -0.68,-0.48 -0.61,-0.61 -0.52,-0.73 -0.44,-0.85 -0.35,-0.94 -0.24,-1 -0.15,-1.13 -0.06,-1.21 V 423.5 l 0.06,-1.26 0.15,-1.31 0.24,-1.33 0.35,-1.36 0.44,-1.35 0.52,-1.33 0.61,-1.31 0.68,-1.26 0.74,-1.21 0.81,-1.14 0.85,-1.05 0.9,-1 0.93,-0.86 1.03,-0.73 1,-0.63 c 9.58,-5.53 87,-50.24 114.89,-66.33 v 25.08 l -95.22,55 -1,0.61 -0.95,0.75 -0.93,0.85 -0.9,1 -0.85,1.06 -0.81,1.13 -0.74,1.21 -0.68,1.26 -0.61,1.31 -0.52,1.34 -0.43,1.34 -0.36,1.35 -0.24,1.34 -0.15,1.3 -0.06,1.27 v 436 l 0.06,1.21 0.15,1.13 0.24,1 0.36,0.95 0.43,0.85 0.52,0.72 0.61,0.61 0.68,0.49 4.82,2.79 2.42,1.4 0.74,0.35 0.82,0.21 0.85,0.06 0.9,-0.08 0.93,-0.21 0.95,-0.35 h 0.06 l 1,-0.49 7.65,-4.42 7.65,-4.42 7.65,-4.41 7.65,-4.42 7.65,-4.41 7.64,-4.42 15.3,-8.83 7.65,-4.42 7.65,-4.42 7.65,-4.41 7.65,-4.42 7.65,-4.41 15.29,-8.84 7.65,-4.41 7.64,-4.42 7.65,-4.42 7.65,-4.41 7.65,-4.42 7.65,-4.41 7.65,-4.42 15.3,-8.83 7.64,-4.42 7.65,-4.42 7.65,-4.41 7.65,-4.42 7.65,-4.41 7.65,-4.42 7.65,-4.42 15.3,-8.83 7.65,-4.42 7.64,-4.41 7.66,-4.42 15.3,-8.83 7.65,-4.42 7.65,-4.41 7.65,-4.42 7.65,-4.42 7.64,-4.41 8.74,-5.05 2.1,-1.21 1,-0.63 1,-0.77 1,-0.88 0.9,-1 0.84,-1.05 0.78,-1.11 0.7,-1.16 0.65,-1.2 0.58,-1.24 0.51,-1.3 0.44,-1.34 0.37,-1.36 0.25,-1.37 0.06,-0.41 0.1,-0.94 0.05,-1.27 v -436 l -0.05,-1.22 -0.16,-1.16 v -0.19 l -0.21,-0.88 -0.35,-0.95 -0.43,-0.85 -0.53,-0.73 -0.6,-0.61 -0.68,-0.48 -2.28,-1.31 -5,-2.86 -0.74,-0.34 -0.82,-0.22 -0.84,-0.06 -0.91,0.07 -0.92,0.21 -0.95,0.36 -1,0.48 1.2,-0.79 -1,0.52 -5.49,3.16 -7.65,4.42 -7.64,4.41 -7.65,4.42 -7.65,4.42 -7.65,4.41 -7.65,4.42 -7.65,4.42 -7.65,4.41 -15.36,8.83 v -9.78 -1 l -0.09,-1 -0.06,-0.48 -0.07,-0.57 -0.2,-1.08 -0.22,-1.09 -0.31,-1.09 -0.35,-1.11 -0.4,-1.1 -0.46,-1.1 -0.48,-1.1 -0.55,-1.08 -0.55,-1 -0.07,-0.1 7.65,-4.42 7.66,-4.42 7.65,-4.41 7.65,-4.42 7.65,-4.42 15.3,-8.83 7.61,-4.4 7.65,-4.42 7.65,-4.42 7.65,-4.41 7.65,-4.42 7.65,-4.42 3.24,-1.87 1,-0.48 1,-0.36 0.93,-0.21 0.9,-0.07 0.85,0.06 0.81,0.21 0.74,0.35 0.68,0.48 0.6,0.61 0.53,0.73 0.43,0.85 0.35,0.94 0.25,1.05 0.15,1.13 0.06,1.2 z"
         id="path10" />
      <polygon
         class="cls-3"
         points="628.43,188.54 627.47,189.02 624.23,190.9 616.58,195.31 608.93,199.73 601.28,204.14 593.63,208.56 585.99,212.98 578.34,217.39 563.04,226.22 555.39,230.64 547.74,235.06 540.09,239.47 532.43,243.89 524.78,248.31 524.2,247.33 523.54,246.32 522.84,245.35 522.12,244.4 521.37,243.5 520.59,242.65 519.78,241.84 518.97,241.08 518.13,240.38 517.29,239.73 516.45,239.14 515.59,238.62 511.24,236.11 506.37,233.29 498.72,228.88 498.19,228.57 496.8,227.77 503.9,223.67 511.55,219.26 519.2,214.84 526.85,210.42 534.5,206.01 549.8,197.18 557.45,192.76 565.1,188.34 572.75,183.93 580.39,179.51 588.04,175.09 595.69,170.68 596.65,170.19 597.61,169.84 598.54,169.62 599.43,169.54 600.28,169.61 601.1,169.81 601.84,170.16 603.02,170.84 610.67,175.26 618.31,179.68 625.96,184.1 633.61,188.52 632.87,188.17 632.05,187.96 631.21,187.9 630.31,187.97 629.38,188.18 "
         id="polygon12" />
      <polyline
         class="cls-4"
         points="496.79 227.76 503.83 223.7 511.48 219.28 519.13 214.87 526.78 210.45 534.43 206.03 542.08 201.62 549.73 197.2 557.38 192.78 565.02 188.37 572.68 183.95 580.33 179.54 587.98 175.12 595.63 170.7 595.69 170.68"
         id="polyline14" />
      <line
         class="cls-4"
         x1="222.78999"
         y1="385.95999"
         x2="221.89"
         y2="386.48001"
         id="line16" />
      <path
         class="cls-4"
         d="m 636.59,197.63 0.08,-1.13"
         id="path18" />
      <polygon
         class="cls-5"
         points="365.62,290.02 365.62,283.5 365.65,282.52 365.74,281.6 365.88,280.69 366.07,279.85 366.32,279.05 366.62,278.3 366.7,278.14 366.97,277.6 367.37,276.97 367.82,276.39 368.32,275.87 368.86,275.42 369.45,275.04 370.07,274.73 370.74,274.49 371.43,274.31 372.15,274.21 372.91,274.18 373.51,274.21 373.69,274.22 374.48,274.34 375.3,274.52 376.13,274.78 376.98,275.1 377.83,275.49 378.68,275.96 379.53,276.48 380.38,277.07 381.23,277.72 382.06,278.43 382.88,279.19 383.44,279.74 383.68,279.99 384.45,280.85 385.21,281.75 385.94,282.68 386.63,283.66 387.29,284.67 387.92,285.7 388.5,286.76 389.04,287.83 389.54,288.93 389.79,289.55 389.99,290.02 390.29,290.86 390.39,291.13 390.74,292.23 391.04,293.33 391.29,294.41 391.48,295.49 391.63,296.54 391.71,297.56 391.74,298.57 391.74,305.1 386.32,301.98 378.68,297.56 377.29,296.76 373.27,294.44 "
         id="polygon20" />
      <polygon
         class="cls-6"
         points="445.28,274.19 437.63,278.6 429.99,283.02 422.34,287.43 414.69,291.85 407.04,296.27 391.74,305.1 391.74,298.57 391.71,297.56 391.63,296.54 391.48,295.49 391.29,294.41 391.04,293.33 390.74,292.23 390.39,291.13 390.29,290.86 389.99,290.02 389.79,289.55 389.54,288.93 389.04,287.83 388.5,286.76 387.92,285.7 387.29,284.67 386.63,283.66 385.94,282.68 385.21,281.75 384.45,280.85 383.68,279.99 383.44,279.74 382.88,279.19 382.06,278.43 381.23,277.72 380.38,277.07 379.53,276.48 378.68,275.96 377.83,275.49 376.98,275.1 376.13,274.78 375.3,274.52 374.48,274.34 373.69,274.22 373.51,274.21 372.91,274.18 372.15,274.21 371.43,274.31 370.74,274.49 370.07,274.73 369.45,275.04 377.6,270.33 385.25,265.92 392.9,261.5 400.55,257.09 408.19,252.67 423.49,243.84 431.14,239.42 438.79,235 446.44,230.59 454.09,226.17 461.74,221.76 462.37,221.45 463.02,221.2 463.72,221.03 464.44,220.93 465.2,220.9 465.79,220.93 465.98,220.93 466.77,221.05 467.59,221.23 468.42,221.49 468.46,221.51 469.26,221.82 470.12,222.22 470.97,222.67 471.82,223.2 472.67,223.79 473.52,224.43 474.35,225.14 475.16,225.9 475.97,226.71 476.74,227.57 477.5,228.46 478.23,229.41 478.92,230.38 479.58,231.38 480.21,232.42 480.79,233.48 481.33,234.55 481.82,235.64 482.08,236.26 482.09,236.27 482.27,236.74 482.68,237.84 482.79,238.16 483.03,238.94 483.33,240.04 483.58,241.13 483.77,242.2 483.92,243.25 484,244.29 484.03,245.28 484.03,251.82 480.15,254.06 475.88,256.52 460.58,265.35 452.93,269.77 "
         id="polygon22" />
      <polygon
         class="cls-7"
         points="619.2,227.44 618.59,227.66 617.64,228.15 612.78,230.95 597.49,239.78 589.84,244.2 582.19,248.62 574.54,253.03 566.89,257.45 559.24,261.86 551.59,266.28 543.94,270.7 528.64,279.53 528.64,271.16 533.9,268.13 541.55,263.71 549.2,259.29 556.85,254.88 564.5,250.46 572.14,246.04 587.44,237.21 595.09,232.8 602.74,228.38 610.39,223.96 611.35,223.48 612.3,223.13 613.22,222.91 614.13,222.84 614.97,222.9 615.79,223.12 616.53,223.46 621.51,226.32 623.79,227.63 623.04,227.28 622.23,227.08 621.38,227.01 620.48,227.09 619.55,227.3 "
         id="polygon24" />
      <polygon
         class="cls-8"
         points="485.63,358.31 477.98,362.73 470.33,367.15 462.68,371.56 447.38,380.4 439.74,384.81 432.09,389.23 424.44,393.64 416.79,398.06 409.14,402.48 404.87,404.94 397.23,409.36 389.58,413.77 381.93,418.19 381.93,345.94 381.9,344.93 381.81,343.91 381.67,342.85 381.49,341.78 381.23,340.69 380.93,339.59 380.57,338.5 380.18,337.39 379.73,336.29 379.22,335.2 378.69,334.12 378.1,333.07 377.48,332.04 376.82,331.03 376.12,330.05 375.4,329.12 374.64,328.21 373.86,327.36 373.07,326.55 372.25,325.79 371.42,325.09 370.58,324.43 369.72,323.85 368.87,323.32 364.52,320.81 356.87,316.4 351.46,313.28 350.08,312.48 342.43,308.06 338.41,305.74 334.06,303.23 333.21,302.77 332.36,302.37 331.51,302.04 330.68,301.79 329.87,301.6 329.06,301.49 328.29,301.45 327.54,301.48 326.81,301.58 326.11,301.75 325.45,302 324.83,302.32 329.1,299.85 336.75,295.44 344.4,291.02 352.05,286.6 359.05,282.56 366.7,278.14 366.62,278.3 366.32,279.05 366.07,279.85 365.88,280.69 365.74,281.6 365.65,282.52 365.62,283.5 365.62,290.02 373.27,294.44 377.29,296.76 378.68,297.56 386.32,301.98 391.74,305.1 407.04,296.27 414.69,291.85 422.34,287.43 429.99,283.02 437.63,278.6 445.28,274.19 452.93,269.77 460.58,265.35 475.88,256.52 480.15,254.06 484.03,251.82 484.03,245.28 484,244.29 483.92,243.25 483.77,242.2 483.58,241.13 483.33,240.04 483.03,238.94 482.79,238.16 482.68,237.84 482.27,236.74 482.09,236.27 482.08,236.26 481.82,235.64 481.33,234.55 480.79,233.48 480.21,232.42 479.58,231.38 478.92,230.38 478.23,229.41 477.5,228.46 476.74,227.57 475.97,226.71 475.16,225.9 474.35,225.14 473.52,224.43 472.67,223.79 471.82,223.2 470.97,222.67 470.12,222.22 469.26,221.82 468.46,221.51 468.42,221.49 467.59,221.23 466.77,221.05 465.98,220.93 465.79,220.93 471.55,217.6 472.17,217.29 472.83,217.05 473.53,216.87 474.25,216.77 475,216.74 475.78,216.78 476.58,216.9 477.41,217.08 478.24,217.34 479.08,217.67 479.92,218.06 480.78,218.52 485.13,221.03 489.14,223.34 496.79,227.76 496.8,227.77 498.19,228.57 498.72,228.88 506.37,233.29 511.24,236.11 515.59,238.62 516.45,239.14 517.29,239.73 518.13,240.38 518.97,241.08 519.78,241.84 520.59,242.65 521.37,243.5 522.12,244.4 522.84,245.35 523.54,246.32 524.2,247.33 524.78,248.31 524.86,248.41 525.4,249.42 525.95,250.5 526.45,251.58 526.89,252.68 527.3,253.78 527.65,254.89 527.96,255.98 528.2,257.07 528.4,258.15 528.47,258.72 528.53,259.2 528.62,260.23 528.64,261.23 528.64,333.49 524.38,335.95 516.73,340.37 501.43,349.2 493.28,353.9 "
         id="polygon26" />
      <path
         class="cls-5"
         d="m 381.93,345.94 v 72.25 l -16.08,-9.28 v -68.84 l -1.33,-0.77 -7.65,-4.42 -5.41,-3.12 -7.65,-4.41 -0.17,-0.11 -5.23,-3 -4.33,-2.5 -14.08,8.11 1,-0.59 v -18.49 -1 l 0.07,-0.94 0.15,-0.89 0.19,-0.85 0.25,-0.8 0.3,-0.75 0.35,-0.69 0.41,-0.65 0.45,-0.57 0.49,-0.51 0.54,-0.45 0.59,-0.38 0.62,-0.32 0.66,-0.25 0.7,-0.17 0.73,-0.1 h 0.75 0.77 l 0.81,0.11 0.81,0.19 0.83,0.25 0.85,0.33 0.85,0.4 0.85,0.46 4.35,2.51 4,2.32 7.65,4.41 1.38,0.81 5.41,3.12 7.65,4.41 4.35,2.51 0.85,0.53 0.86,0.58 0.84,0.66 0.83,0.7 0.82,0.75 0.79,0.82 0.78,0.85 0.76,0.91 0.72,0.93 0.7,1 0.66,1 0.62,1 0.59,1.05 0.53,1.08 0.51,1.09 0.45,1.1 0.4,1.11 0.35,1.09 0.3,1.1 0.26,1.09 0.18,1.07 0.14,1.06 0.09,1 z"
         id="path28" />
      <path
         class="cls-3"
         d="M 365.85,340.07 C 338,356.16 260.54,400.87 251,406.4 l -1,0.63 -0.95,0.74 -0.93,0.86 -0.9,1 -0.85,1.05 -0.81,1.14 -0.74,1.21 -0.68,1.26 -0.61,1.31 -0.52,1.33 -0.44,1.35 -0.35,1.36 -0.24,1.33 -0.15,1.31 -0.06,1.26 -7.65,-4.42 -7.65,-4.41 -7.65,-4.42 -7.65,-4.42 -1.19,-0.68 v -0.07 l 0.05,-1.29 0.16,-1.34 0.26,-1.37 0.36,-1.35 0.43,-1.33 0.51,-1.29 0.58,-1.25 0.65,-1.2 0.71,-1.16 0.78,-1.11 0.85,-1.05 0.9,-1 0.94,-0.88 1,-0.77 1,-0.63 1.58,-0.91 0.86,-0.5 0.33,-0.19 c 0.29,-0.16 0.59,-0.33 0.9,-0.52 l 6.42,-3.71 1.4,-0.8 1.47,-0.85 4.78,-2.76 7.65,-4.42 7.65,-4.42 7.65,-4.41 2.75,-1.61 4.86,-2.81 7.66,-4.42 7.64,-4.41 3.55,-2 c 1.36,-0.8 2.74,-1.58 4.1,-2.38 l 7.65,-4.41 7.05,-4.07 3.66,-2.11 3.56,-2.06 1,-0.6 c 2,-1.13 3.88,-2.22 5.71,-3.29 l 0.92,-0.53 14.09,-8.13 4.33,2.5 5.23,3 0.17,0.11 7.65,4.41 5.41,3.12 7.65,4.42 z"
         id="path30" />
      <line
         class="cls-4"
         x1="365.92001"
         y1="340.17001"
         x2="365.85001"
         y2="340.07001"
         id="line32" />
      <line
         class="cls-4"
         x1="334.07999"
         y1="321.72"
         x2="334.01001"
         y2="321.75"
         id="line34" />
      <path
         class="cls-9"
         d="m 626.79,233.48 -0.16,-1.16 v -0.19 l -0.22,-0.87 -0.36,-0.95 -0.43,-0.83 -0.51,-0.69 -0.58,-0.59 -0.65,-0.45 -0.71,-0.33 -0.78,-0.21 -0.85,-0.08 -0.9,0.07 -1,0.21 -0.41,0.15 -0.56,0.2 -1,0.5 -4.92,2.83 -15.3,8.83 -7.64,4.42 -7.65,4.42 -7.65,4.41 -7.65,4.42 -7.62,4.41 -7.65,4.41 -7.65,4.42 -15.3,8.83 v 53.82 l -4.26,2.52 -7.65,4.42 -15.3,8.83 -8.15,4.7 -7.65,4.42 -7.63,4.36 -7.65,4.42 -7.65,4.41 -15.3,8.84 -7.64,4.41 -7.65,4.42 -7.65,4.42 -7.65,4.41 -7.65,4.42 -4.27,2.46 -7.65,4.42 -7.64,4.41 -7.65,4.42 -16.08,-9.28 v -35.39 l -88,50.79 -1,0.62 -0.95,0.74 -0.93,0.86 -0.9,1 -0.85,1.06 -0.82,1.14 -0.74,1.2 -0.68,1.28 -0.61,1.3 -0.52,1.34 -0.43,1.35 -0.35,1.35 -0.25,1.34 -0.15,1.3 -0.05,1.26 v 436 l 0.05,1.2 0.15,1.13 0.17,0.68 0.08,0.37 0.35,1 0.43,0.85 0.52,0.73 0.61,0.61 0.68,0.47 0.74,0.35 0.82,0.21 0.85,0.06 0.9,-0.08 0.93,-0.21 0.95,-0.35 h 0.06 l 1,-0.49 7.65,-4.42 7.65,-4.42 7.65,-4.41 7.65,-4.42 7.65,-4.41 7.64,-4.42 15.3,-8.83 7.65,-4.42 7.65,-4.42 7.65,-4.41 7.65,-4.42 7.65,-4.41 15.29,-8.84 7.65,-4.41 7.69,-4.52 7.65,-4.42 7.65,-4.41 7.65,-4.42 7.65,-4.41 7.65,-4.42 15.3,-8.83 7.64,-4.42 7.65,-4.42 7.65,-4.41 7.65,-4.42 7.65,-4.41 7.65,-4.42 7.65,-4.42 15.3,-8.83 7.65,-4.42 7.64,-4.41 7.66,-4.42 15.3,-8.83 7.65,-4.42 7.65,-4.41 7.65,-4.42 7.65,-4.42 7.64,-4.41 8.74,-5.05 2.1,-1.21 1,-0.63 1,-0.77 1,-0.88 0.9,-1 0.84,-1.05 0.78,-1.11 0.7,-1.16 0.65,-1.2 0.58,-1.24 0.51,-1.3 0.44,-1.34 0.37,-1.36 0.25,-1.37 0.06,-0.41 0.1,-0.94 0.05,-1.27 v -436 z m -298.16,452.72 -0.13,-0.11 -0.12,-0.13 -0.1,-0.16 -0.1,-0.17 -0.08,-0.18 -0.06,-0.21 L 328,685 v -0.23 -0.24 -173.11 -0.27 -0.27 l 0.05,-0.27 0.06,-0.28 0.08,-0.28 0.1,-0.27 0.1,-0.28 0.12,-0.26 0.13,-0.27 0.14,-0.25 0.15,-0.24 0.15,-0.24 0.17,-0.22 0.18,-0.21 0.17,-0.19 0.19,-0.18 0.19,-0.15 0.18,-0.14 0.19,-0.12 8.16,-4.71 7.65,-4.42 15.29,-8.83 7.65,-4.41 7.65,-4.42 7.65,-4.42 7.65,-4.41 7.65,-4.42 15.3,-8.83 7.65,-4.42 0.19,-0.1 0.19,-0.07 0.18,-0.07 h 0.19 0.35 0.17 l 0.15,0.05 0.15,0.08 0.49,0.27 7.65,4.42 0.13,0.1 0.14,0.11 0.11,0.13 0.11,0.15 0.09,0.17 0.08,0.19 0.07,0.2 0.05,0.21 v 0.23 0.24 173.13 0.27 0.27 l -0.05,0.28 -0.07,0.28 -0.08,0.27 -0.09,0.28 -0.11,0.27 -0.11,0.27 -0.14,0.26 -0.13,0.26 -0.15,0.24 -0.16,0.23 -0.17,0.22 -0.16,0.21 -0.19,0.19 -0.18,0.18 -0.18,0.16 -0.19,0.13 -0.19,0.12 -8.16,4.71 -7.63,4.42 -7.65,4.41 -7.65,4.42 -7.7,4.47 -15.3,8.83 -7.64,4.42 -7.65,4.41 -7.63,4.34 -7.65,4.41 -7.65,4.42 -0.19,0.11 -0.19,0.07 -0.19,0.06 h -0.18 -0.18 -0.17 -0.16 l -0.16,-0.06 -0.15,-0.07 -0.49,-0.28 -7.65,-4.42 z m 255.64,-60.43 v 0.23 0.26 0.28 l -0.05,0.27 -0.07,0.28 -0.08,0.28 -0.09,0.27 -0.11,0.28 -0.12,0.27 -0.13,0.26 -0.14,0.25 -0.15,0.25 -0.16,0.23 -0.15,0.22 -0.18,0.2 -0.18,0.2 -0.18,0.17 -0.19,0.15 -0.18,0.15 -0.2,0.12 -3.91,2.24 -7.62,4.37 -7.66,4.42 -7.65,4.42 -7.65,4.41 -15.3,8.83 -7.65,4.42 -7.64,4.5 -7.65,4.41 -7.65,4.42 -7.65,4.42 -7.65,4.41 -7.65,4.34 -15.3,8.83 -7.65,4.42 -7.63,4.45 -7.65,4.42 -7.65,4.42 -7.7,4.46 -15.3,8.84 -7.65,4.41 -7.65,4.42 -7.61,4.33 -7.65,4.42 -7.64,4.42 -7.65,4.41 -7.65,4.42 -15.3,8.83 -0.19,0.1 -0.19,0.08 -0.19,0.06 h -0.18 -0.35 -0.16 l -0.16,-0.06 -0.15,-0.07 -0.49,-0.28 -7.65,-4.33 -0.14,-0.1 -0.13,-0.12 -0.12,-0.13 -0.1,-0.15 -0.1,-0.17 -0.08,-0.18 -0.06,-0.21 v -0.21 -0.23 -0.24 -24 -0.26 -0.28 -0.27 l 0.06,-0.27 0.08,-0.29 0.1,-0.27 0.1,-0.27 0.12,-0.27 0.13,-0.26 0.14,-0.26 0.14,-0.24 0.16,-0.24 0.17,-0.22 0.18,-0.2 0.17,-0.19 0.18,-0.17 0.2,-0.16 0.18,-0.14 0.19,-0.12 3.83,-2.22 7.65,-4.41 7.65,-4.42 15.3,-8.83 7.64,-4.42 7.65,-4.41 7.65,-4.42 7.65,-4.42 7.65,-4.41 15.3,-8.84 7.65,-4.41 7.65,-4.42 7.65,-4.41 7.64,-4.42 7.65,-4.42 7.66,-4.41 7.65,-4.42 7.65,-4.42 7.65,-4.41 7.65,-4.42 7.65,-4.41 7.64,-4.42 15.3,-8.83 7.65,-4.42 7.65,-4.42 7.65,-4.41 7.65,-4.42 7.65,-4.41 7.65,-4.42 0.18,-0.1 0.2,-0.08 h 0.18 0.19 0.34 0.17 l 0.16,0.06 0.15,0.07 0.48,0.28 7.65,4.41 0.14,0.09 0.13,0.12 0.12,0.13 0.11,0.15 0.09,0.17 0.08,0.18 0.07,0.21 0.05,0.22 v 0.23 0.24 23.77 z m 0,-80 v 0.26 0.27 0.27 l -0.05,0.27 -0.07,0.29 -0.08,0.27 -0.09,0.27 -0.11,0.28 -0.12,0.27 -0.13,0.26 -0.14,0.25 -0.15,0.25 -0.16,0.23 -0.15,0.22 -0.18,0.2 -0.18,0.2 -0.18,0.18 -0.19,0.15 -0.18,0.14 -0.2,0.12 -8.15,4.71 -7.65,4.41 -7.72,4.46 -7.65,4.42 -7.65,4.41 -7.64,4.42 -15.3,8.83 -7.65,4.42 -7.65,4.41 -7.65,4.42 -7.65,4.42 -0.18,0.09 -0.2,0.08 L 489,604 h -0.18 -0.19 -0.16 -0.17 l -0.16,-0.05 -0.15,-0.07 -0.49,-0.28 -7.65,-4.42 -0.14,-0.1 -0.12,-0.1 -0.12,-0.13 -0.11,-0.16 -0.09,-0.17 -0.08,-0.19 -0.07,-0.2 v -0.21 l -0.05,-0.23 v -24.57 l 0.05,-0.26 v -0.29 l 0.07,-0.27 0.08,-0.27 0.09,-0.29 0.11,-0.27 0.12,-0.26 0.12,-0.27 0.14,-0.25 0.15,-0.24 0.16,-0.23 0.17,-0.22 0.17,-0.22 0.18,-0.18 0.18,-0.18 0.19,-0.16 0.18,-0.14 0.2,-0.11 8.16,-4.72 7.65,-4.42 7.65,-4.41 7.64,-4.41 15.3,-8.83 7.65,-4.42 7.65,-4.42 7.65,-4.41 7.65,-4.42 7.65,-4.41 7.65,-4.42 0.18,-0.11 0.2,-0.08 h 0.18 0.19 0.17 0.17 0.17 l 0.16,0.06 0.15,0.07 0.48,0.28 7.65,4.42 0.14,0.08 0.13,0.12 0.12,0.13 0.11,0.15 0.09,0.17 0.08,0.19 0.07,0.2 0.05,0.22 v 0.23 0.24 23.77 z m 0,-78.86 v 0.26 0.26 0.27 l -0.05,0.28 -0.07,0.28 -0.08,0.27 -0.09,0.28 -0.11,0.27 -0.12,0.28 -0.13,0.25 -0.14,0.26 -0.15,0.25 -0.16,0.22 -0.15,0.23 -0.18,0.2 -0.18,0.19 -0.18,0.18 -0.19,0.16 -0.18,0.13 -0.2,0.12 -8.15,4.71 -7.65,4.42 -7.66,4.42 -7.65,4.41 -7.71,4.49 -7.64,4.41 -15.3,8.84 -7.65,4.41 -7.65,4.34 -7.65,4.42 -7.65,4.41 -0.18,0.1 -0.2,0.08 -0.18,0.06 h -0.18 -0.35 -0.17 l -0.16,-0.06 -0.13,-0.01 -0.49,-0.28 -7.65,-4.41 -0.14,-0.1 -0.12,-0.12 -0.12,-0.13 -0.11,-0.15 -0.09,-0.17 -0.08,-0.18 -0.07,-0.21 v -0.21 l -0.05,-0.23 v -24.55 l 0.05,-0.28 v -0.27 l 0.07,-0.27 0.08,-0.29 0.09,-0.27 0.11,-0.27 0.12,-0.27 0.12,-0.26 0.14,-0.25 0.15,-0.25 0.16,-0.23 0.17,-0.22 0.17,-0.21 0.18,-0.19 0.18,-0.17 0.19,-0.16 0.18,-0.14 0.2,-0.12 8.16,-4.72 7.65,-4.41 7.65,-4.42 7.64,-4.41 15.3,-8.84 7.65,-4.41 7.65,-4.42 7.65,-4.42 7.65,-4.41 7.65,-4.42 7.65,-4.41 0.18,-0.1 0.2,-0.08 0.18,-0.05 h 0.19 0.17 0.17 0.17 0.16 l 0.15,0.07 0.48,0.28 7.65,4.42 0.14,0.09 0.13,0.11 0.12,0.14 0.11,0.15 0.09,0.16 0.08,0.19 0.07,0.2 0.05,0.22 v 0.23 0.24 23.78 z m 0,-70.33 v 0.26 0.27 0.27 l -0.05,0.27 -0.07,0.28 -0.08,0.28 -0.09,0.27 -0.11,0.28 -0.12,0.26 -0.13,0.27 -0.14,0.25 -0.15,0.24 -0.16,0.24 -0.15,0.22 -0.18,0.2 -0.18,0.2 -0.18,0.17 -0.19,0.16 -0.18,0.14 -0.2,0.11 -8.21,4.78 -7.65,4.41 -7.66,4.42 -7.65,4.42 -7.65,4.41 -7.64,4.34 -15.3,8.83 -7.65,4.42 -7.65,4.41 -7.65,4.42 -7.65,4.42 -0.18,0.09 -0.2,0.08 -0.18,0.06 h -0.18 -0.35 -0.17 -0.16 l -0.15,-0.07 -0.49,-0.28 -7.65,-4.38 -0.14,-0.09 -0.12,-0.11 -0.12,-0.13 -0.11,-0.15 -0.09,-0.17 -0.08,-0.19 -0.07,-0.2 v -0.22 l -0.05,-0.22 v -24.59 l 0.05,-0.27 v -0.28 l 0.07,-0.28 0.08,-0.27 0.09,-0.28 0.11,-0.27 0.12,-0.27 0.12,-0.26 0.14,-0.26 0.15,-0.24 0.16,-0.23 0.17,-0.22 0.17,-0.21 0.18,-0.19 0.18,-0.18 0.19,-0.16 0.18,-0.13 0.2,-0.12 8.16,-4.71 7.65,-4.42 7.65,-4.41 7.64,-4.42 15.3,-8.83 7.65,-4.42 7.65,-4.41 7.65,-4.42 7.65,-4.42 7.65,-4.41 7.65,-4.42 0.18,-0.1 0.2,-0.08 0.18,-0.06 h 0.19 0.17 0.17 0.17 l 0.16,0.05 0.15,0.07 0.48,0.28 7.65,4.42 0.14,0.09 0.13,0.12 0.12,0.13 0.11,0.15 0.09,0.17 0.08,0.19 0.07,0.2 0.05,0.21 v 0.23 0.24 23.77 z"
         id="path36" />
      <polygon
         class="cls-10"
         points="582.42,600.15 582.23,600.21 582.04,600.29 581.85,600.39 578.03,602.61 570.38,607.02 562.72,611.44 555.07,615.85 547.42,620.27 532.12,629.1 524.48,633.52 516.83,637.94 509.18,642.35 501.53,646.77 493.88,651.18 486.23,655.6 478.58,660.02 463.28,668.85 455.63,673.27 447.99,677.68 440.34,682.1 432.69,686.51 425.04,690.93 409.74,699.76 402.09,704.18 394.44,708.6 386.79,713.01 379.14,717.43 371.5,721.85 363.85,726.26 356.2,730.68 348.55,735.09 340.9,739.5 340.7,739.63 340.52,739.77 340.33,739.92 340.15,740.09 339.97,740.29 339.8,740.49 339.64,740.71 339.48,740.95 339.33,741.19 339.19,741.44 339.05,741.71 338.94,741.97 338.83,742.25 338.75,742.52 338.67,742.8 338.59,743.08 338.54,743.35 338.51,743.63 338.49,743.89 338.48,744.16 337.99,743.87 330.35,739.46 330.35,739.19 330.37,738.93 330.41,738.65 330.46,738.38 330.52,738.11 330.6,737.82 330.7,737.55 330.8,737.27 330.92,737.01 331.05,736.75 331.19,736.49 331.33,736.25 331.49,736.01 331.66,735.79 331.84,735.59 332.01,735.4 332.19,735.23 332.38,735.07 332.57,734.93 332.76,734.81 336.59,732.59 344.24,728.18 351.89,723.76 367.19,714.93 374.83,710.51 382.48,706.1 390.13,701.68 397.78,697.26 405.43,692.85 420.73,684.01 428.38,679.6 436.03,675.18 443.68,670.77 451.32,666.35 458.97,661.93 466.63,657.52 474.28,653.1 481.93,648.68 489.58,644.27 497.23,639.85 504.88,635.44 512.52,631.02 527.82,622.19 535.47,617.77 543.12,613.36 550.77,608.94 558.42,604.52 566.07,600.11 573.72,595.69 573.9,595.59 574.1,595.51 574.28,595.46 574.47,595.42 574.64,595.41 574.81,595.42 574.98,595.44 575.14,595.5 575.29,595.57 575.77,595.85 583.42,600.26 583.27,600.19 583.11,600.14 582.96,600.12 582.78,600.11 582.6,600.12 "
         id="polygon38" />
      <polygon
         class="cls-10"
         points="582.42,370.98 582.23,371.04 582.04,371.12 581.85,371.22 573.7,375.93 566.05,380.34 558.39,384.76 550.74,389.18 543.09,393.59 535.45,398.01 520.15,406.84 512.5,411.26 504.85,415.67 497.2,420.09 489.55,424.51 489.37,424.63 489.17,424.76 488.99,424.92 488.81,425.1 488.62,425.29 488.46,425.5 488.29,425.72 488.13,425.95 487.98,426.19 487.85,426.45 487.71,426.71 487.6,426.98 487.49,427.25 487.4,427.53 487.32,427.8 487.25,428.08 487.2,428.36 487.17,428.63 487.14,428.9 487.13,429.15 486.64,428.87 479,424.45 479,424.2 479.02,423.93 479.07,423.66 479.11,423.38 479.18,423.1 479.26,422.83 479.35,422.55 479.46,422.28 479.58,422.01 479.7,421.75 479.84,421.49 479.99,421.25 480.15,421.02 480.32,420.8 480.49,420.59 480.67,420.4 480.85,420.22 481.04,420.06 481.22,419.93 481.42,419.81 489.58,415.1 497.23,410.68 504.88,406.27 512.52,401.85 527.82,393.02 535.47,388.6 543.12,384.19 550.77,379.77 558.42,375.35 566.07,370.94 573.72,366.52 573.9,366.42 574.1,366.34 574.28,366.28 574.47,366.25 574.64,366.23 574.81,366.24 574.98,366.27 575.14,366.32 575.29,366.39 575.77,366.67 583.42,371.09 583.27,371.02 583.11,370.96 582.96,370.94 582.78,370.93 582.6,370.95 "
         id="polygon40" />
      <polygon
         class="cls-10"
         points="582.42,441.31 582.23,441.37 582.04,441.45 581.85,441.54 573.7,446.26 566.05,450.68 558.39,455.09 550.74,459.51 543.09,463.93 535.45,468.34 520.15,477.18 512.5,481.59 504.85,486.01 497.2,490.42 489.55,494.84 489.37,494.95 489.17,495.1 488.99,495.25 488.81,495.42 488.62,495.62 488.46,495.82 488.29,496.04 488.13,496.28 487.98,496.52 487.85,496.77 487.71,497.04 487.6,497.3 487.49,497.58 487.4,497.85 487.32,498.13 487.25,498.41 487.2,498.68 487.17,498.96 487.14,499.22 487.13,499.49 486.64,499.2 479,494.79 479,494.52 479.02,494.26 479.07,493.98 479.11,493.71 479.18,493.44 479.26,493.15 479.35,492.88 479.46,492.61 479.58,492.34 479.7,492.07 479.84,491.83 479.99,491.58 480.15,491.35 480.32,491.13 480.49,490.92 480.67,490.73 480.85,490.56 481.04,490.4 481.22,490.26 481.42,490.14 489.58,485.42 497.23,481.01 504.88,476.59 512.52,472.18 527.82,463.34 535.47,458.93 543.12,454.51 550.77,450.09 558.42,445.68 566.07,441.26 573.72,436.85 573.9,436.75 574.1,436.67 574.28,436.62 574.47,436.58 574.64,436.56 574.81,436.57 574.98,436.6 575.14,436.65 575.29,436.72 575.77,437 583.42,441.42 583.27,441.35 583.11,441.3 582.96,441.27 582.78,441.26 582.6,441.28 "
         id="polygon42" />
      <polygon
         class="cls-10"
         points="535.45,547.21 520.15,556.04 512.5,560.46 504.85,564.87 497.2,569.29 489.55,573.71 489.37,573.82 489.17,573.96 488.99,574.12 488.62,574.48 488.46,574.7 488.29,574.92 488.13,575.14 487.98,575.39 487.85,575.64 487.71,575.9 487.6,576.17 487.49,576.44 487.4,576.72 487.32,577 487.25,577.27 487.2,577.55 487.17,577.82 487.14,578.09 487.13,578.35 486.64,578.07 479,573.65 479,573.39 479.02,573.12 479.07,572.86 479.11,572.58 479.18,572.3 479.26,572.03 479.35,571.75 479.46,571.47 479.58,571.21 479.7,570.94 479.84,570.69 479.99,570.45 480.15,570.22 480.32,570 480.49,569.78 480.67,569.6 480.85,569.42 481.04,569.26 481.22,569.12 481.42,569.01 489.58,564.29 497.23,559.87 504.88,555.46 512.52,551.05 527.82,542.22 535.47,537.8 543.12,533.38 550.77,528.97 558.42,524.55 566.07,520.14 573.72,515.72 581.37,520.14 581.85,520.41 573.7,525.13 566.05,529.54 558.39,533.96 550.74,538.38 543.09,542.79 "
         id="polygon44" />
      <polygon
         class="cls-11"
         points="584.09,468.28 584.01,468.55 583.92,468.83 583.81,469.1 583.69,469.38 583.57,469.63 583.42,469.89 583.27,470.13 583.11,470.37 582.96,470.59 582.78,470.79 582.6,470.98 582.42,471.16 582.23,471.32 582.04,471.45 581.85,471.57 573.7,476.28 566.05,480.7 558.39,485.12 550.74,489.53 543.09,493.95 535.45,498.36 520.15,507.2 512.5,511.61 504.85,516.03 497.2,520.45 489.55,524.86 489.37,524.96 489.17,525.04 488.99,525.1 488.81,525.13 488.62,525.15 488.46,525.14 488.29,525.12 488.13,525.07 487.98,524.99 487.85,524.9 487.71,524.78 487.6,524.65 487.49,524.5 487.4,524.33 487.32,524.15 487.25,523.94 487.2,523.73 487.17,523.5 487.14,523.26 487.13,523.01 487.13,499.49 487.14,499.22 487.17,498.96 487.2,498.68 487.25,498.41 487.32,498.13 487.4,497.85 487.49,497.58 487.6,497.3 487.71,497.04 487.85,496.77 487.98,496.52 488.13,496.28 488.29,496.04 488.46,495.82 488.62,495.62 488.81,495.42 488.99,495.25 489.17,495.1 489.37,494.95 489.55,494.84 497.2,490.42 504.85,486.01 512.5,481.59 520.15,477.18 535.45,468.34 543.09,463.93 550.74,459.51 558.39,455.09 566.05,450.68 573.7,446.26 581.85,441.54 582.04,441.45 582.23,441.37 582.42,441.31 582.6,441.28 582.78,441.26 582.96,441.27 583.11,441.3 583.27,441.35 583.42,441.42 583.57,441.51 583.69,441.62 583.81,441.76 583.92,441.91 584.01,442.07 584.09,442.26 584.16,442.46 584.21,442.68 584.25,442.91 584.26,443.15 584.27,443.4 584.27,466.93 584.26,467.19 584.25,467.45 584.21,467.72 584.16,468 "
         id="polygon46" />
      <polygon
         class="cls-11"
         points="584.09,547.15 584.01,547.42 583.92,547.69 583.81,547.97 583.69,548.24 583.57,548.5 583.42,548.75 583.27,549 583.11,549.23 582.96,549.45 582.78,549.65 582.6,549.85 582.42,550.02 582.23,550.18 582.04,550.32 581.85,550.44 573.7,555.15 566.05,559.57 558.39,563.98 550.74,568.4 543.09,572.81 535.45,577.23 520.15,586.06 512.5,590.48 504.85,594.89 497.2,599.31 489.55,603.73 489.37,603.82 489.17,603.9 488.99,603.97 488.81,604 488.62,604.02 488.46,604.01 488.29,603.98 488.13,603.93 487.98,603.86 487.85,603.76 487.71,603.65 487.6,603.52 487.49,603.37 487.4,603.2 487.32,603.01 487.25,602.81 487.2,602.6 487.17,602.37 487.14,602.13 487.13,601.87 487.13,578.35 487.14,578.09 487.17,577.82 487.2,577.55 487.25,577.27 487.32,577 487.4,576.72 487.49,576.44 487.6,576.17 487.71,575.9 487.85,575.64 487.98,575.39 488.13,575.14 488.29,574.92 488.46,574.7 488.62,574.48 488.99,574.12 489.17,573.96 489.37,573.82 489.55,573.71 497.2,569.29 504.85,564.87 512.5,560.46 520.15,556.04 535.45,547.21 543.09,542.79 550.74,538.38 558.39,533.96 566.05,529.54 573.7,525.13 581.85,520.41 582.04,520.31 582.23,520.23 582.42,520.18 582.6,520.14 582.78,520.13 582.96,520.14 583.11,520.16 583.27,520.22 583.42,520.29 583.57,520.38 583.69,520.49 583.81,520.62 583.92,520.77 584.01,520.94 584.09,521.13 584.16,521.33 584.21,521.55 584.25,521.78 584.26,522.02 584.27,522.26 584.27,545.79 584.26,546.05 584.25,546.32 584.21,546.59 584.16,546.86 "
         id="polygon48" />
      <polygon
         class="cls-11"
         points="584.09,627.13 584.01,627.4 583.92,627.67 583.81,627.95 583.69,628.22 583.57,628.48 583.42,628.73 583.27,628.98 583.11,629.21 582.96,629.43 582.78,629.63 582.6,629.83 582.42,630 582.23,630.15 582.04,630.29 581.85,630.42 578.03,632.63 570.38,637.04 562.72,641.46 555.07,645.88 547.42,650.29 532.12,659.13 524.48,663.54 516.83,667.96 509.18,672.37 501.53,676.79 493.88,681.21 486.23,685.62 478.58,690.04 463.28,698.87 455.63,703.29 447.99,707.7 440.34,712.12 432.69,716.54 425.04,720.95 409.74,729.78 402.09,734.2 394.44,738.62 386.79,743.03 379.14,747.45 371.5,751.87 363.85,756.28 356.2,760.7 340.9,769.53 340.7,769.63 340.52,769.71 340.33,769.77 340.15,769.8 339.97,769.82 339.8,769.81 339.64,769.79 339.48,769.74 339.33,769.66 339.19,769.57 339.05,769.45 338.94,769.32 338.83,769.17 338.75,769 338.67,768.82 338.59,768.61 338.54,768.4 338.51,768.17 338.49,767.93 338.48,767.68 338.48,744.16 338.49,743.89 338.51,743.63 338.54,743.35 338.59,743.08 338.67,742.8 338.75,742.52 338.83,742.25 338.94,741.97 339.05,741.71 339.19,741.44 339.33,741.19 339.48,740.95 339.64,740.71 339.8,740.49 339.97,740.29 340.15,740.09 340.33,739.92 340.52,739.77 340.7,739.63 340.9,739.5 348.55,735.09 356.2,730.68 363.85,726.26 371.5,721.85 379.14,717.43 386.79,713.01 394.44,708.6 402.09,704.18 409.74,699.76 425.04,690.93 432.69,686.51 440.34,682.1 447.99,677.68 455.63,673.27 463.28,668.85 478.58,660.02 486.23,655.6 493.88,651.18 501.53,646.77 509.18,642.35 516.83,637.94 524.48,633.52 532.12,629.1 547.42,620.27 555.07,615.85 562.72,611.44 570.38,607.02 578.03,602.61 581.85,600.39 582.04,600.29 582.23,600.21 582.42,600.15 582.6,600.12 582.78,600.11 582.96,600.12 583.11,600.14 583.27,600.19 583.42,600.26 583.57,600.35 583.69,600.47 583.81,600.6 583.92,600.75 584.01,600.92 584.09,601.1 584.16,601.31 584.21,601.53 584.25,601.76 584.26,602 584.27,602.24 584.27,625.77 584.26,626.03 584.25,626.29 584.21,626.57 584.16,626.84 "
         id="polygon50" />
      <polygon
         class="cls-12"
         points="330.7,764.47 330.6,764.3 330.52,764.12 330.46,763.91 330.41,763.7 330.37,763.47 330.35,763.23 330.35,739.46 337.99,743.87 338.48,744.16 338.48,767.68 338.49,767.93 338.51,768.17 338.54,768.4 338.59,768.61 338.67,768.82 338.75,769 338.83,769.17 338.94,769.32 339.05,769.45 339.19,769.57 339.33,769.66 338.84,769.38 331.19,764.97 331.05,764.87 330.92,764.75 330.8,764.62 "
         id="polygon52" />
      <polygon
         class="cls-12"
         points="479.35,449.48 479.26,449.31 479.18,449.12 479.11,448.92 479.07,448.7 479.02,448.48 479,448.23 479,447.98 479,424.45 486.64,428.87 487.13,429.15 487.13,452.68 487.14,452.93 487.17,453.17 487.2,453.4 487.25,453.62 487.32,453.82 487.4,454.01 487.49,454.18 487.6,454.32 487.71,454.46 487.85,454.57 487.98,454.66 487.49,454.38 479.84,449.96 479.7,449.87 479.58,449.76 479.46,449.63 "
         id="polygon54" />
      <polygon
         class="cls-12"
         points="479.35,598.67 479.26,598.5 479.18,598.31 479.11,598.11 479.07,597.9 479.02,597.67 479,597.43 479,597.17 479,573.65 486.64,578.07 487.13,578.35 487.13,601.87 487.14,602.13 487.17,602.37 487.2,602.6 487.25,602.81 487.32,603.01 487.4,603.2 487.49,603.37 487.6,603.52 487.71,603.65 487.85,603.76 487.98,603.86 487.49,603.58 479.84,599.16 479.7,599.06 479.58,598.96 479.46,598.83 "
         id="polygon56" />
      <polygon
         class="cls-12"
         points="479.35,519.8 479.26,519.63 479.18,519.45 479.11,519.24 479.07,519.03 479.02,518.8 479,518.56 479,518.31 479,494.79 486.64,499.2 487.13,499.49 487.13,523.01 487.14,523.26 487.17,523.5 487.2,523.73 487.25,523.94 487.32,524.15 487.4,524.33 487.49,524.5 487.6,524.65 487.71,524.78 487.85,524.9 487.98,524.99 487.49,524.71 479.84,520.29 479.7,520.2 479.58,520.08 479.46,519.95 "
         id="polygon58" />
      <polygon
         class="cls-13"
         points="328.28,685.8 328.18,685.63 328.1,685.45 328.04,685.24 327.99,685.03 327.95,684.8 327.93,684.56 327.93,511.68 335.57,516.09 336.06,516.37 336.06,689 336.07,689.26 336.09,689.5 336.13,689.73 336.17,689.94 336.25,690.14 336.32,690.33 336.41,690.5 336.52,690.65 336.64,690.78 336.77,690.89 336.91,690.99 336.42,690.71 328.77,686.29 328.63,686.2 328.5,686.09 328.38,685.96 "
         id="polygon60" />
      <polygon
         class="cls-14"
         points="431.35,458.2 431.16,458.26 430.96,458.34 430.78,458.44 422.62,463.15 414.97,467.56 407.32,471.98 399.67,476.4 392.02,480.81 376.73,489.65 369.08,494.06 361.43,498.48 353.78,502.89 346.13,507.31 338.48,511.73 338.29,511.85 338.1,511.99 337.91,512.14 337.73,512.32 337.55,512.51 337.38,512.72 337.22,512.94 337.06,513.17 336.91,513.41 336.77,513.67 336.64,513.93 336.52,514.2 336.41,514.47 336.32,514.75 336.25,515.02 336.17,515.3 336.09,515.85 336.07,516.12 336.06,516.37 335.57,516.09 327.93,511.68 327.93,511.42 327.95,511.15 327.99,510.88 328.04,510.61 328.1,510.33 328.18,510.05 328.28,509.78 328.38,509.5 328.5,509.24 328.63,508.97 328.77,508.72 328.92,508.48 329.07,508.24 329.24,508.02 329.42,507.81 329.59,507.62 329.78,507.44 329.96,507.29 330.15,507.15 330.35,507.03 338.5,502.32 346.15,497.9 361.44,489.07 369.09,484.66 376.74,480.24 384.39,475.82 392.04,471.41 399.69,466.99 414.99,458.16 422.64,453.74 422.83,453.64 423.02,453.56 423.2,453.5 423.39,453.47 423.56,453.46 423.74,453.46 423.91,453.5 424.06,453.54 424.21,453.62 424.7,453.89 432.35,458.31 432.2,458.24 432.04,458.19 431.88,458.16 431.71,458.16 431.52,458.17 "
         id="polygon62" />
      <polygon
         class="cls-15"
         points="262.25,877.56 261.89,876.61 261.64,875.57 261.5,874.43 261.44,873.23 261.44,437.22 268.69,441.4 268.69,877.42 268.74,878.62 268.89,879.75 269.06,880.43 269.14,880.8 269.49,881.76 269.92,882.61 270.44,883.34 271.05,883.95 271.73,884.42 269.31,883.02 264.49,880.23 263.81,879.74 263.2,879.13 262.68,878.41 "
         id="polygon64" />
      <polygon
         class="cls-7"
         points="272.47,429.68 271.73,430.88 271.05,432.15 270.44,433.46 269.92,434.8 269.49,436.15 269.14,437.5 268.89,438.84 268.74,440.14 268.69,441.4 261.44,437.22 261.5,435.95 261.64,434.65 261.89,433.31 262.25,431.96 262.68,430.62 263.2,429.28 263.81,427.97 264.49,426.71 265.23,425.5 266.04,424.37 266.89,423.31 267.79,422.34 268.72,421.49 269.67,420.74 270.63,420.13 277.88,424.31 276.92,424.93 275.97,425.67 275.04,426.53 274.14,427.48 273.29,428.54 "
         id="polygon66" />
      <polygon
         class="cls-7"
         points="277.88,424.31 270.63,420.13 365.85,365.15 365.85,373.52 "
         id="polygon68" />
      <polygon
         class="cls-16"
         points="433.01,634.28 432.94,634.55 432.84,634.83 432.73,635.1 432.62,635.37 432.48,635.63 432.35,635.89 432.2,636.13 432.04,636.36 431.88,636.58 431.71,636.79 431.52,636.98 431.35,637.16 431.16,637.32 430.96,637.45 430.78,637.57 422.62,642.28 414.97,646.7 407.32,651.11 399.67,655.53 392.02,659.95 376.73,668.78 369.08,673.2 361.43,677.61 353.78,682.03 346.13,686.44 338.48,690.86 338.29,690.97 338.1,691.04 337.91,691.1 337.73,691.13 337.55,691.15 337.38,691.14 337.22,691.12 337.06,691.06 336.91,690.99 336.77,690.89 336.64,690.78 336.52,690.65 336.41,690.5 336.32,690.33 336.25,690.14 336.17,689.94 336.13,689.73 336.09,689.5 336.07,689.26 336.06,689 336.06,516.37 336.07,516.12 336.09,515.85 336.17,515.3 336.25,515.02 336.32,514.75 336.41,514.47 336.52,514.2 336.64,513.93 336.77,513.67 336.91,513.41 337.06,513.17 337.22,512.94 337.38,512.72 337.55,512.51 337.73,512.32 337.91,512.14 338.1,511.99 338.29,511.85 338.48,511.73 346.13,507.31 353.78,502.89 361.43,498.48 369.08,494.06 376.73,489.65 392.02,480.81 399.67,476.4 407.32,471.98 414.97,467.56 422.62,463.15 430.78,458.44 430.96,458.34 431.16,458.26 431.35,458.2 431.52,458.17 431.71,458.16 431.88,458.16 432.04,458.19 432.2,458.24 432.35,458.31 432.48,458.41 432.62,458.52 432.73,458.65 432.84,458.8 432.94,458.97 433.01,459.16 433.08,459.36 433.13,459.57 433.16,459.8 433.19,460.04 433.2,460.3 433.2,632.93 433.19,633.18 433.16,633.45 433.13,633.72 433.08,634 "
         id="polygon70" />
      <polygon
         class="cls-11"
         points="584.09,397.95 584.01,398.23 583.92,398.5 583.81,398.78 583.69,399.04 583.57,399.31 583.42,399.56 583.27,399.8 583.11,400.04 582.96,400.26 582.78,400.46 582.6,400.66 582.42,400.83 582.23,400.99 582.04,401.13 581.85,401.24 573.7,405.96 566.05,410.37 558.39,414.79 550.74,419.21 543.09,423.62 535.45,428.04 520.15,436.87 512.5,441.29 504.85,445.7 497.2,450.12 489.55,454.54 489.37,454.63 489.17,454.71 488.99,454.77 488.81,454.81 488.62,454.82 488.46,454.81 488.29,454.78 488.13,454.73 487.98,454.66 487.85,454.57 487.71,454.46 487.6,454.32 487.49,454.18 487.4,454.01 487.32,453.82 487.25,453.62 487.2,453.4 487.17,453.17 487.14,452.93 487.13,452.68 487.13,429.15 487.14,428.9 487.17,428.63 487.2,428.36 487.25,428.08 487.32,427.8 487.4,427.53 487.49,427.25 487.6,426.98 487.71,426.71 487.85,426.45 487.98,426.19 488.13,425.95 488.29,425.72 488.46,425.5 488.62,425.29 488.81,425.1 488.99,424.92 489.17,424.76 489.37,424.63 489.55,424.51 497.2,420.09 504.85,415.67 512.5,411.26 520.15,406.84 535.45,398.01 543.09,393.59 550.74,389.18 558.39,384.76 566.05,380.34 573.7,375.93 581.85,371.22 582.04,371.12 582.23,371.04 582.42,370.98 582.6,370.95 582.78,370.93 582.96,370.94 583.11,370.96 583.27,371.02 583.42,371.09 583.57,371.18 583.69,371.3 583.81,371.43 583.92,371.58 584.01,371.75 584.09,371.94 584.16,372.14 584.21,372.35 584.25,372.58 584.26,372.82 584.27,373.07 584.27,396.6 584.26,396.86 584.25,397.13 584.21,397.4 584.16,397.67 "
         id="polygon72" />
      <path
         class="cls-8"
         d="m 923.29,218.3 -0.21,0.29 -0.26,0.28 -0.31,0.24 -0.34,0.23 -0.4,0.2 -0.43,0.17 -0.48,0.15 -0.52,0.12 -0.56,0.09 -0.6,0.07 h -0.62 -1.37 -0.74 l -0.76,-0.06 -0.79,-0.1 -0.82,-0.11 -0.84,-0.15 -0.87,-0.17 -0.88,-0.21 -0.91,-0.22 -0.92,-0.24 -0.93,-0.27 -0.94,-0.3 -0.95,-0.31 -0.84,-0.3 h -0.13 l -1,-0.36 -1,-0.38 -1,-0.39 -1,-0.42 -1,-0.43 -0.95,-0.45 -1,-0.47 -0.93,-0.48 -0.92,-0.49 -0.9,-0.5 -0.88,-0.51 -0.86,-0.53 -0.84,-0.53 -0.83,-0.53 -0.71,-0.49 -0.07,-0.06 -0.77,-0.54 -0.73,-0.55 -0.48,-0.59 -0.66,-0.55 -0.64,-0.54 -0.59,-0.55 -0.56,-0.54 -0.51,-0.54 -0.48,-0.53 -0.43,-0.52 -0.4,-0.52 -0.34,-0.5 -0.3,-0.49 -0.26,-0.48 -0.21,-0.47 -0.17,-0.45 -0.11,-0.43 -0.07,-0.41 v -0.41 -0.38 l 0.07,-0.35 0.12,-0.35 -3.54,7.62 -1.92,4.08 h -0.11 l -1,0.08 -1,0.12 -1,0.14 -1,0.16 -1.07,0.19 -1.08,0.22 -1.11,0.24 -1.13,0.29 -1.15,0.31 -1.16,0.37 -1.18,0.38 -1.19,0.45 -1.21,0.47 h -0.12 l -1.22,0.52 -1.24,0.57 -1.24,0.62 -1.26,0.66 -1.25,0.72 -1.27,0.76 -1.28,0.82 -1.29,0.86 -1.28,0.93 -0.14,0.1 -1.29,1 -1.3,1 -1.31,1.1 -1.27,1.23 -1.32,1.22 -1.33,1.28 -1.32,1.35 -1.34,1.4 -1.34,1.48 -1.34,1.54 -0.13,0.15 -1.36,1.58 -1.37,1.72 -1.36,1.76 -1.37,1.84 -1.38,1.91 -1.39,2 -1.39,2.07 -1.41,2.16 -1.4,2.23 -1.41,2.31 -1.43,2.41 -1.44,2.5 -0.09,0.18 -1.44,2.6 -1.49,2.69 -1.46,2.78 -1.43,2.84 -1.47,3 -1.46,3 -1.43,3 -1.4,3.06 -1.35,3.1 -1.31,3 -1.25,3 -1.17,2.92 -1.11,2.83 -1,2.78 -1,2.72 -0.91,2.64 -0.06,0.2 -0.84,2.58 -0.78,2.52 -0.72,2.46 -0.65,2.4 -0.59,2.35 -0.54,2.29 -0.48,2.23 -0.43,2.19 -0.37,2.12 -0.32,2.09 -0.26,2 v 0.2 l -0.22,2 -0.17,1.94 -0.11,1.88 -0.08,1.84 v 1.8 1.75 l 0.06,1.71 0.1,1.67 v 0.19 l 0.14,1.62 0.18,1.58 0.22,1.55 0.27,1.5 0.29,1.46 0.33,1.43 0.36,1.38 0.39,1.35 0.41,1.3 v 0.15 l 0.45,1.27 0.46,1.22 0.5,1.2 0.5,1.14 0.53,1.12 0.54,1.08 0.56,1 0.56,1 0.57,1 0.57,0.93 0.59,0.9 0.53,0.82 -3.71,8 -3.73,8 -3.72,8 -3.72,8 -3.73,8 -3.71,8 -3.73,8 -3.72,8 -3.73,8 -3.72,8 -3.71,8 -3.73,8 -1.25,2.69 -3.62,8.05 -3.62,8.07 -3.59,8.17 -3.36,7.46 -3.41,8.1 -3.43,8.15 -3.42,8.14 -3.2,7.58 -3.18,8.26 -3.22,8.22 -3.21,8.23 -2.16,5.53 -3,8.33 -2.95,8.33 -3,8.32 -0.49,1.39 -0.08,0.24 -2.55,8.45 -2.54,8.46 -1.13,3.75 v 0.2 l -1.67,8.66 -1,4.88 -0.75,8.8 -0.32,3.72 v 0.15 0.17 0.1 0.09 l 0.06,0.09 0.06,0.11 0.07,0.1 0.08,0.1 0.09,0.11 0.1,0.11 0.22,0.23 0.12,0.1 0.12,0.12 0.14,0.11 0.15,0.11 0.15,0.11 0.15,0.12 0.16,0.1 0.16,0.12 0.36,0.21 0.17,0.11 0.19,0.09 0.18,0.11 0.2,0.1 0.19,0.09 0.2,0.09 0.19,0.09 0.2,0.09 0.2,0.08 0.19,0.08 0.2,0.07 0.2,0.07 0.19,0.06 0.2,0.06 0.18,0.05 0.19,0.06 h 0.19 0.18 0.18 0.17 0.16 0.16 0.84 0.12 0.1 0.1 0.09 0.08 l 0.07,-0.05 h 0.06 l 6.24,-6.25 2.6,-2.6 0.11,-0.11 5.52,-6.89 3.12,-3.89 0.12,-0.17 4.82,-7.4 4.82,-7.4 2.15,-3.29 4.46,-7.62 4.46,-7.63 4.47,-7.62 0.72,-1.24 4.22,-7.76 4.21,-7.76 4.22,-7.76 2.83,-5.2 0.15,-0.29 4,-7.87 4,-7.87 4,-7.87 3.74,-7.33 3.83,-8 3.81,-8 3.83,-8 3.54,-7.37 3.72,-8 3.73,-8 3.71,-8 3.72,-8 3.73,-8 3.72,-8 3.73,-8 3.71,-8 3.73,-8 3.72,-8 3.72,-8 3.73,-8 3.71,-8 3.73,-8 3.72,-8 3.73,-8 3.72,-8 3.71,-8 3.73,-8 3.72,-8 3.73,-8 3.72,-8 3.72,-8 3.72,-8 3.72,-8 3.73,-8 3.72,-8 3.72,-8 3.72,-8 3.73,-8 3.72,-8 3.72,-8 2.95,-6.34 3.54,-7.62 z m -58.29,23.56 -3.72,8 -3.71,8 -3.73,8 -3.72,8 -3.73,8 -3.72,8 -3.72,8 -3.72,8 -3.73,8 -3.72,8 -3.72,8 -3.72,8 -3.72,8 -1.49,3.18 -0.18,-1 -0.18,-1 -0.16,-1.08 -0.1,-0.94 v -0.17 l -0.09,-1 -0.07,-1.23 v -1.27 -1.32 -1.38 l 0.07,-1.43 0.09,-1.49 0.14,-1.56 0.16,-1.41 v -0.06 l 0.22,-1.61 0.27,-1.73 0.32,-1.8 0.37,-1.86 0.41,-1.92 0.47,-2 0.52,-2.06 0.59,-2.13 0.64,-2.2 0.64,-2.07 0.06,-0.2 0.7,-2.14 0.83,-2.41 0.88,-2.5 1,-2.56 1,-2.64 1.09,-2.72 1.17,-2.78 1.23,-2.84 1.28,-2.88 1.31,-2.89 1.35,-2.88 1.38,-2.84 1.38,-2.78 1.38,-2.7 1.37,-2.61 1.35,-2.51 1.24,-2.22 v 0 l 1.33,-2.31 1.31,-2.21 1.29,-2.12 1.28,-2 1.26,-2 1.24,-1.85 1.23,-1.77 1.21,-1.69 1.2,-1.59 1.18,-1.52 1.15,-1.44 1,-1.22 0.08,-0.1 1,-1.2 1.11,-1.22 1.08,-1.15 1.06,-1.08 1.05,-1 1,-1 1,-0.89 1,-0.83 1,-0.77 0.8,-0.61 v 0 l 0.87,-0.64 0.91,-0.62 0.88,-0.56 0.86,-0.53 0.85,-0.48 0.21,-0.11 z"
         id="path74" />
      <polygon
         class="cls-6"
         points="922.82,218.87 922.51,219.12 922.17,219.34 921.77,219.54 921.34,219.71 920.86,219.86 920.34,219.98 919.78,220.07 919.18,220.14 918.56,220.18 917.88,220.19 917.19,220.18 916.45,220.14 915.69,220.08 914.9,219.98 914.08,219.87 913.24,219.72 912.37,219.55 911.49,219.34 910.58,219.12 909.66,218.88 908.73,218.61 907.79,218.31 906.84,218 906,217.7 905.87,217.66 904.91,217.3 903.94,216.92 902.98,216.53 902.01,216.11 901.05,215.68 900.1,215.23 899.15,214.76 898.22,214.28 897.3,213.79 896.4,213.29 895.52,212.78 894.65,212.25 893.82,211.72 893,211.19 892.28,210.7 892.21,210.64 891.44,210.1 890.71,209.55 890.01,209 889.35,208.45 888.71,207.91 888.12,207.36 887.56,206.82 887.05,206.28 886.57,205.75 886.14,205.23 885.74,204.71 885.4,204.21 885.1,203.72 884.84,203.24 884.63,202.78 884.46,202.32 884.35,201.89 884.28,201.48 884.25,201.07 884.28,200.69 884.35,200.34 884.47,199.99 884.64,199.67 884.85,199.38 885.11,199.11 885.42,198.86 885.76,198.64 886.16,198.44 886.59,198.27 887.07,198.12 887.59,198 888.15,197.91 888.75,197.84 889.37,197.79 890.04,197.78 890.74,197.79 891.48,197.84 892.24,197.9 893.03,198 893.85,198.11 894.69,198.26 894.72,198.26 892.24,203.58 892.17,203.79 892.13,204 892.12,204.23 892.13,204.47 892.17,204.72 892.24,204.98 892.34,205.26 892.47,205.53 892.62,205.82 892.81,206.11 893.01,206.42 893.25,206.72 893.51,207.04 893.8,207.36 894.11,207.69 894.44,208.01 894.8,208.34 895.18,208.67 895.57,208.99 896,209.33 896.44,209.66 896.9,209.98 897.38,210.31 897.86,210.63 898.37,210.95 898.89,211.26 899.42,211.57 900.51,212.17 901.08,212.46 901.64,212.74 902.22,213.01 902.79,213.27 903.37,213.51 903.95,213.75 904.53,213.98 905.11,214.2 905.69,214.41 906.26,214.59 906.83,214.77 907.39,214.94 908.49,215.22 909.02,215.33 909.54,215.44 910.04,215.53 910.54,215.6 911.01,215.65 911.47,215.7 911.91,215.71 912.33,215.72 912.74,215.71 913.12,215.69 913.47,215.65 913.8,215.59 914.12,215.52 914.4,215.43 914.67,215.33 914.91,215.21 915.11,215.08 915.3,214.93 915.46,214.76 915.58,214.58 915.69,214.4 918.12,209.14 918.58,209.52 919.22,210.07 919.81,210.62 920.37,211.16 920.88,211.69 921.36,212.22 921.79,212.75 922.19,213.27 922.53,213.76 922.83,214.26 923.09,214.73 923.3,215.2 923.47,215.65 923.58,216.09 923.65,216.5 923.68,216.91 923.65,217.29 923.58,217.64 923.46,217.98 923.29,218.3 923.08,218.59 "
         id="polygon76" />
      <polygon
         class="cls-17"
         points="699.9,649.8 699.88,649.81 699.87,649.81 699.85,649.82 699.81,649.82 699.79,649.82 699.74,649.82 699.71,649.82 699.66,649.82 699.63,649.81 699.61,649.81 699.57,649.8 699.54,649.79 699.51,649.78 699.48,649.78 699.45,649.76 699.41,649.75 699.39,649.75 699.35,649.74 699.32,649.72 699.28,649.71 699.25,649.69 699.22,649.68 699.18,649.66 699.15,649.65 699.12,649.63 699.09,649.62 699.05,649.6 699.02,649.59 698.99,649.57 698.96,649.55 698.93,649.52 698.91,649.51 698.87,649.49 698.85,649.47 698.83,649.45 698.8,649.44 698.78,649.42 698.76,649.4 698.73,649.37 698.71,649.36 698.7,649.34 698.68,649.32 698.67,649.3 698.65,649.28 698.64,649.27 698.63,649.23 698.62,649.22 698.61,649.21 698.61,649.19 698.6,649.17 698.6,649.14 698.92,647.58 700.67,638.92 700.75,639 700.87,639.1 700.99,639.22 701.13,639.33 701.28,639.44 701.43,639.55 701.58,639.67 701.74,639.77 701.9,639.89 702.26,640.1 702.43,640.21 702.62,640.3 702.8,640.41 703,640.51 703.19,640.6 703.39,640.69 703.58,640.78 703.77,640.87 703.98,640.95 704.17,641.03 704.37,641.1 704.57,641.17 704.76,641.23 704.96,641.29 705.14,641.35 705.33,641.4 705.51,641.44 705.7,641.48 705.88,641.51 706.04,641.55 706.21,641.58 706.37,641.59 706.42,641.59 705.44,642.85 699.94,649.76 699.93,649.78 699.92,649.78 699.92,649.79 "
         id="polygon78" />
      <polygon
         class="cls-17"
         points="915.58,214.58 915.46,214.76 915.3,214.93 915.11,215.08 914.91,215.21 914.67,215.33 914.4,215.43 914.12,215.52 913.8,215.59 913.47,215.65 913.12,215.69 912.74,215.71 912.33,215.72 911.91,215.71 911.47,215.7 911.01,215.65 910.54,215.6 910.04,215.53 909.54,215.44 909.02,215.33 908.49,215.22 907.39,214.94 906.83,214.77 906.26,214.59 905.69,214.41 905.11,214.2 904.53,213.98 903.95,213.75 903.37,213.51 902.79,213.27 902.22,213.01 901.64,212.74 901.08,212.46 900.51,212.17 899.42,211.57 898.89,211.26 898.37,210.95 897.86,210.63 897.38,210.31 896.9,209.98 896.44,209.66 896,209.33 895.57,208.99 895.18,208.67 894.8,208.34 894.44,208.01 894.11,207.69 893.8,207.36 893.51,207.04 893.25,206.72 893.01,206.42 892.81,206.11 892.62,205.82 892.47,205.53 892.34,205.26 892.24,204.98 892.17,204.72 892.13,204.47 892.12,204.23 892.13,204 892.17,203.79 892.24,203.58 894.72,198.26 895.12,197.4 898.84,189.39 902.56,181.38 906.29,173.37 906.22,173.57 906.17,173.79 906.15,174.03 906.17,174.26 906.21,174.51 906.28,174.78 906.38,175.05 906.51,175.32 906.66,175.61 906.84,175.91 907.06,176.21 907.29,176.51 907.55,176.83 907.83,177.15 908.14,177.48 908.48,177.81 908.83,178.13 909.21,178.46 909.62,178.78 910.03,179.12 910.47,179.45 910.93,179.78 911.41,180.1 911.9,180.43 912.41,180.75 912.92,181.06 913.46,181.36 914,181.66 914.55,181.97 915.11,182.25 915.68,182.53 916.25,182.8 916.83,183.06 917.41,183.31 917.99,183.55 918.57,183.78 919.15,184 919.73,184.2 920.3,184.38 920.87,184.56 921.43,184.73 921.98,184.87 922.52,185 923.05,185.13 923.57,185.23 924.09,185.32 924.57,185.39 925.05,185.44 925.51,185.49 925.95,185.51 926.37,185.52 926.77,185.51 927.15,185.48 927.51,185.44 927.85,185.38 928.16,185.31 928.45,185.22 928.71,185.12 928.94,185 929.15,184.86 929.34,184.72 929.49,184.55 929.62,184.38 929.72,184.18 929.29,185.11 925.57,193.12 921.84,201.13 918.12,209.14 915.69,214.4 "
         id="polygon80" />
      <polygon
         class="cls-18"
         points="929.34,184.72 929.15,184.86 928.94,185 928.71,185.12 928.45,185.22 928.16,185.31 927.85,185.38 927.51,185.44 927.15,185.48 926.77,185.51 926.37,185.52 925.95,185.51 925.51,185.49 925.05,185.44 924.57,185.39 924.09,185.32 923.57,185.23 923.05,185.13 922.52,185 921.98,184.87 921.43,184.73 920.87,184.56 920.3,184.38 919.73,184.2 919.15,184 918.57,183.78 917.99,183.55 917.41,183.31 916.83,183.06 916.25,182.8 915.68,182.53 915.11,182.25 914.55,181.97 914,181.66 913.46,181.36 912.92,181.06 912.41,180.75 911.9,180.43 911.41,180.1 910.93,179.78 910.47,179.45 910.03,179.12 909.62,178.78 909.21,178.46 908.83,178.13 908.48,177.81 908.14,177.48 907.83,177.15 907.55,176.83 907.29,176.51 907.06,176.21 906.84,175.91 906.66,175.61 906.51,175.32 906.38,175.05 906.28,174.78 906.21,174.51 906.17,174.26 906.15,174.03 906.17,173.79 906.22,173.57 906.29,173.37 906.38,173.19 906.52,173.01 906.67,172.84 906.85,172.69 907.07,172.56 907.29,172.44 907.56,172.34 907.85,172.25 908.16,172.18 908.5,172.12 908.85,172.07 909.24,172.06 909.63,172.05 910.06,172.06 910.5,172.07 910.96,172.12 911.43,172.17 911.92,172.24 912.43,172.33 912.95,172.44 913.48,172.55 914.02,172.69 914.57,172.83 915.14,173 915.7,173.18 916.28,173.36 916.85,173.56 917.43,173.79 918.02,174.01 918.6,174.25 919.17,174.5 919.76,174.76 920.33,175.03 920.9,175.31 922.01,175.89 922.55,176.2 923.08,176.51 923.6,176.82 924.1,177.13 924.6,177.46 925.07,177.79 925.53,178.11 925.97,178.44 926.39,178.77 926.79,179.1 927.17,179.43 927.53,179.76 927.87,180.08 928.17,180.41 928.46,180.73 928.72,181.04 928.95,181.35 929.16,181.66 929.34,181.95 929.5,182.24 929.62,182.51 929.72,182.79 929.79,183.05 929.84,183.3 929.85,183.54 929.84,183.77 929.79,183.98 929.72,184.18 929.62,184.38 929.49,184.55 "
         id="polygon82" />
      <line
         class="cls-4"
         x1="804.82001"
         y1="371.51001"
         x2="804.78003"
         y2="371.47"
         id="line84" />
    </g>
  </g>
  <metadata
     id="metadata107">
    <rdf:RDF>
      <cc:Work
         rdf:about="">
        <dc:title>Artboard 1 copy</dc:title>
      </cc:Work>
    </rdf:RDF>
  </metadata>
</svg>
