<svg width="211" height="210" viewBox="0 0 211 210" fill="none" xmlns="http://www.w3.org/2000/svg">
<circle cx="105.5" cy="105" r="105" fill="#C4C4C4"/>
<path d="M127.799 59.128C118.262 62.8798 102.249 69.0683 92.2942 73.3503C89.8063 74.4204 82.4266 76.9307 80.4253 80.2056C79.6623 81.4542 78.6858 82.5591 78.2766 83.9913C77.2094 87.7267 77.1511 91.1792 77.1511 95.0417C77.1511 101.335 77.5458 111.144 82.6763 115.761C87.0038 119.656 91.2824 118.984 96.9497 118.984C109.406 118.984 118.027 116.279 128.771 110.236C142.752 102.371 153.641 82.794 144.579 67.1089C139.593 58.4794 133.452 57.2037 124.32 55.6492C118.434 54.6474 111.597 54.4226 108.46 59.128" stroke="#0F1F1C" stroke-width="3" stroke-linecap="round"/>
<path d="M102.014 122.667C102.014 142.152 104.6 163.483 99.968 182.523C98.896 186.93 97.9969 203.201 93.7266 204.624" stroke="#0F1F1C" stroke-width="3" stroke-linecap="round"/>
<path d="M101.093 161.344C95.1596 162.502 90.4492 164.106 84.518 164.106C80.7447 164.106 73.5434 165.479 70.2446 163.646C66.7992 161.732 62.2328 160.433 58.2734 159.553C53.0674 158.396 53.8614 152.951 51.1623 149.577C48.9169 146.771 48.051 140.156 47.6835 136.48C47.098 130.626 44 125.337 44 119.445C44 110.401 44 101.632 44 92.2791" stroke="#0F1F1C" stroke-width="3" stroke-linecap="round"/>
<path d="M102.935 162.264C112.883 158.882 122.82 154.603 132.403 150.344C138.791 147.505 144.257 145.209 148.467 139.448C153.463 132.611 159.915 127.422 164.173 119.854C171.132 107.482 172 95.0823 172 81.2285" stroke="#0F1F1C" stroke-width="3" stroke-linecap="round"/>
<path d="M95.5684 106.092C103.019 105.906 107.54 103.037 107.54 112.538" stroke="#0F1F1C" stroke-width="3" stroke-linecap="round"/>
<path d="M92.67 82.6875C95.7046 80.3191 98.8096 79.3689 98.8096 84.0032" stroke="#0F1F1C" stroke-width="3" stroke-linecap="round"/>
<path d="M118.106 84.4418C119.637 83.844 122.767 82.1346 124.05 83.784C124.676 84.588 125.507 87.2656 125.999 87.5116" stroke="#0F1F1C" stroke-width="3" stroke-linecap="round"/>
<path d="M104.072 91.4585C102.976 92.9054 102.267 93.4844 100.783 94.309C99.7659 94.8741 102.931 94.8665 103.634 94.9668" stroke="#0F1F1C" stroke-width="3" stroke-linecap="round"/>
</svg>
