<svg width="4091" height="3218" viewBox="0 0 4091 3218" fill="none" xmlns="http://www.w3.org/2000/svg">
<rect width="1920" height="1080" transform="translate(0 2138)" fill="white"/>
<rect x="1" y="2138" width="1920" height="1080" fill="#020F0D"/>
<mask id="mask0_2202_8572" style="mask-type:alpha" maskUnits="userSpaceOnUse" x="1" y="2138" width="1920" height="1080">
<rect x="1" y="2138" width="1920" height="1080" fill="#020F0D"/>
</mask>
<g mask="url(#mask0_2202_8572)">
<g filter="url(#filter0_f_2202_8572)">
<circle cx="2060.5" cy="1837.5" r="446.5" fill="#0B8C75"/>
</g>
<g filter="url(#filter1_f_2202_8572)">
<circle cx="1429.5" cy="3427.5" r="446.5" fill="#118AB2"/>
</g>
<g filter="url(#filter2_f_2202_8572)">
<circle cx="1951.5" cy="3267.5" r="446.5" fill="#1083A8"/>
</g>
<g filter="url(#filter3_f_2202_8572)">
<circle cx="-161.5" cy="1849.5" r="446.5" fill="#0B8C75"/>
</g>
<g filter="url(#filter4_f_2202_8572)">
<circle cx="1653.03" cy="2805.03" r="115.152" transform="rotate(-15 1653.03 2805.03)" fill="url(#paint0_linear_2202_8572)" fill-opacity="0.7"/>
</g>
<circle cx="1393.5" cy="3267.5" r="553.5" transform="rotate(-15 1393.5 3267.5)" fill="url(#paint1_linear_2202_8572)"/>
<circle cx="515" cy="2757" r="42.5" fill="url(#paint2_linear_2202_8572)" fill-opacity="0.07" stroke="url(#paint3_linear_2202_8572)"/>
<circle cx="1258" cy="2635" r="22.5" fill="#FCFCFC" fill-opacity="0.07" stroke="url(#paint4_linear_2202_8572)"/>
<circle cx="675.5" cy="3008.5" r="15" fill="#FCFCFC" fill-opacity="0.07" stroke="url(#paint5_linear_2202_8572)"/>
<circle cx="627.5" cy="3069.5" r="8" fill="#FCFCFC" fill-opacity="0.07" stroke="url(#paint6_linear_2202_8572)"/>
<circle cx="1323.5" cy="2437.5" r="28" fill="url(#paint7_linear_2202_8572)" fill-opacity="0.07" stroke="url(#paint8_linear_2202_8572)"/>
</g>
<mask id="mask1_2202_8572" style="mask-type:alpha" maskUnits="userSpaceOnUse" x="1" y="2138" width="1920" height="1080">
<rect width="1920" height="1080" transform="matrix(-1 0 0 1 1921 2138)" fill="#020F0D"/>
</mask>
<g mask="url(#mask1_2202_8572)">
<g filter="url(#filter5_f_2202_8572)">
<path fill-rule="evenodd" clip-rule="evenodd" d="M585.063 2131.8C585.096 2129.48 586.199 2127.21 588.237 2125.77C591.62 2123.38 596.3 2124.19 598.69 2127.57C601.079 2130.96 600.273 2135.64 596.889 2138.03C593.603 2140.35 589.092 2139.65 586.647 2136.51L580.851 2139.84L583.119 2150.01L621.392 2122.77C621.102 2122.46 620.851 2122.1 620.648 2121.72L577.401 2124.38L579.349 2133.11L585.063 2131.8ZM580.002 2136.04L582.407 2135.49L580.166 2136.77L580.002 2136.04ZM579.258 2137.3L579.027 2136.26L549.276 2143.08L546.225 2156.28L579.258 2137.3ZM579.942 2140.36L582.235 2150.64L540.698 2180.21L545.303 2160.27L579.942 2140.36ZM544.119 2160.95L539.469 2181.08L453.506 2242.27C452.458 2240.38 450.259 2239.32 448.045 2239.82C445.35 2240.42 443.652 2243.09 444.254 2245.78C444.289 2245.94 444.332 2246.1 444.381 2246.25L415.006 2252.8L403.119 2242L544.119 2160.95ZM402.208 2242.52L413.812 2253.07L364.858 2263.99L402.208 2242.52ZM355.019 2266.19L399.876 2240.4L371.588 2214.69L257.412 2261.42L284.979 2288.69L300.562 2279.75C300.211 2279.24 299.949 2278.65 299.805 2278.01C299.204 2275.31 300.902 2272.64 303.597 2272.04C306.292 2271.44 308.964 2273.14 309.565 2275.83C309.601 2275.99 309.628 2276.15 309.648 2276.31L355.019 2266.19ZM361.944 2265.67L414.717 2253.89L424.51 2262.79L337.535 2324.32C336.455 2322.53 334.317 2321.54 332.164 2322.02C329.469 2322.62 327.772 2325.29 328.373 2327.99C328.674 2329.34 329.494 2330.44 330.575 2331.12L329.5 2332.72L298.548 2302.11L361.944 2265.67ZM296.335 2299.92L352.105 2267.86L309.67 2277.33C309.497 2279.45 307.965 2281.31 305.774 2281.8C304.077 2282.18 302.389 2281.65 301.221 2280.53L285.717 2289.42L296.335 2299.92ZM297.649 2302.62L328.932 2333.56L220.834 2494.23L54.275 2422.09L197.864 2339.78L220.753 2339.59C220.831 2341.95 221.575 2344.31 223.037 2346.38C227.019 2352.02 234.819 2353.36 240.458 2349.38C245.663 2345.7 247.208 2338.78 244.284 2333.3L297.649 2302.62ZM195.824 2339.8L53.1131 2421.61L32.2542 2414.08L125.68 2340.37L195.824 2339.8ZM31.3295 2414.8L52.9767 2422.62L220.818 2495.31C221.039 2495.41 221.297 2495.33 221.432 2495.13L329.656 2334.28L455.005 2458.26C454.45 2459.28 454.248 2460.5 454.521 2461.73C455.123 2464.43 457.795 2466.12 460.49 2465.52C463.185 2464.92 464.883 2462.25 464.281 2459.55C464.204 2459.2 464.091 2458.87 463.949 2458.56L596.013 2329L621.28 2343.31C621.089 2344.05 621.066 2344.84 621.244 2345.64C621.845 2348.34 624.517 2350.03 627.213 2349.43C629.908 2348.83 631.605 2346.16 631.004 2343.46C630.431 2340.9 627.978 2339.23 625.416 2339.6L618.196 2307.24L707.555 2219.57C708.585 2220.14 709.818 2220.35 711.057 2220.07C713.752 2219.47 715.449 2216.8 714.848 2214.1C714.549 2212.76 713.739 2211.67 712.668 2210.98L813.19 1971.72C813.6 1971.73 814.017 1971.69 814.435 1971.6C817.13 1971 818.828 1968.33 818.227 1965.63C817.625 1962.94 814.953 1961.24 812.258 1961.84C809.862 1962.38 808.255 1964.55 808.349 1966.92L594.171 1964.35C594.291 1963.71 594.286 1963.03 594.134 1962.35C593.533 1959.65 590.86 1957.96 588.165 1958.56C585.47 1959.16 583.772 1961.83 584.374 1964.53C584.485 1965.02 584.667 1965.49 584.908 1965.91L433.111 2015.16C433.045 2015.18 432.984 2015.22 432.933 2015.26L370.055 2071.18L188.195 1908.16C189.834 1905.66 189.877 1902.31 188.048 1899.72C185.659 1896.33 180.979 1895.53 177.596 1897.92C174.212 1900.31 173.406 1904.99 175.795 1908.37C177.943 1911.41 181.942 1912.37 185.186 1910.8L286.896 2028.41C287.438 2029.04 288.385 2029.11 289.012 2028.57C289.639 2028.03 289.707 2027.08 289.165 2026.45L197.794 1920.79L367.799 2073.19L319.595 2116.05L167.407 2125.5C166.709 2125.55 166.133 2126.07 166.02 2126.76L159.779 2164.85L100.586 2106.31C101.602 2105.15 102.071 2103.54 101.71 2101.92C101.109 2099.22 98.4365 2097.53 95.7413 2098.13C93.0461 2098.73 91.3487 2101.4 91.95 2104.1C92.0303 2104.46 92.1477 2104.8 92.2972 2105.12L4.84351 2135.27L-35.2945 2066.56C-32.4607 2064.06 -31.9077 2059.77 -34.1375 2056.62C-36.5268 2053.23 -41.2066 2052.43 -44.5901 2054.82C-47.9737 2057.21 -48.7797 2061.89 -46.3903 2065.27C-44.436 2068.04 -40.9494 2069.08 -37.8931 2068.06L1.95154 2136.27L-99.2333 2171.15L-105.937 2123.61C-103.589 2122.78 -102.178 2120.31 -102.734 2117.82C-103.336 2115.12 -106.008 2113.42 -108.703 2114.02C-111.398 2114.63 -113.096 2117.3 -112.494 2119.99C-112.04 2122.03 -110.404 2123.5 -108.468 2123.83L-124.751 2179.95L-238.919 2219.31C-238.929 2219.24 -238.941 2219.16 -238.954 2219.09C-238.959 2219.07 -238.963 2219.04 -238.968 2219.02C-238.975 2218.98 -238.983 2218.95 -238.991 2218.91C-239.592 2216.21 -242.265 2214.52 -244.96 2215.12C-247.655 2215.72 -249.352 2218.39 -248.751 2221.09C-248.15 2223.78 -245.478 2225.48 -242.782 2224.88C-241.34 2224.56 -240.183 2223.64 -239.512 2222.45L-140.369 2233.77L-170.9 2338.99L-172.209 2339.83L-230.985 2340.31L-195.997 2306.56C-195.013 2307.04 -193.864 2307.2 -192.711 2306.95C-190.016 2306.34 -188.319 2303.67 -188.92 2300.98C-189.521 2298.28 -192.193 2296.58 -194.889 2297.19C-197.584 2297.79 -199.281 2300.46 -198.68 2303.15C-198.607 2303.48 -198.503 2303.8 -198.372 2304.09L-305.921 2328.09C-305.928 2327.76 -305.968 2327.43 -306.041 2327.11C-306.642 2324.41 -309.314 2322.71 -312.01 2323.31C-314.705 2323.92 -316.402 2326.59 -315.801 2329.28C-315.679 2329.83 -315.473 2330.33 -315.199 2330.79L-680.153 2459.67C-680.787 2457.02 -683.434 2455.36 -686.104 2455.95C-688.8 2456.55 -690.497 2459.23 -689.896 2461.92C-689.294 2464.62 -686.622 2466.31 -683.927 2465.71C-682.036 2465.29 -680.636 2463.85 -680.177 2462.1L-353.58 2453.45C-352.965 2454.86 -351.738 2455.88 -350.295 2456.27L-439.746 2669.41C-440.69 2668.99 -441.772 2668.86 -442.857 2669.1C-445.552 2669.7 -447.25 2672.38 -446.649 2675.07C-446.548 2675.52 -446.39 2675.94 -446.184 2676.33L-662.381 2787.77C-663.325 2785.63 -665.675 2784.38 -668.043 2784.91C-670.738 2785.51 -672.435 2788.19 -671.834 2790.88C-671.233 2793.58 -668.561 2795.27 -665.865 2794.67C-663.18 2794.07 -661.485 2791.42 -662.068 2788.73L-445.624 2677.17C-445.398 2677.44 -445.145 2677.69 -444.869 2677.9L-582.331 2843.52C-583.473 2842.61 -585.002 2842.21 -586.538 2842.55C-589.233 2843.15 -590.931 2845.82 -590.329 2848.52C-589.728 2851.21 -587.056 2852.91 -584.361 2852.31C-583.996 2852.23 -583.649 2852.11 -583.324 2851.96L-467.876 2976.14C-468.709 2977.26 -469.067 2978.73 -468.739 2980.2C-468.137 2982.9 -465.465 2984.59 -462.77 2983.99C-460.075 2983.39 -458.377 2980.72 -458.979 2978.02C-459.576 2975.35 -462.218 2973.65 -464.896 2974.22L-506.515 2859.51C-504.052 2858.75 -502.548 2856.21 -503.119 2853.65C-503.72 2850.96 -506.393 2849.26 -509.088 2849.86C-511.471 2850.39 -513.073 2852.54 -512.998 2854.9L-580.568 2848.52C-580.412 2847.82 -580.404 2847.08 -580.569 2846.34C-580.75 2845.53 -581.116 2844.81 -581.613 2844.22L-444.02 2678.45C-443.024 2678.95 -441.854 2679.12 -440.68 2678.86C-438.523 2678.38 -437.005 2676.57 -436.793 2674.49L-267.402 2660.1C-266.354 2661.99 -264.156 2663.05 -261.943 2662.55C-259.247 2661.95 -257.55 2659.28 -258.151 2656.58C-258.51 2654.98 -259.604 2653.72 -261.001 2653.1L-179.361 2371.74L-140.604 2388.64L-148.683 2453.98C-148.998 2453.99 -149.317 2454.03 -149.637 2454.1C-152.332 2454.7 -154.029 2457.37 -153.428 2460.07C-152.892 2462.47 -150.712 2464.08 -148.336 2463.97L-97.3331 2642.31C-99.4979 2643.24 -100.764 2645.61 -100.233 2647.99C-99.6314 2650.69 -96.9591 2652.38 -94.2639 2651.78C-91.5687 2651.18 -89.8713 2648.51 -90.4726 2645.81C-90.9363 2643.74 -92.6317 2642.25 -94.6194 2641.96L-84.6196 2413.05L-16.0688 2442.94C-16.2745 2444.71 -15.8538 2446.56 -14.7451 2448.13C-12.3557 2451.52 -7.67584 2452.32 -4.2923 2449.93C-1.35327 2447.86 -0.35907 2444.05 -1.71448 2440.87L31.3295 2414.8ZM-84.4792 2409.84L-15.1295 2440.08C-14.6024 2439.16 -13.8699 2438.33 -12.9449 2437.68C-9.95789 2435.57 -5.96063 2435.95 -3.42084 2438.4L28.0067 2413.6L-47.8576 2386.21C-48.084 2386.13 -48.22 2385.9 -48.1813 2385.66L-41.0197 2341.75L-81.5192 2342.08L-84.4792 2409.84ZM-85.6018 2412.62L-95.6185 2641.91C-95.6744 2641.91 -95.7306 2641.92 -95.7867 2641.92C-95.8253 2641.92 -95.8639 2641.93 -95.9026 2641.93C-96.0246 2641.95 -96.147 2641.96 -96.2693 2641.99C-96.306 2641.99 -96.3426 2642 -96.3793 2642.01L-147.338 2463.83C-144.713 2463.18 -143.076 2460.54 -143.668 2457.89C-144.121 2455.86 -145.753 2454.39 -147.685 2454.05L-139.648 2389.06L-85.6018 2412.62ZM-139.264 2385.95L-85.4615 2409.41L-82.5204 2342.09L-133.892 2342.51L-139.264 2385.95ZM-140.22 2385.54L-178.518 2368.84L-170.969 2342.82L-134.901 2342.52L-140.22 2385.54ZM-134.529 2339.52L-170.096 2339.81L-170.045 2339.63L-131.502 2315.04L-134.529 2339.52ZM-172.013 2342.83L-179.442 2368.43L-200.667 2359.18L-175.088 2342.85L-172.013 2342.83ZM-176.972 2342.87L-201.772 2358.7L-235.014 2344.2L-234.121 2343.34L-176.972 2342.87ZM-235.574 2343.35L-236.006 2343.77L-236.355 2343.62C-236.332 2343.53 -236.31 2343.44 -236.289 2343.36L-235.574 2343.35ZM-237.351 2346.46L-204.818 2360.64L-344.321 2449.67L-344.324 2449.67L-237.351 2346.46ZM-203.714 2361.12L-180.285 2371.34L-261.951 2652.79C-262.645 2652.64 -263.381 2652.63 -264.12 2652.79C-266.815 2653.39 -268.513 2656.07 -267.911 2658.76C-267.883 2658.89 -267.85 2659.01 -267.813 2659.13L-436.793 2673.49C-436.813 2673.29 -436.844 2673.09 -436.889 2672.89C-437.169 2671.64 -437.898 2670.6 -438.871 2669.91L-349.279 2456.44C-348.83 2456.46 -348.37 2456.43 -347.909 2456.32C-345.327 2455.75 -343.66 2453.27 -344.055 2450.69L-203.714 2361.12ZM-241.143 2348.73C-244.217 2349.79 -247.745 2348.75 -249.715 2345.96C-252.104 2342.58 -251.298 2337.9 -247.914 2335.51C-244.531 2333.12 -239.851 2333.92 -237.462 2337.31C-236.796 2338.25 -236.379 2339.29 -236.196 2340.36L-232.438 2340.33L-196.871 2306.01C-197.241 2305.72 -197.571 2305.38 -197.849 2305L-306.008 2329.13C-306.371 2331.03 -307.825 2332.63 -309.832 2333.07C-311.618 2333.47 -313.393 2332.86 -314.563 2331.62L-680.017 2460.68C-680.015 2460.76 -680.014 2460.83 -680.015 2460.91C-680.016 2460.97 -680.018 2461.03 -680.021 2461.09L-353.895 2452.45C-354.447 2449.79 -352.756 2447.16 -350.087 2446.56C-347.985 2446.09 -345.898 2447.02 -344.795 2448.73L-241.143 2348.73ZM-133.521 2339.51L-130.408 2314.34L-84.2094 2284.85L-81.8351 2301.69C-81.9531 2301.71 -82.0712 2301.73 -82.1894 2301.76C-84.8846 2302.36 -86.582 2305.03 -85.9807 2307.72C-85.4677 2310.02 -83.4465 2311.6 -81.19 2311.64L-82.3893 2339.09L-133.521 2339.51ZM-81.388 2339.08L-80.1854 2311.55L-80.1609 2311.55L-80.1167 2311.54L-80.0623 2311.53L-80.012 2311.52C-77.3168 2310.91 -75.6194 2308.24 -76.2206 2305.55C-76.7201 2303.31 -78.6486 2301.76 -80.832 2301.64L-83.2829 2284.26L-28.6185 2249.37C-27.9644 2250.07 -27.1193 2250.57 -26.1882 2250.81L-40.5297 2338.74L-81.388 2339.08ZM-39.5151 2338.74L-25.1989 2250.95C-24.7653 2250.97 -24.3221 2250.94 -23.8782 2250.84C-21.3383 2250.27 -19.6845 2247.86 -20.0056 2245.33L51.7679 2221.54L63.3216 2241.32C58.5817 2245.49 57.6523 2252.64 61.3738 2257.91C65.356 2263.55 73.1558 2264.9 78.795 2260.91C82.5302 2258.28 84.3806 2253.96 84.0472 2249.71L148.289 2234.99L142.864 2268.11C140.214 2268.74 138.556 2271.39 139.151 2274.06C139.752 2276.75 142.425 2278.45 145.12 2277.85C145.558 2277.75 145.971 2277.6 146.351 2277.4L171.501 2295.5L68.0168 2337.85L-39.5151 2338.74ZM63.2299 2340.89L-46.2964 2385.71L28.9313 2412.88L120.785 2340.41L63.2299 2340.89ZM70.7114 2337.83L172.458 2296.19L174.754 2297.84L124.628 2337.38L70.7114 2337.83ZM174.775 2294.16L148.486 2275.24C148.997 2274.24 149.175 2273.06 148.911 2271.88C148.536 2270.2 147.357 2268.91 145.869 2268.32L151.448 2234.26L214.031 2219.92L240.429 2246.03L184.428 2290.21L174.775 2294.16ZM181.582 2292.45L175.732 2294.85L177.204 2295.91L181.582 2292.45ZM194.494 2286.09L242.578 2248.15L255.633 2261.07L194.494 2286.09ZM241.22 2245.41L215.186 2219.66L297.891 2200.7L241.22 2245.41ZM211.505 2217.42L151.972 2231.07L159.375 2185.88L174.532 2180.85L211.505 2217.42ZM156.16 2186.94L148.813 2231.79L83.4537 2246.77C83.0753 2245.63 82.5246 2244.52 81.7953 2243.49C78.1395 2238.32 71.2667 2236.76 65.8015 2239.62L54.6788 2220.58L156.16 2186.94ZM54.1632 2219.7L156.343 2185.83L159.58 2166.06L99.8533 2106.99C99.2977 2107.41 98.6444 2107.73 97.9187 2107.89C96.8607 2108.12 95.8063 2108 94.8793 2107.61L31.6871 2181.22L54.1632 2219.7ZM51.2524 2220.66L-20.2302 2244.35C-20.4326 2243.75 -20.742 2243.21 -21.1316 2242.75L29.6195 2183.63L51.2524 2220.66ZM29.0858 2182.72L-21.8491 2242.05C-22.9911 2241.14 -24.5196 2240.73 -26.0556 2241.08C-28.1892 2241.55 -29.6976 2243.33 -29.9351 2245.38L-89.7286 2238.55L-99.091 2172.16L2.46588 2137.15L29.0858 2182.72ZM5.35785 2136.15L92.8211 2106C93.1475 2106.43 93.5416 2106.81 93.9844 2107.12L31.1534 2180.31L5.35785 2136.15ZM162.196 2168.65L159.557 2184.76L173.734 2180.06L162.196 2168.65ZM162.395 2167.44L168.787 2128.42L235.554 2124.28C233.607 2126.81 233.439 2130.42 235.38 2133.17C237.77 2136.55 242.449 2137.36 245.833 2134.97C249.216 2132.58 250.022 2127.9 247.633 2124.52C247.393 2124.18 247.13 2123.86 246.848 2123.58L315.962 2119.28L295.597 2137.39C294.444 2135.93 292.516 2135.17 290.575 2135.6C287.88 2136.2 286.183 2138.88 286.784 2141.57C286.856 2141.89 286.957 2142.2 287.085 2142.49L174.799 2179.71L162.395 2167.44ZM321.213 2115.95L368.548 2073.86L402.751 2104.52C401.036 2106.38 399.963 2108.67 399.591 2111.08L321.213 2115.95ZM370.805 2071.85L433.519 2016.08L585.521 1966.76C586.315 1967.65 587.413 1968.24 588.611 1968.4L565.203 2069.7L562.661 2058.31C564.566 2057.27 565.637 2055.06 565.141 2052.83C564.539 2050.14 561.867 2048.44 559.172 2049.04C556.477 2049.64 554.779 2052.31 555.381 2055.01C555.617 2056.07 556.172 2056.97 556.923 2057.64L482.404 2129.23L385.793 2135.18L402.933 2121.65C407.141 2126.04 414.038 2126.81 419.156 2123.2C424.795 2119.22 426.138 2111.42 422.156 2105.78C418.25 2100.25 410.67 2098.85 405.059 2102.56L370.805 2071.85ZM380.539 2135.5L401.129 2119.26C400.186 2117.63 399.648 2115.87 399.492 2114.1L317.579 2119.18L296.139 2138.25C296.316 2138.61 296.453 2138.99 296.544 2139.39C296.639 2139.82 296.677 2140.25 296.662 2140.66L380.539 2135.5ZM384.415 2136.26L481.29 2130.3L446.715 2163.51L342.935 2187.3L332.15 2177.49L384.415 2136.26ZM329.899 2175.45L379.161 2136.59L296.521 2141.68C296.308 2142.54 295.869 2143.33 295.256 2143.96L329.899 2175.45ZM329.103 2176.08L294.485 2144.61C293.976 2144.96 293.392 2145.22 292.753 2145.36C290.729 2145.81 288.718 2144.97 287.587 2143.38L175.597 2180.5L212.659 2217.16L303.39 2196.36L329.103 2176.08ZM331.354 2178.12L341.747 2187.57L310.217 2194.8L331.354 2178.12ZM344.452 2190.03L304.718 2199.13L243.37 2247.53L256.639 2260.66L370.769 2213.95L344.452 2190.03ZM345.639 2189.76L442.507 2167.55L415.578 2193.42C414.414 2192.07 412.559 2191.38 410.693 2191.8C407.998 2192.4 406.301 2195.07 406.902 2197.76C406.999 2198.2 407.148 2198.6 407.343 2198.98L371.794 2213.53L345.639 2189.76ZM444.403 2167.12L416.156 2194.25C416.383 2194.66 416.555 2195.11 416.662 2195.59C417.263 2198.28 415.566 2200.95 412.871 2201.56C410.959 2201.98 409.06 2201.25 407.902 2199.83L372.614 2214.27L400.787 2239.88L545.041 2156.96L548.192 2143.33L444.403 2167.12ZM448.611 2163.08L482.832 2130.2L552.212 2125.93L548.943 2140.08L448.611 2163.08ZM550.026 2139.83L553.253 2125.87L576.39 2124.44L578.374 2133.33L550.026 2139.83ZM191.647 2288.33L179.737 2297.73L219.406 2326.28L284.079 2289.2L256.406 2261.83L191.647 2288.33ZM216.547 2327.92L177.287 2299.66L129.523 2337.34L201.134 2336.75L216.547 2327.92ZM217.439 2328.56L203.174 2336.73L221.017 2336.59C221.329 2335.1 221.911 2333.67 222.748 2332.38L217.439 2328.56ZM220.298 2326.92L224.675 2330.07C225.097 2329.67 225.551 2329.3 226.037 2328.96C231.278 2325.26 238.385 2326.15 242.56 2330.83L295.436 2300.43L284.816 2289.93L220.298 2326.92ZM60.5353 2340.91L-40.0051 2341.74L-47.0505 2384.94L60.5353 2340.91ZM-465.849 2974.52C-466.352 2974.74 -466.807 2975.04 -467.201 2975.39L-582.448 2851.43C-581.772 2850.92 -581.239 2850.25 -580.894 2849.49L-512.859 2855.91C-512.27 2858.36 -509.961 2859.96 -507.506 2859.72L-465.849 2974.52ZM458.313 2455.76C457.201 2456.01 456.259 2456.61 455.578 2457.42L330.224 2333.44L331.477 2331.57C332.36 2331.91 333.349 2332 334.342 2331.78C337.037 2331.18 338.734 2328.51 338.133 2325.81C338.089 2325.61 338.034 2325.42 337.968 2325.23L425.268 2263.48L499.198 2330.68C498.691 2331.68 498.514 2332.85 498.777 2334.03C499.378 2336.72 502.051 2338.42 504.746 2337.82C507.441 2337.22 509.138 2334.55 508.537 2331.85C508.24 2330.52 507.438 2329.43 506.377 2328.75L516.698 2284.08L595.108 2328.49L463.426 2457.67C462.286 2456.13 460.306 2455.32 458.313 2455.76ZM621.631 2342.36L596.756 2328.27L617.355 2308.06L624.445 2339.84C623.182 2340.29 622.191 2341.21 621.631 2342.36ZM706.718 2218.99L617.939 2306.09L583.355 2151.07L622.162 2123.45C623.278 2124.25 624.714 2124.58 626.158 2124.26C628.853 2123.66 630.551 2120.99 629.949 2118.29C629.348 2115.6 626.676 2113.9 623.981 2114.5C621.285 2115.1 619.588 2117.77 620.189 2120.47C620.21 2120.56 620.232 2120.65 620.257 2120.74L577.181 2123.39L565.707 2071.96L589.631 1968.42C589.867 1968.41 590.105 1968.37 590.343 1968.32C590.563 1968.27 590.777 1968.2 590.983 1968.13L706.622 2211.48C705.327 2212.64 704.681 2214.46 705.088 2216.28C705.333 2217.38 705.923 2218.31 706.718 2218.99ZM707.444 2210.88L591.883 1967.69C592.784 1967.13 593.477 1966.31 593.875 1965.35L808.492 1967.92C808.95 1969.78 810.408 1971.15 812.164 1971.58L711.774 2210.53C710.883 2210.18 709.883 2210.09 708.879 2210.31C708.361 2210.43 707.879 2210.62 707.444 2210.88ZM-239.097 2221.49C-238.983 2221.12 -238.91 2220.74 -238.882 2220.35L-125.092 2181.12L-140.087 2232.8L-239.097 2221.49ZM-29.2277 2248.58L-83.4364 2283.17L-89.5844 2239.58L-29.9489 2246.39C-29.9297 2246.61 -29.8959 2246.83 -29.8469 2247.05C-29.7228 2247.6 -29.5104 2248.12 -29.2277 2248.58ZM561.349 2058.8C561.477 2058.77 561.602 2058.74 561.724 2058.7L564.682 2071.96L552.447 2124.91L483.946 2129.13L557.745 2058.24C558.795 2058.85 560.07 2059.09 561.349 2058.8ZM-100.054 2172.49L-90.7551 2238.43L-120.6 2235.03L-113.438 2177.11L-100.054 2172.49ZM-90.6108 2239.46L-84.3629 2283.76L-130.249 2313.05L-120.723 2236.02L-90.6108 2239.46ZM-169.622 2338.18L-131.343 2313.75L-121.717 2235.9L-139.361 2233.89L-169.622 2338.18ZM-139.079 2232.91L-121.594 2234.91L-114.491 2177.47L-123.935 2180.72L-139.079 2232.91ZM-123.594 2179.55L-114.354 2176.36L-108.178 2126.42L-123.594 2179.55ZM-100.196 2171.48L-106.881 2124.08L-113.302 2176L-100.196 2171.48ZM499.746 2329.83L426.104 2262.89L446.153 2248.71C447.279 2249.55 448.747 2249.9 450.222 2249.58C451.316 2249.33 452.246 2248.75 452.924 2247.96L515.79 2283.56L505.459 2328.28C504.569 2327.93 503.57 2327.84 502.568 2328.06C501.408 2328.32 500.433 2328.96 499.746 2329.83ZM425.347 2262.2L445.398 2248.02C445.17 2247.76 444.968 2247.48 444.795 2247.18L415.911 2253.63L425.347 2262.2ZM539.13 2182.55L453.908 2243.21C453.948 2243.34 453.983 2243.47 454.014 2243.61C454.292 2244.85 454.078 2246.1 453.499 2247.13L516.025 2282.55L539.13 2182.55ZM516.933 2283.06L595.851 2327.76L617.099 2306.91L582.471 2151.7L540.358 2181.67L516.933 2283.06ZM576.17 2123.45L565.186 2074.22L553.488 2124.85L576.17 2123.45Z" fill="#0A7E71"/>
</g>
</g>
<path fill-rule="evenodd" clip-rule="evenodd" d="M3303.35 518.262L3324.99 526.079L3492.84 598.767C3493.06 598.863 3493.31 598.788 3493.45 598.588L3601.67 437.738L3727.02 561.716C3726.47 562.74 3726.26 563.961 3726.54 565.188C3727.14 567.883 3729.81 569.58 3732.51 568.979C3735.2 568.378 3736.9 565.705 3736.3 563.01C3736.22 562.662 3736.11 562.33 3735.97 562.018L3868.03 432.457L3893.3 446.767C3893.11 447.507 3893.08 448.302 3893.26 449.1C3893.86 451.795 3896.53 453.492 3899.23 452.891C3901.92 452.29 3903.62 449.617 3903.02 446.922C3902.45 444.354 3899.99 442.692 3897.43 443.061L3890.21 410.695L3979.57 323.03C3980.6 323.598 3981.84 323.807 3983.07 323.531C3985.77 322.929 3987.47 320.257 3986.86 317.562C3986.57 316.222 3985.76 315.129 3984.68 314.442L4085.21 75.1779C4085.62 75.1904 4086.03 75.1524 4086.45 75.0591C4089.15 74.4579 4090.84 71.7856 4090.24 69.0904C4089.64 66.3952 4086.97 64.6978 4084.27 65.2991C4081.88 65.8335 4080.27 68.0041 4080.37 70.3727L3866.19 67.8081C3866.31 67.164 3866.3 66.4856 3866.15 65.8057C3865.55 63.1106 3862.88 61.4131 3860.18 62.0144C3857.49 62.6157 3855.79 65.288 3856.39 67.9831C3856.5 68.4823 3856.68 68.9472 3856.92 69.3696L3705.13 118.62C3705.06 118.641 3705 118.676 3704.95 118.722L3642.07 174.637L3460.21 11.6144C3461.85 9.11407 3461.89 5.76442 3460.07 3.17435C3457.68 -0.209209 3453 -1.01516 3449.61 1.37417C3446.23 3.76351 3445.42 8.44334 3447.81 11.8269C3449.96 14.8684 3453.96 15.8271 3457.2 14.2543L3558.91 131.872C3559.45 132.499 3560.4 132.567 3561.03 132.025C3561.66 131.484 3561.72 130.536 3561.18 129.91L3469.81 24.2478L3639.82 176.643L3591.61 219.509L3439.42 228.96C3438.73 229.004 3438.15 229.524 3438.04 230.215L3431.8 268.312L3372.6 209.766C3373.62 208.607 3374.09 206.996 3373.73 205.376C3373.13 202.681 3370.45 200.983 3367.76 201.584C3365.06 202.186 3363.37 204.858 3363.97 207.553C3364.05 207.913 3364.16 208.256 3364.31 208.577L3276.86 238.728L3236.72 170.018C3239.56 167.518 3240.11 163.232 3237.88 160.074C3235.49 156.69 3230.81 155.884 3227.43 158.274C3224.04 160.663 3223.24 165.343 3225.63 168.726C3227.58 171.494 3231.07 172.537 3234.12 171.518L3273.97 239.725L3172.78 274.608L3166.08 227.072C3168.43 226.239 3169.84 223.766 3169.28 221.273C3168.68 218.578 3166.01 216.88 3163.31 217.482C3160.62 218.083 3158.92 220.755 3159.52 223.45C3159.98 225.487 3161.61 226.953 3163.55 227.29L3147.27 283.406L3033.1 322.766C3033.09 322.693 3033.08 322.621 3033.06 322.549C3033.06 322.524 3033.05 322.499 3033.05 322.475C3033.04 322.439 3033.03 322.403 3033.03 322.367C3032.42 319.672 3029.75 317.975 3027.06 318.576C3024.36 319.177 3022.66 321.85 3023.27 324.545C3023.87 327.24 3026.54 328.938 3029.23 328.336C3030.68 328.014 3031.83 327.099 3032.5 325.905L3131.65 337.231L3101.12 442.452L3099.81 443.287L3041.03 443.772L3076.02 410.014C3077 410.497 3078.15 410.66 3079.31 410.403C3082 409.802 3083.7 407.129 3083.1 404.434C3082.5 401.739 3079.82 400.042 3077.13 400.643C3074.43 401.244 3072.74 403.916 3073.34 406.612C3073.41 406.94 3073.51 407.254 3073.65 407.55L2966.1 431.544C2966.09 431.22 2966.05 430.892 2965.98 430.563C2965.37 427.868 2962.7 426.171 2960.01 426.772C2957.31 427.373 2955.61 430.046 2956.22 432.741C2956.34 433.286 2956.54 433.79 2956.82 434.243L2591.86 563.127C2591.23 560.475 2588.58 558.815 2585.91 559.41C2583.22 560.012 2581.52 562.684 2582.12 565.379C2582.72 568.074 2585.39 569.772 2588.09 569.17C2589.98 568.749 2591.38 567.307 2591.84 565.553L2918.44 556.903C2919.05 558.315 2920.28 559.341 2921.72 559.73L2832.27 772.866C2831.33 772.448 2830.24 772.317 2829.16 772.559C2826.46 773.161 2824.77 775.833 2825.37 778.528C2825.47 778.978 2825.63 779.401 2825.83 779.789L2609.64 891.226C2608.69 889.088 2606.34 887.842 2603.97 888.37C2601.28 888.971 2599.58 891.643 2600.18 894.339C2600.78 897.034 2603.46 898.731 2606.15 898.13C2608.84 897.531 2610.53 894.875 2609.95 892.189L2826.39 780.625C2826.62 780.898 2826.87 781.145 2827.15 781.362L2689.69 946.977C2688.54 946.067 2687.01 945.663 2685.48 946.006C2682.78 946.607 2681.09 949.28 2681.69 951.975C2682.29 954.67 2684.96 956.367 2687.66 955.766C2688.02 955.685 2688.37 955.565 2688.69 955.413L2804.14 1079.59C2803.31 1080.72 2802.95 1082.19 2803.28 1083.66C2803.88 1086.35 2806.55 1088.05 2809.25 1087.45C2811.94 1086.85 2813.64 1084.18 2813.04 1081.48C2812.44 1078.8 2809.8 1077.11 2807.12 1077.68L2765.5 962.972C2767.97 962.21 2769.47 959.669 2768.9 957.108C2768.3 954.413 2765.62 952.716 2762.93 953.317C2760.55 953.849 2758.94 955.999 2759.02 958.353L2691.45 951.974C2691.6 951.279 2691.61 950.539 2691.45 949.797C2691.27 948.99 2690.9 948.271 2690.4 947.678L2828 781.904C2828.99 782.407 2830.16 782.581 2831.34 782.319C2833.49 781.838 2835.01 780.031 2835.22 777.947L3004.61 763.56C3005.66 765.447 3007.86 766.503 3010.07 766.01C3012.77 765.408 3014.47 762.736 3013.87 760.041C3013.51 758.434 3012.41 757.182 3011.02 756.56L3092.66 475.199L3131.41 492.099L3123.33 557.436C3123.02 557.444 3122.7 557.483 3122.38 557.555C3119.68 558.156 3117.99 560.828 3118.59 563.523C3119.12 565.925 3121.3 567.534 3123.68 567.431L3174.68 745.768C3172.52 746.699 3171.25 749.065 3171.78 751.449C3172.39 754.144 3175.06 755.841 3177.75 755.24C3180.45 754.639 3182.15 751.967 3181.54 749.271C3181.08 747.193 3179.39 745.708 3177.4 745.413L3187.4 516.51L3255.95 546.401C3255.74 548.171 3256.16 550.02 3257.27 551.59C3259.66 554.974 3264.34 555.78 3267.72 553.39C3270.66 551.315 3271.66 547.511 3270.3 544.33L3303.35 518.262ZM3857.08 235.258C3857.11 232.941 3858.22 230.67 3860.25 229.231C3863.64 226.842 3868.32 227.648 3870.71 231.031C3873.1 234.415 3872.29 239.095 3868.91 241.484C3865.62 243.805 3861.11 243.111 3858.66 239.968L3852.87 243.299L3855.14 253.468L3893.41 226.227C3893.12 225.913 3892.87 225.561 3892.66 225.175L3849.42 227.838L3851.37 236.568L3857.08 235.258ZM3852.02 239.496L3854.42 238.945L3852.18 240.232L3852.02 239.496ZM3851.27 240.754L3851.04 239.719L3821.29 246.538L3818.24 259.741L3851.27 240.754ZM3851.96 243.821L3854.25 254.097L3812.71 283.663L3817.32 263.732L3851.96 243.821ZM3816.14 264.412L3811.49 284.537L3725.52 345.724C3724.47 343.836 3722.28 342.779 3720.06 343.273C3717.37 343.874 3715.67 346.547 3716.27 349.242C3716.31 349.401 3716.35 349.556 3716.4 349.708L3687.02 356.262L3675.14 345.457L3816.14 264.412ZM3674.22 345.981L3685.83 356.528L3636.87 367.449L3674.22 345.981ZM3627.04 369.644L3671.89 343.861L3643.61 318.15L3529.43 364.877L3557 392.143L3572.58 383.209C3572.23 382.697 3571.97 382.111 3571.82 381.467C3571.22 378.772 3572.92 376.1 3575.61 375.499C3578.31 374.897 3580.98 376.595 3581.58 379.29C3581.62 379.449 3581.65 379.608 3581.66 379.766L3627.04 369.644ZM3633.96 369.124L3686.73 357.351L3696.53 366.252L3609.55 427.774C3608.47 425.983 3606.33 424.997 3604.18 425.477C3601.49 426.079 3599.79 428.751 3600.39 431.446C3600.69 432.795 3601.51 433.894 3602.59 434.58L3601.52 436.177L3570.56 405.563L3633.96 369.124ZM3568.35 403.375L3624.12 371.319L3581.69 380.786C3581.51 382.912 3579.98 384.77 3577.79 385.259C3576.09 385.637 3574.41 385.104 3573.24 383.984L3557.73 392.873L3568.35 403.375ZM3569.67 406.08L3600.95 437.022L3492.85 597.685L3326.29 525.551L3469.88 443.236L3492.77 443.047C3492.85 445.404 3493.59 447.765 3495.05 449.835C3499.04 455.475 3506.84 456.818 3512.47 452.836C3517.68 449.16 3519.22 442.233 3516.3 436.754L3569.67 406.08ZM3467.84 443.253L3325.13 525.065L3304.27 517.533L3397.7 443.831L3467.84 443.253ZM3187.54 513.298L3256.89 543.538C3257.41 542.615 3258.15 541.791 3259.07 541.137C3262.06 539.028 3266.06 539.409 3268.6 541.855L3300.02 517.062L3224.16 489.669C3223.93 489.587 3223.8 489.356 3223.84 489.118L3231 445.206L3190.5 445.54L3187.54 513.298ZM3186.41 516.082L3176.4 745.367C3176.34 745.37 3176.29 745.374 3176.23 745.379C3176.19 745.382 3176.15 745.386 3176.11 745.39C3175.99 745.404 3175.87 745.422 3175.75 745.445C3175.71 745.452 3175.67 745.459 3175.64 745.467L3124.68 567.286C3127.3 566.633 3128.94 564 3128.35 561.346C3127.9 559.313 3126.26 557.848 3124.33 557.508L3132.37 492.516L3186.41 516.082ZM3132.75 489.41L3186.56 512.87L3189.5 445.548L3138.12 445.971L3132.75 489.41ZM3131.8 488.993L3093.5 472.294L3101.05 446.277L3137.12 445.98L3131.8 488.993ZM3137.49 442.977L3101.92 443.27L3101.97 443.092L3140.51 418.493L3137.49 442.977ZM3100 446.286L3092.57 471.891L3071.35 462.636L3096.93 446.311L3100 446.286ZM3095.05 446.327L3070.25 462.155L3037 447.659L3037.9 446.798L3095.05 446.327ZM3036.44 446.81L3036.01 447.227L3035.66 447.075C3035.69 446.989 3035.71 446.902 3035.73 446.816L3036.44 446.81ZM3034.67 449.914L3067.2 464.099L2927.7 553.132L2927.69 553.124L3034.67 449.914ZM3068.3 464.58L3091.73 474.796L3010.07 756.246C3009.37 756.093 3008.64 756.085 3007.9 756.25C3005.2 756.851 3003.5 759.523 3004.11 762.218C3004.13 762.345 3004.17 762.469 3004.2 762.592L2835.22 776.943C2835.2 776.746 2835.17 776.549 2835.13 776.351C2834.85 775.095 2834.12 774.056 2833.15 773.365L2922.74 559.893C2923.19 559.918 2923.65 559.883 2924.11 559.78C2926.69 559.204 2928.36 556.726 2927.96 554.148L3068.3 464.58ZM3030.87 452.183C3027.8 453.244 3024.27 452.207 3022.3 449.417C3019.91 446.034 3020.72 441.354 3024.1 438.964C3027.49 436.575 3032.17 437.381 3034.56 440.765C3035.22 441.707 3035.64 442.749 3035.82 443.815L3039.58 443.784L3075.15 409.468C3074.78 409.181 3074.45 408.842 3074.17 408.458L2966.01 432.588C2965.65 434.487 2964.19 436.084 2962.18 436.532C2960.4 436.93 2958.62 436.32 2957.45 435.079L2592 564.139C2592 564.215 2592 564.29 2592 564.365C2592 564.426 2592 564.488 2592 564.549L2918.12 555.911C2917.57 553.243 2919.26 550.616 2921.93 550.02C2924.03 549.551 2926.12 550.48 2927.22 552.189L3030.87 452.183ZM3138.5 442.968L3141.61 417.795L3187.81 388.31L3190.18 405.147C3190.06 405.165 3189.95 405.187 3189.83 405.213C3187.13 405.814 3185.43 408.487 3186.04 411.182C3186.55 413.482 3188.57 415.055 3190.83 415.094L3189.63 442.547L3138.5 442.968ZM3190.63 442.538L3191.83 415.009L3191.86 415.004L3191.9 414.995L3191.95 414.984L3192 414.973C3194.7 414.372 3196.4 411.7 3195.8 409.004C3195.3 406.766 3193.37 405.215 3191.18 405.099L3188.73 387.719L3243.4 352.831C3244.05 353.529 3244.9 354.029 3245.83 354.264L3231.49 442.201L3190.63 442.538ZM3232.5 442.193L3246.82 354.411C3247.25 354.43 3247.69 354.394 3248.14 354.295C3250.68 353.728 3252.33 351.322 3252.01 348.791L3323.78 325.001L3335.34 344.779C3330.6 348.944 3329.67 356.1 3333.39 361.37C3337.37 367.01 3345.17 368.353 3350.81 364.371C3354.55 361.733 3356.4 357.421 3356.06 353.171L3420.31 338.446L3414.88 371.564C3412.23 372.2 3410.57 374.846 3411.17 377.515C3411.77 380.21 3414.44 381.908 3417.14 381.306C3417.58 381.208 3417.99 381.056 3418.37 380.857L3443.52 398.956L3340.03 441.306L3232.5 442.193ZM3335.25 444.346L3225.72 489.17L3300.95 516.333L3392.8 443.871L3335.25 444.346ZM3342.73 441.284L3444.47 399.644L3446.77 401.297L3396.65 440.84L3342.73 441.284ZM3446.79 397.616L3420.5 378.697C3421.01 377.697 3421.19 376.519 3420.93 375.338C3420.55 373.658 3419.37 372.365 3417.89 371.776L3423.46 337.722L3486.05 323.378L3512.45 349.487L3456.44 393.665L3446.79 397.616ZM3453.6 395.91L3447.75 398.304L3449.22 399.364L3453.6 395.91ZM3466.51 389.546L3514.6 351.613L3527.65 364.524L3466.51 389.546ZM3513.24 348.863L3487.2 323.113L3569.91 304.157L3513.24 348.863ZM3483.52 320.879L3423.99 334.524L3431.39 289.334L3446.55 284.31L3483.52 320.879ZM3428.18 290.399L3420.83 335.248L3355.47 350.229C3355.09 349.088 3354.54 347.982 3353.81 346.949C3350.16 341.773 3343.28 340.216 3337.82 343.077L3326.7 324.036L3428.18 290.399ZM3326.18 323.154L3428.36 289.286L3431.6 269.522L3371.87 210.448C3371.31 210.871 3370.66 211.183 3369.94 211.345C3368.88 211.581 3367.82 211.462 3366.9 211.069L3303.7 284.679L3326.18 323.154ZM3323.27 324.119L3251.79 347.812C3251.58 347.211 3251.27 346.67 3250.89 346.205L3301.64 287.087L3323.27 324.119ZM3301.1 286.174L3250.17 345.506C3249.03 344.596 3247.5 344.192 3245.96 344.535C3243.83 345.011 3242.32 346.785 3242.08 348.84L3182.29 342.01L3172.93 275.617L3274.48 240.605L3301.1 286.174ZM3277.37 239.608L3364.84 209.455C3365.16 209.892 3365.56 210.27 3366 210.576L3303.17 283.765L3277.37 239.608ZM3434.21 272.11L3431.57 288.22L3445.75 283.521L3434.21 272.11ZM3434.41 270.899L3440.8 231.881L3507.57 227.734C3505.62 230.271 3505.46 233.877 3507.4 236.626C3509.79 240.01 3514.47 240.816 3517.85 238.426C3521.23 236.037 3522.04 231.357 3519.65 227.973C3519.41 227.634 3519.15 227.32 3518.86 227.033L3587.98 222.741L3567.61 240.851C3566.46 239.386 3564.53 238.627 3562.59 239.06C3559.9 239.661 3558.2 242.334 3558.8 245.029C3558.87 245.351 3558.97 245.659 3559.1 245.95L3446.82 283.168L3434.41 270.899ZM3593.23 219.409L3640.57 177.315L3674.77 207.975C3673.05 209.833 3671.98 212.132 3671.61 214.541L3593.23 219.409ZM3642.82 175.309L3705.54 119.539L3857.54 70.2221C3858.33 71.1119 3859.43 71.6989 3860.63 71.8543L3837.22 173.162L3834.68 161.766C3836.58 160.725 3837.65 158.515 3837.16 156.29C3836.56 153.595 3833.88 151.897 3831.19 152.499C3828.49 153.1 3826.8 155.772 3827.4 158.467C3827.63 159.526 3828.19 160.43 3828.94 161.102L3754.42 232.685L3657.81 238.634L3674.95 225.112C3679.16 229.5 3686.05 230.272 3691.17 226.658C3696.81 222.676 3698.15 214.876 3694.17 209.237C3690.27 203.706 3682.69 202.308 3677.08 206.015L3642.82 175.309ZM3652.56 238.957L3673.15 222.714C3672.2 221.092 3671.66 219.33 3671.51 217.553L3589.6 222.64L3568.16 241.707C3568.33 242.063 3568.47 242.446 3568.56 242.851C3568.66 243.278 3568.69 243.704 3568.68 244.122L3652.56 238.957ZM3656.43 239.721L3753.31 233.756L3718.73 266.968L3614.95 290.755L3604.17 280.952L3656.43 239.721ZM3601.92 278.906L3651.18 240.044L3568.54 245.133C3568.33 245.995 3567.89 246.784 3567.27 247.419L3601.92 278.906ZM3601.12 279.534L3566.5 248.07C3565.99 248.418 3565.41 248.677 3564.77 248.82C3562.75 249.272 3560.73 248.427 3559.6 246.837L3447.61 283.957L3484.68 320.614L3575.41 299.819L3601.12 279.534ZM3603.37 281.58L3613.76 291.027L3582.23 298.254L3603.37 281.58ZM3616.47 293.485L3576.73 302.592L3515.39 350.988L3528.66 364.113L3642.79 317.405L3616.47 293.485ZM3617.66 293.213L3714.52 271.01L3687.59 296.878C3686.43 295.523 3684.58 294.837 3682.71 295.254C3680.02 295.855 3678.32 298.527 3678.92 301.222C3679.02 301.655 3679.17 302.061 3679.36 302.437L3643.81 316.985L3617.66 293.213ZM3716.42 270.576L3688.17 297.709C3688.4 298.118 3688.57 298.566 3688.68 299.045C3689.28 301.74 3687.58 304.412 3684.89 305.014C3682.98 305.44 3681.08 304.71 3679.92 303.289L3644.63 317.73L3672.8 343.338L3817.06 260.422L3820.21 246.787L3716.42 270.576ZM3720.63 266.533L3754.85 233.661L3824.23 229.389L3820.96 243.537L3720.63 266.533ZM3822.04 243.288L3825.27 229.325L3848.41 227.9L3850.39 236.791L3822.04 243.288ZM3463.66 391.791L3451.75 401.187L3491.42 429.734L3556.1 392.659L3528.42 365.289L3463.66 391.791ZM3488.56 431.373L3449.3 403.12L3401.54 440.799L3473.15 440.209L3488.56 431.373ZM3489.46 432.014L3475.19 440.192L3493.03 440.045C3493.35 438.56 3493.93 437.131 3494.77 435.835L3489.46 432.014ZM3492.31 430.375L3496.69 433.526C3497.11 433.129 3497.57 432.758 3498.05 432.414C3503.29 428.713 3510.4 429.612 3514.58 434.285L3567.45 403.892L3556.83 393.389L3492.31 430.375ZM3332.55 444.368L3232.01 445.197L3224.97 488.398L3332.55 444.368ZM2806.17 1077.98C2805.66 1078.2 2805.21 1078.5 2804.82 1078.85L2689.57 954.887C2690.24 954.379 2690.78 953.709 2691.12 952.948L2759.16 959.37C2759.75 961.819 2762.06 963.42 2764.51 963.173L2806.17 1077.98ZM3730.33 559.219C3729.22 559.467 3728.28 560.067 3727.59 560.876L3602.24 436.893L3603.49 435.032C3604.38 435.369 3605.37 435.459 3606.36 435.237C3609.05 434.636 3610.75 431.964 3610.15 429.269C3610.11 429.071 3610.05 428.879 3609.98 428.692L3697.29 366.941L3771.21 434.136C3770.71 435.135 3770.53 436.309 3770.79 437.487C3771.4 440.182 3774.07 441.88 3776.76 441.278C3779.46 440.677 3781.16 438.005 3780.55 435.31C3780.26 433.978 3779.45 432.89 3778.39 432.203L3788.71 387.534L3867.12 431.944L3735.44 561.13C3734.3 559.587 3732.32 558.774 3730.33 559.219ZM3893.65 445.817L3868.77 431.728L3889.37 411.52L3896.46 443.301C3895.2 443.749 3894.21 444.672 3893.65 445.817ZM3978.73 322.45L3889.96 409.546L3855.37 254.527L3894.18 226.906C3895.29 227.703 3896.73 228.04 3898.17 227.718C3900.87 227.117 3902.57 224.444 3901.97 221.749C3901.36 219.054 3898.69 217.356 3896 217.958C3893.3 218.559 3891.6 221.231 3892.21 223.926C3892.23 224.018 3892.25 224.108 3892.27 224.197L3849.2 226.849L3837.72 175.422L3861.65 71.8808C3861.88 71.8627 3862.12 71.8275 3862.36 71.7745C3862.58 71.7253 3862.79 71.6622 3863 71.5864L3978.64 314.934C3977.34 316.102 3976.7 317.915 3977.1 319.739C3977.35 320.838 3977.94 321.771 3978.73 322.45ZM3979.46 314.333L3863.9 71.1491C3864.8 70.5923 3865.49 69.7654 3865.89 68.8046L4080.51 71.3745C4080.97 73.2401 4082.42 74.6096 4084.18 75.0384L3983.79 313.988C3982.9 313.641 3981.9 313.547 3980.9 313.771C3980.38 313.886 3979.9 314.079 3979.46 314.333ZM3032.92 324.946C3033.03 324.581 3033.11 324.2 3033.13 323.811L3146.92 284.581L3131.93 336.257L3032.92 324.946ZM3242.79 352.034L3188.58 386.631L3182.43 343.033L3242.07 349.845C3242.09 350.064 3242.12 350.284 3242.17 350.503C3242.29 351.06 3242.51 351.574 3242.79 352.034ZM3833.37 162.259C3833.49 162.23 3833.62 162.197 3833.74 162.16L3836.7 175.418L3824.46 228.372L3755.96 232.59L3829.76 161.7C3830.81 162.311 3832.09 162.544 3833.37 162.259ZM3171.96 275.949L3181.26 341.892L3151.42 338.483L3158.58 280.563L3171.96 275.949ZM3181.41 342.915L3187.65 387.222L3141.77 416.507L3151.29 339.475L3181.41 342.915ZM3102.39 441.636L3140.67 417.205L3150.3 339.362L3132.66 337.346L3102.39 441.636ZM3132.94 336.372L3150.42 338.369L3157.53 280.926L3148.08 284.182L3132.94 336.372ZM3148.42 283.007L3157.66 279.821L3163.84 229.878L3148.42 283.007ZM3171.82 274.94L3165.14 227.536L3158.72 279.458L3171.82 274.94ZM3771.76 433.283L3698.12 366.349L3718.17 352.168C3719.3 353.003 3720.76 353.362 3722.24 353.033C3723.33 352.789 3724.26 352.204 3724.94 351.414L3787.81 387.02L3777.48 431.734C3776.59 431.389 3775.59 431.295 3774.59 431.518C3773.42 431.777 3772.45 432.42 3771.76 433.283ZM3697.36 365.66L3717.41 351.477C3717.19 351.222 3716.98 350.942 3716.81 350.64L3687.93 357.084L3697.36 365.66ZM3811.15 286.006L3725.92 346.665C3725.96 346.796 3726 346.929 3726.03 347.064C3726.31 348.312 3726.09 349.556 3725.52 350.591L3788.04 386.004L3811.15 286.006ZM3788.95 386.518L3867.87 431.215L3889.12 410.37L3854.49 255.157L3812.38 285.132L3788.95 386.518ZM3848.19 226.912L3837.2 177.678L3825.5 228.308L3848.19 226.912Z" fill="#0A7E71"/>
<defs>
<filter id="filter0_f_2202_8572" x="614" y="391" width="2893" height="2893" filterUnits="userSpaceOnUse" color-interpolation-filters="sRGB">
<feFlood flood-opacity="0" result="BackgroundImageFix"/>
<feBlend mode="normal" in="SourceGraphic" in2="BackgroundImageFix" result="shape"/>
<feGaussianBlur stdDeviation="500" result="effect1_foregroundBlur_2202_8572"/>
</filter>
<filter id="filter1_f_2202_8572" x="-17" y="1981" width="2893" height="2893" filterUnits="userSpaceOnUse" color-interpolation-filters="sRGB">
<feFlood flood-opacity="0" result="BackgroundImageFix"/>
<feBlend mode="normal" in="SourceGraphic" in2="BackgroundImageFix" result="shape"/>
<feGaussianBlur stdDeviation="500" result="effect1_foregroundBlur_2202_8572"/>
</filter>
<filter id="filter2_f_2202_8572" x="505" y="1821" width="2893" height="2893" filterUnits="userSpaceOnUse" color-interpolation-filters="sRGB">
<feFlood flood-opacity="0" result="BackgroundImageFix"/>
<feBlend mode="normal" in="SourceGraphic" in2="BackgroundImageFix" result="shape"/>
<feGaussianBlur stdDeviation="500" result="effect1_foregroundBlur_2202_8572"/>
</filter>
<filter id="filter3_f_2202_8572" x="-1608" y="403" width="2893" height="2893" filterUnits="userSpaceOnUse" color-interpolation-filters="sRGB">
<feFlood flood-opacity="0" result="BackgroundImageFix"/>
<feBlend mode="normal" in="SourceGraphic" in2="BackgroundImageFix" result="shape"/>
<feGaussianBlur stdDeviation="500" result="effect1_foregroundBlur_2202_8572"/>
</filter>
<filter id="filter4_f_2202_8572" x="1527.85" y="2679.85" width="250.361" height="250.361" filterUnits="userSpaceOnUse" color-interpolation-filters="sRGB">
<feFlood flood-opacity="0" result="BackgroundImageFix"/>
<feBlend mode="normal" in="SourceGraphic" in2="BackgroundImageFix" result="shape"/>
<feGaussianBlur stdDeviation="5" result="effect1_foregroundBlur_2202_8572"/>
</filter>
<filter id="filter5_f_2202_8572" x="-692.018" y="1894.54" width="1512.37" height="1091.57" filterUnits="userSpaceOnUse" color-interpolation-filters="sRGB">
<feFlood flood-opacity="0" result="BackgroundImageFix"/>
<feBlend mode="normal" in="SourceGraphic" in2="BackgroundImageFix" result="shape"/>
<feGaussianBlur stdDeviation="1" result="effect1_foregroundBlur_2202_8572"/>
</filter>
<linearGradient id="paint0_linear_2202_8572" x1="1653.03" y1="2689.88" x2="1653.03" y2="2920.18" gradientUnits="userSpaceOnUse">
<stop stop-color="#04BFAD"/>
<stop offset="0.125" stop-color="#0B8C75"/>
<stop offset="0.4375" stop-color="#020F0D"/>
</linearGradient>
<linearGradient id="paint1_linear_2202_8572" x1="1393.5" y1="2714" x2="1393.5" y2="3821" gradientUnits="userSpaceOnUse">
<stop stop-color="#118AB2"/>
<stop offset="0.15625" stop-color="#0A4F63"/>
<stop offset="0.348958" stop-color="#031311"/>
</linearGradient>
<linearGradient id="paint2_linear_2202_8572" x1="472" y1="2714" x2="558" y2="2800" gradientUnits="userSpaceOnUse">
<stop stop-color="#05F2DB"/>
<stop offset="1" stop-color="#FCFCFC"/>
</linearGradient>
<linearGradient id="paint3_linear_2202_8572" x1="472" y1="2714" x2="515.754" y2="2757.75" gradientUnits="userSpaceOnUse">
<stop stop-color="#F0F0F0" stop-opacity="0"/>
<stop stop-color="#F0F0F0" stop-opacity="0"/>
<stop offset="0.0001" stop-color="#F0F0F0" stop-opacity="0.3"/>
<stop offset="1" stop-color="#F0F0F0" stop-opacity="0"/>
</linearGradient>
<linearGradient id="paint4_linear_2202_8572" x1="1235" y1="2612" x2="1258.4" y2="2635.4" gradientUnits="userSpaceOnUse">
<stop stop-color="#F0F0F0" stop-opacity="0"/>
<stop stop-color="#F0F0F0" stop-opacity="0"/>
<stop offset="0.0001" stop-color="#F0F0F0" stop-opacity="0.3"/>
<stop offset="1" stop-color="#F0F0F0" stop-opacity="0"/>
</linearGradient>
<linearGradient id="paint5_linear_2202_8572" x1="660" y1="2993" x2="675.772" y2="3008.77" gradientUnits="userSpaceOnUse">
<stop stop-color="#F0F0F0" stop-opacity="0"/>
<stop stop-color="#F0F0F0" stop-opacity="0"/>
<stop offset="0.0001" stop-color="#F0F0F0" stop-opacity="0.3"/>
<stop offset="1" stop-color="#F0F0F0" stop-opacity="0"/>
</linearGradient>
<linearGradient id="paint6_linear_2202_8572" x1="619" y1="3061" x2="627.649" y2="3069.65" gradientUnits="userSpaceOnUse">
<stop stop-color="#F0F0F0" stop-opacity="0"/>
<stop stop-color="#F0F0F0" stop-opacity="0"/>
<stop offset="0.0001" stop-color="#F0F0F0" stop-opacity="0.3"/>
<stop offset="1" stop-color="#F0F0F0" stop-opacity="0"/>
</linearGradient>
<linearGradient id="paint7_linear_2202_8572" x1="1295" y1="2409" x2="1352" y2="2466" gradientUnits="userSpaceOnUse">
<stop stop-color="#05F2DB"/>
<stop offset="1" stop-color="#FCFCFC"/>
</linearGradient>
<linearGradient id="paint8_linear_2202_8572" x1="1295" y1="2409" x2="1324" y2="2438" gradientUnits="userSpaceOnUse">
<stop stop-color="#F0F0F0" stop-opacity="0"/>
<stop stop-color="#F0F0F0" stop-opacity="0"/>
<stop offset="0.0001" stop-color="#F0F0F0" stop-opacity="0.3"/>
<stop offset="1" stop-color="#F0F0F0" stop-opacity="0"/>
</linearGradient>
</defs>
</svg>
